<?xml version="1.0" encoding="utf-8"?>
<!-- Generator: Adobe Illustrator 25.0.0, SVG Export Plug-In . SVG Version: 6.00 Build 0)  -->
<svg version="1.1" id="Layer_1" xmlns="http://www.w3.org/2000/svg" xmlns:xlink="http://www.w3.org/1999/xlink" x="0px" y="0px"
	 viewBox="0 0 223.27 127.53" style="enable-background:new 0 0 223.27 127.53;" xml:space="preserve">
<style type="text/css">
	.st0{fill:#FFFFFF;}
	.st1{fill-rule:evenodd;clip-rule:evenodd;fill:#233D7D;}
	.st2{fill-rule:evenodd;clip-rule:evenodd;fill:#FFFFFF;}
	.st3{fill-rule:evenodd;clip-rule:evenodd;fill:#00AECA;}
</style>
<g>
	<g>
		<path class="st0" d="M0,0h77.75v88.63c0,21.44-17.46,38.9-38.85,38.9c-21.44,0-38.9-17.47-38.9-38.9V0z"/>
		<path class="st1" d="M74.88,12.42H2.87v76.21c0,19.86,16.18,36.04,36.04,36.04c19.8,0,35.98-16.18,35.98-36.04V12.42H74.88z"/>
		<polygon class="st2" points="56.39,57.63 59.65,60.57 65.79,60.57 69.05,57.63 69.05,57.63 		"/>
		<polygon class="st2" points="15.04,22.06 12.03,38.39 18.05,38.39 		"/>
		<polygon class="st2" points="59.66,53.44 59.66,53.44 56.39,53.44 56.39,55.95 69.05,55.95 69.05,53.44 65.79,53.44 65.79,53.44 
					"/>
		<polygon class="st2" points="21.39,57.63 21.39,57.63 8.69,57.63 8.69,57.63 11.95,60.56 18.1,60.56 		"/>
		<rect x="59.66" y="62.15" class="st2" width="6.13" height="5.77"/>
		<polygon class="st2" points="18.09,62.04 11.96,62.04 11.99,67.92 18.09,67.92 		"/>
		<path class="st2" d="M59.66,73.79h-1.93v-4.17h-1.9v1.12H53.9v-1.12H23.88v1.12h-1.91v-1.12h-1.93v4.17H18.1V69.6h-6.13L12,89.91
			c0,9.59,5.15,18.47,13.48,23.29c-5.48-4.19-8.69-10.68-8.69-17.54c0-11.08,8.33-20.46,19.26-21.87h5.7
			c10.89,1.41,19.22,10.79,19.22,21.87c0,6.87-3.21,13.35-8.66,17.54c8.3-4.82,13.45-13.7,13.48-23.29V69.6h-6.13L59.66,73.79
			L59.66,73.79z"/>
		<rect x="8.69" y="53.44" class="st2" width="12.69" height="2.51"/>
		<polygon class="st2" points="18.09,40.07 11.99,40.07 11.96,51.79 18.09,51.79 		"/>
		<rect x="59.66" y="40.07" class="st2" width="6.13" height="11.69"/>
		<polygon class="st2" points="62.71,22.06 59.7,38.39 65.74,38.39 		"/>
		<polygon class="st3" points="33.05,81.63 44.7,81.63 45.71,101.26 32.07,101.26 		"/>
		<polygon class="st2" points="38.9,92.43 41.73,101.18 50.89,101.18 43.48,106.57 46.28,115.31 38.9,109.92 31.47,115.31 
			34.3,106.57 26.89,101.18 36.07,101.18 		"/>
		<polygon class="st3" points="48.71,77.71 48.71,78.85 46.23,78.85 46.23,80.51 31.55,80.51 31.55,78.85 29.04,78.85 29.04,77.71 
					"/>
		<polygon class="st3" points="33.05,75.09 25.77,70.74 52,70.74 44.62,75.09 44.62,76.59 33.05,76.59 		"/>
		<path class="st3" d="M39.53,52.54c7.95,0.36,14.36,6.95,14.36,15.01H23.87c0-8.06,6.4-14.65,14.38-15.01l0.65-4.68L39.53,52.54z"
			/>
		<rect x="21.96" y="71.85" class="st1" width="1.91" height="1.93"/>
		<rect x="53.89" y="71.85" class="st1" width="1.93" height="1.93"/>
		<polygon class="st2" points="24.19,41.11 19.7,37.59 25.45,39.22 27.08,37.2 28.8,40.42 34.59,42.31 30.02,42.87 31.69,46.55 
			26.78,43.18 22.53,43.45 		"/>
		<polygon class="st2" points="35.74,35.98 40.74,37.27 42.03,35.68 43.27,38.27 47.99,39.82 44.28,40.22 45.74,43.29 41.67,40.38 
			38.22,40.76 39.46,38.86 		"/>
		<polygon class="st2" points="46.63,32.32 50.47,33.36 51.44,31.72 52.6,34 56.32,35.21 53.46,35.54 54.48,37.91 51.4,35.8 
			48.57,36.16 49.52,34.57 		"/>
		<polygon class="st2" points="51.28,26.77 54.43,27.5 55.16,26.25 56.28,28 59.29,28.73 56.92,29.19 57.94,31.01 55.31,29.4 
			53,29.78 53.67,28.5 		"/>
		<polygon class="st2" points="49.12,21.74 51.42,22.07 51.94,21.26 52.7,22.4 54.97,22.83 53.27,23.19 54.07,24.54 52.11,23.45 
			50.35,23.94 50.89,22.9 		"/>
		<path class="st1" d="M47.73,8.19h-4.34l-0.51,0.96h-2.94l3.92-6.97h3.49l3.92,6.97h-3.03L47.73,8.19z M44.05,7h3.05l-1.55-2.81
			L44.05,7z M10.68,8.19H6.33L5.81,9.15H2.87l3.92-6.97h3.49l3.95,6.97h-3.02L10.68,8.19z M6.98,7.02h3.05L8.51,4.19L6.98,7.02z
			 M71.37,8.19h-4.39l-0.49,0.96h-2.94l3.92-6.97h3.49l3.92,6.97h-3.02L71.37,8.19z M67.64,7.02h3.08L69.2,4.19L67.64,7.02z
			 M15.75,2.17h3l3.94,3.87V2.17h3.05v6.97h-3.05l-3.9-3.81v3.81h-3.05L15.75,2.17L15.75,2.17z M28.31,2.2h3.22v2.62l3.76-2.64
			l3.92,0.03l-3.82,2.62l3.98,4.33h-3.81l-2.5-2.78l-1.53,1.06v1.72h-3.22L28.31,2.2L28.31,2.2z M60.86,5.82
			c1.01,0.3,1.72,1.12,1.85,2.18l0.11,1.15h-3.38l-0.1-1.17c-0.11-1.06-0.41-1.67-1.66-1.67h-1.61v2.84h-3.24V2.17h6.34
			c0.74,0,1.66,0.06,2.31,0.43c0.49,0.27,0.85,0.71,0.88,1.45C62.35,4.95,61.62,5.58,60.86,5.82 M56.06,5.01h1.36
			c0.38,0,1.06,0,1.36-0.27C58.92,4.63,59,4.44,59,4.3c0-0.22-0.11-0.41-0.32-0.52c-0.22-0.14-0.63-0.19-1.2-0.19h-1.42V5.01z"/>
	</g>
	<g>
		<g>
			<g>
				<path class="st0" d="M101.12,45.57c0.04-0.16,0.14-0.23,0.3-0.23h3.81c0.16,0,0.26,0.07,0.31,0.23l5.38,15.45
					c0.04,0.16,0,0.23-0.16,0.23h-3.86c-0.16,0-0.26-0.07-0.3-0.23l-0.75-2.46h-5.17l-0.75,2.46c-0.04,0.16-0.14,0.23-0.3,0.23
					h-3.84c-0.16,0-0.21-0.07-0.16-0.23L101.12,45.57z M104.82,55.14l-1.47-4.96h-0.07l-1.54,4.96H104.82z"/>
				<path class="st0" d="M111.54,45.57c0-0.16,0.07-0.23,0.23-0.23h3.44c0.21,0,0.33,0.07,0.39,0.23l4.8,9.01h0.09v-9.01
					c0-0.16,0.07-0.23,0.23-0.23H124c0.16,0,0.23,0.07,0.23,0.23v15.45c0,0.16-0.07,0.23-0.23,0.23h-3.44
					c-0.21,0-0.33-0.07-0.39-0.23l-4.75-8.99h-0.14v8.99c0,0.16-0.07,0.23-0.23,0.23h-3.27c-0.16,0-0.23-0.07-0.23-0.23
					C111.54,61.01,111.54,45.57,111.54,45.57z"/>
				<path class="st0" d="M125.88,45.57c0-0.16,0.07-0.23,0.23-0.23h3.65c0.16,0,0.23,0.07,0.23,0.23v6.23l4.57-6.24
					c0.12-0.14,0.23-0.21,0.39-0.21h4.12c0.19,0,0.23,0.14,0.14,0.3l-4.75,6.15l5.03,9.2c0.07,0.12,0.03,0.26-0.14,0.26h-4.19
					c-0.19,0-0.31-0.07-0.38-0.21l-3.09-5.99l-1.7,2.27v3.7c0,0.16-0.07,0.23-0.23,0.23h-3.65c-0.16,0-0.23-0.07-0.23-0.23
					L125.88,45.57L125.88,45.57z"/>
				<path class="st0" d="M144.76,45.57c0.04-0.16,0.14-0.23,0.3-0.23h3.81c0.16,0,0.26,0.07,0.31,0.23l5.38,15.45
					c0.04,0.16,0,0.23-0.16,0.23h-3.86c-0.16,0-0.26-0.07-0.3-0.23l-0.75-2.46h-5.17l-0.75,2.46c-0.04,0.16-0.14,0.23-0.3,0.23
					h-3.84c-0.16,0-0.21-0.07-0.16-0.23L144.76,45.57z M148.46,55.14l-1.47-4.96h-0.07l-1.54,4.96H148.46z"/>
				<path class="st0" d="M163.71,61.25c-0.16,0-0.28-0.07-0.35-0.23l-2.41-5.43h-1.52c-0.09,0-0.14,0.04-0.14,0.14v5.29
					c0,0.16-0.07,0.23-0.23,0.23h-3.65c-0.16,0-0.23-0.07-0.23-0.23V45.57c0-0.16,0.07-0.23,0.23-0.23h6.48
					c3.65,0,5.73,2.13,5.73,5.12c0,1.99-0.93,3.61-2.62,4.45l2.92,6.06c0.07,0.16,0,0.28-0.16,0.28L163.71,61.25L163.71,61.25z
					 M161.63,52.19c1.19,0,1.88-0.65,1.88-1.69c0-1.03-0.68-1.69-1.88-1.69h-2.2c-0.09,0-0.14,0.04-0.14,0.14v3.09
					c0,0.09,0.04,0.14,0.14,0.14L161.63,52.19L161.63,52.19z"/>
				<path class="st0" d="M173.43,45.57c0.04-0.16,0.14-0.23,0.3-0.23h3.81c0.16,0,0.26,0.07,0.31,0.23l5.38,15.45
					c0.04,0.16,0,0.23-0.16,0.23h-3.86c-0.16,0-0.26-0.07-0.3-0.23l-0.75-2.46h-5.17l-0.75,2.46c-0.04,0.16-0.14,0.23-0.3,0.23
					h-3.84c-0.16,0-0.21-0.07-0.16-0.23L173.43,45.57z M177.13,55.14l-1.47-4.96h-0.07l-1.54,4.96H177.13z"/>
			</g>
			<g>
				<path class="st0" d="M95.61,68.96c0-0.16,0.07-0.23,0.23-0.23h6.48c3.56,0,5.19,1.7,5.19,4.23c0,1.66-0.75,2.78-1.94,3.42v0.04
					c1.19,0.45,2.23,1.76,2.23,3.62c0,3.11-2.2,4.58-5.54,4.58h-6.42c-0.16,0.02-0.23-0.06-0.23-0.22V68.96z M101.53,75.12
					c1.26,0,1.89-0.54,1.89-1.64c0-1.1-0.63-1.64-1.89-1.64h-1.66c-0.09,0-0.14,0.04-0.14,0.14v3c0,0.09,0.04,0.14,0.14,0.14H101.53
					z M99.73,81.39c0,0.09,0.04,0.14,0.14,0.14h1.88c1.28,0,1.94-0.61,1.94-1.8c0-1.1-0.63-1.78-1.94-1.78h-1.88
					c-0.09,0-0.14,0.04-0.14,0.14V81.39z"/>
				<path class="st0" d="M109,78.49v-5.92c0-0.16,0.07-0.23,0.23-0.23h3.65c0.16,0,0.23,0.07,0.23,0.23v6.18
					c0,1.59,0.89,2.5,2.22,2.5c1.4,0,2.2-0.92,2.2-2.5v-6.18c0-0.16,0.07-0.23,0.23-0.23h3.65c0.16,0,0.23,0.07,0.23,0.23v5.92
					c0,4.23-2.53,6.43-6.32,6.43C111.47,84.92,109,82.73,109,78.49z M109.26,71.77c-0.16,0-0.23-0.07-0.23-0.23v-2.57
					c0-0.16,0.07-0.23,0.23-0.23h3.62c0.16,0,0.23,0.07,0.23,0.23v2.57c0,0.16-0.07,0.23-0.23,0.23H109.26z M117.77,71.77
					c-0.16,0-0.23-0.07-0.23-0.23v-2.57c0-0.16,0.07-0.23,0.23-0.23h3.67c0.16,0,0.23,0.07,0.23,0.23v2.57
					c0,0.16-0.07,0.23-0.23,0.23H117.77z"/>
				<path class="st0" d="M127.2,84.65c-0.16,0-0.23-0.07-0.23-0.23V78.5l-4.82-9.5c-0.07-0.16,0-0.26,0.19-0.26h3.67
					c0.16,0,0.28,0.07,0.38,0.23l2.66,5.43h0.07l2.62-5.43c0.07-0.16,0.19-0.23,0.38-0.23h3.61c0.19,0,0.26,0.09,0.19,0.26
					l-4.82,9.5v5.92c0,0.16-0.07,0.23-0.23,0.23L127.2,84.65L127.2,84.65z"/>
				<path class="st0" d="M136.39,78.49v-5.92c0-0.16,0.07-0.23,0.23-0.23h3.65c0.16,0,0.23,0.07,0.23,0.23v6.18
					c0,1.59,0.89,2.5,2.22,2.5c1.4,0,2.2-0.92,2.2-2.5v-6.18c0-0.16,0.07-0.23,0.23-0.23h3.65c0.16,0,0.23,0.07,0.23,0.23v5.92
					c0,4.23-2.53,6.43-6.32,6.43C138.88,84.92,136.39,82.73,136.39,78.49z M136.65,71.77c-0.16,0-0.23-0.07-0.23-0.23v-2.57
					c0-0.16,0.07-0.23,0.23-0.23h3.62c0.16,0,0.23,0.07,0.23,0.23v2.57c0,0.16-0.07,0.23-0.23,0.23H136.65z M145.17,71.77
					c-0.16,0-0.23-0.07-0.23-0.23v-2.57c0-0.16,0.07-0.23,0.23-0.23h3.67c0.16,0,0.23,0.07,0.23,0.23v2.57
					c0,0.16-0.07,0.23-0.23,0.23H145.17z"/>
				<path class="st0" d="M150.67,68.96c0-0.16,0.07-0.23,0.23-0.23h3.65c0.16,0,0.23,0.07,0.23,0.23v6.23l4.57-6.24
					c0.12-0.14,0.23-0.21,0.39-0.21h4.12c0.19,0,0.23,0.14,0.14,0.3l-4.74,6.16l5.03,9.2c0.07,0.12,0.03,0.26-0.14,0.26h-4.19
					c-0.19,0-0.3-0.07-0.38-0.21l-3.09-5.99l-1.7,2.27v3.7c0,0.16-0.07,0.23-0.23,0.23h-3.65c-0.16,0-0.23-0.07-0.23-0.23
					L150.67,68.96L150.67,68.96z"/>
				<path class="st0" d="M169.55,87.29c-0.12,0.09-0.39-0.05-0.39-0.23l0.12-2.18c-2.27-0.3-3.81-1.19-4.84-2.23
					c-0.14-0.12-0.14-0.26-0.03-0.38l2.11-2.48c0.12-0.12,0.21-0.14,0.33-0.03c0.96,0.84,2.46,1.59,4.05,1.59
					c1.5,0,2.24-0.58,2.24-1.5c0-0.68-0.45-1.12-2.01-1.34l-0.84-0.12c-3.46-0.49-5.31-2.01-5.31-5.01c0-2.97,2.31-4.96,5.92-4.96
					c2.23,0,4.26,0.65,5.69,1.76c0.12,0.09,0.14,0.21,0.04,0.35l-1.76,2.55c-0.09,0.12-0.21,0.14-0.33,0.07
					c-1.12-0.75-2.3-1.19-3.58-1.19c-1.19,0-1.76,0.57-1.76,1.34c0,0.73,0.51,1.15,2.04,1.34l0.84,0.12
					c3.49,0.49,5.27,2.04,5.27,5.05c0,2.5-1.59,4.42-4.75,4.99L169.55,87.29z"/>
				<path class="st0" d="M178.35,68.96c0-0.16,0.07-0.23,0.23-0.23H189c0.16,0,0.23,0.07,0.23,0.23v3.02c0,0.16-0.07,0.23-0.23,0.23
					h-6.39c-0.09,0-0.14,0.04-0.14,0.14v2.41c0,0.09,0.04,0.14,0.14,0.14h5.24c0.16,0,0.23,0.07,0.23,0.23v2.95
					c0,0.16-0.07,0.23-0.23,0.23h-5.24c-0.09,0-0.14,0.04-0.14,0.14v2.55c0,0.09,0.04,0.14,0.14,0.14H189
					c0.16,0,0.23,0.07,0.23,0.23v3.02c0,0.16-0.07,0.23-0.23,0.23h-10.42c-0.16,0-0.23-0.07-0.23-0.23
					C178.35,84.37,178.35,68.96,178.35,68.96z"/>
				<path class="st0" d="M190.47,68.96c0-0.16,0.07-0.23,0.23-0.23h3.65c0.16,0,0.23,0.07,0.23,0.23v5.64
					c0,0.09,0.04,0.14,0.14,0.14h4.33c0.09,0,0.14-0.04,0.14-0.14v-5.64c0-0.16,0.07-0.23,0.23-0.23h3.65
					c0.16,0,0.23,0.07,0.23,0.23v15.45c0,0.16-0.07,0.23-0.23,0.23h-3.65c-0.16,0-0.23-0.07-0.23-0.23v-5.88
					c0-0.09-0.04-0.14-0.14-0.14h-4.33c-0.09,0-0.14,0.04-0.14,0.14v5.88c0,0.16-0.07,0.23-0.23,0.23h-3.65
					c-0.16,0-0.23-0.07-0.23-0.23V68.96z"/>
				<path class="st0" d="M205.15,71.77c-0.16,0-0.23-0.07-0.23-0.23v-2.57c0-0.16,0.07-0.23,0.23-0.23h3.46
					c0.16,0,0.23,0.07,0.23,0.23v2.57c0,0.16-0.07,0.23-0.23,0.23H205.15z M205.15,84.65c-0.16,0-0.23-0.07-0.23-0.23V72.57
					c0-0.16,0.07-0.23,0.23-0.23h3.46c0.16,0,0.23,0.07,0.23,0.23v11.84c0,0.16-0.07,0.23-0.23,0.23L205.15,84.65L205.15,84.65z"/>
				<path class="st0" d="M219.02,84.65c-0.16,0-0.28-0.07-0.35-0.23l-2.41-5.43h-1.52c-0.09,0-0.14,0.04-0.14,0.14v5.29
					c0,0.16-0.07,0.23-0.23,0.23h-3.65c-0.16,0-0.23-0.07-0.23-0.23V68.96c0-0.16,0.07-0.23,0.23-0.23h6.48
					c3.65,0,5.73,2.13,5.73,5.12c0,1.99-0.93,3.61-2.62,4.45l2.92,6.06c0.07,0.16,0,0.28-0.16,0.28L219.02,84.65L219.02,84.65z
					 M216.93,75.59c1.19,0,1.88-0.65,1.88-1.69c0-1.03-0.68-1.69-1.88-1.69h-2.2c-0.09,0-0.14,0.04-0.14,0.14v3.09
					c0,0.09,0.04,0.14,0.14,0.14L216.93,75.59L216.93,75.59z"/>
			</g>
			<g>
				<path class="st0" d="M95.61,92.37c0-0.16,0.07-0.23,0.23-0.23h6.48c3.56,0,5.19,1.7,5.19,4.23c0,1.66-0.75,2.78-1.94,3.42v0.04
					c1.19,0.45,2.23,1.76,2.23,3.62c0,3.11-2.2,4.58-5.54,4.58h-6.42c-0.16,0-0.23-0.07-0.23-0.23
					C95.61,107.8,95.61,92.37,95.61,92.37z M101.53,98.53c1.26,0,1.89-0.54,1.89-1.64c0-1.1-0.63-1.64-1.89-1.64h-1.66
					c-0.09,0-0.14,0.04-0.14,0.14v3c0,0.09,0.04,0.14,0.14,0.14H101.53z M99.73,104.8c0,0.09,0.04,0.14,0.14,0.14h1.88
					c1.28,0,1.94-0.61,1.94-1.8c0-1.1-0.63-1.78-1.94-1.78h-1.88c-0.09,0-0.14,0.04-0.14,0.14V104.8z"/>
				<path class="st0" d="M109.04,92.37c0-0.16,0.07-0.23,0.23-0.23h10.42c0.16,0,0.23,0.07,0.23,0.23v3.02
					c0,0.16-0.07,0.23-0.23,0.23h-6.39c-0.09,0-0.14,0.04-0.14,0.14v2.41c0,0.09,0.04,0.14,0.14,0.14h5.24
					c0.16,0,0.23,0.07,0.23,0.23v2.96c0,0.16-0.07,0.23-0.23,0.23h-5.24c-0.09,0-0.14,0.04-0.14,0.14v2.55
					c0,0.09,0.04,0.14,0.14,0.14h6.39c0.16,0,0.23,0.07,0.23,0.23v3.02c0,0.16-0.07,0.23-0.23,0.23h-10.41
					c-0.16,0-0.23-0.07-0.23-0.23L109.04,92.37L109.04,92.37z"/>
				<path class="st0" d="M121.16,92.37c0-0.16,0.07-0.23,0.23-0.23h3.65c0.16,0,0.23,0.07,0.23,0.23v11.89
					c0,0.09,0.04,0.14,0.14,0.14h6.74c0.16,0,0.23,0.07,0.23,0.23v3.19c0,0.16-0.07,0.23-0.23,0.23H121.4
					c-0.16,0-0.23-0.07-0.23-0.23L121.16,92.37L121.16,92.37z"/>
				<path class="st0" d="M133.22,92.37c0-0.16,0.07-0.23,0.23-0.23h10.42c0.16,0,0.23,0.07,0.23,0.23v3.02
					c0,0.16-0.07,0.23-0.23,0.23h-6.39c-0.09,0-0.14,0.04-0.14,0.14v2.41c0,0.09,0.04,0.14,0.14,0.14h5.24
					c0.16,0,0.23,0.07,0.23,0.23v2.96c0,0.16-0.07,0.23-0.23,0.23h-5.24c-0.09,0-0.14,0.04-0.14,0.14v2.55
					c0,0.09,0.04,0.14,0.14,0.14h6.39c0.16,0,0.23,0.07,0.23,0.23v3.02c0,0.16-0.07,0.23-0.23,0.23h-10.42
					c-0.16,0-0.23-0.07-0.23-0.23V92.37z"/>
				<path class="st0" d="M145.34,92.37c0-0.16,0.07-0.23,0.23-0.23h6.15c2.84,0,4.85,1.17,5.66,3.62c0.3,1.05,0.47,1.87,0.47,4.33
					c0,2.36-0.14,3.3-0.47,4.33c-0.82,2.46-2.84,3.62-5.66,3.62h-6.15c-0.16,0-0.23-0.07-0.23-0.23V92.37z M149.46,104.26
					c0,0.09,0.04,0.14,0.14,0.14h1.24c1.47,0,2.24-0.39,2.62-1.52c0.14-0.47,0.23-1,0.23-2.78c0-1.78-0.12-2.3-0.23-2.78
					c-0.38-1.12-1.15-1.52-2.62-1.52h-1.24c-0.09,0-0.14,0.04-0.14,0.14V104.26z"/>
				<path class="st0" d="M159.35,95.18c-0.16,0-0.23-0.07-0.23-0.23v-2.58c0-0.16,0.07-0.23,0.23-0.23h3.46
					c0.16,0,0.23,0.07,0.23,0.23v2.58c0,0.16-0.07,0.23-0.23,0.23H159.35z M159.35,108.04c-0.16,0-0.23-0.07-0.23-0.23V95.97
					c0-0.16,0.07-0.23,0.23-0.23h3.46c0.16,0,0.23,0.07,0.23,0.23v11.84c0,0.16-0.07,0.23-0.23,0.23
					C162.81,108.04,159.35,108.04,159.35,108.04z"/>
				<path class="st0" d="M168.62,108.04c-0.16,0-0.23-0.07-0.23-0.23v-5.92l-4.82-9.5c-0.07-0.16,0-0.26,0.19-0.26h3.67
					c0.16,0,0.28,0.07,0.38,0.23l2.66,5.43h0.07l2.62-5.43c0.07-0.16,0.19-0.23,0.38-0.23h3.61c0.19,0,0.26,0.09,0.19,0.26
					l-4.82,9.5v5.92c0,0.16-0.07,0.23-0.23,0.23L168.62,108.04L168.62,108.04z"/>
				<path class="st0" d="M177.86,92.37c0-0.16,0.07-0.23,0.23-0.23h10.42c0.16,0,0.23,0.07,0.23,0.23v3.02
					c0,0.16-0.07,0.23-0.23,0.23h-6.39c-0.09,0-0.14,0.04-0.14,0.14v2.41c0,0.09,0.04,0.14,0.14,0.14h5.24
					c0.16,0,0.23,0.07,0.23,0.23v2.96c0,0.16-0.07,0.23-0.23,0.23h-5.24c-0.09,0-0.14,0.04-0.14,0.14v2.55
					c0,0.09,0.04,0.14,0.14,0.14h6.39c0.16,0,0.23,0.07,0.23,0.23v3.02c0,0.16-0.07,0.23-0.23,0.23h-10.42
					c-0.16,0-0.23-0.07-0.23-0.23V92.37z"/>
				<path class="st0" d="M189.31,106.06c-0.14-0.12-0.14-0.26-0.03-0.38l2.11-2.48c0.12-0.12,0.21-0.14,0.33-0.03
					c0.96,0.84,2.46,1.59,4.05,1.59c1.5,0,2.24-0.58,2.24-1.5c0-0.68-0.45-1.12-2.01-1.34l-0.84-0.12
					c-3.46-0.49-5.31-2.01-5.31-5.01c0-2.97,2.31-4.96,5.92-4.96c2.23,0,4.26,0.65,5.69,1.76c0.12,0.09,0.14,0.21,0.04,0.35
					l-1.76,2.55c-0.09,0.12-0.21,0.14-0.33,0.07c-1.12-0.75-2.3-1.19-3.58-1.19c-1.19,0-1.76,0.57-1.76,1.34
					c0,0.73,0.51,1.15,2.04,1.34l0.84,0.12c3.49,0.49,5.27,2.04,5.27,5.05c0,2.92-2.27,5.1-6.5,5.1
					C193.12,108.33,190.5,107.25,189.31,106.06z"/>
				<path class="st0" d="M203.42,95.18c-0.16,0-0.23-0.07-0.23-0.23v-2.58c0-0.16,0.07-0.23,0.23-0.23h3.46
					c0.16,0,0.23,0.07,0.23,0.23v2.58c0,0.16-0.07,0.23-0.23,0.23H203.42z M203.42,108.04c-0.16,0-0.23-0.07-0.23-0.23V95.97
					c0-0.16,0.07-0.23,0.23-0.23h3.46c0.16,0,0.23,0.07,0.23,0.23v11.84c0,0.16-0.07,0.23-0.23,0.23
					C206.88,108.04,203.42,108.04,203.42,108.04z"/>
			</g>
			<g>
				<path class="st0" d="M100.16,37.91h-0.07c-0.03,0-0.07-0.03-0.12-0.07c-0.03-0.03-0.05-0.07-0.05-0.09v-0.08V25.74
					c0-0.07-0.04-0.12-0.12-0.15h-0.03h-3.92h-0.07c-0.03,0-0.07-0.03-0.09-0.04l-0.03-0.03l-0.03-0.03
					c-0.03-0.03-0.03-0.07-0.03-0.14v-3.2c0-0.12,0.04-0.21,0.16-0.23h0.07h12.28c0.07,0,0.12,0.03,0.16,0.07c0,0,0,0.03,0.03,0.05
					c0.03,0.03,0.04,0.07,0.04,0.12v3.2c0,0.07-0.03,0.14-0.07,0.19c-0.03,0.03-0.07,0.04-0.12,0.04h-0.04h-3.92
					c-0.04,0-0.07,0-0.09,0.03l-0.04,0.05v0.07v11.92v0.07c-0.03,0.05-0.05,0.09-0.12,0.14c-0.03,0.03-0.04,0.03-0.12,0.03
					L100.16,37.91L100.16,37.91z"/>
				<path class="st0" d="M108.72,34.43c0-0.16,0.07-0.23,0.23-0.23h3.26c0.16,0,0.23,0.07,0.23,0.23v3.25
					c0,0.16-0.07,0.23-0.23,0.23h-3.26c-0.16,0-0.23-0.07-0.23-0.23V34.43z"/>
				<path class="st0" d="M114.59,29.92c0-2.37,0.09-3.26,0.47-4.33c0.85-2.63,2.89-3.95,5.81-3.95c2.84,0,4.81,1.32,5.73,3.64
					c0.07,0.16,0.03,0.26-0.12,0.33l-3.13,1.36c-0.16,0.07-0.26,0.03-0.33-0.15c-0.45-0.94-0.99-1.51-2.09-1.51
					c-0.99,0-1.62,0.47-1.93,1.39c-0.19,0.47-0.23,0.99-0.23,3.2s0.04,2.72,0.23,3.2c0.31,0.92,0.94,1.39,1.93,1.39
					c1.11,0,1.64-0.57,2.09-1.51c0.07-0.16,0.16-0.21,0.33-0.15l3.13,1.36c0.15,0.07,0.19,0.16,0.12,0.33
					c-0.92,2.33-2.89,3.64-5.73,3.64c-2.91,0-4.96-1.32-5.81-3.95C114.69,33.18,114.59,32.29,114.59,29.92z"/>
				<path class="st0" d="M128.38,34.43c0-0.16,0.07-0.23,0.23-0.23h3.26c0.16,0,0.23,0.07,0.23,0.23v3.25
					c0,0.16-0.07,0.23-0.23,0.23h-3.26c-0.16,0-0.23-0.07-0.23-0.23V34.43z"/>
			</g>
		</g>
	</g>
</g>
</svg>
