<svg xmlns="http://www.w3.org/2000/svg" width="141" height="141" viewBox="0 0 141 141">
  <g id="Group_21" data-name="Group 21" transform="translate(-889.567 -40)">
    <ellipse id="Ellipse_2" data-name="Ellipse 2" cx="70.5" cy="70.5" rx="70.5" ry="70.5" transform="translate(889.567 40)" fill="#fff"/>
    <g id="Group_15" data-name="Group 15" transform="translate(908.601 56.014)">
      <g id="Group_13" data-name="Group 13" transform="translate(90.821 65.655)">
        <path id="Path_32" data-name="Path 32" d="M999.456,122.449c.227-.7.656-1.029,1.351-.769.73.261.832.789.57,1.451-.227.7-.688,1.063-1.384.8-.729-.26-.8-.822-.537-1.485" transform="translate(-999.317 -121.592)" fill="#0c9c92"/>
      </g>
      <path id="Path_33" data-name="Path 33" d="M922.3,89.664c.842-1.412.788-2.372-.231-2.979-1.149-.676-2.049-.09-2.926,1.388L917.426,91l3.023,1.789Zm-5.83-2.25c.776-1.314.887-2.305-.165-2.913-1.083-.641-1.85-.121-2.625,1.193L912.335,88l2.825,1.652Zm-7.891,1.828,3.1-5.223c1.619-2.727,3.648-3.73,5.915-2.38a3.2,3.2,0,0,1,1.547,3.524c1.44-1.6,3.067-2.148,4.906-1.036,2.07,1.215,2.44,3.534.687,6.49l-3.608,6.077Z" transform="translate(-908.583 -55.975)" fill="#15467a"/>
      <path id="Path_34" data-name="Path 34" d="M934.839,70.605c-.487-.734-1.509-.976-2.776-.131a2.519,2.519,0,0,0-1.029,3.2l4-2.733a1.785,1.785,0,0,0-.2-.332m5.748,3.538a7.487,7.487,0,0,1-3.054,3.9c-3.467,2.375-6.5,1.315-8.352-1.419a5.709,5.709,0,0,1,1.549-8.25c2.834-1.919,5.3-1.1,6.768,1.037a9.67,9.67,0,0,1,1.036,1.963l-6.267,4.261a2.764,2.764,0,0,0,3.933.276,6.22,6.22,0,0,0,2.25-2.918Z" transform="translate(-908.564 -55.988)" fill="#15467a"/>
      <path id="Path_35" data-name="Path 35" d="M979.283,62.461c-1.021,2.568-2.428,4.106-4.287,4.747l2.083,5.745-.137.461-3.134-.73-1.595-5.113a11.331,11.331,0,0,1-2.246-.323L968.959,71.5l-2.936-.695L969.566,56l2.936.729-1.911,7.949c2.409.591,4.262.445,5.755-2.91Z" transform="translate(-908.528 -55.999)" fill="#15467a"/>
      <path id="Path_36" data-name="Path 36" d="M989.207,77.975a3.162,3.162,0,1,0-.511-4.405,3.05,3.05,0,0,0,.511,4.405m5.605-7.146a5.908,5.908,0,1,1-7.316,9.276,5.907,5.907,0,1,1,7.316-9.276" transform="translate(-908.51 -55.986)" fill="#15467a"/>
      <path id="Path_37" data-name="Path 37" d="M1007.553,89.351l-2.591-4.792,2.064-1.1,4.405,8.055-1.863,1L1001.051,91l2.592,4.726-2.1,1.133L997.174,88.8l1.864-1Z" transform="translate(-908.498 -55.973)" fill="#15467a"/>
      <path id="Path_38" data-name="Path 38" d="M952,69.489l-7.2-9.675,3.249-.657,4.616,7.131,1.353-8.351,2.951-.6-2.288,12.012-.841,4.125-2.752.563Z" transform="translate(-908.548 -55.998)" fill="#15467a"/>
      <g id="Group_14" data-name="Group 14" transform="translate(0.493 65.8)">
        <path id="Path_39" data-name="Path 39" d="M916.16,126.907c.436.989.967,1.449,1.727,1.082.825-.336.821-1,.385-1.954l-.771-1.683-2.078.939Zm-3.557,2.435c.435,1.023,1,1.383,1.759,1.048.858-.368.853-1.129.383-2.218l-.971-2.143-2.21,1Zm5.677-7.606,1.742,3.826c.9,2.012.65,3.568-1.033,4.305a2.186,2.186,0,0,1-2.582-.548,2.511,2.511,0,0,1-1.37,3.217c-1.517.671-2.977-.049-3.949-2.192l-2.011-4.486Z" transform="translate(-909.076 -121.736)" fill="#0c9c92"/>
        <path id="Path_40" data-name="Path 40" d="M924.369,140.868c.46-.4.556-1.1-.143-1.885a1.7,1.7,0,0,0-2.285-.449l2.231,2.5a.877.877,0,0,0,.2-.165m-1.926,4.244a5.155,5.155,0,0,1-2.954-1.735c-1.931-2.206-1.448-4.358.263-5.857a3.954,3.954,0,0,1,5.789.33,3.123,3.123,0,0,1-.137,4.763,9.457,9.457,0,0,1-1.219.868l-3.5-3.949a1.945,1.945,0,0,0,.148,2.745,4.382,4.382,0,0,0,2.19,1.277Z" transform="translate(-909.067 -121.722)" fill="#0c9c92"/>
        <path id="Path_41" data-name="Path 41" d="M935.651,143.276l-4.624,6.641c-.294.465-.292.829.039,1.058a1.583,1.583,0,0,0,.829.294l-.851,1.425a5.878,5.878,0,0,1-1.626-.717c-.962-.657-1.232-1.547-.38-2.81l4.887-7.073Z" transform="translate(-909.057 -121.717)" fill="#0c9c92"/>
        <path id="Path_42" data-name="Path 42" d="M944.069,153.471c.229-.564-.04-1.223-1.034-1.615a1.708,1.708,0,0,0-2.212.675l3.149,1.205c.033-.066.065-.2.1-.265m.292,4.661a5.016,5.016,0,0,1-3.44-.178c-2.718-1.042-3.326-3.155-2.511-5.31a3.933,3.933,0,0,1,5.277-2.378c2.221.847,2.761,2.563,2.109,4.253a6.425,6.425,0,0,1-.687,1.36l-4.939-1.856a1.955,1.955,0,0,0,1.435,2.339,4.282,4.282,0,0,0,2.547.118Z" transform="translate(-909.048 -121.709)" fill="#0c9c92"/>
        <path id="Path_43" data-name="Path 43" d="M956.1,159.287a2.572,2.572,0,0,0,1.783-.574l.18-3.01a2.575,2.575,0,0,0-1.692-.817,2.205,2.205,0,0,0-.271,4.4m4.347-8.624-.514,8.139c0,.462.071.794.5.824a1.993,1.993,0,0,0,.794-.2l.01,1.654a4.5,4.5,0,0,1-1.753.242,1.563,1.563,0,0,1-1.56-1.083,3.137,3.137,0,0,1-2.541.843c-2.15-.121-3.516-1.9-3.365-4.247.119-2.348,1.7-3.913,3.848-3.793a3.457,3.457,0,0,1,2.287.946l.211-3.441Z" transform="translate(-909.035 -121.709)" fill="#0c9c92"/>
        <path id="Path_44" data-name="Path 44" d="M992.807,142.842c-.433-.46-1.128-.556-1.918.144a1.7,1.7,0,0,0-.449,2.284l2.532-2.2c-.033-.066-.132-.165-.165-.231m4.244,1.96a5.214,5.214,0,0,1-1.769,2.921c-2.205,1.932-4.356,1.447-5.888-.263a3.958,3.958,0,0,1,.394-5.79c1.778-1.566,3.565-1.212,4.732.136a7.6,7.6,0,0,1,.9,1.253l-3.982,3.462a1.943,1.943,0,0,0,2.745-.149,4.113,4.113,0,0,0,1.276-2.19Z" transform="translate(-909 -121.718)" fill="#0c9c92"/>
        <path id="Path_45" data-name="Path 45" d="M1001.133,131.724a6.652,6.652,0,0,0-1.875,1.731c-.361.532-.489,1.093-.124,1.356.331.2.562.03,1.024-.37l1.117-1.031a2.076,2.076,0,0,1,2.875-.38c1.263.852,1.4,2.339.322,4a6.91,6.91,0,0,1-2.237,2.162l-1.264-1.315a5.742,5.742,0,0,0,2.008-1.7c.392-.632.522-1.1.157-1.324-.265-.2-.6.07-1.055.469l-1.02.931a2.183,2.183,0,0,1-2.942.381c-1.228-.819-1.37-2.505-.223-4.264a7.518,7.518,0,0,1,2.038-2.063Z" transform="translate(-908.992 -121.728)" fill="#0c9c92"/>
        <path id="Path_46" data-name="Path 46" d="M967.664,149.332c.694-.17,1.224.025,1.36.753.17.76-.258,1.126-.951,1.262s-1.257-.026-1.393-.786c-.137-.727.291-1.093.984-1.229" transform="translate(-909.021 -121.71)" fill="#0c9c92"/>
      </g>
      <path id="Path_47" data-name="Path 47" d="M967.286,152.671l2.015-.409,1.6,7.829-2.08.442Z" transform="translate(-908.527 -55.907)" fill="#0c9c92"/>
      <path id="Path_48" data-name="Path 48" d="M1002.111,124.516l.716-1.955,7.49,2.734-.716,2.021Z" transform="translate(-908.494 -55.936)" fill="#0c9c92"/>
      <path id="Path_49" data-name="Path 49" d="M981.588,156.4l-6.614-5.517,2.144-1.038,4.423,4.241L981.076,148l1.947-.9.414,8.762.185,3.372-1.846.871Z" transform="translate(-908.52 -55.912)" fill="#0c9c92"/>
    </g>
    <g id="Group_18" data-name="Group 18" transform="translate(932.568 81.559)">
      <g id="Group_16" data-name="Group 16" transform="translate(17.344 12.704)">
        <path id="Path_50" data-name="Path 50" d="M958.92,102.484c.8-.414,1.625-.857,2.422-1.33a31.385,31.385,0,0,0,4.7-3.456,18.111,18.111,0,0,0,3.1-3.486,31.28,31.28,0,0,0-8.538,1.182c-4.817,1.388-7.181,4.52-4.374,8.42.414-.236,2.01-.946,2.69-1.329" transform="translate(-949.849 -94.211)" fill="#15467a"/>
        <path id="Path_51" data-name="Path 51" d="M970.114,113.439a35.8,35.8,0,0,1-1.211-7.947,50.169,50.169,0,0,1-.06-5.585,7.331,7.331,0,0,1-.709.622,35.629,35.629,0,0,1-5.7,4.077,19.308,19.308,0,0,1-3.486,1.773c.029,0,.029.03.06.03,2.569,2.068,6.943,4.52,11.109,7.031" transform="translate(-949.845 -94.206)" fill="#89c76f"/>
        <path id="Path_52" data-name="Path 52" d="M973.911,113.71a26.565,26.565,0,0,1,1.33-2.955,39.373,39.373,0,0,1,7.681-9.926q.354-.356.709-.709A15.933,15.933,0,0,0,973.2,94.506a35.486,35.486,0,0,0-.8,10.754,27.779,27.779,0,0,0,1.506,8.45" transform="translate(-949.833 -94.211)" fill="#0c9c92"/>
        <path id="Path_53" data-name="Path 53" d="M980.26,121.383a31.609,31.609,0,0,1,5.348,1.359,25.6,25.6,0,0,0,.857-2.54,25.932,25.932,0,0,0,.886-9.809v-.059a27.322,27.322,0,0,0-.974-4.9,15.123,15.123,0,0,0-.857-2.215,43.3,43.3,0,0,0-3.015,3.161,26.225,26.225,0,0,0-6.057,11.228,14.367,14.367,0,0,1,3.812,3.781" transform="translate(-949.829 -94.202)" fill="#f9b94c"/>
        <path id="Path_54" data-name="Path 54" d="M981.475,129.725a26.832,26.832,0,0,0,2.63-3.841h-.029a29.988,29.988,0,0,0-4.255-1.065,5.158,5.158,0,0,1-1.153.769,34.767,34.767,0,0,1-5.88,2.334,15.424,15.424,0,0,1,8.687,1.8" transform="translate(-949.832 -94.182)" fill="#0c9c92"/>
        <path id="Path_55" data-name="Path 55" d="M973.963,131.432a45.089,45.089,0,0,0-6.588.532,71.673,71.673,0,0,0-8.244,1.744,78.723,78.723,0,0,0-8.125,2.628c-.354.148-.739.3-1.152.5a30.18,30.18,0,0,0,4.048,1.507,26.367,26.367,0,0,0,25.113-6,12.087,12.087,0,0,0-5.052-.916" transform="translate(-949.854 -94.176)" fill="#15467a"/>
      </g>
      <g id="Group_17" data-name="Group 17">
        <path id="Path_56" data-name="Path 56" d="M932.587,107.89a26.415,26.415,0,0,0,6.145,16.929,19.094,19.094,0,0,1-2.1-2.6,27.633,27.633,0,0,1-2.274-4.461.09.09,0,0,0-.03-.059,26.861,26.861,0,0,1-1.8-9.661A26.35,26.35,0,0,1,936.664,93.8a26.393,26.393,0,0,0-4.077,14.092" transform="translate(-932.527 -81.507)" fill="#0c9c92"/>
        <path id="Path_57" data-name="Path 57" d="M964.2,124.831c-3.724,2.334-16.929,8.746-25.438.029l-.03-.029a26.361,26.361,0,0,1-2.54-30.224c.147-.265.324-.533.472-.8l.354-.532c.236-.354.5-.68.739-1.034a26.44,26.44,0,0,1,21.154-10.606,35.783,35.783,0,0,1,5.052.384,1.231,1.231,0,0,1,.473.088.221.221,0,0,1,.147.029,11.617,11.617,0,0,1,1.389.414c-3.723,11.789-21.657,11.11-27.418,18.14-6.027,7.357,15.6,9.514,24.2,13.088,7.919,3.309,6.885,7.623,1.448,11.05" transform="translate(-932.527 -81.519)" fill="#0c9c92"/>
        <path id="Path_58" data-name="Path 58" d="M937.752,92.243a26.366,26.366,0,0,1,21.214-10.724,25.141,25.141,0,0,1,4.992.5,35.921,35.921,0,0,0-5.052-.383,26.437,26.437,0,0,0-21.154,10.606" transform="translate(-932.522 -81.519)" fill="#0c9c92"/>
      </g>
    </g>
    <g id="Group_19" data-name="Group 19" transform="translate(900.597 51.031)">
      <path id="Path_59" data-name="Path 59" d="M960.056,169.959a59.47,59.47,0,1,1,59.471-59.47A59.536,59.536,0,0,1,960.056,169.959Zm0-118.232a58.762,58.762,0,1,0,58.765,58.762A58.829,58.829,0,0,0,960.056,51.728Z" transform="translate(-900.587 -51.02)" fill="#0c9c92"/>
    </g>
    <g id="Group_20" data-name="Group 20" transform="translate(925.776 76.207)">
      <path id="Path_60" data-name="Path 60" d="M960.032,144.758a34.293,34.293,0,1,1,34.293-34.293A34.33,34.33,0,0,1,960.032,144.758Zm0-67.878a33.585,33.585,0,1,0,33.586,33.585A33.622,33.622,0,0,0,960.032,76.881Z" transform="translate(-925.741 -76.173)" fill="#0c9c92"/>
    </g>
  </g>
</svg>
