<svg xmlns="http://www.w3.org/2000/svg" width="443.618" height="164.209" viewBox="0 0 443.618 164.209">
  <g id="Beylikduzu_Belediye_Logo1" transform="translate(0 0.01)">
    <g id="Group_41" data-name="Group 41" transform="translate(0 50.968)">
      <path id="Path_188" data-name="Path 188" d="M24.506,96.612A25.287,25.287,0,0,1,12.06,99.694a39.886,39.886,0,0,1-6.658-.73A31.324,31.324,0,0,1,0,97.654V52.744a23.071,23.071,0,0,1,5.176-1.5,33.722,33.722,0,0,1,6.433-.623c5.112,0,9.225.967,12.382,2.9a11.438,11.438,0,0,1,5.595,10.352,10.91,10.91,0,0,1-1.826,6.11,10.694,10.694,0,0,1-3.7,3.565,13.471,13.471,0,0,1,4.854,4.092,12.023,12.023,0,0,1,2.309,6.916A13.277,13.277,0,0,1,24.5,96.612M10.148,70.431h4.983a5.168,5.168,0,0,0,5.155-5.369,4.746,4.746,0,0,0-2.03-4.016,7.554,7.554,0,0,0-4.7-1.4,8.191,8.191,0,0,0-3.4.644V70.431Zm0,19.448a10.81,10.81,0,0,0,3.726.591,8.572,8.572,0,0,0,5.5-1.74,5.637,5.637,0,0,0,2.148-4.671A6.06,6.06,0,0,0,19.7,79.645a6.526,6.526,0,0,0-4.285-1.7H10.138V89.879Zm51.171,6.368a24.44,24.44,0,0,1-3.769,2.126,16.264,16.264,0,0,1-6.658,1.321,17.76,17.76,0,0,1-12.253-4.757,15.911,15.911,0,0,1-.064-23.25,16.447,16.447,0,0,1,11.448-4.6,16.029,16.029,0,0,1,10.363,3.63,11.81,11.81,0,0,1,4.274,8.752,12.8,12.8,0,0,1-1,4.822,17.2,17.2,0,0,1-1.375,2.835H43.471c1.31,2.932,4.242,4.478,7.936,4.478a10.6,10.6,0,0,0,3.286-.526,13.574,13.574,0,0,0,2.481-.924l4.156,6.1ZM43.4,79.591H56.1a2.758,2.758,0,0,0,.193-1.192,2.567,2.567,0,0,0-1.643-2.341,8.93,8.93,0,0,0-4.016-.805A7.653,7.653,0,0,0,43.4,79.591M76.429,96.666,64.659,68.208h10.32l5.96,17.9.258,1.965.322-1.965,5.853-17.9H97.789l-11.8,28.458v13H76.429ZM101.386,47.46h9.558V98.631h-9.558Zm16.86,5.7a5.321,5.321,0,0,1,3.92-1.482,5.44,5.44,0,0,1,3.963,1.482,5.044,5.044,0,0,1,1.514,3.662c0,3-2.191,5.176-5.541,5.176a5.276,5.276,0,0,1-3.887-1.514,4.984,4.984,0,0,1-1.514-3.662,4.892,4.892,0,0,1,1.546-3.662m-.805,15.056H127V98.642h-9.558Zm25.6,30.423h-9.558V47.471h9.558V79.548h.075l.376-1.063,8.366-10.256h11.92L151.795,81.6l12.5,17.053H153.1L143.032,83.768V98.652Zm44.008-29.425V47.471H196.6V94.056l-.322.376a22.659,22.659,0,0,1-5.949,3.4,24.414,24.414,0,0,1-8.935,1.869c-5.284,0-9.461-1.6-12.575-4.811a16,16,0,0,1-4.5-11.394,17.317,17.317,0,0,1,4.21-11.577,14.463,14.463,0,0,1,11.2-4.822,15.161,15.161,0,0,1,7.335,2.116m0,8.366a7.99,7.99,0,0,0-5.853-2.309,6.869,6.869,0,0,0-5.273,2.159,7.875,7.875,0,0,0-2.062,5.692,8.785,8.785,0,0,0,2.03,6.132,6.758,6.758,0,0,0,5.369,2.287,10.972,10.972,0,0,0,5.541-1.385l.258-.2V77.572Zm16.044-9.354h9.558V85.336a7.05,7.05,0,0,0,1.063,3.963A4.672,4.672,0,0,0,218,91.543a10.025,10.025,0,0,0,7.109-2.824V68.229h9.558v24.7a18.879,18.879,0,0,1-6.916,4.661,25.2,25.2,0,0,1-10.159,2.126,16.6,16.6,0,0,1-5.348-.859,14.212,14.212,0,0,1-4.6-2.513,11.859,11.859,0,0,1-3.308-4.177,12.277,12.277,0,0,1-1.224-5.5V68.24Zm9.3-13.7c2.6,0,4.532,1.7,4.532,3.9a3.616,3.616,0,0,1-1.289,2.792,4.654,4.654,0,0,1-3.243,1.16,4.814,4.814,0,0,1-3.275-1.128,3.722,3.722,0,0,1-1.224-2.824c0-2.191,1.836-3.9,4.51-3.9m12.5,0c2.706,0,4.543,1.7,4.543,3.9s-1.836,3.952-4.543,3.952a4.672,4.672,0,0,1-3.243-1.16,3.534,3.534,0,0,1-1.224-2.792c-.032-2.191,1.8-3.9,4.467-3.9m42.462,44.126H239.167L252.73,76.337H241.1V68.229h26.525L253.664,90.48h13.7v8.162ZM272.3,68.229h9.547V85.336a7.142,7.142,0,0,0,1.074,3.963,4.66,4.66,0,0,0,4.274,2.244,9.975,9.975,0,0,0,7.1-2.824V68.229h9.547v24.7a18.878,18.878,0,0,1-6.916,4.661,25.164,25.164,0,0,1-10.159,2.126,16.491,16.491,0,0,1-5.337-.859,14.325,14.325,0,0,1-4.6-2.513,12.01,12.01,0,0,1-3.318-4.177,12.272,12.272,0,0,1-1.214-5.5V68.24Zm9.289-13.7c2.61,0,4.532,1.7,4.532,3.9a3.581,3.581,0,0,1-1.289,2.792,4.681,4.681,0,0,1-3.254,1.16,4.814,4.814,0,0,1-3.275-1.128,3.721,3.721,0,0,1-1.224-2.824c0-2.191,1.836-3.9,4.51-3.9m12.511,0c2.7,0,4.521,1.7,4.521,3.9s-1.826,3.952-4.521,3.952a4.681,4.681,0,0,1-3.254-1.16,3.5,3.5,0,0,1-1.224-2.792c-.043-2.191,1.8-3.9,4.478-3.9" transform="translate(0 -47.46)" fill="#fff"/>
      <path id="Path_189" data-name="Path 189" d="M0,144.295V108.33H10.739a12.5,12.5,0,0,1,7.614,2.363,8.333,8.333,0,0,1,3.232,6.7,9.3,9.3,0,0,1-1.3,4.854,6.584,6.584,0,0,1-2.878,2.728,9.556,9.556,0,0,1,5.584,8.666A10.055,10.055,0,0,1,19.62,141.5a12.019,12.019,0,0,1-7.958,2.781H0Zm6.4-21.081h4.628a5.155,5.155,0,0,0,3.232-1.256,4.735,4.735,0,0,0,1.525-3.64,4.275,4.275,0,0,0-1.482-3.372,4.829,4.829,0,0,0-3.372-1.2H6.4v9.482Zm4.972,15.733a5.208,5.208,0,0,0,3.984-1.729,5.843,5.843,0,0,0,1.482-4.038,5.431,5.431,0,0,0-1.622-3.866,5.485,5.485,0,0,0-3.791-1.675H6.4v11.308h4.972Z" transform="translate(0 -42.962)" fill="#fff"/>
      <path id="Path_190" data-name="Path 190" d="M44.427,141.7a12.35,12.35,0,0,1-2.781,1.579,13.5,13.5,0,0,1-14.111-2.588,12,12,0,0,1-3.845-8.87A12.281,12.281,0,0,1,36.008,119.5a11.567,11.567,0,0,1,7.56,2.642,8.18,8.18,0,0,1,3.179,6.357,4.706,4.706,0,0,1-2.416,4.424,9.118,9.118,0,0,1-4.811,1.106H29.446a6.191,6.191,0,0,0,2.878,3.748,8.7,8.7,0,0,0,4.736,1.31,10.043,10.043,0,0,0,4.65-1.256l2.706,3.866ZM29.5,129.3h9.139a5.229,5.229,0,0,0,1.75-.226,1.43,1.43,0,0,0,1.052-1.5,2.409,2.409,0,0,0-1.557-2.223,8.8,8.8,0,0,0-3.64-.709,6.7,6.7,0,0,0-6.755,4.65" transform="translate(1.751 -42.137)" fill="#fff"/>
      <rect id="Rectangle_59" data-name="Rectangle 59" width="6.057" height="39.186" transform="translate(52.535 62.146)" fill="#fff"/>
      <path id="Path_191" data-name="Path 191" d="M78.657,141.7a12.832,12.832,0,0,1-2.781,1.579,13.5,13.5,0,0,1-14.111-2.588,12,12,0,0,1-3.845-8.87A12.281,12.281,0,0,1,70.238,119.5a11.588,11.588,0,0,1,7.56,2.642,8.18,8.18,0,0,1,3.179,6.357,4.706,4.706,0,0,1-2.416,4.424,9.1,9.1,0,0,1-4.8,1.106H63.687a6.191,6.191,0,0,0,2.878,3.748,8.659,8.659,0,0,0,4.725,1.31,10.09,10.09,0,0,0,4.661-1.256l2.706,3.866ZM63.73,129.3h9.139a5.229,5.229,0,0,0,1.75-.226,1.43,1.43,0,0,0,1.052-1.5,2.415,2.415,0,0,0-1.546-2.223,8.875,8.875,0,0,0-3.64-.709,6.7,6.7,0,0,0-6.755,4.65" transform="translate(4.28 -42.137)" fill="#fff"/>
      <path id="Path_192" data-name="Path 192" d="M99.346,122.426v-17.1H105.4v35.857l-.247.193a15.759,15.759,0,0,1-4.285,2.513,16.712,16.712,0,0,1-6.626,1.375,12.55,12.55,0,0,1-9.311-3.64,11.948,11.948,0,0,1-3.4-8.666,12.8,12.8,0,0,1,3.222-8.774,11.264,11.264,0,0,1,8.548-3.651,10.792,10.792,0,0,1,6.035,1.879m0,5.391a7.291,7.291,0,0,0-5.2-2.116,6.659,6.659,0,0,0-4.682,1.976,7.188,7.188,0,0,0-1.869,5.1,7.839,7.839,0,0,0,1.772,5.348,6.024,6.024,0,0,0,4.779,2.019,8.216,8.216,0,0,0,5-1.428l.193-.15V127.817Z" transform="translate(6.024 -43.184)" fill="#fff"/>
      <path id="Path_193" data-name="Path 193" d="M111.807,109.23a3.429,3.429,0,1,1,0,6.851,3.48,3.48,0,0,1-2.556-1.009,3.257,3.257,0,0,1-1.031-2.416,3.418,3.418,0,0,1,3.6-3.426m-3.028,11.845h6.057v23.153h-6.057Z" transform="translate(7.997 -42.896)" fill="#fff"/>
      <path id="Path_194" data-name="Path 194" d="M142.585,120.26l-13.617,35.052h-6.3l4.951-12.812L117.37,120.26h6.69l5.917,14.433.247,1.407.419-1.407,5.584-14.433Z" transform="translate(8.673 -42.081)" fill="#fff"/>
      <path id="Path_195" data-name="Path 195" d="M161.567,141.7a12.35,12.35,0,0,1-2.781,1.579,13.5,13.5,0,0,1-14.111-2.588,12,12,0,0,1-3.845-8.87A12.281,12.281,0,0,1,153.148,119.5a11.588,11.588,0,0,1,7.56,2.642,8.169,8.169,0,0,1,3.168,6.357,4.706,4.706,0,0,1-2.416,4.424,9.077,9.077,0,0,1-4.8,1.106H146.586a6.191,6.191,0,0,0,2.878,3.748,8.659,8.659,0,0,0,4.725,1.31,10.09,10.09,0,0,0,4.661-1.256l2.706,3.866ZM146.64,129.3h9.139a5.229,5.229,0,0,0,1.75-.226,1.43,1.43,0,0,0,1.052-1.5,2.415,2.415,0,0,0-1.546-2.223,8.839,8.839,0,0,0-3.641-.709,6.688,6.688,0,0,0-6.744,4.65" transform="translate(10.406 -42.137)" fill="#fff"/>
      <path id="Path_196" data-name="Path 196" d="M166.532,137.315a9.156,9.156,0,0,0,5.616,2.019c2.244,0,3.372-.891,3.372-2.663a2.16,2.16,0,0,0-.859-1.718,14.267,14.267,0,0,0-3.125-1.579,13.037,13.037,0,0,1-3.995-2.513,6.369,6.369,0,0,1-1.922-4.682,5.875,5.875,0,0,1,2.148-4.65,8.776,8.776,0,0,1,6.089-2.019,12.981,12.981,0,0,1,7.12,1.879l-2.212,3.791A7.252,7.252,0,0,0,174.672,124c-2,0-2.985,1.031-2.985,2.191,0,1.407,1.278,2.137,4.038,3.426a14.464,14.464,0,0,1,4.188,2.706,6.887,6.887,0,0,1,1.675,4.65,6.7,6.7,0,0,1-2.395,5.047,9.371,9.371,0,0,1-6.5,2.266,13.942,13.942,0,0,1-8.376-2.685l2.212-4.285Z" transform="translate(12.142 -42.136)" fill="#fff"/>
      <path id="Path_197" data-name="Path 197" d="M187.427,109.23a3.428,3.428,0,1,1,0,6.851,3.505,3.505,0,0,1-2.567-1.009,3.257,3.257,0,0,1-1.031-2.416,3.418,3.418,0,0,1,3.6-3.426M184.4,121.075h6.057v23.153H184.4Z" transform="translate(13.584 -42.896)" fill="#fff"/>
    </g>
    <g id="Group_42" data-name="Group 42" transform="translate(306.446 -0.01)">
      <path id="Path_198" data-name="Path 198" d="M351.48,5.456l.354.021h.054c.365.011.72.032,1.1.054h.183c.526.043,1,.075,1.46.118h.107c.43.043.859.075,1.235.107l.473.043c.279.021.569.054.848.086-1.772-1.89-3.533-3.866-5.23-5.9a122.529,122.529,0,0,0-24.238,2.7A208.741,208.741,0,0,0,285.36,16.249a.341.341,0,0,0,.1-.032l.075-.021c.075-.021.15-.054.236-.075.107-.032.215-.075.333-.118.075-.021.129-.043.183-.054l.387-.129a2.12,2.12,0,0,1,.279-.086c.086-.021.161-.054.247-.075,1.031-.344,2.1-.687,2.932-.934l.107-.032c.236-.075.494-.161.741-.236l.4-.118c.268-.086.548-.161.827-.247l.473-.14c.14-.043.29-.086.429-.129.569-.172,1.16-.344,1.783-.526l2.008-.58c.172-.043.344-.086.494-.14l.333-.086c.215-.054.44-.118.655-.172l.15-.043c.569-.15,1.171-.311,1.772-.462l.634-.161c.386-.107.773-.2,1.17-.3l.161-.043c.15-.043.311-.086.473-.129l.193-.054c.236-.054.462-.107.7-.172l.677-.161c.913-.226,1.836-.44,2.781-.666.483-.107.977-.215,1.45-.311.311-.075.623-.14.934-.2L310,9.494c1.128-.247,2.32-.494,3.458-.72l.1-.021c.2-.043.4-.075.591-.118l.473-.1c.15-.021.311-.054.462-.086l.709-.129c.3-.064.644-.129,1.1-.2.1-.021.2-.043.311-.064.086-.011.161-.032.247-.043l.4-.064c.451-.086.923-.161,1.385-.236l.258-.043c.365-.064.741-.129,1.1-.183l.515-.086c.193-.021.387-.054.569-.086s.344-.054.515-.075c.451-.075.924-.14,1.375-.2L323.795,7c1.128-.172,2.32-.333,3.565-.483.558-.064,1.106-.129,1.654-.183,1.074-.129,2.212-.247,3.179-.333.258-.021.526-.054.784-.075h.064c.236-.032.494-.054.752-.086,1.364-.107,2.545-.193,3.7-.258l.6-.032c.215-.011.43-.021.655-.043.419-.021.838-.043,1.267-.054.387-.021.805-.032,1.2-.043h.054l.924-.032h.344c.666-.032,1.2-.043,1.729-.043,1.149-.021,2.33-.021,3.479,0h0c.172,0,.354,0,.526.011h.129c.193,0,.4.011.591.021s.376,0,.558.011l1.546.054c.118,0,.236.011.354.011" transform="translate(-285.36 0.01)" fill="#fff"/>
      <path id="Path_199" data-name="Path 199" d="M362.007,7.324c.129-.623.236-1.074.354-1.482a29.884,29.884,0,0,1,1.385-4.188A70.419,70.419,0,0,0,348.24,0c1.729,2.051,3.533,4.059,5.38,6,2.953.333,5.778.773,8.387,1.321" transform="translate(-280.714 0.011)" fill="#fff"/>
      <path id="Path_200" data-name="Path 200" d="M360.987,12.864a29.927,29.927,0,0,1,.494-5.38c-2.427-.5-4.972-.913-7.571-1.224a96.441,96.441,0,0,0,7.088,6.6" transform="translate(-280.295 0.473)" fill="#fff"/>
      <path id="Path_201" data-name="Path 201" d="M363.39,1.691a29.988,29.988,0,0,0-1.407,4.188c-.129.483-.236.945-.333,1.45a71.485,71.485,0,0,1,12.6,3.93,8.666,8.666,0,0,0-.9-4.253c-1.235-2.094-4.865-4.027-9.955-5.327" transform="translate(-279.723 0.135)" fill="#fff"/>
      <path id="Path_202" data-name="Path 202" d="M321.31,83.145a209.874,209.874,0,0,0,34.365-32.324c1.654-1.954,3.179-3.866,4.564-5.681-2.975.075-6.175.279-9.526.612-1.579,2.738-3.458,5.649-5.584,8.645A254.832,254.832,0,0,1,321.31,83.145" transform="translate(-282.703 3.346)" fill="#fff"/>
      <path id="Path_203" data-name="Path 203" d="M412.637,62.875c-.075-.054-.14-.107-.215-.172-.258-.193-.537-.4-.795-.6l-.58-.451c-.494-.376-.977-.762-1.46-1.138l-.43-.354c-.655-.526-1.235-1-1.75-1.45-.161-.118-.322-.258-.483-.387-.086-.075-.183-.15-.279-.226l-.322-.279c-.279-.236-.558-.483-.838-.73l-.247-.193c-.075-.064-.14-.129-.215-.193h0c-1.181,9.021-4.779,18.8-10.707,29.07a164.116,164.116,0,0,1-19.158,26.106,244.148,244.148,0,0,1-20.758,20.8,253.933,253.933,0,0,0,37.361-35.814c12.071-14.229,18.31-26.1,21.424-33.591-.129-.1-.268-.193-.408-.3l-.14-.118Z" transform="translate(-280.258 4.2)" fill="#fff"/>
      <path id="Path_204" data-name="Path 204" d="M355.707,37.028c-.838.172-1.686.354-2.524.537A82.988,82.988,0,0,1,349.06,45.8c3.286-.322,6.529-.515,9.622-.591,2.405-3.179,4.639-6.443,6.647-9.708l.118-.193c-.591.086-1.16.172-1.686.258l-.129.021c-2.717.43-5.38.913-7.925,1.439" transform="translate(-280.653 2.62)" fill="#fff"/>
      <path id="Path_205" data-name="Path 205" d="M351.1,45.765l.44-.054a78.774,78.774,0,0,0,4.135-8.151,248.585,248.585,0,0,0-50.86,17.075,299.217,299.217,0,0,1,44.395-8.666c.655-.075,1.278-.15,1.879-.2" transform="translate(-283.922 2.786)" fill="#fff"/>
      <path id="Path_206" data-name="Path 206" d="M391.554,26.36a20.873,20.873,0,0,1,2.277.14,6.254,6.254,0,0,0-.107-1.117,9.493,9.493,0,0,0-7.217-7.27l-.086-.021c-.054-.011-.107-.021-.172-.032a10.273,10.273,0,0,0-2.384-.279,9.487,9.487,0,0,0-5.681,1.815l-.032.054h-.043s-.086.064-.14.1c-1.267.924-3.136,1.117-5.423.526-.268.827-.558,1.665-.881,2.556l-.021.043A75.861,75.861,0,0,1,367.51,31.9a39.852,39.852,0,0,0,2.738,3.275c1.546-.172,3.082-.3,4.575-.408a1.613,1.613,0,0,0,.215-.021h.14c2.556-.183,4.951-.29,7.109-.311h2.491c-.569-2.427-.322-4.371.73-5.788,1.149-1.536,3.189-2.309,6.057-2.309" transform="translate(-279.29 1.325)" fill="#fff"/>
      <path id="Path_207" data-name="Path 207" d="M401.8,56.986c.118.107.236.215.354.311l.247.2c.279.247.569.494.838.73l.322.258a7.979,7.979,0,0,0,.666.558l.064.054c.473.408.956.795,1.418,1.171l.773.612c.591.473,1.181.945,1.793,1.407l.236.183c.161.118.322.247.473.365l.311.236c.107.075.236.172.354.258.1.075.183.15.279.215,3.1-7.635,4.5-14.519,3.855-19a41.671,41.671,0,0,1-12.017,2.534,47.59,47.59,0,0,1-.161,9.708l.193.161" transform="translate(-276.77 3.303)" fill="#fff"/>
      <path id="Path_208" data-name="Path 208" d="M360.082,38.6c2.577-.537,5.262-1.02,7.968-1.45l.451-.075c.677-.107,1.3-.2,1.89-.279.924-1.568,1.632-2.814,2.223-3.909a33.715,33.715,0,0,1-6.766-19.137A97.051,97.051,0,0,1,357.762,6.2c-.451-.054-.9-.086-1.342-.129l-.236-.021c-.569-.064-1.149-.118-1.707-.14-.5-.054-.988-.075-1.5-.107l-.236-.021c-.365-.021-.73-.043-1.085-.054a.367.367,0,0,1-.118-.011H351.2c-.15-.021-.3-.021-.451-.032h-.344c-.236-.021-.483-.032-.73-.043h-.322l-.859-.032h-.473a3.172,3.172,0,0,0-.451-.021c-1.171-.021-2.32-.021-3.479,0-.3,0-.612.011-.913.021-.268,0-.537,0-.805.021-.193,0-.4,0-.591.011l-.666.021c-.43.011-.848.032-1.256.043-.183,0-.376.021-.569.032-.236,0-.462.021-.7.032l-.526.021c-.236.011-.483.021-.709.043-1.278.075-2.524.161-3.694.268-.279.021-.515.043-.762.064h-.161c-.225.032-.451.054-.666.075H332c-.956.1-2.03.2-3.082.333-.569.064-1.106.118-1.654.183l-.5.064c-.988.129-2.008.258-3.039.408-.558.075-1.1.161-1.632.247-.333.043-.677.1-1.117.172l-.483.075c-.365.054-.73.118-1.1.183l-.258.054c-.29.043-.58.1-.859.14l-.913.161c-.193.032-.376.064-.558.107l-.161.032c-.311.054-.623.107-.934.172-.4.064-.784.14-1.149.215l-.408.086c-.258.043-.5.086-.752.14-1.246.247-2.373.483-3.458.72l-.7.15c-.247.054-.5.107-.752.172-.494.107-.966.215-1.439.311-.945.226-1.879.44-2.792.666-.2.054-.419.107-.623.15-.247.054-.494.118-.73.183s-.451.118-.666.172l-.118.032c-.4.086-.773.193-1.171.3l-.451.118a1.867,1.867,0,0,1-.236.054c-.419.107-.848.226-1.267.333l-1.611.43c-.161.054-.322.1-.483.14-.118.032-.236.064-.354.107l-1.181.333c-.752.215-1.514.43-2.244.655-.15.043-.29.086-.43.129l-.6.183c-.365.107-.72.215-1.085.333-.225.064-.462.14-.7.215l-.15.054c-.655.193-1.332.408-2.04.634,1.471-.365,2.921-.709,4.36-1.042l.623-.14c.193-.043.387-.086.591-.129l.5-.118c.161-.032.311-.075.473-.1l.548-.129c.215-.043.419-.1.634-.14h.075c.075-.021.15-.043.236-.064l.322-.075c.3-.054.6-.118.891-.193l.387-.075,2.91-.591c.365-.064.73-.14,1.106-.215l.107-.021c.086-.011.172-.032.258-.043l.268-.054c.376-.064.762-.14,1.138-.215v-.021l.236-.021c.183-.043.4-.075.612-.118l.58-.107c.215-.043.43-.075.644-.118h.075a4.661,4.661,0,0,1,.558-.1l.225-.043c1.235-.215,2.577-.43,4.081-.666.483-.075.956-.15,1.439-.215l.87-.129c.161-.021.311-.043.462-.075l1.965-.268c.258-.032.515-.064.773-.107l.741-.1,2.663-.322a108.35,108.35,0,0,1,12.693-.795c16.731,0,25.4,4.543,27.921,8.806.934,1.568,3.544,7.7-2.03,21.2l.43-.1c.548-.118,1.106-.236,1.654-.344" transform="translate(-285.156 0.423)" fill="#fff"/>
      <path id="Path_209" data-name="Path 209" d="M369.594,34.258c-.805-.87-1.568-1.783-2.287-2.728-.548,1.02-1.171,2.1-1.836,3.232,1.353-.193,2.706-.354,4.113-.515" transform="translate(-279.44 2.341)" fill="#fff"/>
      <path id="Path_210" data-name="Path 210" d="M374.837,113.092a164.2,164.2,0,0,0,19.083-26.01C399.9,76.7,403.488,66.85,404.583,57.808c-.451-.4-.891-.805-1.428-1.289-.258-.226-.5-.451-.752-.7-.236-.226-.494-.462-.741-.687-.709-.687-1.482-1.428-2.309-2.266l-.172-.172c-.086-.075-.161-.161-.247-.236-.172-.183-.322-.333-.494-.5l-.5-.526c-.365-.376-.719-.752-1.063-1.138-.118-.118-.247-.258-.4-.44l-.226-.236c-.795-.881-1.557-1.75-2.266-2.61-.709-.14-1.439-.311-2.244-.515a42.925,42.925,0,0,1-20.629-11.9c-1.643.172-3.351.376-5.08.623l-.161.258c-.054.1-.118.193-.183.3l-.054.086c-1.954,3.179-4.1,6.325-6.379,9.364H360.8c19.953,0,30.262,5.412,33.258,10.47,2.137,3.6,2.245,9.858.3,17.161-2.341,8.881-7.582,19.19-15.142,29.822a301.981,301.981,0,0,1-26.858,32.689,246.78,246.78,0,0,0,22.477-22.294" transform="translate(-280.409 2.567)" fill="#fff"/>
      <path id="Path_211" data-name="Path 211" d="M396.873,51.558c.913.913,1.643,1.632,2.3,2.244.15.14.29.279.44.419l.472.451c.193.172.376.344.569.515.387.365.741.687,1.085,1a48.639,48.639,0,0,0,.118-9.171,44.577,44.577,0,0,1-9.815-.655c.483.569,1.042,1.2,1.75,1.987l.945,1.031.741.773c.161.161.333.333.483.5l.558.569.354.354" transform="translate(-277.477 3.436)" fill="#fff"/>
      <path id="Path_212" data-name="Path 212" d="M372.6,20.267a32.842,32.842,0,0,0,1.665-8.752,69.722,69.722,0,0,0-12.7-3.995,29.213,29.213,0,0,0-.472,5.778c4.371,3.587,8.333,5.992,11.5,6.97" transform="translate(-279.764 0.566)" fill="#fff"/>
      <path id="Path_213" data-name="Path 213" d="M371.527,22.938v-.054c.3-.773.58-1.579.87-2.481-3.125-.977-7.012-3.3-11.287-6.733a33.325,33.325,0,0,0,6.433,17.966,77.331,77.331,0,0,0,3.973-8.709" transform="translate(-279.763 1.021)" fill="#fff"/>
      <path id="Path_214" data-name="Path 214" d="M382.641,33.9h-.6c-2.223.021-4.6.129-7.056.29h-.011l-.129.011a1.514,1.514,0,0,0-.215.011c-1.342.1-2.706.215-4.059.344a42.537,42.537,0,0,0,19.974,11.373c.462.118.924.226,1.439.344h0l-.043-.054a1.977,1.977,0,0,1-.226-.279c-.891-1.106-1.718-2.212-2.513-3.361-.075-.1-.15-.2-.226-.311l-.086-.129a45.062,45.062,0,0,1-2.459-4.059l-.064-.129s-.054-.107-.086-.161l-.064-.129a21.777,21.777,0,0,1-1.353-3.243l-.15-.494V33.89h-2.073" transform="translate(-279.064 2.515)" fill="#fff"/>
      <path id="Path_215" data-name="Path 215" d="M384.458,34.252a20,20,0,0,0,1.3,3.125,3.748,3.748,0,0,0,.215.408,40.619,40.619,0,0,0,2.416,4.016c.054.075.107.15.15.226s.1.14.15.215c.773,1.106,1.622,2.223,2.513,3.329a1.616,1.616,0,0,0,.193.258l.086.107c.107.14.215.268.311.387l.15.183a44.376,44.376,0,0,0,8.559.838c.612,0,1.235-.011,1.847-.043a41.629,41.629,0,0,0-3.028-11.888A84.221,84.221,0,0,0,384.34,33.93a2.4,2.4,0,0,0,.086.258l.021.075Z" transform="translate(-278.046 2.518)" fill="#fff"/>
      <path id="Path_216" data-name="Path 216" d="M399,35.45a42.006,42.006,0,0,1,2.921,11.695,40.087,40.087,0,0,0,11.952-2.534,7.081,7.081,0,0,0-.827-2.266c-1.654-2.8-6.894-5.359-14.046-6.884" transform="translate(-276.963 2.63)" fill="#fff"/>
    </g>
  </g>
</svg>
