<?xml version="1.0" encoding="utf-8"?>
<!-- Generator: Adobe Illustrator 27.0.0, SVG Export Plug-In . SVG Version: 6.00 Build 0)  -->
<svg version="1.1" id="Layer_1" xmlns="http://www.w3.org/2000/svg" xmlns:xlink="http://www.w3.org/1999/xlink" x="0px" y="0px"
	 viewBox="0 0 115.4 121.4" style="enable-background:new 0 0 115.4 121.4;" xml:space="preserve">
<style type="text/css">
	.st0{fill:#FFFFFF;}
	.st1{fill:#231F20;}
	.st2{fill:#CE0E2D;}
	.st3{fill:#009D4F;}
</style>
<g>
	<path class="st0" d="M110.1,69.1c0,29-23.4,52.4-52.4,52.4S5.3,98,5.3,69.1c0-29,23.4-52.4,52.4-52.4
		C86.6,16.6,110.1,40.1,110.1,69.1z"/>
</g>
<polygon class="st1" points="22.1,87.8 20.5,87.8 20.5,86.2 25.2,86.2 25.2,87.8 23.7,87.8 23.7,94.2 22.1,94.2 "/>
<path class="st1" d="M25.6,93.4c0-0.5,0.4-0.8,0.9-0.8s0.9,0.4,0.9,0.8c0,0.5-0.4,0.8-0.9,0.8C25.9,94.3,25.6,94,25.6,93.4"/>
<path class="st1" d="M31.2,94.3c-1.9,0-3.2-1.5-3.2-4.1c0-2.5,1.3-4.1,3.2-4.1c1.5,0,2.6,1.1,3,2.8l-1.5,0.3
	c-0.2-0.9-0.7-1.5-1.4-1.5c-0.9,0-1.5,1-1.5,2.6c0,1.5,0.5,2.5,1.5,2.5c0.7,0,1.2-0.5,1.4-1.5l1.6,0.2
	C33.9,93.2,32.7,94.3,31.2,94.3"/>
<path class="st1" d="M34.8,93.4c0-0.5,0.4-0.8,0.9-0.8s0.9,0.4,0.9,0.8c0,0.5-0.4,0.8-0.9,0.8C35.2,94.3,34.8,94,34.8,93.4"/>
<polygon class="st1" points="40.5,86.2 42.1,86.2 42.1,89.5 44.1,86.2 46.1,86.2 43.6,90 46.1,94.2 44.2,94.2 42.1,90.5 42.1,94.2 
	40.5,94.2 "/>
<path class="st1" d="M51.2,92.8h-2.6l-0.4,1.4h-1.7l2.5-8h1.7l2.5,8h-1.6L51.2,92.8z M50.9,91.5L50,87.9l-1,3.6H50.9z"/>
<path class="st1" d="M57.8,94.2l-1.1-2.6c-0.1,0-0.2,0-0.4,0h-0.6v2.6h-1.6v-8h2.2c2.2,0,3,0.9,3,2.6c0,1.2-0.5,1.9-1.2,2.4l1.5,2.9
	L57.8,94.2L57.8,94.2z M55.7,90.3h0.6c1,0,1.4-0.3,1.4-1.4c0-1-0.4-1.4-1.4-1.4h-0.6V90.3z"/>
<path class="st1" d="M63.4,94.3l-0.4,1.4h-1.5l0.7-1.5c-1.2-0.3-2-1-2.2-2.2l1.5-0.3c0.2,0.7,0.6,1.1,1.4,1.1c0.6,0,1.1-0.3,1.1-0.9
	c0-0.5-0.3-0.7-1.4-1.2c-1.7-0.6-2.4-1.4-2.4-2.6c0-1.4,1-2.3,2.6-2.3c1.5,0,2.6,0.8,2.8,2.1l-1.5,0.3c-0.2-0.6-0.6-1-1.2-1
	c-0.5,0-1,0.4-1,0.8c0,0.5,0.4,0.8,1.5,1.2c1.7,0.6,2.4,1.4,2.4,2.4C65.7,93.2,64.8,94.1,63.4,94.3"/>
<rect x="66.8" y="86.2" class="st1" width="1.6" height="8"/>
<polygon class="st1" points="71.7,92.1 69.2,86.2 71,86.2 72.6,90.2 74,86.2 75.8,86.2 73.4,92 73.4,94.2 71.7,94.2 "/>
<path class="st1" d="M79.9,92.8h-2.6l-0.4,1.4h-1.7l2.5-8h1.7l2.5,8h-1.7L79.9,92.8z M79.5,91.5l-0.9-3.6l-1,3.6H79.5z"/>
<polygon class="st1" points="82.7,86.2 84.3,86.2 84.3,89.5 86.3,86.2 88.3,86.2 85.8,90 88.3,94.2 86.4,94.2 84.3,90.5 84.3,94.2 
	82.7,94.2 "/>
<path class="st1" d="M93.4,92.8h-2.6l-0.4,1.4h-1.7l2.5-8H93l2.5,8h-1.7L93.4,92.8z M93.1,91.5l-0.9-3.6l-1,3.6H93.1z"/>
<path class="st1" d="M32.8,98.9h2c2.2,0,2.8,0.6,2.8,2c0,1.1-0.5,1.6-1.4,1.9c1.2,0.2,1.6,0.7,1.6,1.9c0,1.5-0.8,2.2-2.9,2.2h-2.1
	L32.8,98.9L32.8,98.9z M34.9,102.4c1.4,0,1.9-0.5,1.9-1.5s-0.5-1.3-1.9-1.3h-1.2v2.7H34.9z M34.9,106.1c1.5,0,2.1-0.4,2.1-1.5
	s-0.5-1.5-2-1.5h-1.3v2.9H34.9z"/>
<polygon class="st1" points="39.2,98.9 43.5,98.9 43.5,99.7 40,99.7 40,102.4 43.3,102.4 43.3,103.3 40,103.3 40,106.1 43.5,106.1 
	43.5,106.9 39.2,106.9 "/>
<polygon class="st1" points="44.7,98.9 45.5,98.9 45.5,106.1 48.5,106.1 48.5,106.9 44.7,106.9 "/>
<polygon class="st1" points="49.5,98.9 53.8,98.9 53.8,99.7 50.4,99.7 50.4,102.4 53.6,102.4 53.6,103.3 50.4,103.3 50.4,106.1 
	53.8,106.1 53.8,106.9 49.5,106.9 "/>
<path class="st1" d="M55,98.9h1.6c2.6,0,3.7,1.2,3.7,4c0,2.7-1.1,4-3.7,4H55V98.9z M56.6,106.1c2,0,2.8-0.9,2.8-3.2
	c0-2.3-0.8-3.2-2.8-3.2h-0.7v6.4H56.6z"/>
<path class="st1" d="M61.6,97.5c0-0.3,0.2-0.5,0.5-0.5s0.5,0.2,0.5,0.5c0,0.3-0.2,0.5-0.5,0.5C61.8,98.1,61.6,97.8,61.6,97.5
	 M61.6,98.9h0.8v8h-0.8V98.9z"/>
<polygon class="st1" points="66,104.6 63.4,98.9 64.4,98.9 66.5,103.6 68.6,98.9 69.6,98.9 66.9,104.6 66.9,106.9 66,106.9 "/>
<polygon class="st1" points="70.5,98.9 74.7,98.9 74.7,99.7 71.4,99.7 71.4,102.4 74.7,102.4 74.7,103.3 71.4,103.3 71.4,106.1 
	74.7,106.1 74.7,106.9 70.5,106.9 "/>
<path class="st1" d="M75.5,105.1l0.8-0.3c0.3,0.9,1.1,1.4,2,1.4c1,0,1.6-0.5,1.6-1.4c0-0.8-0.6-1.2-1.8-1.6
	c-1.5-0.5-2.4-1.1-2.4-2.4c0-1.2,1-2.1,2.4-2.1c1.4,0,2.3,0.6,2.6,1.8l-0.8,0.2c-0.3-0.8-0.9-1.3-1.8-1.3s-1.5,0.5-1.5,1.3
	c0,0.9,0.6,1.2,1.8,1.6c1.5,0.5,2.4,1.1,2.4,2.4c0,1.3-1,2.2-2.6,2.2C76.9,107,75.8,106.3,75.5,105.1"/>
<path class="st1" d="M82,97.5c0-0.3,0.2-0.5,0.5-0.5s0.5,0.2,0.5,0.5c0,0.3-0.2,0.5-0.5,0.5C82.1,98.1,82,97.8,82,97.5 M82,98.9h0.8
	v8H82V98.9z"/>
<path class="st2" d="M66.6,69.7c2.6,4.6,6.9,8.1,12,9.7l-0.5,1.5c-5.8-1.7-10.7-5.7-13.4-11.2C64.8,69.7,66.6,69.7,66.6,69.7z"/>
<path class="st2" d="M64.2,61.6c-0.1-0.6-0.1-1.2-0.1-1.8V16.6h-1.6v2.3h-5.2v42.7h1.6v-41h3.6v39.2c0,0.6,0,1.2,0.1,1.8H64.2z"/>
<rect x="54.5" y="16.6" class="st2" width="1.6" height="44.9"/>
<rect x="51.4" y="20.3" class="st2" width="1.6" height="41.3"/>
<path class="st2" d="M57.4,69.7v10.8H35.5c6.3-1.3,11.5-5.4,14.3-10.8H57.4z"/>
<path class="st3" d="M68.5,69.7H47.3v-8.1h21.2V69.7z M48.9,68.2h18.1v-5H48.9V68.2z"/>
</svg>
