<svg width="277" height="76" viewBox="0 0 277 76" fill="none" xmlns="http://www.w3.org/2000/svg">
<g clip-path="url(#clip0_10_2)">
<path d="M21.157 23.975L0 36.483L20.326 40.401L18.731 75.08L32.702 50.243L32.684 12.397L22.022 1.211L21.157 23.975ZM42.904 10.875L32.702 28.588L48.701 45.87L68.154 49.619L46.101 26.479L60.988 0.0780029L42.904 10.875ZM81.065 13.859L87.742 22.834H93.064L85.968 13.345L91.961 5.425H86.851L81.065 13.393V5.425H76.52V22.834H81.065V13.859Z" fill="#25408F"/>
<mask id="mask0_10_2" style="mask-type:luminance" maskUnits="userSpaceOnUse" x="0" y="0" width="277" height="76">
<path d="M0 0H276.168V75.08H0V0Z" fill="white"/>
</mask>
<g mask="url(#mask0_10_2)">
<path d="M104.383 4.13C104.929 4.12789 105.453 3.90912 105.838 3.52165C106.224 3.13418 106.44 2.60964 106.44 2.063C106.441 1.79222 106.389 1.52386 106.286 1.27336C106.183 1.02286 106.032 0.795178 105.841 0.603426C105.649 0.411674 105.422 0.25964 105.172 0.156078C104.922 0.0525163 104.654 -0.000526372 104.383 4.42993e-06C104.111 -0.00104876 103.842 0.051535 103.591 0.154739C103.34 0.257943 103.111 0.409735 102.919 0.601407C102.726 0.79308 102.574 1.02086 102.47 1.27168C102.365 1.52249 102.312 1.79141 102.312 2.063C102.314 2.61117 102.533 3.13614 102.921 3.52338C103.309 3.91062 103.835 4.12869 104.383 4.13ZM138.493 4.13C139.039 4.12684 139.562 3.90776 139.948 3.52055C140.333 3.13334 140.55 2.60941 140.551 2.063C140.551 1.79236 140.498 1.52427 140.395 1.27406C140.292 1.02386 140.141 0.796445 139.949 0.604839C139.758 0.413232 139.531 0.261189 139.281 0.157406C139.031 0.0536222 138.763 0.000135364 138.493 4.42993e-06C137.343 4.42993e-06 136.421 0.915004 136.421 2.063C136.422 2.61183 136.64 3.13787 137.029 3.52548C137.417 3.91309 137.944 4.13054 138.493 4.13ZM118.025 22.965L116.796 26.254H120.337L122.38 23.216C123.431 23.122 124.083 22.933 124.556 22.806L126.677 19.162C125.227 19.738 123.719 20.106 122.145 20.106C118.098 20.106 115.73 17.488 115.73 14.133C115.73 10.958 117.93 8.271 121.778 8.271C123.848 8.271 125.296 9.17201 125.895 9.57401V5.706C124.387 5.21944 122.81 4.97672 121.226 4.987C114.434 4.987 110.998 9.40201 110.998 14.329C110.998 18.53 113.563 21.95 118.025 22.965ZM99.4297 4.13C99.9779 4.12948 100.503 3.91156 100.891 3.52407C101.279 3.13658 101.497 2.61114 101.498 2.063C101.498 1.79152 101.445 1.52261 101.341 1.27175C101.238 1.02088 101.085 0.793029 100.893 0.601291C100.701 0.409552 100.472 0.257718 100.221 0.154525C99.9703 0.0513313 99.7012 -0.00118277 99.4297 4.42993e-06C98.2897 4.42993e-06 97.3667 0.915004 97.3667 2.063C97.3675 2.61027 97.585 3.13496 97.9716 3.52231C98.3582 3.90966 98.8825 4.12815 99.4297 4.13ZM130.268 21.635C131.229 22.395 133.033 23.285 135.986 23.285C138.824 23.285 141.733 22.568 143.138 20.048C143.899 18.643 143.951 17.02 143.951 15.938V5.425H139.438V15.708C139.438 18.084 138.823 19.974 136.063 19.974C133.032 19.974 132.61 17.827 132.61 15.363V5.425H128.075V16.282C128.076 17.461 128.1 19.974 130.268 21.635ZM96.1598 21.635C97.1218 22.395 98.9288 23.285 101.882 23.285C104.718 23.285 107.624 22.568 109.031 20.048C109.797 18.643 109.846 17.02 109.846 15.938V5.425H105.341V15.708C105.341 18.084 104.718 19.974 101.958 19.974C98.9287 19.974 98.5027 17.827 98.5027 15.363V5.425H93.9688V16.282C93.9688 17.461 93.9938 19.974 96.1598 21.635ZM133.541 4.13C134.088 4.1271 134.611 3.90824 134.997 3.52109C135.384 3.13394 135.601 2.60986 135.603 2.063C135.603 0.915004 134.673 4.42993e-06 133.541 4.42993e-06C132.401 4.42993e-06 131.471 0.915004 131.471 2.063C131.471 3.198 132.401 4.13 133.541 4.13ZM207.943 5.425H202.843L197.045 13.394V5.425H192.511V22.833H197.045V13.859L203.725 22.833H209.054L201.949 13.345L207.943 5.425ZM225.274 5.425L220.716 15.096L216.207 5.425H211.646L209.68 22.833H214.032L215.024 11.472L220.372 22.833H221.017L226.44 11.518L227.38 22.833H231.841L229.795 5.425H225.274ZM251.358 14.133C251.358 10.958 253.547 8.271 257.397 8.271C259.467 8.271 260.927 9.17201 261.515 9.57401V5.706C260.01 5.22325 258.439 4.98094 256.859 4.988C250.1 4.988 246.623 9.40201 246.623 14.329C246.623 19.367 250.295 23.286 256.536 23.286C258.484 23.286 259.517 22.984 260.183 22.807L262.302 19.163C260.856 19.749 259.349 20.107 257.769 20.107C253.724 20.106 251.358 17.488 251.358 14.133ZM238.397 15.588H245.149V12.188H238.397V8.859H245.149V5.425H233.859V22.833H244.484L246.454 19.377H238.397V15.588ZM268.104 19.377V15.588H274.859V12.188H268.104V8.859H274.859V5.425H263.569V22.833H274.192L276.167 19.377H268.104ZM155.687 13.345L161.681 5.425H156.573L150.783 13.393V5.425H146.243V22.833H150.783V13.859L157.465 22.833H162.792L155.687 13.345ZM183.014 15.588H189.773V12.188H183.014V8.859H189.773V5.425H178.489V22.833H189.111L191.082 19.377H183.014V15.588Z" fill="#25408F"/>
</g>
<mask id="mask1_10_2" style="mask-type:luminance" maskUnits="userSpaceOnUse" x="0" y="0" width="277" height="76">
<path d="M0 0H276.168V75.08H0V0Z" fill="white"/>
</mask>
<g mask="url(#mask1_10_2)">
<path d="M166.081 14.133C166.081 10.958 168.274 8.27101 172.123 8.27101C174.19 8.27101 175.652 9.17201 176.245 9.57401V5.70601C174.739 5.21978 173.165 4.97739 171.582 4.98801C164.775 4.98801 161.348 9.40201 161.348 14.329C161.348 18.531 163.902 21.951 168.37 22.966L167.141 26.255H170.689L172.73 23.217C173.773 23.123 174.435 22.934 174.912 22.807L177.031 19.163C175.577 19.739 174.075 20.107 172.493 20.107C168.456 20.106 166.081 17.488 166.081 14.133ZM175.285 31.919H167.49V49.337H174.344C176.301 49.337 179.081 49.222 181.477 46.837C183.055 45.254 183.913 42.962 183.913 40.473C183.913 35.021 180.115 31.919 175.285 31.919ZM176.302 45.486C175.236 45.941 174.244 45.976 173.288 45.976H172.005V35.298H173.853C177.005 35.366 179.107 37.323 179.107 40.592C179.106 42.298 178.541 44.489 176.302 45.486ZM130.245 42.08H136.992V38.672H130.245V35.344H136.992V31.918H125.7V49.337H136.338L138.3 45.874H130.245V42.08ZM121.793 40.942C121.276 40.578 120.706 40.373 120.288 40.2C121.966 39.442 122.926 38.25 122.926 36.483C122.926 33.078 119.942 31.918 117.479 31.918H110.077V49.336H117.282C118.537 49.336 120.172 49.276 121.619 48.142C122.877 47.181 123.546 45.8 123.546 44.341C123.546 42.891 122.857 41.665 121.793 40.942ZM114.446 35.145H116.118C116.562 35.145 117.041 35.176 117.465 35.3C118.172 35.506 118.729 35.971 118.729 36.98C118.729 37.18 118.699 37.379 118.637 37.569C118.449 38.137 117.971 38.621 117.155 38.82C116.966 38.8655 116.773 38.8943 116.578 38.906C116.389 38.918 116.205 38.918 116.017 38.918L114.446 41.244V35.145ZM116.241 46.147H114.446V41.607H115.577C117.303 41.607 119.031 41.935 119.031 43.878C119.031 45.453 117.921 46.147 116.241 46.147Z" fill="#25408F"/>
</g>
<mask id="mask2_10_2" style="mask-type:luminance" maskUnits="userSpaceOnUse" x="0" y="0" width="277" height="76">
<path d="M0 0H276.168V75.08H0V0Z" fill="white"/>
</mask>
<g mask="url(#mask2_10_2)">
<path d="M117.155 38.82C117.971 38.621 118.449 38.136 118.636 37.569C118.449 38.137 117.971 38.621 117.155 38.82ZM158.206 42.08H164.966V38.672H158.206V35.344H164.966V31.918H153.673V49.337H164.301L166.275 45.874H158.206V42.08ZM144.433 31.918H139.869V49.337H150.423L152.446 45.85H144.433V31.918ZM240.318 26.254C239.71 26.254 239.127 26.4956 238.697 26.9256C238.267 27.3556 238.025 27.9389 238.025 28.547C238.025 29.1551 238.267 29.7384 238.697 30.1684C239.127 30.5984 239.71 30.84 240.318 30.84C240.62 30.8404 240.918 30.7813 241.197 30.6661C241.475 30.5509 241.728 30.3818 241.941 30.1686C242.154 29.9554 242.323 29.7022 242.438 29.4236C242.553 29.145 242.612 28.8464 242.611 28.545C242.612 28.2439 242.552 27.9457 242.437 27.6675C242.322 27.3893 242.153 27.1365 241.94 26.9237C241.727 26.7109 241.474 26.5422 241.196 26.4273C240.918 26.3124 240.619 26.2535 240.318 26.254ZM185.809 31.918H190.372V49.336H185.809V31.918ZM238.042 31.918H242.603V49.336H238.042V31.918ZM232.72 39.217L231.467 38.702C230.405 38.236 229.347 37.708 229.347 36.528C229.347 35.846 229.787 34.66 231.661 34.66C233.218 34.66 234.448 35.224 235.608 36.206V32.487C234.122 31.795 232.829 31.478 231.172 31.478C226.727 31.478 224.856 34.377 224.856 36.897C224.856 40.125 227.644 41.39 228.927 41.898L229.907 42.298C230.823 42.691 231.906 43.212 231.906 44.465C231.903 44.7485 231.842 45.0284 231.728 45.2881C231.615 45.5478 231.45 45.782 231.244 45.977C230.849 46.294 230.206 46.536 229.346 46.536C228.433 46.536 227.395 46.252 226.434 45.824C225.576 45.428 225.177 45.094 224.81 44.805V48.711C227.174 49.691 229.294 49.767 229.939 49.767C234.105 49.767 236.473 47.181 236.473 44.222C236.474 40.942 233.979 39.815 232.72 39.217ZM188.098 26.254C187.49 26.2535 186.907 26.4945 186.476 26.9241C186.045 27.3537 185.803 27.9368 185.802 28.545C185.815 29.1455 186.062 29.7172 186.491 30.1375C186.92 30.5577 187.497 30.7931 188.098 30.7931C188.698 30.7931 189.275 30.5577 189.704 30.1375C190.133 29.7172 190.381 29.1455 190.393 28.545C190.393 28.2439 190.333 27.9458 190.218 27.6677C190.103 27.3896 189.933 27.1369 189.72 26.9242C189.507 26.7115 189.254 26.5428 188.976 26.4278C188.698 26.3128 188.399 26.2537 188.098 26.254ZM201.077 38.75L197.33 31.918H192.205L198.634 42.942V49.337H203.221V42.942L209.663 31.918H204.848L201.077 38.75ZM215.569 42.08H222.331V38.672H215.569V35.344H222.331V31.918H211.035V49.337H221.666L223.637 45.874H215.569V42.08Z" fill="#25408F"/>
</g>
</g>
<defs>
<clipPath id="clip0_10_2">
<rect width="276.168" height="75.08" fill="white"/>
</clipPath>
</defs>
</svg>
