<svg width="228" height="70" viewBox="0 0 228 70" fill="none" xmlns="http://www.w3.org/2000/svg">
<path d="M111.36 13.8402V42.9741H106.515V23.019L97.5068 42.9741H94.1547L85.0938 23.019V42.9741H80.249V13.8402H85.4735L95.8439 36.6891L106.175 13.8402H111.36Z" fill="black"/>
<path d="M122.543 13.8402V32.4205C122.543 34.6333 123.132 36.2963 124.311 37.4092C125.489 38.5222 127.126 39.0853 129.221 39.0853C131.316 39.0853 132.992 38.5222 134.17 37.4092C135.349 36.2963 135.938 34.6333 135.938 32.4205V13.8402H140.783V32.3288C140.783 34.6988 140.259 36.7153 139.212 38.3651C138.164 40.0149 136.763 41.2457 135.008 42.0576C133.254 42.8694 131.316 43.2753 129.182 43.2753C127.047 43.2753 125.122 42.8694 123.381 42.0576C121.64 41.2457 120.252 40.0149 119.23 38.3651C118.209 36.7153 117.698 34.6988 117.698 32.3288V13.8402H122.543Z" fill="black"/>
<path d="M168.45 22.2203C167.691 20.7669 166.617 19.667 165.255 18.9338C163.894 18.1874 162.322 17.8208 160.542 17.8208C158.591 17.8208 156.849 18.2529 155.317 19.1171C153.785 19.9813 152.594 21.2121 151.729 22.8096C150.865 24.407 150.433 26.2532 150.433 28.3483C150.433 30.4433 150.865 32.3026 151.729 33.9001C152.594 35.5106 153.785 36.7415 155.317 37.6057C156.849 38.4699 158.591 38.902 160.542 38.902C163.173 38.902 165.321 38.1818 166.958 36.7153C168.607 35.2619 169.603 33.2978 169.969 30.7968H158.879V26.9865H175.154V30.7183C174.84 32.9835 174.028 35.0654 172.706 36.9641C171.383 38.8627 169.668 40.3816 167.56 41.5076C165.452 42.6337 163.108 43.2099 160.529 43.2099C157.753 43.2099 155.212 42.5683 152.921 41.2981C150.63 40.028 148.809 38.2604 147.461 35.9951C146.112 33.7299 145.444 31.1766 145.444 28.3221C145.444 25.4676 146.112 22.9143 147.461 20.6491C148.809 18.3838 150.63 16.6161 152.947 15.346C155.252 14.0759 157.792 13.4343 160.529 13.4343C163.671 13.4343 166.473 14.1938 168.922 15.7258C171.37 17.2446 173.151 19.4051 174.251 22.2072H168.424L168.45 22.2203ZM164.98 10.2656C163.828 11.3262 162.27 11.8631 160.28 11.8631C158.289 11.8631 156.731 11.3262 155.605 10.2525C154.466 9.1788 153.903 7.75156 153.903 5.99698V5.11969H156.666C156.666 6.12792 156.941 6.87427 157.478 7.38493C158.014 7.8825 158.944 8.14438 160.28 8.14438C161.615 8.14438 162.545 7.8956 163.082 7.38493C163.619 6.88737 163.894 6.12792 163.894 5.11969H166.696V6.03626C166.696 7.79085 166.12 9.20499 164.967 10.2656H164.98Z" fill="black"/>
<path d="M184.778 39.1114H194.769V42.9741H179.934V13.8402H184.778V39.1114Z" fill="black"/>
<path d="M216.609 37.0164H204.235L202.114 42.9742H197.06L207.639 13.7878H213.257L223.837 42.9742H218.73L216.609 37.0164ZM215.247 33.1144L210.442 19.5753L205.597 33.1144H215.247Z" fill="black"/>
<path d="M84.8453 54.4968C85.1857 54.9158 85.3559 55.3872 85.3559 55.911C85.3559 56.3561 85.2381 56.7621 85.0024 57.1287C84.7667 57.4953 84.4263 57.7703 83.968 57.9798C83.5228 58.1893 82.999 58.294 82.3967 58.294H78.7959V49.4164H82.2265C82.8419 49.4164 83.3657 49.5211 83.8109 49.7175C84.2561 49.927 84.5834 50.202 84.806 50.5425C85.0286 50.8829 85.1464 51.2757 85.1464 51.6947C85.1464 52.2054 85.0024 52.6375 84.7274 52.9779C84.4525 53.3184 84.0858 53.5671 83.6145 53.7374C84.0989 53.829 84.5048 54.0778 84.8453 54.4968ZM80.2755 53.1612H82.0956C82.58 53.1612 82.9598 53.0565 83.2216 52.8339C83.4835 52.6113 83.6275 52.3101 83.6275 51.8911C83.6275 51.4721 83.4966 51.1841 83.2216 50.9484C82.9467 50.7258 82.5669 50.6079 82.0956 50.6079H80.2755V53.1481V53.1612ZM83.4442 56.7621C83.7323 56.5264 83.8763 56.1859 83.8763 55.7669C83.8763 55.3479 83.7192 54.9944 83.418 54.7325C83.1169 54.4706 82.711 54.3528 82.2134 54.3528H80.2755V57.1287H82.2658C82.7633 57.1287 83.1562 57.0108 83.4442 56.7752V56.7621Z" fill="black"/>
<path d="M88.4064 49.4164V55.073C88.4064 55.7407 88.5897 56.2514 88.9432 56.5919C89.2968 56.9323 89.7943 57.1025 90.4359 57.1025C91.0775 57.1025 91.5882 56.9323 91.9417 56.5919C92.2953 56.2514 92.4786 55.7407 92.4786 55.073V49.4164H93.9582V55.0468C93.9582 55.7669 93.8011 56.3823 93.4737 56.8799C93.1595 57.3775 92.7274 57.7572 92.1905 58.006C91.6537 58.2548 91.0644 58.3726 90.4228 58.3726C89.7812 58.3726 89.192 58.2548 88.6552 58.006C88.1183 57.7572 87.6993 57.3906 87.3981 56.8799C87.0839 56.3823 86.9268 55.7669 86.9268 55.0468V49.4164H88.4064ZM88.773 48.3034C88.6159 48.1594 88.5504 47.9761 88.5504 47.7666C88.5504 47.5571 88.629 47.3737 88.773 47.2166C88.9301 47.0726 89.1003 46.994 89.3229 46.994C89.5455 46.994 89.7158 47.0726 89.8729 47.2166C90.03 47.3607 90.0955 47.544 90.0955 47.7666C90.0955 47.9892 90.0169 48.1594 89.8729 48.3034C89.7158 48.4474 89.5324 48.526 89.3229 48.526C89.1134 48.526 88.9301 48.4474 88.773 48.3034ZM90.999 48.3034C90.8418 48.1594 90.7764 47.9761 90.7764 47.7666C90.7764 47.5571 90.8549 47.3737 90.999 47.2166C91.1561 47.0726 91.3394 46.994 91.5489 46.994C91.7584 46.994 91.9417 47.0726 92.0988 47.2166C92.256 47.3607 92.3214 47.544 92.3214 47.7666C92.3214 47.9892 92.2429 48.1594 92.0988 48.3034C91.9417 48.4474 91.7584 48.526 91.5489 48.526C91.3394 48.526 91.143 48.4474 90.999 48.3034Z" fill="black"/>
<path d="M102.549 49.4164L99.5764 55.0729V58.294H98.0967V55.0729L95.1113 49.4164H96.7612L98.8431 53.7766L100.925 49.4164H102.562H102.549Z" fill="black"/>
<path d="M105.18 49.4164V55.073C105.18 55.7407 105.363 56.2514 105.717 56.5919C106.07 56.9323 106.568 57.1025 107.209 57.1025C107.851 57.1025 108.362 56.9323 108.715 56.5919C109.069 56.2514 109.252 55.7407 109.252 55.073V49.4164H110.732V55.0468C110.732 55.7669 110.574 56.3823 110.247 56.8799C109.933 57.3775 109.501 57.7572 108.964 58.006C108.427 58.2548 107.838 58.3726 107.196 58.3726C106.555 58.3726 105.965 58.2548 105.429 58.006C104.892 57.7572 104.473 57.3906 104.172 56.8799C103.857 56.3823 103.7 55.7669 103.7 55.0468V49.4164H105.18ZM105.546 48.3034C105.389 48.1594 105.324 47.9761 105.324 47.7666C105.324 47.5571 105.402 47.3737 105.546 47.2166C105.704 47.0726 105.874 46.994 106.096 46.994C106.319 46.994 106.489 47.0726 106.646 47.2166C106.803 47.3607 106.869 47.544 106.869 47.7666C106.869 47.9892 106.79 48.1594 106.646 48.3034C106.489 48.4474 106.306 48.526 106.096 48.526C105.887 48.526 105.704 48.4474 105.546 48.3034ZM107.772 48.3034C107.615 48.1594 107.55 47.9761 107.55 47.7666C107.55 47.5571 107.628 47.3737 107.772 47.2166C107.93 47.0726 108.113 46.994 108.322 46.994C108.532 46.994 108.715 47.0726 108.872 47.2166C109.029 47.3607 109.095 47.544 109.095 47.7666C109.095 47.9892 109.016 48.1594 108.872 48.3034C108.715 48.4474 108.532 48.526 108.322 48.526C108.113 48.526 107.916 48.4474 107.772 48.3034Z" fill="black"/>
<path d="M117.606 58.294L114.123 54.3266V58.294H112.644V49.4164H114.123V53.4624L117.619 49.4164H119.465L115.55 53.8552L119.531 58.2809H117.606V58.294Z" fill="black"/>
<path d="M126.602 56.9453C126.393 57.312 126.105 57.6262 125.712 57.875C125.319 58.1238 124.861 58.2809 124.324 58.3595V59.0011C124.821 59.0011 125.227 59.1189 125.541 59.3546C125.856 59.5903 126.013 59.9176 126.013 60.3497C126.013 60.7818 125.856 61.1092 125.541 61.3711C125.227 61.6198 124.834 61.7508 124.363 61.7508H122.648V60.8342H124.062C124.298 60.8342 124.481 60.7949 124.612 60.7295C124.73 60.664 124.795 60.5331 124.795 60.3628C124.795 60.1926 124.73 60.0617 124.612 59.9962C124.494 59.9307 124.311 59.8915 124.062 59.8915H123.355V58.3857C122.543 58.3202 121.888 58.0583 121.378 57.6131C120.867 57.1679 120.618 56.5787 120.618 55.8716H122.203C122.242 56.2513 122.386 56.5656 122.661 56.8144C122.936 57.0632 123.316 57.181 123.813 57.181C124.311 57.181 124.717 57.0632 125.005 56.8144C125.293 56.5656 125.437 56.2644 125.437 55.8716C125.437 55.5705 125.345 55.3348 125.175 55.1384C124.992 54.9551 124.782 54.811 124.52 54.7063C124.258 54.6015 123.892 54.4968 123.433 54.3789C122.844 54.2218 122.373 54.0647 122.006 53.9075C121.639 53.7504 121.325 53.5016 121.063 53.1743C120.801 52.8469 120.671 52.4017 120.671 51.8518C120.671 51.3411 120.801 50.8959 121.063 50.5162C121.325 50.1365 121.679 49.8353 122.15 49.6389C122.622 49.4294 123.158 49.3378 123.774 49.3378C124.651 49.3378 125.358 49.5473 125.921 49.9794C126.484 50.4115 126.785 51.0007 126.851 51.747H125.214C125.188 51.4197 125.031 51.1447 124.743 50.9221C124.455 50.6995 124.088 50.5817 123.617 50.5817C123.198 50.5817 122.844 50.6864 122.582 50.8959C122.32 51.1054 122.176 51.4197 122.176 51.8125C122.176 52.0875 122.255 52.3101 122.425 52.4803C122.595 52.6505 122.805 52.7946 123.067 52.8993C123.329 53.0041 123.682 53.1088 124.127 53.2267C124.717 53.3838 125.214 53.554 125.581 53.7111C125.96 53.8683 126.275 54.117 126.537 54.4575C126.798 54.7979 126.929 55.2431 126.929 55.8062C126.929 56.2121 126.825 56.6049 126.628 56.9715L126.602 56.9453Z" fill="black"/>
<path d="M130.137 50.5948V53.2005H133.24V54.3921H130.137V57.1156H133.633V58.3071H128.657V49.4164H133.633V50.6079H130.137V50.5948Z" fill="black"/>
<path d="M142.629 49.4164V58.294H141.149V54.4183H136.92V58.294H135.44V49.4164H136.92V53.2267H141.149V49.4164H142.629Z" fill="black"/>
<path d="M144.75 48.3034C144.593 48.1594 144.527 47.9761 144.527 47.7666C144.527 47.5571 144.606 47.3737 144.75 47.2166C144.907 47.0726 145.09 46.994 145.3 46.994C145.509 46.994 145.693 47.0726 145.85 47.2166C146.007 47.3607 146.072 47.544 146.072 47.7666C146.072 47.9892 145.994 48.1594 145.85 48.3034C145.693 48.4474 145.509 48.526 145.3 48.526C145.09 48.526 144.894 48.4474 144.75 48.3034ZM146.033 49.4164V58.2941H144.554V49.4164H146.033Z" fill="black"/>
<path d="M152.659 58.294L150.59 54.7456H149.464V58.294H147.984V49.4164H151.088C151.782 49.4164 152.358 49.5342 152.842 49.7699C153.327 50.0056 153.68 50.333 153.916 50.7258C154.152 51.1317 154.269 51.5769 154.269 52.0613C154.269 52.6375 154.099 53.1612 153.759 53.6326C153.418 54.104 152.895 54.4313 152.188 54.6016L154.413 58.2809H152.659V58.294ZM149.464 53.5802H151.101C151.651 53.5802 152.07 53.4493 152.345 53.1743C152.62 52.8994 152.764 52.5327 152.764 52.0744C152.764 51.6162 152.62 51.2495 152.345 51.0007C152.07 50.752 151.651 50.6079 151.088 50.6079H149.451V53.5802H149.464Z" fill="black"/>
<path d="M165.583 54.4968C165.923 54.9158 166.093 55.3872 166.093 55.911C166.093 56.3561 165.975 56.7621 165.74 57.1287C165.504 57.4953 165.164 57.7703 164.705 57.9798C164.26 58.1893 163.736 58.294 163.134 58.294H159.533V49.4164H162.964C163.579 49.4164 164.103 49.5211 164.548 49.7175C164.993 49.927 165.321 50.202 165.543 50.5425C165.766 50.8829 165.884 51.2757 165.884 51.6947C165.884 52.2054 165.74 52.6375 165.465 52.9779C165.19 53.3184 164.823 53.5671 164.352 53.7374C164.836 53.829 165.242 54.0778 165.583 54.4968ZM161.013 53.1612H162.833C163.317 53.1612 163.697 53.0565 163.959 52.8339C164.234 52.6113 164.365 52.3101 164.365 51.8911C164.365 51.4721 164.234 51.1841 163.959 50.9484C163.684 50.7258 163.304 50.6079 162.833 50.6079H161.013V53.1481V53.1612ZM164.182 56.7621C164.47 56.5264 164.614 56.1859 164.614 55.7669C164.614 55.3479 164.457 54.9944 164.155 54.7325C163.854 54.4706 163.448 54.3528 162.951 54.3528H161.013V57.1287H163.003C163.501 57.1287 163.893 57.0108 164.182 56.7752V56.7621Z" fill="black"/>
<path d="M169.157 50.5948V53.2005H172.261V54.3921H169.157V57.1156H172.653V58.3071H167.678V49.4164H172.653V50.6079H169.157V50.5948Z" fill="black"/>
<path d="M175.94 57.1156H178.977V58.294H174.46V49.4164H175.94V57.1156Z" fill="black"/>
<path d="M181.688 50.5948V53.2005H184.791V54.3921H181.688V57.1156H185.184V58.3071H180.208V49.4164H185.184V50.6079H181.688V50.5948Z" fill="black"/>
<path d="M192.451 49.9663C193.171 50.333 193.734 50.8436 194.127 51.5245C194.52 52.2054 194.716 52.991 194.716 53.8945C194.716 54.798 194.52 55.5836 194.127 56.2383C193.734 56.9061 193.184 57.4168 192.451 57.7703C191.731 58.1238 190.893 58.294 189.937 58.294H187.004V49.4164H189.937C190.893 49.4164 191.731 49.5997 192.451 49.9532V49.9663ZM192.359 56.2645C192.922 55.7015 193.197 54.9158 193.197 53.8945C193.197 52.8732 192.922 52.0613 192.359 51.4852C191.796 50.9091 190.998 50.621 189.937 50.621H188.47V57.1156H189.937C190.984 57.1156 191.796 56.8406 192.359 56.2776V56.2645Z" fill="black"/>
<path d="M196.366 48.3034C196.209 48.1594 196.144 47.9761 196.144 47.7666C196.144 47.5571 196.222 47.3737 196.366 47.2166C196.523 47.0726 196.707 46.994 196.916 46.994C197.126 46.994 197.309 47.0726 197.466 47.2166C197.623 47.3607 197.689 47.544 197.689 47.7666C197.689 47.9892 197.61 48.1594 197.466 48.3034C197.309 48.4474 197.126 48.526 196.916 48.526C196.707 48.526 196.523 48.4474 196.366 48.3034ZM197.649 49.4164V58.2941H196.17V49.4164H197.649Z" fill="black"/>
<path d="M206.265 49.4164L203.293 55.0729V58.294H201.814V55.0729L198.828 49.4164H200.478L202.56 53.7766L204.642 49.4164H206.279H206.265Z" fill="black"/>
<path d="M208.897 50.5948V53.2005H212V54.3921H208.897V57.1156H212.393V58.3071H207.417V49.4164H212.393V50.6079H208.897V50.5948Z" fill="black"/>
<path d="M215.548 58.0714C215.064 57.8619 214.684 57.5738 214.409 57.181C214.134 56.8013 213.99 56.3561 213.99 55.8454H215.575C215.614 56.2252 215.758 56.5394 216.033 56.7882C216.308 57.037 216.688 57.1548 217.185 57.1548C217.683 57.1548 218.089 57.037 218.377 56.7882C218.665 56.5394 218.809 56.2383 218.809 55.8454C218.809 55.5443 218.717 55.3086 218.547 55.1122C218.364 54.9289 218.154 54.7848 217.892 54.6801C217.63 54.5753 217.264 54.4706 216.805 54.3527C216.216 54.1956 215.745 54.0385 215.378 53.8814C215.012 53.7242 214.697 53.4754 214.435 53.1481C214.174 52.8208 214.043 52.3756 214.043 51.8256C214.043 51.315 214.174 50.8698 214.435 50.49C214.697 50.1103 215.051 49.8092 215.522 49.6127C215.994 49.4032 216.53 49.3116 217.146 49.3116C218.023 49.3116 218.73 49.5211 219.293 49.9532C219.856 50.3853 220.157 50.9745 220.223 51.7209H218.586C218.56 51.3935 218.403 51.1185 218.115 50.8959C217.827 50.6733 217.46 50.5555 216.989 50.5555C216.57 50.5555 216.216 50.6603 215.954 50.8698C215.679 51.0793 215.548 51.3935 215.548 51.7863C215.548 52.0613 215.627 52.2839 215.797 52.4541C215.967 52.6243 216.177 52.7684 216.439 52.8731C216.701 52.9779 217.054 53.0826 217.499 53.2005C218.102 53.3576 218.586 53.5278 218.953 53.6849C219.333 53.8421 219.647 54.0909 219.909 54.4313C220.171 54.7717 220.302 55.2169 220.302 55.78C220.302 56.2252 220.184 56.6573 219.935 57.0501C219.686 57.456 219.333 57.7702 218.861 58.019C218.39 58.2678 217.84 58.3857 217.198 58.3857C216.596 58.3857 216.046 58.2809 215.562 58.0714H215.548Z" fill="black"/>
<path d="M222.214 48.3034C222.057 48.1594 221.991 47.9761 221.991 47.7666C221.991 47.5571 222.07 47.3737 222.214 47.2166C222.371 47.0726 222.554 46.994 222.764 46.994C222.973 46.994 223.157 47.0726 223.314 47.2166C223.471 47.3607 223.536 47.544 223.536 47.7666C223.536 47.9892 223.458 48.1594 223.314 48.3034C223.157 48.4474 222.973 48.526 222.764 48.526C222.554 48.526 222.371 48.4474 222.214 48.3034ZM223.497 49.4164V58.2941H222.017V49.4164H223.497Z" fill="black"/>
<path d="M4.7627 35C4.7627 15.6734 20.6456 0 40.2472 0Z" fill="black"/>
<path d="M40.2472 70C20.6456 70 4.7627 54.3266 4.7627 35Z" fill="black"/>
<path d="M38.6105 5.39471L38.6759 7.60758C38.6759 7.72543 38.7021 7.80399 38.7283 7.86946L37.2749 7.90874C37.2749 7.90874 37.3011 7.83018 37.3011 7.7909C37.3011 7.75162 37.3011 7.71234 37.3011 7.64687L37.1701 2.77593C37.1701 2.77593 37.1701 2.68428 37.1701 2.645C37.1701 2.60571 37.1701 2.56643 37.1309 2.51406L38.5843 2.47477C38.5581 2.55334 38.545 2.645 38.545 2.73665L38.5974 4.7924L40.4305 4.74002L40.3781 2.68428C40.3781 2.57953 40.352 2.48787 40.3258 2.4224L41.7792 2.38312C41.7792 2.38312 41.753 2.46168 41.7399 2.50096C41.7399 2.52715 41.7399 2.57953 41.7399 2.645L41.8709 7.51593C41.8709 7.63377 41.897 7.71234 41.9232 7.77781L40.4829 7.81709L40.5091 7.69924C40.5091 7.69924 40.5091 7.62068 40.5091 7.55521L40.4436 5.34234L38.6105 5.39471Z" fill="black"/>
<path d="M43.7036 2.63187L45.1439 2.81518C45.1439 2.81518 45.1046 2.89375 45.0915 2.93303C45.0915 2.95922 45.0784 3.01159 45.0653 3.07706L44.4237 7.89562C44.4106 8.01346 44.4237 8.09202 44.4237 8.17059L42.9834 7.98727C43.0227 7.9218 43.0489 7.83015 43.062 7.7254L43.7036 2.90684C43.7036 2.90684 43.7036 2.81518 43.7036 2.7759C43.7036 2.73662 43.7036 2.69734 43.6905 2.64496L43.7036 2.63187ZM44.6201 1.41413C45.0653 1.46651 45.2617 1.64982 45.2225 1.93789C45.1832 2.23905 44.9475 2.36999 44.4892 2.30452C44.2666 2.27833 44.1095 2.21286 44.0047 2.12121C43.8869 2.02955 43.8476 1.9117 43.8738 1.76767C43.8869 1.63673 43.9654 1.53198 44.0964 1.46651C44.2273 1.40104 44.4106 1.38795 44.6201 1.41413Z" fill="black"/>
<path d="M47.7372 6.03629L47.9991 6.11485C48.2086 6.18032 48.3788 6.16723 48.536 6.08867C48.7848 5.97082 48.955 5.73513 49.0466 5.40778C49.1383 5.10662 49.1383 4.85784 49.0466 4.64834C48.955 4.42574 48.7979 4.28171 48.5622 4.21624L48.3003 4.13767L47.7242 6.04938L47.7372 6.03629ZM47.6194 6.4422L47.004 8.51104C47.004 8.51104 46.9778 8.60269 46.9778 8.64198C46.9778 8.68126 46.9778 8.73363 46.9778 8.78601L45.5898 8.3801C45.5898 8.3801 45.6291 8.31463 45.6553 8.27535C45.6684 8.23607 45.6946 8.19678 45.7077 8.13131L47.1087 3.46989C47.1349 3.36513 47.148 3.27348 47.148 3.20801L49.243 3.82342C49.662 3.94127 49.9894 4.15077 50.212 4.42574C50.5131 4.80546 50.5786 5.23756 50.4346 5.73513C50.3298 6.06248 50.1596 6.32436 49.8977 6.49458C49.6882 6.63861 49.3609 6.70408 48.9157 6.73027L49.6097 9.30977C49.6359 9.4407 49.6751 9.53236 49.7144 9.59783L48.1432 9.13955C48.1432 9.04789 48.1432 8.95623 48.1432 8.87767L47.6456 6.46839L47.6194 6.4422Z" fill="black"/>
<path d="M32.2729 3.32583L35.3761 2.74969L35.494 3.35201C35.4154 3.35201 35.3106 3.35201 35.219 3.35201L33.7656 3.61389L34.106 5.39466L35.5201 5.13279C35.6511 5.1066 35.7427 5.08041 35.8082 5.05422L35.9261 5.66963C35.8475 5.66963 35.7427 5.66963 35.638 5.66963L34.1977 5.93151L34.5381 7.73847L35.9392 7.47659C36.057 7.45041 36.1617 7.42422 36.2403 7.38494L36.3582 8.02654L33.2549 8.60267C33.2549 8.52411 33.2549 8.43245 33.2549 8.34079L32.3514 3.54842C32.3252 3.43058 32.299 3.33892 32.2598 3.29964L32.2729 3.32583Z" fill="black"/>
<path d="M28.9213 9.87282L28.8035 8.99553C29.0391 9.061 29.1963 9.11338 29.2879 9.12647C29.6415 9.20503 29.9688 9.17885 30.2831 9.061C30.5449 8.95625 30.7152 8.81222 30.7937 8.61581C30.8854 8.43249 30.8854 8.23608 30.7937 8.03968C30.7021 7.81708 30.5318 7.68614 30.2831 7.62067C30.2307 7.62067 30.1259 7.59448 29.9819 7.59448C29.8379 7.58139 29.6415 7.5683 29.3927 7.5683C28.8689 7.5683 28.4761 7.48973 28.2273 7.33261C27.9393 7.16238 27.7298 6.92669 27.5988 6.61244C27.4679 6.31128 27.4417 6.01012 27.5072 5.70896C27.625 5.10664 28.0571 4.66145 28.8035 4.36029C29.2486 4.17697 29.72 4.09841 30.2307 4.11151L30.3485 4.92333C29.7855 4.80548 29.3534 4.80548 29.026 4.92333C28.8427 5.00189 28.6987 5.11974 28.6201 5.27686C28.5416 5.44708 28.5416 5.60421 28.607 5.77443C28.6856 5.95775 28.8034 6.0625 28.9606 6.11487C29.1177 6.16725 29.4581 6.19344 29.9819 6.19344C30.5318 6.19344 30.9378 6.272 31.1996 6.45531C31.4746 6.62553 31.671 6.87432 31.815 7.20167C31.946 7.52901 31.9853 7.85636 31.946 8.18371C31.8543 8.8384 31.4091 9.33597 30.6104 9.65023C30.3354 9.75498 30.0736 9.83354 29.8248 9.85973C29.576 9.88592 29.2748 9.89901 28.9082 9.87282H28.9213ZM30.6497 11.287L30.4926 10.0299L31.3175 9.7026L31.1865 11.0775L30.6497 11.287Z" fill="black"/>
<path d="M53.9302 11.2084L54.2968 11.4441C54.7027 11.706 55.0694 11.6012 55.3967 11.1167C55.7764 10.5668 55.7241 10.1347 55.2527 9.82043L54.9908 9.65021L53.9302 11.2084ZM55.3051 9.17883L55.5408 9.33596C55.7633 9.47999 55.9467 9.54546 56.1038 9.51927C56.1954 9.51927 56.3133 9.4538 56.4442 9.34905C56.5097 9.29667 56.5621 9.2443 56.6145 9.19192C56.6668 9.12645 56.7192 9.06098 56.7716 8.99551C57.0858 8.53723 57.0466 8.1575 56.6275 7.88253L56.3264 7.68612L55.3182 9.17883H55.3051ZM55.4753 6.42911L57.4132 7.69922C57.7929 7.948 58.0286 8.23607 58.1333 8.56342C58.2512 8.91695 58.1726 9.28358 57.9108 9.6633C57.6489 10.0561 57.3084 10.2525 56.9025 10.2263C56.7716 10.2263 56.6014 10.1871 56.3788 10.1216C56.5752 10.3049 56.693 10.5013 56.7585 10.6846C56.8894 11.0644 56.824 11.431 56.5621 11.8238C56.2478 12.2821 55.8419 12.5178 55.3574 12.5178C55.0301 12.5178 54.7289 12.4261 54.4278 12.2166L52.4375 10.9072C52.4375 10.9072 52.5684 10.7894 52.6208 10.7108L55.3574 6.6648C55.4229 6.56005 55.4622 6.48149 55.4753 6.41602V6.42911Z" fill="black"/>
<path d="M25.1495 9.66327L26.2625 11.4833C26.2625 11.4833 26.3149 11.5619 26.3411 11.5881C26.3673 11.6274 26.4065 11.6535 26.4458 11.6928L25.2019 12.4261C25.1888 12.3475 25.1495 12.269 25.0972 12.1773L22.5569 8.01344C22.5569 8.01344 22.5046 7.93488 22.4784 7.8956C22.4522 7.85632 22.426 7.83013 22.3867 7.80394L23.6306 7.07068C23.6306 7.07068 23.6568 7.16234 23.6699 7.20162C23.6699 7.22781 23.7092 7.28018 23.7354 7.31947L24.8484 9.15261L25.0055 6.52074C25.0055 6.45527 25.0055 6.3767 24.9793 6.27195L25.8566 5.76129C25.8304 5.83985 25.8042 5.94461 25.7911 6.06245L25.6209 8.5241L28.6718 10.0954C28.7896 10.1608 28.8944 10.187 28.9599 10.2132L27.5588 11.0512C27.4933 10.9727 27.4279 10.9203 27.3624 10.8941L25.1626 9.67637L25.1495 9.66327Z" fill="black"/>
<path d="M59.9661 9.65021L62.3099 11.7321L61.904 12.1773C61.8647 12.0988 61.7992 12.0333 61.7338 11.9678L60.6339 10.9858L59.4031 12.3345L60.4768 13.2903C60.5684 13.382 60.647 13.4343 60.7124 13.4736L60.2934 13.9319C60.2542 13.8534 60.1887 13.7879 60.1101 13.7093L59.0233 12.7404L57.7663 14.1021L58.8269 15.0449C58.9186 15.1235 59.0102 15.1889 59.0888 15.2282L58.6436 15.7127L56.2998 13.6308C56.3653 13.5915 56.4438 13.5391 56.5093 13.4605L59.8221 9.84662C59.9006 9.75496 59.953 9.6764 59.9792 9.62402L59.9661 9.65021Z" fill="black"/>
<path d="M61.2369 18.7112L59.2598 16.3674C59.3383 16.3412 59.4169 16.2888 59.4824 16.2364L63.2796 13.1201C63.2796 13.1201 63.3451 13.0677 63.3713 13.0284C63.3974 13.0022 63.4367 12.963 63.4629 12.9106L64.3926 14.0105C64.3926 14.0105 64.314 14.0498 64.2747 14.0628C64.2355 14.089 64.1962 14.1152 64.1569 14.1545L60.6346 17.0352L61.4988 18.0565C61.5905 18.1612 61.669 18.2398 61.7476 18.2791L61.2239 18.6981L61.2369 18.7112Z" fill="black"/>
<path d="M18.8774 8.77293C19.2048 8.48486 19.4667 8.44558 19.6631 8.65508C19.8726 8.87768 19.8071 9.13956 19.4667 9.44072C19.3095 9.58475 19.1524 9.66331 19.0084 9.67641C18.8644 9.7026 18.7465 9.66331 18.6549 9.55856C18.5501 9.45381 18.537 9.32287 18.5632 9.19193C18.6025 9.0479 18.6941 8.91696 18.8644 8.75983L18.8774 8.77293ZM17.4895 10.0168C17.8168 9.72878 18.0787 9.6895 18.2751 9.899C18.4846 10.1216 18.4192 10.3835 18.0918 10.6846C17.9216 10.8287 17.7776 10.9203 17.6335 10.9334C17.4895 10.9596 17.3717 10.9203 17.28 10.8025C17.1883 10.7108 17.1621 10.5799 17.1883 10.4489C17.2276 10.3049 17.3193 10.1609 17.4895 10.0168ZM20.6844 8.95624C20.6844 8.95624 20.7237 9.03481 20.7499 9.07409C20.763 9.10028 20.8023 9.13956 20.8415 9.17884L23.0675 11.6012C23.3818 11.9547 23.5651 12.3214 23.6043 12.7273C23.6698 13.3558 23.3425 13.9843 22.6616 14.5866C22.2557 14.9533 21.876 15.1758 21.4962 15.2544C20.8023 15.3984 20.1868 15.1889 19.65 14.6128L17.4502 12.2035C17.4502 12.2035 17.3847 12.1381 17.3586 12.1119C17.3324 12.0857 17.2931 12.0464 17.2407 12.0333L18.3144 11.0775C18.3537 11.156 18.393 11.2346 18.4715 11.3001L20.7368 13.7617C20.9725 14.0105 21.2082 14.1545 21.47 14.2069C21.8367 14.2593 22.1771 14.1545 22.5176 13.8534C22.8318 13.5784 22.9889 13.2641 23.0151 12.9499C23.0151 12.6225 22.8842 12.2952 22.583 11.9809L20.3963 9.59784C20.3178 9.50619 20.2392 9.45381 20.1868 9.42762L20.6975 8.96934L20.6844 8.95624Z" fill="black"/>
<path d="M66.2128 16.4066L67.8626 19.0647L67.3389 19.379C67.3127 19.3004 67.2865 19.2087 67.2341 19.1302L66.4616 17.8863L64.9034 18.829L65.6628 20.0468C65.7283 20.1515 65.7938 20.2301 65.8462 20.2824L65.3093 20.6098C65.2831 20.5312 65.2569 20.4396 65.1915 20.3479L64.432 19.1171L62.8346 20.086L63.5809 21.2907C63.6464 21.3954 63.7119 21.474 63.7773 21.5395L63.2143 21.8799L61.5645 19.2218C61.643 19.2087 61.7216 19.1695 61.8132 19.1171L66.0164 16.5638C66.1211 16.4983 66.1866 16.4459 66.2259 16.3936L66.2128 16.4066Z" fill="black"/>
<path d="M17.1232 17.1661L14.0068 16.4983C13.889 16.4721 13.7973 16.459 13.7188 16.4721L14.6615 15.2413H14.6877C14.6877 15.2413 14.8055 15.3198 14.9103 15.346L17.0839 15.8305L16.0495 13.8533C16.0102 13.7879 15.9447 13.7224 15.8923 13.6569L16.3506 13.0677C16.3506 13.0677 16.403 13.2117 16.4685 13.3296L17.9481 16.1055L19.611 17.3363C19.7158 17.4149 19.7812 17.4411 19.8467 17.4672L18.9694 18.6064C18.9694 18.6064 18.8647 18.4755 18.773 18.41L17.1232 17.1923V17.1661Z" fill="black"/>
<path d="M64.7587 23.7523L64.9289 24.1975C65.086 24.5903 65.3348 24.8391 65.6883 24.957C66.1728 25.1141 66.7489 25.0617 67.4298 24.8129C68.1369 24.551 68.5952 24.1713 68.8178 23.6607C68.9487 23.3464 68.9487 23.006 68.8178 22.6524L68.6737 22.2858L64.7587 23.7523ZM68.7785 20.7669L69.4856 22.6001C69.7474 23.2678 69.8129 23.8833 69.682 24.4201C69.5772 24.8391 69.3546 25.1926 69.0273 25.4938C68.7261 25.7688 68.3857 25.9783 67.9798 26.1354C67.3513 26.3711 66.762 26.4235 66.199 26.2925C65.7931 26.214 65.4526 26.0438 65.1646 25.7819C64.8634 25.5331 64.6539 25.2188 64.4968 24.826L63.6719 22.6655C63.7635 22.6655 63.8421 22.6393 63.9337 22.6131L68.5428 20.8978C68.6606 20.8586 68.7392 20.8062 68.7785 20.7669Z" fill="black"/>
<path d="M11.401 17.7422C11.6105 17.3625 11.8462 17.2447 12.1081 17.3756C12.3831 17.5197 12.4093 17.7946 12.1867 18.1874C12.0819 18.3708 11.9641 18.5017 11.8331 18.5672C11.7153 18.6326 11.5843 18.6326 11.4534 18.5672C11.3225 18.5017 11.257 18.3838 11.2439 18.2398C11.2439 18.0958 11.2701 17.9387 11.3879 17.7422H11.401ZM10.4975 19.3659C10.7071 18.9862 10.9427 18.8683 11.2046 18.9993C11.4796 19.1433 11.5058 19.4183 11.2832 19.798C11.1784 19.9944 11.0606 20.1122 10.9296 20.1777C10.8118 20.2432 10.6809 20.2432 10.5499 20.1777C10.4321 20.1122 10.3666 20.0075 10.3535 19.8635C10.3535 19.7194 10.3928 19.5492 10.4975 19.3528V19.3659ZM13.1687 17.3363C13.1687 17.3363 13.2342 17.4018 13.2735 17.428C13.2996 17.4542 13.3389 17.4804 13.3913 17.5066L16.2981 19.0778C16.7172 19.3004 17.0052 19.6016 17.1754 19.9682C17.4373 20.5443 17.3457 21.2383 16.9005 22.037C16.6386 22.5084 16.3505 22.8489 16.0232 23.0322C15.4209 23.3988 14.7662 23.3857 14.0722 23.006L11.1915 21.4347C11.1915 21.4347 11.113 21.3954 11.0737 21.3824C11.0344 21.3693 10.9951 21.3431 10.9296 21.3431L11.6367 20.0861C11.6367 20.0861 11.7677 20.2039 11.8593 20.2563L14.8054 21.8668C15.1066 22.037 15.3816 22.0894 15.6435 22.0501C16.0101 21.9847 16.2981 21.7621 16.5207 21.3824C16.7172 21.0157 16.7695 20.6753 16.691 20.361C16.5993 20.0468 16.3505 19.7849 15.9708 19.5754L13.1163 18.0172C13.0116 17.9648 12.9199 17.9256 12.8545 17.9256L13.1949 17.3232L13.1687 17.3363Z" fill="black"/>
<path d="M70.8087 26.7901L71.123 28.1912C71.123 28.1912 71.0313 28.1912 70.992 28.1912C70.9527 28.1912 70.9135 28.1912 70.848 28.2174L66.0425 29.2649C65.9247 29.2911 65.8461 29.3304 65.7937 29.3565L65.4795 27.9555C65.5581 27.9555 65.6497 27.9555 65.7545 27.9424L70.5599 26.8949C70.5599 26.8949 70.6516 26.8687 70.6909 26.8556C70.7301 26.8556 70.7694 26.8294 70.8087 26.7901ZM72.2883 27.2222C72.38 27.6543 72.2883 27.89 72.0003 27.9555C71.6991 28.021 71.4896 27.8376 71.3979 27.4055C71.3456 27.196 71.3587 27.0127 71.3979 26.8949C71.4372 26.7639 71.542 26.6854 71.686 26.6461C71.8169 26.6199 71.9348 26.6461 72.0395 26.7509C72.1443 26.8556 72.2229 27.0127 72.2752 27.2222H72.2883Z" fill="black"/>
<path d="M14.1381 26.9734L14.269 26.5675C14.413 26.1092 14.2166 25.795 13.6405 25.6117C12.9989 25.4022 12.593 25.5724 12.4227 26.1092L12.3311 26.3973L14.1381 26.9734ZM11.7942 26.2271L11.8859 25.9652C11.9645 25.7164 11.9776 25.5331 11.9121 25.3891C11.8859 25.2974 11.7942 25.2188 11.6633 25.1141C11.5978 25.0748 11.5324 25.0224 11.4669 24.9962C11.3883 24.9701 11.3098 24.9308 11.2312 24.9046C10.6944 24.7344 10.3408 24.8784 10.1837 25.3498L10.0658 25.6902L11.7942 26.2402V26.2271ZM9.07071 26.8163L9.79088 24.6296C9.93491 24.2106 10.1444 23.8964 10.4325 23.713C10.7467 23.5035 11.1265 23.4773 11.5586 23.6214C12.0168 23.7654 12.2918 24.0404 12.3835 24.4201C12.4097 24.551 12.4227 24.7213 12.4227 24.957C12.5537 24.7213 12.6977 24.551 12.8679 24.4332C13.1953 24.2106 13.5881 24.1713 14.0333 24.3154C14.5701 24.4856 14.9106 24.8129 15.0415 25.2712C15.1332 25.5855 15.1201 25.8997 15.0022 26.2402L14.269 28.4923C14.269 28.4923 14.125 28.4007 14.0202 28.3745L9.33259 26.8687C9.21474 26.8294 9.12309 26.8163 9.05762 26.8294L9.07071 26.8163Z" fill="black"/>
<path d="M68.4514 30.954L71.1618 29.3041C71.2666 29.2387 71.3321 29.1863 71.3844 29.1339L71.5678 30.6528H71.5416C71.5416 30.6528 71.4106 30.6921 71.3321 30.7445L69.4204 31.8836L71.5547 32.5907C71.6332 32.6169 71.7249 32.6169 71.8165 32.63L71.9082 33.3632C71.9082 33.3632 71.7773 33.2978 71.6463 33.2585L68.6347 32.2764L66.5659 32.5252C66.448 32.5383 66.3695 32.5645 66.304 32.6038L66.1338 31.1766C66.2124 31.1897 66.304 31.2027 66.4088 31.1766L68.4514 30.9278V30.954Z" fill="black"/>
<path d="M12.4617 32.6169C12.4748 32.3943 12.5533 32.2241 12.6843 32.1063C12.8152 31.9753 12.9723 31.9229 13.1819 31.936C13.3783 31.9491 13.5223 32.0277 13.6532 32.1717C13.7711 32.3158 13.8235 32.486 13.7973 32.7086C13.7842 32.9312 13.7056 33.1014 13.5616 33.2192C13.4175 33.3371 13.2473 33.3895 13.064 33.3764C12.8676 33.3633 12.7105 33.2847 12.6057 33.1407C12.4879 32.9966 12.4355 32.8264 12.4617 32.6169Z" fill="black"/>
<path d="M71.8424 34.5548L71.7639 37.6711H71.1485C71.1746 37.5795 71.1877 37.4878 71.2008 37.3962L71.2401 35.9428L69.407 35.9035L69.3677 37.3307C69.3677 37.4616 69.3677 37.5533 69.3808 37.6319H68.7523C68.7785 37.5402 68.7916 37.4485 68.8046 37.3307L68.8439 35.8904L66.9715 35.8511L66.9322 37.2521C66.9322 37.37 66.9322 37.4747 66.9715 37.5664H66.3037L66.3823 34.437C66.4608 34.4631 66.5394 34.4762 66.6442 34.4893L71.5806 34.6072C71.6984 34.6072 71.7901 34.6072 71.8555 34.5679L71.8424 34.5548Z" fill="black"/>
<path d="M66.5788 38.1295L67.3906 38.4961C67.2073 38.6532 67.0895 38.7711 67.0109 38.8365C66.7621 39.0984 66.605 39.3865 66.5395 39.7007C66.4872 39.9757 66.5395 40.1852 66.6443 40.3685C66.749 40.5387 66.9193 40.6435 67.1288 40.6828C67.3645 40.722 67.574 40.6566 67.7573 40.4733C67.7966 40.434 67.862 40.3554 67.9406 40.2376C68.0322 40.1328 68.137 39.9626 68.2679 39.7531C68.556 39.321 68.831 39.0329 69.0929 38.902C69.394 38.7449 69.7083 38.7056 70.0487 38.758C70.3761 38.8103 70.651 38.9544 70.8736 39.1639C71.3188 39.5829 71.4759 40.1852 71.345 40.9708C71.2664 41.4291 71.0831 41.8743 70.7951 42.2933L70.0356 41.966C70.4415 41.5601 70.6641 41.2065 70.7296 40.8661C70.7689 40.6697 70.7296 40.4864 70.6379 40.3292C70.5463 40.1721 70.4022 40.0804 70.2189 40.0543C70.0225 40.015 69.8654 40.0543 69.7475 40.1721C69.6166 40.2769 69.4202 40.5518 69.1452 40.9839C68.8572 41.4422 68.5691 41.7434 68.281 41.8743C67.993 42.0183 67.6656 42.0445 67.3252 41.9922C66.9716 41.9267 66.6705 41.7957 66.4217 41.5732C65.911 41.1411 65.7277 40.5125 65.8717 39.6745C65.9241 39.3865 66.0027 39.1246 66.1074 38.902C66.2122 38.6794 66.3693 38.4175 66.5788 38.1295Z" fill="black"/>
<path d="M8.34995 34.162L9.29271 34.1358C9.08321 34.4108 8.95227 34.6334 8.86061 34.8298C8.78205 35.0262 8.74277 35.2357 8.75586 35.4583C8.75586 35.9427 8.97846 36.3094 9.37127 36.5713C9.77718 36.8331 10.3009 36.951 10.9687 36.9379C11.6758 36.9248 12.2126 36.7546 12.5924 36.4403C12.959 36.1523 13.1292 35.7725 13.1161 35.3142C13.1161 35.0916 13.0507 34.8821 12.9721 34.6988C12.9197 34.6072 12.8543 34.5024 12.7888 34.3977C12.7102 34.2929 12.6186 34.1751 12.5007 34.0441L13.4304 34.0179C13.5482 34.2929 13.6399 34.5417 13.6923 34.7774C13.7446 35.0131 13.7708 35.275 13.7708 35.5499C13.797 36.4534 13.5744 37.1212 13.103 37.5926C12.6186 38.0771 11.9115 38.3258 10.9687 38.352C10.3533 38.3651 9.85575 38.2735 9.46293 38.0771C8.58564 37.6319 8.14045 36.7939 8.11426 35.5499C8.11426 35.0524 8.16663 34.581 8.33685 34.1489L8.34995 34.162Z" fill="black"/>
<path d="M12.7759 40.0542C12.7366 39.8447 12.7759 39.6483 12.8676 39.5043C12.9592 39.3472 13.1033 39.2555 13.3128 39.2293C13.5092 39.19 13.6663 39.2293 13.8234 39.3472C13.9675 39.465 14.0591 39.6221 14.0984 39.8317C14.1377 40.0412 14.0984 40.2376 13.9936 40.3816C13.8889 40.5256 13.7318 40.6173 13.5485 40.6566C13.352 40.6958 13.1949 40.6566 13.0509 40.5387C12.9068 40.4209 12.8152 40.2637 12.7759 40.0542Z" fill="black"/>
<path d="M70.5462 44.0872L70.101 45.4489C70.101 45.4489 70.0356 45.3966 69.9963 45.3835C69.9701 45.3704 69.9177 45.3573 69.8522 45.3311L65.1646 43.8253C65.0468 43.786 64.9682 43.7729 64.8896 43.786L65.3348 42.4243C65.3348 42.4243 65.4789 42.5159 65.5836 42.5421L70.2712 44.0479C70.2712 44.0479 70.3629 44.0741 70.4022 44.0872C70.4415 44.0872 70.4807 44.1003 70.5331 44.0872H70.5462ZM71.5937 45.2002C71.4628 45.6192 71.2533 45.7763 70.9652 45.6846C70.6641 45.593 70.5855 45.3311 70.7295 44.9121C70.795 44.7026 70.8867 44.5586 71.0045 44.4669C71.1093 44.3752 71.2402 44.3491 71.3842 44.4014C71.5152 44.4407 71.6068 44.5324 71.6461 44.6764C71.6854 44.8204 71.6723 44.9907 71.6068 45.2002H71.5937Z" fill="black"/>
<path d="M9.65946 45.9858L8.55957 42.0183L9.25355 41.835C9.25355 41.835 9.25355 41.9398 9.25355 42.0052C9.25355 42.0576 9.27973 42.11 9.29283 42.1493L9.58089 43.1837L13.9543 42.0052C13.9543 42.0052 14.0459 41.9791 14.0852 41.966C14.1245 41.966 14.1638 41.9267 14.203 41.9005L14.5828 43.2753C14.5828 43.2753 14.4911 43.2753 14.4518 43.2753C14.4125 43.2753 14.3602 43.2884 14.3078 43.3015L9.93443 44.48L10.2094 45.4751C10.2356 45.5799 10.288 45.6977 10.3403 45.8025L9.64636 45.9858H9.65946Z" fill="black"/>
<path d="M24.4562 31.229C22.9373 30.0505 22.8588 27.0913 24.8098 25.6772C27.1536 23.9619 29.6152 25.4938 31.8019 27.602H34.3421L33.2553 26.3842L32.9149 26.0438L32.5744 25.7033C26.4858 19.523 19.0092 25.0617 22.0077 31.098C22.4529 31.9884 23.029 32.4336 23.2254 32.7217C23.029 33.0097 22.4398 33.4549 22.0077 34.3453C19.0092 40.3816 26.4727 45.9203 32.5744 39.74L32.9149 39.3996L33.2553 39.0591L34.4338 37.7366H31.9066C29.6807 39.8971 27.1928 41.5077 24.8098 39.7662C22.8719 38.3521 22.9373 35.3928 24.4562 34.2144C25.8049 33.1669 26.7869 32.8002 26.9964 32.7217C26.7869 32.63 25.8049 32.2634 24.4562 31.2159M38.4274 48.1332C37.249 49.6652 34.3028 49.7307 32.9018 47.7797C31.2127 45.449 32.6923 43.0135 34.748 40.8399V38.2866L33.6089 39.3079L33.2684 39.6484L32.928 39.9888C26.7607 46.1036 32.2864 53.5934 38.2965 50.5949C39.1869 50.1497 39.619 49.5735 39.907 49.364C40.1951 49.5604 40.6403 50.1497 41.5176 50.5949C47.5277 53.6064 53.0533 46.1036 46.8861 39.9888L46.5456 39.6484L46.2052 39.3079L44.9089 38.1426L44.8827 40.6435C47.0301 42.8695 48.6407 45.3835 46.9123 47.7797C45.4981 49.7307 42.552 49.6521 41.3866 48.1332C40.3391 46.7845 39.9725 45.7894 39.907 45.5799C39.8285 45.7894 39.4487 46.7714 38.4143 48.1332H38.4274ZM55.1352 34.1096C56.6541 35.2881 56.7327 38.2473 54.7817 39.6614C52.4641 41.3506 50.0286 39.8709 47.855 37.8021L45.341 37.8283L46.3361 38.9413L46.6766 39.2817L47.017 39.6222C53.1057 45.8025 60.5823 40.2638 57.5838 34.2275C57.1386 33.3371 56.5625 32.8919 56.3661 32.6038C56.5625 32.3158 57.1517 31.8706 57.5838 30.9802C60.5823 24.9439 53.1188 19.4052 47.017 25.5855L46.6766 25.9259L46.3361 26.2664L45.1577 27.5758H47.6848C49.9108 25.4153 52.3986 23.8178 54.7817 25.5462C56.7196 26.9604 56.6541 29.9196 55.1352 31.098C53.7866 32.1455 52.8045 32.5122 52.595 32.5907C52.8045 32.6824 53.7866 33.049 55.1352 34.0965V34.1096ZM41.3212 17.1923C42.4996 15.6603 45.4457 15.5949 46.8468 17.5458C48.5752 19.9289 46.9908 22.4168 44.8565 24.6427V27.1699L46.1397 26.0176L46.4802 25.6772L46.8206 25.3367C52.9878 19.2219 47.4622 11.7322 41.4521 14.7307C40.5617 15.1758 40.1296 15.752 39.8416 15.9615C39.5535 15.7651 39.1083 15.1758 38.231 14.7307C32.2209 11.7191 26.6953 19.2219 32.8625 25.3367L33.2029 25.6772L33.5434 26.0176L34.7611 27.1175V24.5773C32.6661 22.3775 31.121 19.9027 32.8363 17.5458C34.2505 15.5949 37.1966 15.6734 38.3619 17.1923C39.4095 18.541 39.7761 19.5361 39.8416 19.7456C39.9201 19.5361 40.2998 18.5541 41.3343 17.1923H41.3212Z" fill="black"/>
<path d="M39.8545 28.2043H39.7105L39.3439 29.566L39.5534 30.3255C39.3308 30.3517 39.1082 30.4041 38.9118 30.4826L38.7415 29.7232L37.7857 28.6757H37.7595L37.6548 28.7411H37.6286L37.9297 30.1291L38.4535 30.7052C38.2702 30.8231 38.0999 30.9802 37.9559 31.1504L37.4583 30.5481L36.1359 30.0636V30.0898L36.0573 30.1946V30.2207L36.9477 31.3075L37.6809 31.5694C37.5762 31.7658 37.4976 31.9753 37.4453 32.1848L36.7251 31.8837L35.324 32.0801V32.2241L35.2979 32.2503L36.6072 32.7872L37.3798 32.6824V32.7348C37.3798 32.9443 37.406 33.1407 37.4583 33.3371L36.6858 33.4026L35.5335 34.2275V34.2537L35.5859 34.3715V34.3977L37.0001 34.2668L37.6286 33.8085C37.7333 34.0049 37.8512 34.1882 37.9952 34.3584L37.3405 34.7774L36.6989 36.0344H36.712L36.8036 36.1392H36.8167L37.9952 35.3797L38.3487 34.6858C38.532 34.8167 38.7285 34.9215 38.938 35L38.5582 35.6809V37.095H38.5975L38.7154 37.1343H38.7415L39.4355 35.9035V35.1179C39.5403 35.131 39.6581 35.1441 39.776 35.1441C39.8807 35.1441 39.9855 35.1441 40.0771 35.131L40.0509 35.9166L40.7187 37.1605H40.7449L40.8628 37.1212H40.8889L40.9282 35.7071L40.5616 35.0262C40.7711 34.9476 40.9675 34.856 41.1508 34.725L41.4913 35.4321L42.6566 36.2308H42.6697L42.7614 36.1392H42.7745L42.1591 34.8429L41.5175 34.4108C41.6746 34.2537 41.7924 34.0704 41.8972 33.8739L42.5257 34.3453L43.9267 34.5025V34.4763L43.9791 34.3584V34.3322L42.853 33.4942L42.0805 33.4026C42.1329 33.1931 42.1722 32.9705 42.1722 32.7479L42.9447 32.8657L44.2541 32.355V32.1848L42.8399 31.9622L42.1198 32.2503C42.0674 32.0277 42.0019 31.8182 41.8972 31.6218L42.6304 31.373L43.5601 30.3124V30.2862L43.4815 30.1815V30.1553L42.1329 30.6005L41.6222 31.1897C41.4782 31.0195 41.321 30.8623 41.1377 30.7445L41.6746 30.1815L42.015 28.8066H41.9888L41.8841 28.7411H41.8579L40.8759 29.7494L40.6925 30.5088C40.483 30.4172 40.2473 30.3517 39.9986 30.3255L40.2081 29.566L39.8414 28.2043H39.8152H39.8545Z" fill="black"/>
<path d="M39.7107 10.7632L40.1297 11.7714L41.295 11.719L40.3915 12.3868L40.8105 13.3951L39.8285 12.7927L38.925 13.4605L39.2262 12.4261L38.2441 11.8369L39.4095 11.7976L39.7107 10.7632Z" fill="black"/>
<path d="M29.4579 13.3165L30.2959 14.0105L31.3041 13.4344L30.8066 14.4426L31.6446 15.1366L30.5054 15.058L30.0209 16.0793L29.8114 15.0187L28.6592 14.9533L29.6805 14.3771L29.4579 13.3165Z" fill="black"/>
<path d="M21.5625 20.3479L22.6231 20.5836L23.2516 19.5885L23.2778 20.7146L24.3384 20.9503L23.2909 21.4086L23.3302 22.5346L22.6493 21.6966L21.6018 22.168L22.2303 21.186L21.5625 20.3479Z" fill="black"/>
<path d="M17.8047 30.2469L18.8522 29.9589L18.9439 28.7935L19.4938 29.7887L20.5413 29.4875L19.8342 30.391L20.3711 31.373L19.389 30.9409L18.682 31.8444L18.7867 30.679L17.8047 30.2469Z" fill="black"/>
<path d="M19.0352 40.7744L19.8339 40.0411L19.3887 38.9543L20.3315 39.5828L21.1171 38.8365L20.9076 39.9626L21.8373 40.578L20.7766 40.6565L20.554 41.7826L20.1089 40.6958L19.0352 40.7744Z" fill="black"/>
<path d="M25.0056 49.5343L25.3591 48.4998L24.4688 47.7535L25.5817 47.8713L25.9484 46.8369L26.2757 47.9368L27.3887 48.0416L26.4721 48.6177L26.8126 49.7176L25.9091 48.9581L25.0056 49.5343Z" fill="black"/>
<path d="M33.3598 54.3921L33.2026 53.3184L32.0635 53.0696L33.111 52.6506L32.9408 51.5638L33.7395 52.3887L34.787 51.9697L34.2371 52.8994L35.0358 53.7112L33.8966 53.4624L33.3598 54.3921Z" fill="black"/>
<path d="M46.113 54.8242L45.4714 53.9338L44.3584 54.248L45.0786 53.3969L44.4501 52.5065L45.5368 52.8732L46.257 52.009L46.2046 53.0827L47.2914 53.4362L46.1654 53.7505L46.113 54.8242Z" fill="black"/>
<path d="M54.2834 49.7568L53.3144 49.2724L52.4633 50.0711L52.7121 48.9712L51.7432 48.4867L52.8692 48.2903L53.118 47.1904L53.5632 48.1725L54.6893 47.9892L53.8382 48.7748L54.2834 49.7568Z" fill="black"/>
<path d="M60.3726 41.1018L59.2858 41.1149L58.9061 42.2279L58.618 41.128L57.5312 41.1542L58.4478 40.4602L58.1598 39.3734L59.0109 40.0412L59.9143 39.3341L59.5215 40.4471L60.3726 41.1018Z" fill="black"/>
<path d="M61.7863 30.6004L60.8304 31.1242L61.0006 32.2765L60.2412 31.4385L59.2853 31.9622L59.7698 30.9278L59.0234 30.0898L60.071 30.2862L60.5554 29.2518L60.7256 30.404L61.7863 30.6004Z" fill="black"/>
<path d="M58.1731 20.636L57.5708 21.5395L58.2517 22.4823L57.2042 22.1025L56.6018 23.006L56.5495 21.8537L55.502 21.474L56.5233 21.1598L56.4709 20.0075L57.1518 20.9503L58.1731 20.636Z" fill="black"/>
<path d="M50.3819 13.4736L50.264 14.5604L51.3115 15.0842L50.1986 15.2282L50.0807 16.315L49.5046 15.3199L48.3916 15.4639L49.1641 14.7045L48.588 13.7093L49.6224 14.2462L50.3819 13.4736Z" fill="black"/>
<path d="M42.1586 56.0943H42.9311V54.8504L42.1586 56.0943ZM42.918 56.3824H41.9229V56.0812C41.9229 56.0812 41.9753 56.0157 42.0015 55.9634L42.8526 54.5885C42.8526 54.5885 42.905 54.4968 42.905 54.4706H43.3501C43.3501 54.4706 43.3501 54.5099 43.3501 54.5361C43.3501 54.5492 43.3501 54.5754 43.3501 54.6016V56.0943H43.5335C43.5335 56.0943 43.6251 56.0943 43.6644 56.0812V56.4085C43.6644 56.4085 43.612 56.4085 43.5989 56.4085C43.5858 56.4085 43.5596 56.4085 43.5335 56.4085H43.3632V57.0109C43.3632 57.0109 43.3632 57.1025 43.3763 57.1418H42.918C42.918 57.1418 42.9311 57.0632 42.9311 57.0109V56.4085L42.918 56.3824ZM40.8885 54.8242L40.4171 55.0337V54.8766C40.4171 54.8766 40.4171 54.798 40.404 54.7587L41.3337 54.4183C41.3337 54.4183 41.3337 54.4445 41.3337 54.4706C41.3337 54.4837 41.3337 54.5099 41.3337 54.5361V56.9716C41.3337 56.9716 41.3337 57.024 41.3337 57.0371C41.3337 57.0501 41.3337 57.0632 41.3337 57.0894H40.8754C40.8754 57.0894 40.8885 57.0109 40.8885 56.9585V54.798V54.8242ZM39.1732 54.6409C39.0815 54.6409 39.003 54.6801 38.9244 54.7587C38.8589 54.8242 38.8197 54.9289 38.7935 55.0599C38.7673 55.1908 38.7542 55.4265 38.7542 55.7408C38.7542 55.8455 38.7542 55.9372 38.7542 56.0419C38.7542 56.1467 38.7542 56.2514 38.7542 56.3562C38.7542 56.4216 38.7542 56.474 38.7673 56.5264C38.7673 56.5657 38.7935 56.618 38.8066 56.6835C38.8327 56.7621 38.872 56.8275 38.9375 56.8799C39.003 56.9323 39.0684 56.9585 39.147 56.9585C39.2648 56.9585 39.3565 56.9061 39.4351 56.8145C39.4874 56.749 39.5267 56.6442 39.5398 56.5002C39.5529 56.3562 39.566 56.1205 39.566 55.78C39.566 55.5182 39.566 55.3348 39.5529 55.2301C39.5529 55.1777 39.5529 55.1253 39.5398 55.073C39.5398 55.0206 39.5136 54.9813 39.5005 54.9289C39.4744 54.8504 39.422 54.7718 39.3565 54.7325C39.291 54.6801 39.2256 54.654 39.147 54.654L39.1732 54.6409ZM39.1732 54.4314C39.4089 54.4314 39.5922 54.4968 39.7231 54.6147C39.8279 54.7194 39.9195 54.8635 39.9588 55.0337C40.0112 55.217 40.0374 55.4527 40.0374 55.7669C40.0374 56.0288 40.0374 56.2252 39.9981 56.3693C39.9719 56.5133 39.9326 56.6442 39.8803 56.7621C39.8148 56.893 39.7231 56.9978 39.6053 57.0632C39.4874 57.1287 39.3434 57.1549 39.1732 57.1549C38.8589 57.1549 38.6363 57.024 38.4923 56.7752C38.4268 56.6573 38.3876 56.5264 38.3614 56.3955C38.3352 56.2514 38.3221 56.055 38.3221 55.8062C38.3221 55.5443 38.3221 55.3348 38.3614 55.1908C38.3876 55.0468 38.4268 54.9289 38.4923 54.8111C38.5709 54.6802 38.6494 54.5885 38.7542 54.523C38.8066 54.4968 38.872 54.4706 38.9375 54.4576C39.003 54.4445 39.0815 54.4314 39.1732 54.4314ZM36.3973 56.8276C36.6461 56.605 36.8294 56.4085 36.9734 56.2121C37.2615 55.8193 37.4055 55.4658 37.4055 55.1515C37.4055 55.0075 37.3662 54.8897 37.2877 54.798C37.2091 54.7063 37.0913 54.6671 36.9472 54.6671C36.8032 54.6671 36.6461 54.7194 36.4889 54.8111L36.4497 54.5492C36.5937 54.4968 36.6984 54.4707 36.777 54.4445C36.8556 54.4314 36.9472 54.4183 37.052 54.4183C37.2746 54.4183 37.4579 54.4706 37.5888 54.5885C37.6543 54.654 37.7198 54.7194 37.759 54.8111C37.7983 54.9027 37.8245 54.9944 37.8245 55.0992C37.8245 55.3087 37.7329 55.5574 37.5495 55.8586C37.3793 56.1336 37.1698 56.3824 36.9472 56.5919L36.777 56.749L36.7246 56.8014H37.6805C37.7721 56.8014 37.8245 56.8014 37.8638 56.7883V57.1156H36.3711C36.3711 57.1156 36.3842 57.0371 36.3842 56.9978V56.8276H36.3973Z" fill="black"/>
<path d="M32.0897 32.6824L27.5723 27.8769H34.7215L36.3321 29.5529H31.8409L34.787 32.6824L31.8409 35.7987H36.3321L34.7215 37.4747H27.5723L32.0897 32.6824Z" fill="black"/>
<path d="M39.789 40.4078L35.0098 44.9514V37.7628L36.6858 36.1392V40.6566L39.789 37.6973L42.9054 40.6566V36.1392L44.5814 37.7628V44.9514L39.789 40.4078Z" fill="black"/>
<path d="M47.4885 32.6824L52.019 37.4747H44.8566L43.2461 35.7987H47.7373L44.7912 32.6824L47.7373 29.5529H43.2461L44.8566 27.8769H52.019L47.4885 32.6824Z" fill="black"/>
<path d="M39.789 24.9439L44.5814 20.4134V27.5888L42.9054 29.2125V24.7082L39.789 27.6543L36.6858 24.7082V29.2125L35.0098 27.5888V20.4134L39.789 24.9439Z" fill="black"/>
<path d="M52.7384 63.3483L54.0478 62.6674L52.3718 61.0831L52.7384 63.3483ZM52.8432 64.0161L53.0527 65.4564C53.0658 65.5481 53.092 65.6136 53.1051 65.6528L53.1312 65.7183L52.4373 66.0849C52.4373 65.9933 52.4373 65.8885 52.4373 65.7838L51.6254 60.2712C51.6254 60.2712 51.6123 60.2058 51.5993 60.1665C51.5993 60.1272 51.5731 60.101 51.5731 60.0748L51.5469 60.0225L52.6468 59.4463C52.6468 59.4463 52.7253 59.5642 52.8039 59.6296L56.9939 63.4138C57.0725 63.4793 57.1511 63.5316 57.2558 63.584L55.7762 64.3565L55.75 64.3042C55.75 64.3042 55.6715 64.1994 55.6191 64.147L54.5454 63.1519L52.8432 64.0423V64.0161ZM50.2113 66.8575L47.0426 67.8002C47.0426 67.7217 47.0426 67.6169 47.0033 67.5253L45.4844 62.5234C45.4844 62.5234 45.4582 62.4317 45.4451 62.3925C45.432 62.3532 45.4058 62.3139 45.3666 62.2615L46.8593 61.8163C46.8593 61.8163 46.8593 61.908 46.8593 61.9473C46.8593 61.9866 46.8724 62.0389 46.8985 62.0913L48.2996 66.7265L49.6875 66.3206C49.8316 66.2814 49.9363 66.229 50.0149 66.1766L50.2244 66.8575H50.2113ZM43.3894 62.7591L43.4679 63.7149C42.9442 63.3614 42.4073 63.2174 41.8705 63.2567C41.3598 63.2959 40.9539 63.5054 40.6789 63.8852C40.5218 64.1078 40.404 64.3696 40.3385 64.6839C40.3123 64.841 40.2861 65.0112 40.2861 65.1815C40.2861 65.3517 40.2861 65.5481 40.2992 65.7838C40.3647 66.5432 40.548 67.1194 40.8753 67.486C41.0063 67.6431 41.1634 67.7479 41.3729 67.8395C41.5693 67.9181 41.7788 67.9574 41.9883 67.9312C42.1978 67.9181 42.3942 67.8395 42.5645 67.7217L42.3942 65.5481C42.3942 65.4302 42.3681 65.3255 42.3288 65.2731L43.8215 65.1553C43.8215 65.1553 43.7953 65.2469 43.7953 65.2993C43.7953 65.3386 43.7953 65.391 43.7953 65.4433L43.9655 67.6431C43.9655 67.8002 44.0048 67.9312 44.0572 68.0228C43.5334 68.2323 43.1406 68.3633 42.8787 68.4287C42.6168 68.4942 42.3026 68.5466 41.936 68.5728C41.3205 68.6252 40.823 68.5728 40.4171 68.4026C39.9064 68.1931 39.5136 67.8657 39.2255 67.4074C38.9767 66.9884 38.8196 66.4778 38.7672 65.8885C38.6887 64.8672 38.9505 64.0554 39.5529 63.4531C40.0504 62.9555 40.7575 62.6805 41.6479 62.602C42.1978 62.5627 42.7871 62.602 43.3894 62.7722V62.7591ZM42.1062 60.9259L42.8132 60.8736C42.8132 60.9914 42.8132 61.1093 42.774 61.214C42.7347 61.3319 42.6823 61.4366 42.6037 61.5414C42.3288 61.9211 41.9229 62.1437 41.3598 62.183C40.9539 62.2091 40.6135 62.1306 40.3385 61.9473C40.0766 61.764 39.8933 61.4759 39.8147 61.0962L40.5087 61.0438C40.548 61.214 40.6397 61.358 40.7837 61.4366C40.9277 61.5283 41.111 61.5675 41.3205 61.5544C41.53 61.5414 41.7003 61.4759 41.8443 61.358C41.9883 61.2402 42.08 61.0962 42.1062 60.9129V60.9259ZM37.3138 62.7853C37.3138 62.7853 37.2614 62.8769 37.2483 62.9162C37.2352 62.9555 37.2222 63.0079 37.2091 63.0603L36.5151 66.5039C36.4103 67.0015 36.2008 67.3812 35.8866 67.6824C35.3759 68.1407 34.6296 68.2716 33.6606 68.0752C33.0845 67.9574 32.6393 67.7741 32.3381 67.5122C31.762 67.0277 31.5525 66.3599 31.7227 65.5481L32.4036 62.1306C32.4036 62.1306 32.4167 62.0389 32.4298 61.9996C32.4298 61.9604 32.4298 61.908 32.4298 61.8556L33.9618 62.1568C33.9094 62.2353 33.8832 62.327 33.857 62.4317L33.163 65.9278C33.0976 66.2813 33.1238 66.5825 33.2416 66.8313C33.4118 67.1848 33.7392 67.3943 34.2106 67.486C34.6557 67.5776 35.0224 67.5122 35.3235 67.3158C35.6116 67.1194 35.808 66.792 35.8997 66.3337L36.5805 62.9555C36.6067 62.8377 36.6067 62.7329 36.5805 62.6674L37.3138 62.8115V62.7853ZM25.1234 60.8736L23.1462 63.8983L23.12 63.9506C23.12 63.9506 23.0938 64.0161 23.0807 64.0292C23.0807 64.0554 23.0676 64.0947 23.0545 64.1601L22.3213 63.8328C22.3999 63.7673 22.4653 63.6888 22.5177 63.6102L25.4376 59.1845L25.5031 59.0666L25.5555 58.9357L26.747 59.4725L26.7208 59.5249C26.7208 59.5249 26.6816 59.6296 26.6685 59.7213L26.2364 63.8328L29.117 60.8212C29.117 60.8212 29.2087 60.7034 29.2349 60.6641L29.2611 60.6117L30.4264 61.1354L30.374 61.2402C30.374 61.2402 30.3348 61.3319 30.3348 61.358L28.7897 66.4385C28.7635 66.517 28.7504 66.6087 28.7635 66.7265L27.3363 66.0849L27.4017 65.9671L27.441 65.8362L28.554 62.3532L25.8959 65.1291C25.8959 65.1291 25.8435 65.1815 25.8174 65.2207C25.7912 65.2469 25.7781 65.2731 25.765 65.2993L25.7388 65.3517L24.6651 64.8672L24.6913 64.8148C24.6913 64.8148 24.7306 64.7101 24.7306 64.6184L25.1234 60.8605V60.8736Z" fill="black"/>
</svg>
