<?xml version="1.0" encoding="utf-8"?>
<!-- Generator: Adobe Illustrator 25.2.3, SVG Export Plug-In . SVG Version: 6.00 Build 0)  -->
<svg version="1.1" id="TASARIM" xmlns="http://www.w3.org/2000/svg" xmlns:xlink="http://www.w3.org/1999/xlink" x="0px" y="0px"
	 viewBox="0 0 120.4 22.9" style="enable-background:new 0 0 120.4 22.9;" xml:space="preserve">
<style type="text/css">
	.st0{fill:#F8941D;}
	.st1{fill:#B82225;}
	.st2{fill:#224084;}
	.st3{fill:#038A81;}
</style>
<g transform="translate(-140 -36)">
	<g transform="translate(-1021.922 -303.448)">
		<rect x="1161.9" y="348.1" class="st0" width="24.9" height="13.2"/>
		<path class="st1" d="M1185.5,339.4h1.3v12.4c-0.9-1.2-2.1-1-3-1.2l-1,3.9c-0.6-0.1-15.7-4.3-15.7-4.3l-5.2-1.8v-9h1.3v1.5h1.3
			v-1.5h1.3v1.5h1.3v-1.5h1.3v5.6h1.3v-1.5h1.3v1.5h1.3v-1.5h1.3v1.5h1.3v-1.5h1.3v1.5h1.3v-1.5h1.3v1.5h1.3v-5.6h1.3v1.5h1.3v-1.5
			h1.3v1.5h1.3L1185.5,339.4z"/>
		<path class="st2" d="M1186.8,359.4v3h-24.9v-3.2c0.9,0.8,2.1,1.3,3.3,1.4c2.5,0,2.1-1.4,4.9-1.5c2.8,0.1,2.2,1.3,5.1,1.4
			c1.8-0.1,2.3-1.4,4.4-1.5c2.1-0.1,2.9,1.4,4.6,1.5C1185.3,360.4,1186.1,360.1,1186.8,359.4"/>
		<path class="st3" d="M1183.1,350.7c-0.1-0.3-0.7-0.4-1.2-0.2c-0.5,0.2-0.9,0.6-0.8,0.9c-0.2,0.1-0.4,0.2-0.6,0.3
			c-0.3,0.2-0.6,0.4-0.8,0.7l-0.3,0.4c0.3-0.3,0.7-0.6,1.1-0.9c0.2-0.1,0.4-0.3,0.6-0.3c0.1,0.3,0.6,0.3,1.2,0.2
			C1182.8,351.4,1183.2,351,1183.1,350.7"/>
		<path class="st0" d="M1176,351.9c0.2-0.1,0.4-0.3,0.6-0.3c0.5-2.3,2.8-3.7,5.1-3.2c0.6,0.1,1.2,0.4,1.7,0.8v-1.2l-0.3-0.4v-0.6
			h0.3v-2.7l0.6-2.6l0.6,2.6v2.7h0.3v0.7l-0.3,0.4v2.5c0.7,1.2,0.7,2.6,0.1,3.9l-3.8,0.6c-0.3,1.6-1.9,2.7-3.6,2.4
			c-0.9-0.2-1.6-0.7-2-1.5l-13.2,2.2v-9.7c0.4-0.2,0.9-0.3,1.4-0.3c1.4-0.1,2.6,0.6,3.3,1.8h1.5v-1l2.6-1.9l2.8,1.9l0,0.2l-0.7,0.7
			v0.5h1.7l1.4,1L1176,351.9z"/>
		<path class="st3" d="M1180.8,357.3c-0.6-0.6-1.3-1.1-2.1-1.3c-0.9-0.3-1.6-0.3-2-0.1c0.6,0.1,1.1,0.2,1.7,0.4
			c0.5,0.2,1.1,0.4,1.6,0.7c0,0,0,0,0,0c0,0-0.7-0.3-1.6-0.6c-0.6-0.2-1.1-0.3-1.7-0.4c-0.4,0-0.8,0-1.1,0c0,0,0,0,0,0.1
			c0.4,0,0.7,0,1.1,0c0.1,0.2,0.8,0.7,1.7,1C1179.4,357.3,1180.4,357.5,1180.8,357.3"/>
		<path class="st3" d="M1179.3,351.2c0.3,0.1,0.5,0.6,0.3,1.2c-0.1,0.6-0.5,1-0.9,1c-0.1,0.2-0.1,0.5-0.3,0.7
			c-0.2,0.3-0.4,0.6-0.7,0.9l-0.2,0c0.3-0.2,0.5-0.5,0.7-0.8c0.1-0.2,0.2-0.5,0.3-0.7c-0.3-0.1-0.4-0.6-0.3-1.2
			C1178.6,351.5,1179,351.1,1179.3,351.2"/>
		<path class="st3" d="M1181.6,355.4c0-0.4-0.4-0.7-1.1-0.8c-0.6-0.1-1.2,0.1-1.2,0.4c-0.2,0-0.5,0-0.7,0c-0.4,0-0.8,0.1-1.1,0.3
			l0,0.1c0.3-0.1,0.7-0.2,1.1-0.3c0.2,0,0.5,0,0.7,0c0,0.3,0.5,0.7,1.1,0.7C1181,355.9,1181.6,355.7,1181.6,355.4"/>
		<path class="st3" d="M1172.8,353.4c-0.3,0.8-0.8,1.5-1.5,2c-0.7,0.6-1.4,0.9-1.8,0.9c0.5-0.3,1-0.6,1.4-1c0.4-0.4,0.8-0.8,1.2-1.2
			c0,0,0,0,0,0c0,0-0.5,0.6-1.3,1.2c-0.4,0.4-0.9,0.7-1.4,1c0,0-0.2,0.1-0.6,0.2c-0.2,0.1-0.5,0.1-0.7,0.1c-0.1,0-0.3,0-0.4-0.1
			c0.4,0,0.7-0.1,1-0.2c0.2-0.1,0.4-0.2,0.5-0.3c0-0.2,0.5-0.9,1.2-1.4C1171.5,354,1172.3,353.5,1172.8,353.4"/>
		<path class="st3" d="M1185.3,353.2c-0.8-0.4-1.6-0.5-2.5-0.4c-0.9,0.1-1.6,0.4-1.9,0.6c0.6-0.1,1.1-0.2,1.7-0.3c0.6,0,1.2,0,1.7,0
			c0,0,0,0,0,0c0,0-0.8,0-1.7,0c-0.6,0-1.2,0.1-1.7,0.2c-0.4,0.1-0.9,0.2-1.3,0.4c0,0-0.5,0.2-0.3,0.3c0.5-0.3,1.1-0.4,1.6-0.6
			c0.3,0.2,1,0.3,1.9,0.2C1183.9,353.8,1184.9,353.6,1185.3,353.2"/>
		<path class="st3" d="M1174.5,353.6c0.3,0.2,0.2,0.8-0.2,1.3c-0.4,0.5-0.9,0.7-1.2,0.6c-0.2,0.2-0.3,0.4-0.5,0.5
			c-0.3,0.2-0.6,0.4-0.9,0.6l-0.1-0.1c0.3-0.2,0.7-0.3,1-0.6c0.2-0.1,0.4-0.3,0.5-0.5c-0.2-0.2-0.1-0.8,0.2-1.3
			C1173.7,353.6,1174.3,353.3,1174.5,353.6"/>
		<path class="st3" d="M1177.7,352c-0.1,0.8-0.4,1.6-1,2.3c-0.6,0.8-1.2,1.2-1.5,1.3c0.4-0.4,0.8-0.8,1.1-1.3c0.3-0.5,0.6-1,0.9-1.5
			c0,0,0,0,0,0c0,0-0.4,0.7-0.9,1.5c-0.3,0.5-0.7,0.9-1.1,1.3c-0.3,0.2-0.6,0.5-0.9,0.7c0,0,0,0,0-0.1c0.3-0.2,0.6-0.4,0.9-0.7
			c-0.1-0.2,0.2-1,0.8-1.8C1176.6,352.9,1177.3,352.2,1177.7,352"/>
		<path class="st3" d="M1181.7,348.8c0.2,0.7,0.1,1.4-0.1,2c-0.1,0.5-0.4,1-0.8,1.4c0.2-0.4,0.4-0.9,0.5-1.3
			c0.1-0.4,0.2-0.9,0.3-1.4c0,0,0,0,0,0c0,0-0.1,0.6-0.3,1.4c-0.2,0.6-0.5,1.3-0.7,1.9c-0.1,0.3-0.3,0.6-0.5,0.8
			c0,0-0.5,0.5-0.3,0.2c0.2-0.1,0.9-1.7,0.9-1.7c-0.1-0.2-0.1-0.7,0.1-1.4C1180.9,349.9,1181.2,349.3,1181.7,348.8"/>
		<path class="st3" d="M1176.8,358c0.2-0.3-0.2-0.8-0.8-1.1c-0.6-0.3-1.1-0.3-1.3,0c-0.2-0.1-0.5-0.2-0.8-0.2
			c-0.4-0.1-0.7-0.1-1.1,0l0,0.1c0.4,0,0.7,0,1.1,0.1c0.2,0,0.5,0.1,0.7,0.2c-0.1,0.3,0.2,0.8,0.8,1
			C1176,358.3,1176.6,358.3,1176.8,358"/>
		<path class="st3" d="M1161.9,355.5c1.4,0.3,5.4,1.1,6.9,1.1c7,0,12.2-2.2,13.9-7.3c-0.9,4.9-6.5,7.8-13.9,7.8
			c-1.4,0-5.6-0.7-6.9-1V355.5z"/>
		<path class="st3" d="M1175,359c-0.6-0.7-1.3-1.2-2.1-1.5c-0.9-0.3-1.7-0.4-2-0.3c0.6,0.1,1.2,0.3,1.7,0.5c0.6,0.2,1.1,0.5,1.6,0.8
			c0,0,0,0,0,0c0,0-0.7-0.4-1.6-0.7c-0.6-0.2-1.1-0.4-1.7-0.6c0,0-0.8-0.2-1.4-0.3c0,0-0.2,0.1-0.2,0.1c0.5,0.1,1.1,0.2,1.6,0.3
			c0.1,0.2,0.8,0.8,1.7,1.1C1173.5,358.9,1174.5,359.1,1175,359"/>
	</g>
</g>
<g>
	<rect x="119.1" y="14.6" class="st2" width="1.3" height="7.7"/>
	<path class="st2" d="M109,19.3c0,0.5,0.1,0.9,0.4,1.3c0.5,0.7,1.4,1.1,2.3,1c0.5,0,0.9-0.1,1.3-0.2c0.7-0.1,1.2-0.8,1.2-1.4
		c0-0.4-0.1-0.9-0.5-1.1c-0.5-0.3-1-0.5-1.6-0.6l-1.3-0.3c-0.6-0.1-1.2-0.3-1.8-0.6c-0.6-0.4-1-1.1-0.9-1.8c0-0.8,0.3-1.6,0.9-2.1
		c0.7-0.6,1.6-0.9,2.5-0.8c0.9,0,1.8,0.2,2.6,0.7c0.7,0.5,1.1,1.4,1.1,2.3h-1.2c0-0.4-0.2-0.8-0.4-1.2c-0.5-0.6-1.3-0.8-2-0.8
		c-0.6-0.1-1.2,0.1-1.7,0.5c-0.3,0.3-0.5,0.7-0.5,1.1c0,0.4,0.2,0.8,0.6,1c0.6,0.2,1.1,0.4,1.7,0.5l1.3,0.3c0.5,0.1,1,0.3,1.5,0.6
		c0.6,0.5,1,1.2,0.9,2c0.1,0.9-0.4,1.8-1.2,2.3c-0.8,0.5-1.8,0.7-2.7,0.7c-1,0.1-2-0.3-2.8-0.9c-0.7-0.6-1.1-1.5-1-2.5L109,19.3z"/>
	<path class="st2" d="M97.6,12.8h7V14h-5.7v2.9h5.3V18h-5.3v3.3h5.8v1.1h-7.1V12.8z"/>
	<path class="st2" d="M86.1,12.8h1.5l2.8,4.6l2.8-4.6h1.5L91,18.5v3.9h-1.3v-3.9L86.1,12.8z"/>
	<rect x="81.7" y="14.6" class="st2" width="1.3" height="7.7"/>
	<rect x="119.1" y="12.8" class="st2" width="1.3" height="1"/>
	<rect x="81.7" y="12.8" class="st2" width="1.3" height="1"/>
	<path class="st2" d="M70.1,12.8H74c1.2-0.1,2.3,0.5,3.1,1.4c0.7,0.9,1,2.1,1,3.2c0,1-0.2,1.9-0.6,2.8c-0.6,1.4-2,2.3-3.5,2.2h-3.9
		L70.1,12.8z M73.7,21.3c0.4,0,0.7,0,1.1-0.1c0.5-0.2,0.9-0.5,1.2-1c0.3-0.5,0.5-1,0.6-1.5c0.1-0.3,0.1-0.7,0.1-1
		c0.1-1-0.2-1.9-0.7-2.8c-0.5-0.7-1.4-1.1-2.3-1h-2.3v7.4L73.7,21.3z"/>
	<path class="st2" d="M59.5,12.8h7V14h-5.7v2.9h5.3V18h-5.3v3.3h5.8v1.1h-7.1V12.8z"/>
	<path class="st2" d="M50.2,12.8h1.3v8.5h4.9v1.1h-6.2L50.2,12.8z"/>
	<path class="st2" d="M39.7,12.8h7V14H41v2.9h5.3V18H41v3.3h5.8v1.1h-7.1L39.7,12.8z"/>
	<path class="st2" d="M28.9,12.8H33c0.9-0.1,1.8,0.3,2.4,1c0.3,0.4,0.4,0.9,0.4,1.4c0,0.5-0.2,1.1-0.5,1.5c-0.2,0.2-0.5,0.4-0.8,0.6
		c0.4,0.1,0.8,0.4,1.1,0.6c0.4,0.5,0.7,1.1,0.6,1.7c0,0.6-0.2,1.2-0.6,1.7C35,22.1,34,22.5,33,22.4h-4.1V12.8z M33,21.3
		c0.6,0.1,1.3-0.2,1.7-0.7c0.2-0.3,0.3-0.7,0.3-1.1c0-0.6-0.3-1.2-0.9-1.4c-0.4-0.1-0.9-0.2-1.3-0.2h-2.6v3.4H33z M32.6,16.9
		c0.4,0,0.9-0.1,1.3-0.2c0.5-0.2,0.8-0.8,0.7-1.3c0-0.5-0.3-1.1-0.8-1.3c-0.4-0.1-0.8-0.2-1.3-0.2h-2.3v3H32.6z"/>
	<path class="st2" d="M112.2,0.3h2.1v6.2c0,0.5,0.1,1,0.2,1.5c0.7,0.9,2,1.1,2.9,0.4c0.2-0.1,0.3-0.3,0.4-0.4c0.2-0.5,0.3-1,0.2-1.5
		V0.3h2.1v6.2c0,0.9-0.1,1.7-0.5,2.5c-1.7,2-4.6,2.2-6.6,0.5c-0.2-0.2-0.4-0.3-0.5-0.5c-0.4-0.8-0.5-1.6-0.5-2.5V0.3z"/>
	<path class="st2" d="M102.8,0.3h2.2l4,7v-7h2v10.1h-2.1l-4.1-7.1v7.1h-2V0.3z"/>
	<path class="st2" d="M100.2,0.6c0.4,0.2,0.7,0.4,1,0.7c0.2,0.3,0.4,0.5,0.5,0.8c0.1,0.3,0.2,0.7,0.2,1.1c0,0.5-0.1,1-0.4,1.4
		c-0.3,0.5-0.7,0.8-1.2,1c0.4,0.1,0.8,0.4,1,0.8c0.2,0.5,0.3,1,0.3,1.6v0.7c0,0.3,0,0.6,0.1,0.9c0,0.2,0.2,0.4,0.4,0.6v0.3h-2.3
		c-0.1-0.2-0.1-0.4-0.1-0.5c-0.1-0.3-0.1-0.6-0.1-0.9l0-0.9c0-0.5-0.1-0.9-0.4-1.3c-0.4-0.3-0.8-0.4-1.3-0.3h-2.2v3.9h-2.1V0.3h4.9
		C99.1,0.3,99.7,0.4,100.2,0.6 M95.7,2v2.7h2.4c0.4,0,0.7,0,1.1-0.2c0.4-0.2,0.7-0.7,0.6-1.1c0.1-0.5-0.2-1-0.6-1.2
		c-0.3-0.1-0.7-0.2-1-0.2L95.7,2z"/>
	<path class="st2" d="M84.5,0.3h2.1v6.2c0,0.5,0.1,1,0.2,1.5c0.7,0.9,2,1.1,2.9,0.4c0.2-0.1,0.3-0.3,0.4-0.4c0.2-0.5,0.3-1,0.2-1.5
		V0.3h2.1v6.2c0,0.9-0.1,1.7-0.5,2.5c-1.7,2-4.6,2.2-6.6,0.5C85.3,9.4,85.2,9.2,85,9c-0.4-0.8-0.5-1.6-0.5-2.5L84.5,0.3z"/>
	<path class="st2" d="M83.1,1.4c0.3,0.4,0.5,1,0.5,1.5c0,0.5-0.1,1.1-0.5,1.5c-0.2,0.2-0.5,0.4-0.8,0.6c0.5,0.2,0.9,0.5,1.2,0.9
		c0.3,0.4,0.4,1,0.4,1.5c0,0.6-0.1,1.1-0.4,1.6c-0.2,0.3-0.4,0.6-0.7,0.8c-0.3,0.3-0.7,0.4-1.1,0.5c-0.5,0.1-0.9,0.1-1.4,0.1h-4.6
		V0.3h4.9C81.4,0.2,82.4,0.6,83.1,1.4 M77.6,5.9v2.7H80c0.4,0,0.7,0,1-0.2c0.5-0.2,0.7-0.7,0.7-1.3c0-0.5-0.2-0.9-0.6-1.1
		c-0.3-0.1-0.7-0.2-1-0.2L77.6,5.9z M77.6,2v2.2H80c0.4,0,0.7-0.1,1.1-0.2c0.3-0.2,0.5-0.5,0.4-0.9c0-0.4-0.2-0.8-0.5-0.9
		C80.6,2.1,80.2,2,79.8,2L77.6,2z"/>
	<path class="st2" d="M66.3,0.3h2.2l4,7v-7h2v10.1h-2.1l-4.1-7.1v7.1h-2V0.3z"/>
	<rect x="63.4" y="0.3" class="st2" width="2.1" height="1.8"/>
	<rect x="63.4" y="3.1" class="st2" width="2.1" height="7.3"/>
	<path class="st2" d="M62.5,0.3v1.8h-3v8.3h-2.1V2.1h-3V0.3H62.5z"/>
	<path class="st2" d="M51.6,0.3H54l-3.4,6.3v3.8h-2.1V6.6l-3.5-6.3h2.5l2.1,4.4L51.6,0.3z"/>
	<path class="st2" d="M44.7,2.1h-5.3v2.1h4.9V6h-4.9v2.6H45v1.8h-7.6V0.3h7.4L44.7,2.1z"/>
	<path class="st2" d="M28.8,8.6L34,2.1h-5.1V0.3h7.7V2l-5.3,6.6h5.3v1.8h-7.8L28.8,8.6z"/>
</g>
</svg>
