<?xml version="1.0" standalone="no"?>
<!DOCTYPE svg PUBLIC "-//W3C//DTD SVG 20010904//EN"
 "http://www.w3.org/TR/2001/REC-SVG-20010904/DTD/svg10.dtd">
<svg version="1.0" xmlns="http://www.w3.org/2000/svg"
 width="512.000000pt" height="512.000000pt" viewBox="0 0 512.000000 512.000000"
 preserveAspectRatio="xMidYMid meet">
<metadata>
Created by potrace 1.14, written by Peter Selinger 2001-2017
</metadata>
<g transform="translate(0.000000,512.000000) scale(0.100000,-0.100000)"
fill="#000000" stroke="none">
<path d="M2423 4994 c-64 -32 -64 -29 -61 -585 l3 -501 33 -29 32 -29 136 0
136 0 34 34 34 34 0 501 c0 557 1 549 -65 577 -49 20 -239 19 -282 -2z"/>
<path d="M1663 4290 c-12 -5 -30 -21 -40 -37 -17 -25 -18 -64 -21 -510 -2
-325 1 -496 8 -524 8 -28 21 -46 43 -60 29 -18 47 -19 190 -17 l159 3 29 33
29 32 0 511 0 511 -34 34 -34 34 -153 -1 c-85 0 -164 -4 -176 -9z"/>
<path d="M3124 4266 l-34 -34 0 -151 c0 -161 9 -199 49 -221 11 -5 86 -10 171
-10 l152 0 29 31 29 31 0 155 c0 229 -3 233 -221 233 l-141 0 -34 -34z"/>
<path d="M914 3506 l-34 -34 0 -131 c0 -130 0 -131 29 -163 l29 -33 166 0 166
0 27 28 c27 27 28 30 31 162 l4 135 -35 35 -35 35 -157 0 -157 0 -34 -34z"/>
<path d="M2379 3511 l-29 -29 0 -137 c0 -75 5 -145 10 -156 27 -50 5 -49 940
-49 l872 0 29 29 29 29 0 142 0 142 -29 29 -29 29 -882 0 -882 0 -29 -29z"/>
<path d="M927 2819 c-46 -27 -47 -37 -47 -564 0 -551 -1 -543 65 -571 47 -19
253 -19 299 0 69 29 66 5 66 574 l0 514 -29 29 -29 29 -154 0 c-85 0 -161 -5
-171 -11z"/>
<path d="M3139 2815 c-15 -8 -32 -29 -38 -46 -7 -22 -11 -190 -11 -521 0 -522
1 -532 49 -558 11 -5 85 -10 168 -10 158 0 175 5 202 57 8 15 11 172 11 518 0
538 0 538 -55 563 -39 18 -292 15 -326 -3z"/>
<path d="M202 2804 c-43 -30 -52 -64 -52 -204 0 -213 17 -230 230 -230 140 0
174 9 204 52 13 18 16 54 16 181 l0 159 -31 29 -31 29 -157 0 c-126 0 -161 -3
-179 -16z"/>
<path d="M1638 2781 l-33 -29 -3 -135 c-3 -102 0 -143 11 -170 29 -69 17 -68
588 -65 l511 3 29 33 29 32 0 141 c0 145 -5 170 -44 201 -19 16 -63 18 -538
18 l-518 0 -32 -29z"/>
<path d="M3861 2794 c-39 -28 -51 -73 -50 -196 0 -138 12 -177 59 -200 32 -16
78 -18 513 -18 527 0 531 1 562 60 14 26 16 57 13 172 l-3 140 -33 29 -32 29
-503 0 c-448 0 -505 -2 -526 -16z"/>
<path d="M1642 2078 c-11 -13 -25 -36 -31 -51 -15 -38 -15 -948 -1 -999 20
-70 42 -78 210 -78 167 0 190 8 210 78 8 25 10 195 8 525 l-3 489 -33 29 -32
29 -153 0 c-146 0 -155 -1 -175 -22z"/>
<path d="M2407 2089 c-48 -28 -47 -5 -47 -979 0 -1010 -4 -957 65 -986 47 -19
253 -19 299 0 71 29 66 -42 66 989 l0 929 -29 29 -29 29 -154 0 c-85 0 -161
-5 -171 -11z"/>
<path d="M3854 2090 c-12 -4 -31 -21 -43 -36 -21 -27 -22 -36 -19 -177 l3
-149 28 -24 c27 -23 33 -24 188 -24 l161 0 29 29 29 29 0 141 c0 83 -5 150
-11 165 -21 45 -63 56 -211 55 -73 0 -143 -4 -154 -9z"/>
<path d="M3125 1337 l-35 -35 0 -136 c0 -211 5 -216 229 -216 l151 0 32 29 33
29 0 151 0 151 -28 27 c-27 28 -28 28 -188 31 l-160 3 -34 -34z"/>
</g>
</svg>
