<?xml version="1.0" encoding="utf-8"?>
<!-- Generator: Adobe Illustrator 23.1.0, SVG Export Plug-In . SVG Version: 6.00 Build 0)  -->
<svg version="1.1" id="Layer_1" xmlns="http://www.w3.org/2000/svg" xmlns:xlink="http://www.w3.org/1999/xlink" x="0px" y="0px"
	 viewBox="0 0 300 93" style="enable-background:new 0 0 300 93;" xml:space="preserve">
<style type="text/css">
	.st0{fill:#FFDD00;}
	.st1{fill:#231F20;}
	.st2{fill:#00ADEE;}
	.st3{fill:#FFFFFF;}
</style>
<g>
	<path class="st0" d="M3.2,46.5c0-21,17.1-38.1,38.1-38.1s38.1,17.1,38.1,38.1s-17,38.1-38.1,38.1S3.2,67.5,3.2,46.5L3.2,46.5z"/>
	<g>
		<path class="st1" d="M10.9,64.4l-0.1,0.1l-1.3-2.3L9.7,62l0.1,0.1c0.1,0.1,0.2,0.2,0.2,0.3c0.1,0,0.1,0.1,0.2,0
			c0.1,0,0.2-0.1,0.4-0.2l2.9-1.6c0.2-0.1,0.4-0.2,0.4-0.3s0.1-0.1,0.1-0.2c0-0.1,0-0.2-0.1-0.3l-0.1-0.2l0.1-0.1l1.3,2.3l-0.1,0.1
			L15,61.8c-0.1-0.1-0.2-0.2-0.2-0.3c-0.1,0-0.1-0.1-0.2-0.1c-0.1,0-0.2,0.1-0.4,0.2l-2.9,1.6c-0.2,0.1-0.4,0.2-0.4,0.3
			s-0.1,0.1-0.1,0.2c0,0.1,0,0.2,0.1,0.3V64.4z M16,60.1c0.1,0.1,0.1,0.3,0,0.4c0,0.1-0.1,0.3-0.3,0.3c-0.1,0.1-0.3,0.1-0.4,0
			c-0.1,0-0.3-0.1-0.3-0.3c-0.1-0.1-0.1-0.3,0-0.4c0-0.1,0.1-0.3,0.3-0.3c0.1-0.1,0.3-0.1,0.4-0.1C15.8,59.9,15.9,60,16,60.1z"/>
		<path class="st1" d="M18.2,65.8l-1.3,1.1l-0.1-0.1c0.3-0.3,0.5-0.7,0.5-1c0-0.4,0-0.7-0.2-1c-0.2-0.2-0.3-0.3-0.5-0.4
			s-0.4,0-0.5,0.1s-0.1,0.1-0.2,0.2c-0.1,0.1-0.1,0.3-0.1,0.5c0,0.1,0.1,0.4,0.1,0.9c0.1,0.7,0.2,1.1,0.1,1.5
			c-0.1,0.3-0.3,0.6-0.5,0.8c-0.3,0.3-0.7,0.3-1.2,0.3c-0.4-0.1-0.8-0.3-1.1-0.7c-0.1-0.1-0.2-0.3-0.2-0.4c-0.1-0.1-0.1-0.3-0.2-0.5
			c0-0.1-0.1-0.2-0.1-0.3c0-0.1-0.1-0.1-0.2-0.1c-0.1,0-0.2,0-0.3,0L12,66.5l1.5-1.2l0.1,0.1c-0.4,0.4-0.6,0.8-0.6,1.3
			c0,0.4,0.1,0.8,0.3,1.1c0.2,0.2,0.4,0.4,0.6,0.4c0.2,0,0.4,0,0.6-0.1c0.1-0.1,0.2-0.2,0.2-0.3c0.1-0.1,0.1-0.3,0.1-0.4
			c0-0.2,0-0.4-0.1-0.8c-0.1-0.5-0.1-0.9-0.1-1.1c0-0.3,0.1-0.5,0.1-0.7c0.1-0.2,0.2-0.4,0.4-0.5c0.3-0.2,0.7-0.3,1.1-0.3
			c0.4,0.1,0.7,0.3,1,0.6c0.1,0.1,0.2,0.3,0.2,0.4s0.1,0.3,0.1,0.4c0,0.2,0.1,0.3,0.1,0.4s0.1,0.1,0.1,0.1
			C17.8,65.8,17.9,65.8,18.2,65.8L18.2,65.8z"/>
		<path class="st1" d="M22.7,70.5l-0.9,1l-0.1-0.1c0.2-0.3,0.2-0.5,0.3-0.7c0-0.2,0-0.3-0.1-0.5c0-0.1-0.1-0.2-0.3-0.4l-0.3-0.3
			l-2.6,2.9c-0.2,0.2-0.3,0.3-0.3,0.4s0,0.1,0,0.2s0.1,0.2,0.2,0.3l0.1,0.1l-0.1,0.1l-2-1.8l0.1-0.1l0.1,0.1
			c0.1,0.1,0.2,0.2,0.3,0.2c0.1,0,0.2,0,0.2,0c0.1,0,0.2-0.1,0.3-0.3l2.6-2.9l-0.3-0.2c-0.3-0.2-0.5-0.3-0.7-0.3
			c-0.3,0-0.6,0.1-0.9,0.4l-0.1-0.1l0.9-1L22.7,70.5z"/>
		<path class="st1" d="M24.2,75.7l-1.5-0.9l-0.4,0.3c-0.1,0.1-0.2,0.2-0.3,0.3c-0.1,0.1-0.1,0.2,0,0.4c0,0.1,0.2,0.2,0.4,0.3
			l-0.1,0.1l-1.5-0.9l0.1-0.1c0.2,0.1,0.3,0.1,0.5,0s0.4-0.2,0.8-0.4l3.6-2.5h0.1l-0.6,4.5c-0.1,0.4-0.1,0.7,0,0.9
			c0,0.1,0.1,0.2,0.2,0.3l-0.1,0.1l-2.1-1.3l0.1-0.1l0.1,0.1c0.2,0.1,0.3,0.2,0.4,0.1c0.1,0,0.1,0,0.2-0.1c0,0,0-0.1,0.1-0.1
			c0,0,0-0.1,0-0.3L24.2,75.7z M24.2,75.4l0.3-1.9l-1.6,1.1L24.2,75.4z"/>
		<path class="st1" d="M30.9,74.9l1.4,3.8l0.7-2.1c0.1-0.3,0.1-0.5,0.1-0.6c-0.1-0.2-0.2-0.3-0.5-0.4v-0.1l1.6,0.5v0.1
			c-0.2,0-0.4-0.1-0.4,0c-0.1,0-0.2,0.1-0.2,0.1c-0.1,0.1-0.1,0.2-0.2,0.5l-1.3,4H32l-1.9-5.1l-1,3.1c-0.1,0.3-0.1,0.5,0,0.6
			s0.2,0.2,0.4,0.3h0.1v0.1l-1.7-0.6V79c0.3,0.1,0.5,0.1,0.6,0s0.3-0.2,0.3-0.5l1.1-3.4L29.6,75c-0.1-0.2-0.1-0.3-0.2-0.3
			c-0.1-0.1-0.2-0.1-0.3-0.2v-0.1L30.9,74.9z"/>
		<path class="st1" d="M38.5,79c0.5,0.2,0.8,0.3,1,0.5c0.3,0.3,0.4,0.6,0.3,0.9c0,0.4-0.2,0.7-0.6,0.9c-0.4,0.3-1,0.4-1.7,0.3
			L35,81.3v-0.1c0.2,0,0.4,0,0.5,0s0.2-0.1,0.2-0.2s0.1-0.2,0.1-0.5l0.4-3.3c0-0.3,0-0.4,0-0.5s-0.1-0.1-0.2-0.2
			c-0.1-0.1-0.2-0.1-0.5-0.1v-0.1l2.4,0.3c0.6,0.1,1,0.2,1.2,0.3c0.2,0.1,0.4,0.3,0.5,0.5s0.2,0.4,0.1,0.7c0,0.2-0.1,0.4-0.3,0.6
			C39.3,78.8,39,78.9,38.5,79z M37.2,79L37,80.6v0.2c0,0.1,0,0.2,0.1,0.3c0.1,0.1,0.2,0.1,0.3,0.1c0.2,0,0.4,0,0.6-0.1
			c0.2-0.1,0.3-0.2,0.4-0.3c0.1-0.2,0.2-0.3,0.2-0.5s0-0.5-0.1-0.7s-0.2-0.3-0.4-0.4C37.8,79.1,37.5,79.1,37.2,79z M37.2,78.7
			c0.4,0,0.6,0,0.8,0c0.2-0.1,0.3-0.2,0.4-0.3c0.1-0.1,0.2-0.3,0.2-0.5s0-0.4-0.1-0.6s-0.2-0.3-0.3-0.4c-0.2-0.1-0.4-0.2-0.8-0.2
			L37.2,78.7z"/>
		<path class="st1" d="M41.7,76.8l2.6-0.3v0.1h-0.1c-0.2,0-0.3,0.1-0.4,0.1c-0.1,0.1-0.1,0.1-0.1,0.2s0,0.3,0,0.5L44,80
			c0,0.5,0.1,0.7,0.2,0.9c0.1,0.1,0.2,0.2,0.4,0.3c0.2,0.1,0.4,0.1,0.6,0.1c0.3,0,0.5-0.1,0.7-0.3c0.2-0.1,0.3-0.3,0.4-0.6
			c0.1-0.2,0.1-0.6,0-1.2L46,77.3c0-0.2-0.1-0.4-0.1-0.5c-0.1-0.1-0.1-0.2-0.2-0.2c-0.1,0-0.3-0.1-0.5,0v-0.1l1.8-0.2v0.1h-0.1
			c-0.1,0-0.3,0.1-0.3,0.1c-0.1,0.1-0.2,0.2-0.2,0.3c0,0.1,0,0.2,0,0.4l0.2,1.9c0.1,0.6,0.1,1,0,1.3s-0.2,0.5-0.5,0.8
			s-0.7,0.4-1.2,0.5c-0.4,0-0.8,0-1-0.1c-0.3-0.1-0.6-0.3-0.8-0.5s-0.3-0.6-0.3-1l-0.3-2.5c0-0.3-0.1-0.5-0.1-0.5
			c0-0.1-0.1-0.1-0.2-0.2c-0.1,0-0.2,0-0.4,0L41.7,76.8z"/>
		<path class="st1" d="M53.8,77.7l0.4,1.8l-4.3,1.4v-0.1l0.2-0.1c0.1-0.1,0.2-0.1,0.3-0.2s0.1-0.1,0.1-0.2s0-0.2-0.1-0.5l-1-3.2
			c-0.1-0.2-0.1-0.4-0.2-0.5c0,0-0.1-0.1-0.2-0.1c-0.1,0-0.2,0-0.3,0l-0.2,0.1V76l2.6-0.8v0.1l-0.2,0.1c-0.1,0-0.2,0.1-0.3,0.2
			c-0.1,0-0.1,0.1-0.1,0.2s0,0.2,0.1,0.5l1,3.1c0.1,0.2,0.1,0.4,0.2,0.5C51.9,80,51.9,80,52,80c0.1,0,0.2,0,0.4-0.1l0.4-0.1
			c0.3-0.1,0.5-0.2,0.6-0.3c0.1-0.1,0.2-0.3,0.3-0.6c0.1-0.2,0.1-0.6,0.1-1V77.7z"/>
		<path class="st1" d="M58.1,71.4l2.3,3.5c0.2,0.3,0.3,0.4,0.4,0.5c0.1,0.1,0.2,0.1,0.3,0.1s0.2-0.1,0.4-0.2l0.1-0.1l0.1,0.1
			l-2.2,1.5l-0.1-0.1l0.1-0.1c0.2-0.1,0.3-0.2,0.4-0.3c0.1-0.1,0.1-0.2,0-0.3c0-0.1-0.1-0.3-0.3-0.5l-1.4-2.2
			c-0.1-0.2-0.2-0.3-0.3-0.4c-0.1,0-0.1-0.1-0.2-0.1c-0.1,0-0.1,0-0.2,0.1c-0.1,0.1-0.2,0.2-0.3,0.4l-0.1-0.1l1.1-1.7L58.1,71.4z"/>
		<path class="st1" d="M63.8,73.8L63.8,73.8c0.2-0.4,0.3-0.8,0.4-1.1c0.1-0.3,0.1-0.7,0-1s-0.2-0.6-0.4-0.9
			c-0.1,0.2-0.1,0.3-0.2,0.4c-0.1,0.1-0.1,0.2-0.2,0.3c-0.3,0.3-0.6,0.4-1,0.3c-0.4,0-0.7-0.2-1.1-0.6c-0.2-0.2-0.4-0.5-0.5-0.8
			s-0.1-0.6,0-0.9s0.2-0.5,0.4-0.7s0.5-0.3,0.8-0.4c0.3,0,0.6,0,1,0.1c0.3,0.1,0.6,0.4,0.9,0.7c0.4,0.4,0.6,0.9,0.8,1.4
			c0.1,0.5,0.1,1.1-0.1,1.6C64.6,72.8,64.3,73.3,63.8,73.8z M63.7,70.6c-0.2-0.2-0.3-0.4-0.5-0.6c-0.3-0.3-0.6-0.6-1-0.8
			C62.1,69,61.9,69,61.8,69c-0.1,0-0.2,0-0.2,0.1c-0.1,0.1-0.1,0.2-0.1,0.3c0,0.2,0.2,0.4,0.5,0.7c0.5,0.5,0.8,0.8,1.1,0.9
			c0.2,0.1,0.4,0,0.5-0.1C63.6,70.8,63.7,70.7,63.7,70.6z"/>
		<path class="st1" d="M67.9,69.9L67.9,69.9c0.1-0.5,0.2-0.8,0.3-1.1c0-0.3,0-0.7-0.1-1s-0.3-0.6-0.5-0.9c0,0.2-0.1,0.3-0.1,0.4
			s-0.1,0.2-0.2,0.3c-0.2,0.3-0.5,0.5-0.9,0.5s-0.8-0.1-1.1-0.4c-0.3-0.2-0.5-0.5-0.6-0.7c-0.1-0.3-0.2-0.6-0.1-0.9
			c0-0.3,0.1-0.6,0.3-0.8c0.2-0.2,0.4-0.4,0.7-0.5c0.3-0.1,0.6-0.1,1,0s0.7,0.2,1,0.5c0.4,0.3,0.7,0.8,1,1.3
			c0.2,0.5,0.3,1.1,0.2,1.6C68.5,68.8,68.3,69.3,67.9,69.9z M67.3,66.7c-0.2-0.2-0.4-0.4-0.6-0.5c-0.4-0.3-0.7-0.5-1.1-0.7
			c-0.2-0.1-0.4-0.1-0.5-0.1s-0.2,0.1-0.2,0.1c-0.1,0.1-0.1,0.2-0.1,0.3c0.1,0.2,0.2,0.4,0.6,0.6c0.5,0.4,1,0.7,1.3,0.7
			c0.2,0,0.4,0,0.5-0.2C67.2,67,67.2,66.8,67.3,66.7z"/>
		<path class="st1" d="M71.8,64.3l-3-3.3l-0.5,1c-0.2,0.4-0.3,0.7-0.3,0.9s0.1,0.3,0.2,0.5l-0.1,0.1l-1.2-1.1l1.5-2.6l3.7,4
			L71.8,64.3z"/>
	</g>
	<path class="st1" d="M13.5,46.5c0-15.3,12.4-27.7,27.7-27.7C56.6,18.8,69,31.2,69,46.5S56.6,74.2,41.2,74.2
		C25.9,74.2,13.5,61.8,13.5,46.5L13.5,46.5z"/>
	<g>
		<path class="st1" d="M8.4,47.1c0.1-0.5,0.2-0.8,0.4-1c0.2-0.3,0.5-0.4,0.9-0.5c0.4,0,0.7,0.1,1,0.4c0.3,0.4,0.5,0.9,0.5,1.6
			l0.1,2.6h-0.1c0-0.2,0-0.4-0.1-0.5c0-0.1-0.1-0.1-0.2-0.2c-0.1,0-0.2,0-0.5,0L7,49.7c-0.3,0-0.4,0-0.5,0.1c-0.1,0-0.1,0.1-0.2,0.2
			c0,0.1-0.1,0.2,0,0.5H6.2L6.1,48c0-0.6,0-1,0.1-1.2c0.1-0.3,0.2-0.4,0.4-0.6C6.8,46,7,45.9,7.3,45.9c0.2,0,0.5,0.1,0.7,0.2
			C8.1,46.3,8.3,46.6,8.4,47.1z M8.4,48.4c0-0.4-0.1-0.6-0.1-0.8c-0.1-0.2-0.2-0.3-0.4-0.4c-0.1-0.1-0.3-0.1-0.6-0.1
			c-0.2,0-0.4,0.1-0.5,0.2c-0.1,0.1-0.2,0.2-0.3,0.4c-0.1,0.2-0.1,0.4-0.1,0.8L8.4,48.4z M8.7,48.4l1.6-0.1h0.2c0.1,0,0.2,0,0.3-0.1
			s0.1-0.2,0.1-0.3c0-0.2-0.1-0.4-0.2-0.5c-0.1-0.2-0.2-0.3-0.4-0.4c-0.2-0.1-0.4-0.1-0.6-0.1c-0.2,0-0.4,0.1-0.6,0.2
			c-0.2,0.1-0.3,0.3-0.4,0.5C8.7,47.7,8.6,48,8.7,48.4z"/>
		<path class="st1" d="M6.6,42.1l2.1,0.3v-0.1c0-0.3,0-0.6-0.2-0.7c-0.2-0.2-0.5-0.3-0.8-0.4v-0.1l2.6,0.4v0.1c-0.3,0-0.5,0-0.7,0.1
			S9.3,41.9,9.2,42C9,42,9,42.2,8.9,42.4l1.4,0.2c0.3,0,0.4,0.1,0.5,0c0.1,0,0.1-0.1,0.2-0.1c0.1-0.1,0.1-0.2,0.1-0.3v-0.3
			c0.1-0.5,0-0.9-0.2-1.2s-0.5-0.6-0.9-0.8v-0.1l1.6,0.5L11,44.7h-0.1v-0.2c0-0.1,0-0.3,0-0.4c0-0.1-0.1-0.1-0.2-0.2
			c-0.1,0-0.2-0.1-0.5-0.1L7,43.4c-0.2,0-0.4,0-0.4,0c-0.1,0-0.2,0.1-0.2,0.1c-0.1,0.1-0.1,0.2-0.2,0.4v0.2L6,44l0.6-4.2L8.1,40v0.1
			c-0.4,0-0.7,0.1-0.8,0.2c-0.2,0.1-0.3,0.3-0.4,0.5c-0.1,0.1-0.1,0.4-0.2,0.8L6.6,42.1z"/>
		<path class="st1" d="M8.8,32.5h0.1c0,0.2,0,0.3,0,0.4c0.1,0.2,0.3,0.4,0.6,0.8l1.4,1.6l1.2,0.4c0.2,0.1,0.4,0.1,0.5,0.1
			s0.1,0,0.2-0.1c0.1-0.1,0.1-0.2,0.2-0.3l0.1-0.3l0.1,0.1l-0.9,2.7h-0.1l0.1-0.3c0.1-0.1,0.1-0.3,0-0.4c0-0.1-0.1-0.1-0.1-0.2
			c0,0-0.2-0.1-0.4-0.2l-1-0.3l-2.5,0.4c-0.5,0.1-0.8,0.2-0.9,0.2s-0.2,0.2-0.2,0.3H7.1l0.8-2.3H8v0.1c-0.1,0.1-0.1,0.2,0,0.3
			c0,0.1,0.1,0.1,0.1,0.1c0.1,0,0.3,0,0.7-0.1l1.9-0.3l-1.2-1.4c-0.3-0.3-0.5-0.5-0.6-0.6c-0.1,0-0.1,0-0.2,0
			c-0.1,0.1-0.2,0.2-0.3,0.4L8.3,34L8.8,32.5z"/>
		<path class="st1" d="M12.7,29.4l2.8-0.4c0.4-0.1,0.7-0.1,0.9-0.2c0.1-0.1,0.2-0.2,0.3-0.3l0.1,0.1l-1.4,2.3l-0.1-0.1
			c0.1-0.2,0.1-0.3,0.1-0.3c0-0.1,0-0.1-0.1-0.1c-0.1-0.1-0.3-0.1-0.7,0l-1.9,0.3v0.2l1.2,0.7c0.2,0.1,0.4,0.2,0.4,0.2
			c0.1,0,0.2,0,0.2-0.1c0.1-0.1,0.2-0.2,0.3-0.3l0.1,0.1l-1.3,2.2l-0.1-0.1l0.1-0.1c0.1-0.1,0.1-0.2,0.1-0.4c0-0.1,0-0.1-0.1-0.2
			c0-0.1-0.2-0.1-0.4-0.3l-2.9-1.7c-0.2-0.1-0.4-0.2-0.4-0.2c-0.1,0-0.1,0-0.2,0.1c-0.1,0-0.2,0.1-0.2,0.3L9.6,31H9.5l1.3-2.2
			l0.1,0.1c-0.1,0.2-0.1,0.3-0.1,0.4s0,0.1,0.1,0.2c0,0.1,0.2,0.2,0.4,0.3l1.4,0.8l-0.4-2.4c0-0.3-0.1-0.5-0.2-0.6
			c-0.1-0.1-0.2,0-0.3,0s-0.1,0.1-0.3,0.3l-0.1-0.1l1-1.7l0.1,0.1c-0.1,0.2-0.1,0.3-0.1,0.4s0,0.4,0.1,0.9L12.7,29.4z"/>
		<path class="st1" d="M15,23.5l1.5,1.4l0.1-0.1c0.2-0.2,0.3-0.5,0.2-0.7c-0.1-0.2-0.2-0.5-0.5-0.8l0.1-0.1l2,1.8l-0.1,0.1
			c-0.2-0.2-0.5-0.3-0.7-0.3c-0.2-0.1-0.4-0.1-0.5,0s-0.3,0.2-0.4,0.3l1.1,1c0.2,0.2,0.3,0.3,0.4,0.3s0.1,0,0.2,0s0.2-0.1,0.3-0.2
			l0.2-0.2c0.3-0.4,0.5-0.7,0.5-1.1s-0.1-0.7-0.3-1.1l0.1-0.1l1,1.3l-2.9,3.3L17.1,28l0.1-0.1c0.1-0.1,0.2-0.2,0.2-0.3
			c0-0.1,0-0.1,0-0.2s-0.1-0.2-0.3-0.3l-2.5-2.2c-0.2-0.2-0.3-0.2-0.3-0.3c-0.1,0-0.2-0.1-0.2,0c-0.1,0-0.2,0.1-0.3,0.2l-0.1,0.1
			l-0.1-0.1l2.9-3.2l1.1,1l-0.1,0.1c-0.3-0.2-0.6-0.3-0.8-0.3c-0.2,0-0.4,0.1-0.6,0.2c-0.1,0.1-0.3,0.3-0.6,0.5L15,23.5z"/>
		<path class="st1" d="M19.3,18.9l3.9,1l-1.3-1.7c-0.2-0.2-0.3-0.4-0.5-0.4s-0.4,0-0.6,0.2l-0.1-0.1l1.3-1l0.1,0.1
			c-0.2,0.2-0.3,0.3-0.3,0.3c0,0.1,0,0.2,0,0.3c0,0.1,0.1,0.2,0.3,0.4l2.6,3.4l-0.1,0.1l-5.3-1.3l2,2.6c0.2,0.2,0.3,0.4,0.5,0.4
			s0.3-0.1,0.5-0.2l0.1-0.1l0.1,0.1l-1.4,1.1L20.9,24c0.2-0.2,0.3-0.3,0.4-0.5c0-0.2-0.1-0.3-0.2-0.6L18.9,20h-0.2
			c-0.2,0-0.3-0.1-0.4,0c-0.1,0-0.2,0.1-0.3,0.2L17.9,20L19.3,18.9z"/>
		<path class="st1" d="M27.7,13.9l0.6,1.2l-0.1,0.1c-0.2-0.3-0.4-0.4-0.5-0.5c-0.2-0.1-0.3-0.1-0.5-0.1c-0.1,0-0.3,0.1-0.5,0.2
			L26.4,15l1.7,3.5c0.1,0.2,0.2,0.4,0.3,0.4c0.1,0,0.1,0.1,0.2,0.1s0.2,0,0.3-0.1l0.2-0.1l0.1,0.1l-2.4,1.2L26.7,20l0.2-0.1
			c0.1-0.1,0.2-0.1,0.3-0.2c0-0.1,0.1-0.1,0.1-0.2s-0.1-0.2-0.2-0.4l-1.7-3.5l-0.3,0.2c-0.3,0.2-0.5,0.3-0.6,0.5
			c-0.1,0.3-0.1,0.6,0,1l-0.1,0.1l-0.6-1.2L27.7,13.9z"/>
		<path class="st1" d="M31.9,12.5l2.6-0.5v0.1h-0.1c-0.2,0-0.3,0.1-0.4,0.1c-0.1,0.1-0.1,0.1-0.1,0.2c0,0.1,0,0.3,0.1,0.5l0.5,2.4
			c0.1,0.4,0.2,0.7,0.3,0.9c0.1,0.1,0.2,0.2,0.4,0.3c0.2,0.1,0.4,0.1,0.6,0c0.3-0.1,0.5-0.2,0.7-0.3c0.2-0.2,0.3-0.4,0.3-0.6
			c0.1-0.2,0-0.6-0.1-1.1l-0.4-2c0-0.2-0.1-0.4-0.2-0.5c-0.1-0.1-0.1-0.1-0.2-0.2c-0.1,0-0.3,0-0.5,0v-0.1l1.7-0.3v0.1H37
			c-0.1,0-0.3,0.1-0.3,0.2c-0.1,0.1-0.1,0.2-0.2,0.3c0,0.1,0,0.2,0,0.4l0.4,1.9c0.1,0.6,0.2,1,0.1,1.3c0,0.3-0.2,0.6-0.4,0.8
			c-0.3,0.3-0.6,0.5-1.2,0.6c-0.4,0.1-0.8,0.1-1,0c-0.4-0.1-0.6-0.3-0.8-0.5s-0.3-0.5-0.4-1l-0.5-2.4c-0.1-0.3-0.1-0.5-0.2-0.5
			c0-0.1-0.1-0.1-0.2-0.1C32.2,12.5,32.1,12.5,31.9,12.5L31.9,12.5z M33.4,10.6c0.1,0,0.3,0,0.4,0.1c0.1,0.1,0.2,0.2,0.2,0.3
			s0,0.3-0.1,0.4c-0.1,0.1-0.2,0.2-0.3,0.2s-0.3,0-0.4-0.1c-0.1-0.1-0.2-0.2-0.2-0.3s0-0.3,0.1-0.4C33.2,10.7,33.3,10.7,33.4,10.6z
			 M34.8,10.4c0.1,0,0.3,0,0.4,0.1c0.1,0.1,0.2,0.2,0.2,0.3s0,0.3-0.1,0.4c-0.1,0.1-0.2,0.2-0.3,0.2s-0.3,0-0.4-0.1
			c-0.1-0.1-0.2-0.2-0.2-0.3s0-0.3,0.1-0.4C34.6,10.4,34.7,10.4,34.8,10.4z"/>
		<path class="st1" d="M40.5,11.3l2.5,3.2v-2.2c0-0.3,0-0.5-0.1-0.6s-0.3-0.2-0.6-0.2v-0.1H44v0.1c-0.2,0-0.4,0.1-0.4,0.1
			c-0.1,0-0.1,0.1-0.2,0.2c0,0.1-0.1,0.3-0.1,0.5v4.2h-0.1l-3.4-4.2v3.2c0,0.3,0.1,0.5,0.2,0.6c0.1,0.1,0.3,0.2,0.5,0.2h0.1v0.1
			h-1.8v-0.1c0.3,0,0.5-0.1,0.6-0.2s0.2-0.3,0.2-0.6v-3.6l-0.1-0.1c-0.1-0.1-0.2-0.2-0.3-0.3c-0.1,0-0.2-0.1-0.4-0.1v-0.1L40.5,11.3
			z"/>
		<path class="st1" d="M47.3,16.8v0.1l-2.6-0.4v-0.1h0.2c0.1,0,0.3,0,0.4,0c0.1,0,0.1-0.1,0.2-0.2c0-0.1,0.1-0.2,0.1-0.5l0.5-3.3
			c0-0.3,0.1-0.4,0-0.5c0-0.1-0.1-0.1-0.1-0.2c-0.1-0.1-0.2-0.1-0.3-0.1h-0.2v-0.1l2.6,0.4V12h-0.2c-0.1,0-0.3,0-0.4,0
			c-0.1,0-0.1,0.1-0.2,0.2c0,0.1-0.1,0.2-0.1,0.5L46.7,16c0,0.3-0.1,0.4,0,0.5c0,0.1,0.1,0.1,0.1,0.2c0.1,0.1,0.2,0.1,0.3,0.1
			L47.3,16.8z M47,10.2c0.1,0,0.3,0.1,0.4,0.2c0.1,0.1,0.1,0.3,0.1,0.4c0,0.1-0.1,0.3-0.2,0.4c-0.1,0.1-0.3,0.1-0.4,0.1
			c-0.1,0-0.3-0.1-0.4-0.2c-0.1-0.1-0.1-0.3-0.1-0.4c0-0.1,0.1-0.3,0.2-0.4C46.7,10.3,46.8,10.2,47,10.2z"/>
		<path class="st1" d="M54.6,13.8v0.1c-0.2,0-0.4,0-0.6,0.1c-0.1,0.1-0.4,0.3-0.7,0.7l-2.9,3.2h-0.1l-0.4-4.4
			c-0.1-0.5-0.1-0.8-0.1-0.9c0-0.1-0.2-0.2-0.3-0.3v-0.1l2.3,0.8v0.1h-0.1C51.5,13,51.3,13,51.2,13s-0.1,0.1-0.1,0.1s0,0.1,0,0.2
			c0,0.1,0,0.2,0,0.5l0.3,2.7l1.7-1.8c0.2-0.2,0.3-0.4,0.4-0.5c0.1-0.1,0.1-0.2,0.1-0.2c0-0.1,0-0.1,0-0.2c0-0.1-0.1-0.1-0.1-0.2
			c-0.1-0.1-0.2-0.1-0.4-0.2v-0.1L54.6,13.8z"/>
		<path class="st1" d="M57.7,15.7l-1,1.8h0.1c0.3,0.2,0.5,0.2,0.8,0.1c0.2-0.1,0.4-0.3,0.7-0.6l0.1,0.1L57,19.4l-0.1-0.1
			c0.1-0.3,0.2-0.5,0.2-0.7s0-0.4-0.1-0.5s-0.2-0.2-0.4-0.4L55.8,19c-0.1,0.2-0.2,0.4-0.2,0.5s0,0.1,0,0.2s0.1,0.1,0.2,0.2l0.3,0.1
			c0.4,0.2,0.8,0.3,1.2,0.3c0.4-0.1,0.7-0.3,1-0.6l0.1,0.1l-1,1.3L53.5,19l0.1-0.1l0.1,0.1c0.3,0,0.4,0,0.5,0c0.1,0,0.2,0,0.2-0.1
			c0.1,0,0.1-0.2,0.3-0.4l1.6-2.9c0.1-0.2,0.2-0.3,0.2-0.4c0-0.1,0-0.2,0-0.2c-0.1-0.1-0.1-0.2-0.3-0.3L56,14.6l0.1-0.1l3.7,2
			l-0.7,1.3H59c0.1-0.4,0.2-0.6,0.1-0.8c0-0.2-0.1-0.4-0.3-0.6c-0.1-0.1-0.3-0.3-0.7-0.4L57.7,15.7z"/>
		<path class="st1" d="M61.4,21.1l-0.9,1.1c-0.2,0.2-0.3,0.4-0.3,0.4c0,0.1,0,0.2,0,0.2c0,0.1,0.2,0.2,0.3,0.4l-0.1,0.1l-2-1.7
			l0.1-0.1c0.2,0.2,0.3,0.2,0.4,0.3c0.1,0,0.2,0,0.2,0c0.1,0,0.2-0.2,0.4-0.4l2.1-2.5c0.2-0.2,0.3-0.4,0.3-0.4c0-0.1,0-0.2,0-0.2
			s-0.1-0.2-0.3-0.4l0.1-0.1l1.8,1.5c0.5,0.4,0.8,0.7,1,1c0.2,0.2,0.2,0.5,0.2,0.8s-0.1,0.6-0.3,0.8c-0.2,0.3-0.5,0.4-0.9,0.5
			c-0.2,0-0.5-0.1-0.8-0.2l-0.2,2.1c0,0.3,0,0.5,0,0.5c0,0.1,0.1,0.2,0.2,0.3l-0.1,0.1l-1.2-1l0.2-2.8L61.4,21.1z M63,19.2l-1.4,1.7
			l0.2,0.1c0.3,0.2,0.5,0.4,0.7,0.4c0.2,0.1,0.3,0.1,0.5,0s0.4-0.2,0.5-0.4c0.3-0.3,0.4-0.6,0.3-0.8c0-0.3-0.2-0.5-0.5-0.8L63,19.2z
			"/>
		<path class="st1" d="M69.2,24.8L67.9,26l-0.1-0.1c0.3-0.3,0.4-0.7,0.4-1.1s-0.1-0.7-0.3-1c-0.2-0.2-0.3-0.3-0.6-0.3
			s-0.4,0-0.5,0.1s-0.1,0.2-0.2,0.3c0,0.1-0.1,0.3,0,0.5c0,0.1,0.1,0.4,0.2,0.9c0.2,0.6,0.2,1.1,0.1,1.5s-0.2,0.6-0.5,0.8
			c-0.3,0.3-0.7,0.4-1.2,0.3c-0.4-0.1-0.8-0.3-1.2-0.7c-0.1-0.1-0.2-0.2-0.3-0.4c-0.1-0.1-0.1-0.3-0.2-0.5c0-0.1-0.1-0.2-0.1-0.3
			c0-0.1-0.1-0.1-0.2-0.1c-0.1,0-0.2,0-0.3,0l0.1-0.1l1.5-1.2l0.1,0.1c-0.3,0.4-0.5,0.9-0.5,1.3s0.1,0.8,0.3,1.1
			c0.2,0.2,0.4,0.3,0.6,0.4c0.2,0,0.4,0,0.6-0.2c0.1-0.1,0.2-0.2,0.2-0.3c0-0.1,0.1-0.3,0.1-0.4c0-0.2-0.1-0.4-0.1-0.8
			c-0.1-0.5-0.2-0.9-0.2-1.1c0-0.3,0-0.5,0.1-0.7s0.2-0.4,0.4-0.5c0.3-0.3,0.7-0.4,1.1-0.3c0.4,0,0.8,0.2,1.1,0.6
			c0.1,0.1,0.2,0.3,0.3,0.4c0.1,0.1,0.1,0.3,0.1,0.4c0.1,0.2,0.1,0.3,0.1,0.3c0,0.1,0.1,0.1,0.1,0.1C68.9,24.9,69,24.8,69.2,24.8
			L69.2,24.8z"/>
		<path class="st1" d="M67.5,31.3l-0.1,0.1L66,29.2l0.1-0.1l0.1,0.1c0.1,0.1,0.2,0.2,0.3,0.3c0.1,0,0.1,0,0.2,0s0.2-0.1,0.4-0.2
			l2.8-1.8c0.2-0.1,0.3-0.2,0.4-0.3c0-0.1,0.1-0.1,0.1-0.2s0-0.2-0.1-0.3l-0.1-0.1l0.1-0.1l1.4,2.2l-0.1,0.1l-0.1-0.1
			c-0.1-0.1-0.2-0.2-0.3-0.3c-0.1,0-0.1-0.1-0.2,0c-0.1,0-0.2,0.1-0.4,0.2l-2.8,1.8c-0.2,0.1-0.3,0.2-0.4,0.3c0,0.1-0.1,0.1-0.1,0.2
			s0,0.2,0.1,0.3L67.5,31.3z M72.2,26.7c0.1,0.1,0.1,0.3,0.1,0.4s-0.1,0.3-0.2,0.3c-0.1,0.1-0.3,0.1-0.4,0.1c-0.2,0-0.3-0.1-0.3-0.2
			c-0.1-0.1-0.1-0.3-0.1-0.4s0.1-0.3,0.2-0.3c0.1-0.1,0.3-0.1,0.4-0.1C72,26.5,72.1,26.6,72.2,26.7z"/>
		<path class="st1" d="M74.3,34.2L73,34.8v-0.1c0.3-0.2,0.4-0.4,0.5-0.5c0.1-0.2,0.1-0.3,0.1-0.5c0-0.1,0-0.3-0.1-0.5l-0.2-0.3
			l-3.6,1.6c-0.2,0.1-0.4,0.2-0.4,0.2c-0.1,0.1-0.1,0.1-0.1,0.2c0,0.1,0,0.2,0.1,0.3l0.1,0.2l-0.1,0.1L68.2,33l0.1-0.1l0.1,0.2
			c0.1,0.1,0.1,0.2,0.2,0.3c0.1,0,0.1,0.1,0.2,0.1s0.2-0.1,0.4-0.2l3.6-1.6l-0.2-0.3c-0.1-0.3-0.3-0.5-0.5-0.6c-0.3-0.1-0.6-0.1-1,0
			L71,30.7l1.3-0.6L74.3,34.2z"/>
		<path class="st1" d="M75.1,37.8l-2,0.5v0.1c0.1,0.3,0.2,0.5,0.5,0.6c0.2,0.1,0.5,0.1,0.9,0.1v0.1l-2.6,0.6v-0.1
			c0.3-0.1,0.5-0.2,0.6-0.4c0.2-0.1,0.3-0.3,0.3-0.4c0-0.1,0-0.3,0-0.6l-1.4,0.3c-0.3,0.1-0.4,0.1-0.5,0.2c-0.1,0-0.1,0.1-0.1,0.2
			c0,0.1,0,0.2,0,0.3l0.1,0.3c0.1,0.5,0.3,0.8,0.6,1c0.3,0.2,0.7,0.3,1.1,0.4v0.1L71,41.4l-1-4.3h0.1v0.2c0,0.1,0.1,0.3,0.2,0.3
			c0,0.1,0.1,0.1,0.2,0.1s0.2,0,0.5-0.1l3.3-0.8c0.2-0.1,0.4-0.1,0.4-0.1c0.1,0,0.1-0.1,0.2-0.2c0-0.1,0.1-0.2,0-0.4v-0.2H75l1,4.1
			l-1.5,0.4v-0.1c0.3-0.2,0.6-0.3,0.7-0.5s0.2-0.4,0.2-0.6c0-0.1,0-0.4-0.1-0.8L75.1,37.8z"/>
		<path class="st1" d="M76.6,45.6l-1.7,0.2v-0.2c0.4-0.1,0.8-0.3,1-0.6s0.3-0.6,0.3-0.9c0-0.3-0.1-0.5-0.2-0.6
			c-0.2-0.1-0.3-0.2-0.5-0.2c-0.1,0-0.2,0-0.3,0.1c-0.1,0.1-0.2,0.2-0.3,0.4c-0.1,0.1-0.2,0.4-0.4,0.8c-0.3,0.6-0.5,1-0.7,1.3
			c-0.2,0.2-0.5,0.3-0.9,0.4c-0.4,0-0.8-0.1-1.1-0.4c-0.3-0.3-0.5-0.7-0.5-1.2c0-0.2,0-0.3,0-0.5c0-0.1,0.1-0.3,0.2-0.5
			c0-0.1,0.1-0.2,0.1-0.3s0-0.1-0.1-0.2c-0.1-0.1-0.1-0.1-0.2-0.2v-0.1l1.9-0.1v0.1c-0.5,0.1-0.9,0.4-1.2,0.7
			c-0.3,0.3-0.4,0.7-0.4,1s0.1,0.5,0.3,0.7c0.2,0.2,0.4,0.2,0.5,0.2s0.2,0,0.3-0.1c0.1-0.1,0.2-0.2,0.3-0.3c0.1-0.1,0.2-0.4,0.3-0.7
			c0.2-0.5,0.4-0.8,0.5-1c0.2-0.2,0.3-0.4,0.5-0.5s0.4-0.2,0.6-0.2c0.4,0,0.8,0.1,1.1,0.4c0.3,0.3,0.5,0.6,0.5,1.1
			c0,0.2,0,0.3,0,0.5c0,0.1-0.1,0.3-0.1,0.4c-0.1,0.2-0.1,0.3-0.1,0.4c0,0.1,0,0.1,0.1,0.2c0,0,0.1,0.1,0.3,0.1L76.6,45.6z"/>
		<path class="st1" d="M71.4,49.8L71.4,49.8l0.1-2.7h0.1v0.2c0,0.1,0,0.3,0.1,0.4c0,0.1,0.1,0.1,0.2,0.2c0.1,0,0.2,0.1,0.5,0.1
			l3.3,0.2c0.3,0,0.4,0,0.5,0s0.1-0.1,0.2-0.2c0.1-0.1,0.1-0.2,0.1-0.3v-0.2h0.1l-0.2,2.7h-0.1V50c0-0.2,0-0.3-0.1-0.4
			c0-0.1-0.1-0.1-0.2-0.2c-0.1,0-0.2-0.1-0.5-0.1l-3.3-0.2c-0.3,0-0.4,0-0.5,0s-0.1,0.1-0.2,0.2c-0.1,0.1-0.1,0.2-0.1,0.3V49.8z
			 M77.9,48.9c0,0.2-0.1,0.3-0.2,0.4c-0.1,0.1-0.3,0.1-0.4,0.1c-0.2,0-0.3-0.1-0.4-0.2c-0.1-0.1-0.1-0.2-0.1-0.4s0.1-0.3,0.2-0.4
			c0.1-0.1,0.2-0.1,0.4-0.1c0.2,0,0.3,0.1,0.4,0.2C77.9,48.6,77.9,48.8,77.9,48.9z"/>
	</g>
	<g>
		<path class="st2" d="M17.6,37.9c3,1,6.1,0.3,8.6,3.5c0.3,0.4,1.2,0.2,1.9,0.3c-0.1,0.5-0.1,0.8,0,1.3h-0.5c-0.9-0.9-1.1-1-1.9-1
			c-0.2,0-1.7,0.1-1.9,0.1c-1.3-0.1-3-1.1-4.2-2c-0.8-0.5-1.8-1.2-2.7-1.7C16,37.6,17.5,37.8,17.6,37.9L17.6,37.9z M36.5,45
			l-0.1,1.5c-0.1,1.2-0.7,1.7-0.7,2.3c0,0.2,0.4,0.4,0.5,0.7c0.5,0.7,1.8,2.3,2.4,2.3c0.2,0,2.8-0.3,4.2-0.5c0.3,0,0.6-0.5,0.9-0.7
			c0.2-0.2,0.7-0.4,0.9-0.4s0.3,0.2,0.5,0.2c0.5,0,0.6-0.6,0.6-0.7c0-0.4-0.1-0.3-0.4-0.7c0.3-0.3,0.7-0.6,0.7-0.8s-0.2-0.4-0.4-0.5
			c0-0.3,0.1-0.6-0.1-0.8c-0.3-0.5-0.8-0.9-1.2-1.3c-0.3-0.3-0.2-0.7-0.5-1c-0.3-0.2-0.8-0.2-1-0.4c-0.6-0.5-1.2-1-1.9-1
			c-0.2,0-0.7,0.2-0.9,0.2S39.1,43,38.9,43l-1.4-0.1C36.9,42.9,36.5,44.9,36.5,45L36.5,45z M45,33l-0.3,4.8c0,0.2,0.1,0.4,0.3,0.5
			c0.6,0.4,1.3,0.6,1.9,1.1c0,0,0.1,0.2-0.2,0.2c-0.2,0-0.3-0.2-0.5-0.3c0,0-0.1,0.1-0.2,0.2c0.3,0.3,0.6,0.7,0.8,0.7
			s0.3-0.2,0.5-0.2s0.4,0.2,0.6,0.2c0.5,0,3.3-1.8,3.8-1.8c0.2,0,0.7,0.5,1,0.8c0,0,0.1,0,0.1-0.1c0-0.2-0.5-0.6-0.5-0.8
			c0-0.4,2-1.2,2.1-1.2c2.7-1.3,5.4-2.5,8.2-4.4l0.3,0.1c-1.3,1.3-3.4,2.9-4.9,4.1c-0.1,0.1-0.3,0-0.5,0c-0.2,0.3-0.3,0.7-0.5,0.9
			c-0.7,0.8-2.3,2.2-2.6,2.1c-0.2,0-0.4-0.2-0.6-0.3c-0.1,0-0.2,0.1-0.2,0.2c0,0.2,0.2,0.3,0.1,0.5c0,0.3-0.7,1-1.2,1.3
			c-1,0.7-2.2,1.5-3.1,2.3c-0.3,0.3-0.5,0.6-0.7,0.9c-0.1,0.2-0.3,0.3-0.5,0.2c-0.6,0-0.9-1.5-1.4-1.8l-0.1,0.1
			c0.5,1,0.9,2.1,1.3,3.1c0.4-0.6,0.5-1.6,1.6-2c0.7,0.6,0.3,1.7,1.4,2.4c0.6,0.4,1.5,0.5,2.2,0.7c0.6,0.1,1.2,0.5,1.8,0.6
			c3,0.9,6.6,1.1,9.6,3.1c-0.7,0.2-1.3,0.2-1.8,0.3l-4.6-0.2c-0.7,0-2.2,0.2-2.4,0.2s-1-0.4-1.2-0.4s-1.3,0.3-1.5,0.2l-1.7-0.1
			l-0.3,0.2c0.7,1.3,2.2,2,3.2,2.9c0.5,0.4,0.9,1.1,1.5,1.6c1.6,1.3,3.7,2.3,5.3,4.2c-0.2,0.2-0.3,0.2-0.4,0.1L50,54.8
			c-0.7,0.1-1.2-0.2-1.7,0.4c-0.2,0.3-0.3,0.9-0.6,1.3c-1.5,0.3-2.5-0.7-2.6,1.2c0,0.2,0.2,0.4,0.2,0.7c0.2,3.1,0.2,6.3,0.3,9.9
			h-0.2c-1.9-3.6-2.3-7.4-3.9-11.1c-0.1,0.1-0.2,0.2-0.2,0.2c-1,2.9-1.4,5.8-2.9,8.7c-0.1,0.3-0.1,0.7-0.2,1.1
			c-0.1,0.4-0.2,1.1-0.6,1.7c-0.2-0.3-0.4-0.5-0.4-0.6l0.3-11.9c-0.1-0.5,0.1-1.2-0.6-1.5c-0.4,0.1-0.2,0.6-0.4,0.9
			c-0.3-0.2-0.8-0.2-1.2-0.8c0.1-0.1,1.9-1.6,2.5-1.6c0.2,0,3,0.8,3.2,0.8s0.6-0.1,1-0.2c0.2,0,0.3,0.1,0.5,0.1
			c1.1-0.5,2.7-0.7,3.7-2.2c-0.2-0.2-0.4-0.3-0.6-0.3c-0.2,0-1.6,0.9-2.4,1.2c-1,0.4-2,0.3-3,0.4c-0.1,0.1-0.3,0.2-0.3,0.3
			c-0.2,0-0.4,0.1-0.6,0.1c-0.2,0-0.6-0.2-0.9-0.4c-1.9-0.9-3.7-3.2-3.7-4.8c0-0.1,0.4-0.4,0.5-1c0-0.2-0.4-1.3-0.4-1.5
			s0.5-0.6,0.8-0.9c-0.1-0.1-0.2-0.1-0.3-0.2c-0.1-1.5,3.2-3.8,4.6-3.7c0.2,0,0.6,0.3,0.8,0.4l0.2-0.2c0-0.1-0.1-0.1-0.2-0.2
			c0-0.2,0.1-0.3,0.2-0.4c0,0-0.1-0.1-0.2-0.2c-0.4,0.3-0.9,0.1-1.4,0.3c-1.1,0.4-2.5,1.7-3.5,2.4c-0.2,0.1-0.4,0.2-0.7,0.3
			c0,1.4-0.8,1.7-0.8,2.5c0,0.2,0.3,1,0.3,1.2s-0.2,1.1-0.2,1.3c-0.1,1.1,2.6,4.4,2.6,4.4c0,0.2-0.1,0.3-0.2,0.4c-1.8,1-5.5,3-5.7,3
			c-0.6,0-1.8-1.3-1.8-1.9c0-0.6,0.6-1.1,1-1.3c0.1,0,0.2,0,0.2,0c0.4-0.3,0.4-0.4,0.4-0.5c0-0.2,1.3-1.2,2-1.9
			c-0.1-0.1-0.3-0.3-0.4-0.4c-0.1,0-0.2,0.2-0.3,0.2c-0.3-0.2-0.6-1-0.6-1.2v-0.5c0.4,0.2,0.5,0.7,0.8,1.1c0.1-0.1,0.2-0.1,0.2-0.3
			c0-0.5-0.5-0.9-0.2-1.3c-1.4-0.9-2.8-1-4.2-1.6c-0.2-0.1-0.6-0.6-0.8-0.6c-0.2,0-0.5,0.1-0.7,0.1L19,43.9v-0.4l11.2,0.2
			c0.7,0,1.5-0.1,2.2-0.2c0.1,0,0.2-0.3,0.4-0.3s0.2,0.2,0.4,0.2s0.2-0.2,0.3-0.3c-0.2-0.2-0.3-0.3-0.5-0.3v-0.5
			c0-0.2,0.3-0.4,0.5-0.6l0.7,0.5c0.1-0.1,0.3-0.1,0.3-0.3s0-0.5-0.2-0.7c-0.3-0.5-0.8-1.1-1-1.6c-0.1-0.2,0-0.3,0-0.5
			c-0.1-0.2-0.9-1.6-0.9-2c0-0.2,0.1-0.3,0.3-0.4c-0.3-0.2-0.8-0.7-1.1-0.8c-1.2-2.1-2.5-4.3-3.7-6.4l0.1-0.1c0.1,0.1,0.2,0,0.4,0
			c1.8,1.9,3.7,3.9,5.5,5.8c0.5,0.6,0.8,1.7,1.7,2.4c0.2,0.2,0.5,0.1,0.7,0.3c0.6,0.5,1.2,1.2,1.7,1.7c0.4-0.1,0.2-0.5,0.2-0.7
			c0.3-0.1,0.8,0,1.2-0.5c-0.1-0.1-0.1-0.2-0.3-0.4c0.4,0,0.6-0.1,0.9-0.1c0,0.2-0.1,0.5,0.1,0.8c0.1,0,0.2-0.1,0.3-0.3
			c0.2-0.3,0.2-0.7,0.4-1.1c0.6-1.5,1.6-3.1,1.9-4.6c0-0.3,0.3-0.6,0.5-0.8c0.2-0.4,0.3-0.8,0.4-1.2c0.2-0.6,0.4-1.4,0.7-2.1
			c0.4-1.3,0.9-2.6,1.4-3.9c0.2-0.6,0.4-1.5,1-1.9L45,33L45,33z M36.8,56.7c-1,1.5-2.5,2.7-3.8,4c-0.4,0.4-0.7,1.1-1.2,1.6
			c-1.7,1.7-2.5,3.3-4,5l-0.1-0.1c1.9-3.8,4.1-8.1,7-11.8C35.4,55.7,36.1,56.2,36.8,56.7L36.8,56.7z M29.7,55.9
			c0,0.3-0.4,1.3-0.6,1.4c-2.2,1.1-4.6,2.3-7.1,3.6c0-0.2,0.1-0.4,0.1-0.5c1.3-1.2,2.7-2.3,4-3.6c0.4-0.4,0.7-0.9,1.2-1.3
			c0.4-0.3,1.1-0.8,1.8-0.8C29.4,55.1,29.7,55.7,29.7,55.9L29.7,55.9z M31.1,48.7c0.2,0.6,0.3,1.5,0.3,1.7c0,0.7-2.7,0.7-2.8,0.7
			c-2.8,0.3-5.7,0.7-8.5,1.1V52c2.3-1.1,4.7-1.6,7.2-2.4c0.9-0.3,1.7-0.6,2.5-0.9c0.3-0.1,0.7-0.5,0.9-0.5
			C30.9,48.3,31.1,48.5,31.1,48.7L31.1,48.7z M56.4,44.6c-0.1,0.1-0.2,0.2-0.3,0.3c-1.3,0.4-3,1.4-4.5,1.3c-0.1-0.9-0.6-2.3-0.5-2.5
			c0-0.2,0.3-0.4,0.4-0.5c0.2,0.2,0.3,0.4,0.5,0.4s1.6-0.7,2.3-0.8c1.1-0.2,3.3-0.3,3.5-0.2l1.3,0.1c0.6,0,3-0.3,3.4-0.4v0.2
			C60.6,43,58.5,43.8,56.4,44.6L56.4,44.6z M24.7,36.6l7.9,4c-0.1,0.3-0.4,0.5-0.7,0.7c0.1,0.2,0.3,0.4,0.5,0.6
			c-0.1,0.4-0.3,0.7-0.6,1.1c-0.3-0.1-0.6-0.3-0.8-0.4c-2.2-1.9-4.5-3.9-6.9-6L24.7,36.6L24.7,36.6z M48,39
			c-0.8,0.3-1.8-0.7-2.7-1.1v-0.5c3.1-3.2,6.3-6.5,9.4-9.7c0.3-0.3,0.8-0.7,1.2-0.9l0.1,0.1C52.7,30.9,51.4,35,48,39L48,39z
			 M36.4,24.6L40,37.3L37,38c-0.1-2.1-0.2-4.1-0.3-6c0-0.7-0.5-1.8-0.5-2s0.3-0.8,0.3-1s-0.4-3.2-0.4-3.4l0.1-1.1L36.4,24.6
			L36.4,24.6z M53.8,60.6c0,0.2,0.1,0.7,0.3,0.8c0.3,0,0.5-0.4,0.3-0.8c1.4,0.3,3.5,1.3,4.3,2.9l-0.1,0.1c-1-0.8-2.9-1.7-4.2-1.8
			c-0.2,0-0.8-0.1-1.1,0.1c-1.6,0.8-2.9,2.7-3.2,3.9c0,0.2,0,0.5,0,0.7L50,69c-1-1.5-1.3-2.8-1.2-4c0-0.2,0.1-1.1,0.3-1.7
			c0.2,0,1.5,0.1,1.5-0.5c0-0.2-0.1-0.7-0.1-0.9s0.1-0.4,0.2-0.6c0.2,0.1,0.4,0.3,0.7,0.4l0.1-0.1c-0.1-0.1-0.1-0.2-0.2-0.4
			c0.6-0.3,1.1-0.7,1.7-0.6L53.8,60.6L53.8,60.6z"/>
		<path class="st0" d="M17.6,37.9c3,1,6.1,0.3,8.6,3.5c0.3,0.4,1.2,0.2,1.9,0.3c-0.1,0.5-0.1,0.8,0,1.3h-0.5c-0.9-0.9-1.1-1-1.9-1
			c-0.2,0-1.7,0.1-1.9,0.1c-1.3-0.1-3-1.1-4.2-2c-0.8-0.5-1.8-1.2-2.7-1.7C16,37.6,17.5,37.8,17.6,37.9L17.6,37.9z M53.8,60.6
			c0,0.2,0.1,0.7,0.3,0.8c0.3,0,0.5-0.4,0.3-0.8c1.4,0.3,3.5,1.3,4.3,2.9l-0.1,0.1c-1-0.8-2.9-1.7-4.2-1.8c-0.2,0-0.8-0.1-1.1,0.1
			c-1.6,0.8-2.9,2.7-3.2,3.9c0,0.2,0,0.5,0,0.7L50,69c-1-1.5-1.3-2.8-1.2-4c0-0.2,0.1-1.1,0.3-1.7c0.2,0,1.5,0.1,1.5-0.5
			c0-0.2-0.1-0.7-0.1-0.9s0.1-0.4,0.2-0.6c0.2,0.1,0.4,0.3,0.7,0.4l0.1-0.1c-0.1-0.1-0.1-0.2-0.2-0.4c0.6-0.3,1.1-0.7,1.7-0.6
			L53.8,60.6L53.8,60.6z"/>
	</g>
	<path class="st1" d="M56.5,76c0,0.4-0.4,0.8-0.8,0.8c-0.4,0-0.8-0.4-0.8-0.8s0.4-0.8,0.8-0.8S56.5,75.5,56.5,76z"/>
	<path class="st1" d="M41.2,7.8C19.8,7.8,2.5,25.1,2.5,46.5s17.3,38.7,38.7,38.7S80,67.9,80,46.5S62.6,7.8,41.2,7.8z M41.2,84.2
		c-20.8,0-37.7-16.9-37.7-37.7S20.4,8.8,41.2,8.8S79,25.7,79,46.5S62.1,84.2,41.2,84.2z"/>
</g>
<g>
	<path class="st3" d="M98.6,21.6v21.1h-4.1V21.6H98.6z M94.6,18.3c0-1.1,0.9-2,1.9-2c1.1,0,2,0.9,2,2s-0.9,2-2,2
		C95.5,20.3,94.6,19.4,94.6,18.3z"/>
	<path class="st3" d="M101.8,38.5c0.8,0.5,2.3,0.8,3.5,0.8c1.9,0,2.9-1,2.9-2.4c0-1.5-0.9-2.3-2.7-3.4c-2.9-1.8-4-4-4-5.9
		c0-3.4,2.3-6.2,6.7-6.2c1.4,0,2.7,0.4,3.3,0.8l-0.7,3.5c-0.6-0.4-1.5-0.7-2.7-0.7c-1.8,0-2.6,1.1-2.6,2.2c0,1.3,0.6,1.9,2.9,3.3
		c2.8,1.7,3.8,3.8,3.8,6c0,3.9-2.9,6.4-7,6.4c-1.7,0-3.4-0.4-4-0.8L101.8,38.5z"/>
	<path class="st3" d="M116.9,25.4h-3.7v-3.8h11.6v3.8H121v17.3h-4.1V25.4z"/>
	<path class="st3" d="M129.2,37.9l-0.9,4.8h-4l4.6-21.1h4.9l4.1,21.1h-4l-0.9-4.8H129.2z M132.6,34.7l-0.7-4.4
		c-0.2-1.3-0.5-3.4-0.7-4.8h-0.1c-0.2,1.4-0.5,3.6-0.8,4.8l-0.8,4.4H132.6z"/>
	<path class="st3" d="M140.2,42.7V21.6h3.8l3.3,8.3c0.6,1.6,1.7,4.4,2.3,6.2h0.1c-0.1-2.2-0.4-5.9-0.4-9.8v-4.7h3.6v21.1H149l-3.2-8
		c-0.7-1.8-1.7-4.4-2.1-6.4h-0.1c0.1,2.1,0.3,5.4,0.3,9.6v4.8C143.9,42.7,140.2,42.7,140.2,42.7z"/>
	<path class="st3" d="M156.4,21.9c1.3-0.3,2.9-0.4,4.7-0.4c2,0,3.9,0.3,5.4,1.5c1.1,0.9,1.6,2.3,1.6,3.8c0,1.9-1,3.7-3.1,4.6v0.1
		c2.4,0.7,3.8,2.7,3.8,5c0,1.8-0.6,3.1-1.6,4.1c-1.3,1.4-3.4,2.1-6.9,2.1c-1.6,0-2.9-0.1-3.8-0.2L156.4,21.9L156.4,21.9z
		 M160.5,30.3h0.9c1.5,0,2.6-1.3,2.6-3c0-1.5-0.7-2.7-2.4-2.7c-0.4,0-0.8,0-1.1,0.1V30.3L160.5,30.3z M160.5,39.6
		c0.3,0.1,0.5,0.1,0.9,0.1c1.7,0,3-1,3-3.2c0-2.1-1.4-3.2-3.1-3.2h-0.9v6.3H160.5z"/>
	<path class="st3" d="M175.5,21.6v13.7c0,3.1,0.9,4,2,4c1.2,0,2-0.8,2-4V21.6h4.1v13c0,5.4-2,8.4-6.1,8.4c-4.4,0-6.1-3-6.1-8.3v-13
		L175.5,21.6L175.5,21.6z"/>
	<path class="st3" d="M187.2,21.6h4.1v17.6h5.4v3.5h-9.5V21.6L187.2,21.6z"/>
	<path class="st3" d="M204.1,21.9c1.3-0.3,2.9-0.4,4.7-0.4c2,0,3.9,0.3,5.4,1.5c1.1,0.9,1.6,2.3,1.6,3.8c0,1.9-1,3.7-3.1,4.6v0.1
		c2.4,0.7,3.8,2.7,3.8,5c0,1.8-0.6,3.1-1.6,4.1c-1.3,1.4-3.4,2.1-6.9,2.1c-1.6,0-2.9-0.1-3.8-0.2L204.1,21.9L204.1,21.9z
		 M208.2,30.3h0.9c1.5,0,2.6-1.3,2.6-3c0-1.5-0.7-2.7-2.4-2.7c-0.4,0-0.8,0-1.1,0.1V30.3L208.2,30.3z M208.2,39.6
		c0.3,0.1,0.5,0.1,0.9,0.1c1.7,0,3-1,3-3.2c0-2.1-1.4-3.2-3.1-3.2h-0.9L208.2,39.6L208.2,39.6z"/>
	<path class="st3" d="M228.1,33.4h-4.8v5.7h5.5v3.6h-9.6V21.6h9.2v3.6h-5.1V30h4.8L228.1,33.4L228.1,33.4z"/>
	<path class="st3" d="M234.2,42.7v-8.1l-4.6-13h4.4l1.4,5c0.4,1.3,0.8,2.9,1.1,4.5h0.1c0.3-1.5,0.6-3.1,1-4.6l1.3-4.9h4.3l-4.7,12.9
		v8.2H234.2z"/>
	<path class="st3" d="M244.5,21.6h4.1v9.5h0.1c0.3-0.9,0.7-1.8,1-2.7l2.8-6.8h4.5l-4.7,9.2l4.8,11.9h-4.5l-3.1-8.7l-0.9,1.7v7h-4.1
		V21.6L244.5,21.6z"/>
	<path class="st3" d="M267.8,33.4H263v5.7h5.5v3.6h-9.6V21.6h9.2v3.6H263V30h4.8V33.4z"/>
	<path class="st3" d="M271.2,42.7V21.6h3.8l3.3,8.3c0.6,1.6,1.7,4.4,2.3,6.2h0.1c-0.1-2.2-0.4-5.9-0.4-9.8v-4.7h3.6v21.1H280l-3.2-8
		c-0.7-1.8-1.7-4.4-2.1-6.4h-0.1c0.1,2.1,0.3,5.4,0.3,9.6v4.8C274.9,42.7,271.2,42.7,271.2,42.7z"/>
	<path class="st3" d="M289.6,25.4h-3.7v-3.8h11.6v3.8h-3.8v17.3h-4.1V25.4L289.6,25.4z"/>
	<path class="st3" d="M98.5,55.3V69c0,3.1,0.9,4,2,4c1.2,0,2-0.8,2-4V55.3h4.1v13c0,5.4-2,8.4-6.1,8.4c-4.4,0-6.1-3-6.1-8.3v-13
		L98.5,55.3L98.5,55.3z M95.8,52.1c0-1.1,0.9-2,1.8-2c1,0,1.8,0.9,1.8,2s-0.8,2-1.8,2C96.6,54.1,95.8,53.2,95.8,52.1z M101.5,52.1
		c0-1.1,0.9-2,1.9-2s1.8,0.9,1.8,2s-0.8,2-1.8,2C102.3,54.1,101.5,53.2,101.5,52.1z"/>
	<path class="st3" d="M110.2,76.4V55.3h3.8l3.3,8.3c0.6,1.6,1.7,4.4,2.3,6.2h0.1c-0.1-2.2-0.4-5.9-0.4-9.8v-4.7h3.6v21.1h-3.8
		l-3.2-8c-0.7-1.8-1.7-4.4-2.1-6.4h-0.1c0.1,2.1,0.3,5.4,0.3,9.6v4.8C114,76.4,110.2,76.4,110.2,76.4z"/>
	<path class="st3" d="M130.4,55.3v21.1h-4.1V55.3H130.4z M126.5,52c0-1.1,0.9-2,1.9-2c1.1,0,2,0.9,2,2s-0.9,2-2,2
		C127.3,54.1,126.5,53.1,126.5,52z"/>
	<path class="st3" d="M137.1,76.4l-4.7-21.1h4.5l1.5,9.1c0.4,2.3,0.8,4.9,1.1,7.3h0.1c0.3-2.5,0.6-5,1-7.4l1.4-9h4.5l-4.8,21.1
		H137.1z"/>
	<path class="st3" d="M157.2,67.2h-4.8v5.7h5.5v3.6h-9.6V55.3h9.2v3.6h-5.1v4.9h4.8L157.2,67.2L157.2,67.2z"/>
	<path class="st3" d="M160.6,55.7c1.3-0.3,2.9-0.4,4.5-0.4c2.3,0,4.3,0.3,5.6,1.6c1.3,1.2,1.7,2.6,1.7,4.4c0,2.3-1.1,4.3-3.3,5.3
		v0.1c1.4,0.6,2.2,1.9,2.6,4.2c0.4,2.3,1,4.9,1.3,5.7h-4.3c-0.3-0.6-0.7-2.7-1-5c-0.4-2.6-1-3.4-2.4-3.4h-0.6v8.4h-4.1V55.7
		L160.6,55.7z M164.7,64.9h0.7c1.8,0,2.8-1.4,2.8-3.3c0-1.8-0.7-3.1-2.6-3.1c-0.3,0-0.8,0-1,0.1L164.7,64.9L164.7,64.9z"/>
	<path class="st3" d="M174.9,72.3c0.8,0.5,2.3,0.8,3.5,0.8c1.9,0,2.9-1,2.9-2.4c0-1.5-0.9-2.3-2.7-3.4c-2.9-1.8-4-4-4-5.9
		c0-3.4,2.3-6.2,6.7-6.2c1.4,0,2.7,0.4,3.3,0.8l-0.7,3.5c-0.6-0.4-1.5-0.7-2.7-0.7c-1.8,0-2.6,1.1-2.6,2.2c0,1.3,0.6,1.9,2.9,3.3
		c2.8,1.7,3.8,3.8,3.8,6c0,3.9-2.9,6.4-7,6.4c-1.7,0-3.4-0.4-4-0.8L174.9,72.3z"/>
	<path class="st3" d="M191.8,55.3v21.1h-4.1V55.3H191.8z M187.8,52c0-1.1,0.9-2,1.9-2c1.1,0,2,0.9,2,2s-0.9,2-2,2
		C188.7,54.1,187.8,53.1,187.8,52z"/>
	<path class="st3" d="M197.7,59.1H194v-3.8h11.6v3.8h-3.8v17.3h-4.1V59.1L197.7,59.1z"/>
	<path class="st3" d="M216.7,67.2h-4.8v5.7h5.5v3.6h-9.6V55.3h9.2v3.6h-5.1v4.9h4.8L216.7,67.2L216.7,67.2z"/>
	<path class="st3" d="M219.6,72.3c0.8,0.5,2.3,0.8,3.5,0.8c1.9,0,2.9-1,2.9-2.4c0-1.5-0.9-2.3-2.7-3.4c-2.9-1.8-4-4-4-5.9
		c0-3.4,2.3-6.2,6.7-6.2c1.4,0,2.7,0.4,3.3,0.8l-0.7,3.5c-0.6-0.4-1.5-0.7-2.7-0.7c-1.8,0-2.6,1.1-2.6,2.2c0,1.3,0.6,1.9,2.9,3.3
		c2.8,1.7,3.8,3.8,3.8,6c0,3.9-2.9,6.4-7,6.4c-1.7,0-3.4-0.4-4-0.8L219.6,72.3z"/>
	<path class="st3" d="M236.5,55.3v21.1h-4.1V55.3H236.5z M232.6,52c0-1.1,0.9-2,1.9-2c1.1,0,2,0.9,2,2s-0.9,2-2,2
		C233.4,54.1,232.6,53.1,232.6,52z"/>
</g>
</svg>
