<?xml version="1.0" encoding="utf-8"?>
<!-- Generator: Adobe Illustrator 27.5.0, SVG Export Plug-In . SVG Version: 6.00 Build 0)  -->
<svg version="1.1" id="Layer_1" xmlns="http://www.w3.org/2000/svg" xmlns:xlink="http://www.w3.org/1999/xlink" x="0px" y="0px"
	 viewBox="0 0 1112.9 201.9" style="enable-background:new 0 0 1112.9 201.9;" xml:space="preserve">
<style type="text/css">
	.st0{fill:#E21936;}
	.st1{fill:#FFFFFF;}
	.st2{fill:#231F20;}
	.st3{fill:url(#SVGID_1_);}
	.st4{fill:url(#SVGID_00000151527809462601703380000002646209010315590827_);}
	.st5{fill:url(#SVGID_00000023272058455410337580000017655643898223059091_);}
	.st6{fill:url(#SVGID_00000085961027548715933030000017025209790256683937_);}
	.st7{fill:url(#SVGID_00000094583167417993218230000006911423616212529553_);}
	.st8{fill:url(#SVGID_00000018927330019037962470000009998197343390603157_);}
	.st9{fill:url(#SVGID_00000034772555032278817600000002312051037566414010_);}
	.st10{fill:url(#SVGID_00000163046094354090935900000006080546037939471499_);}
	.st11{fill:url(#SVGID_00000035502605063530628860000012258198005634552706_);}
	.st12{fill:url(#SVGID_00000150093705116918022620000016482177367107496603_);}
	.st13{fill:url(#SVGID_00000070831235192246566150000010474240768636950961_);}
	.st14{fill:url(#SVGID_00000136379502753075988110000009363993019560549302_);}
	.st15{fill:url(#SVGID_00000149379126233473781650000011105404445261116049_);}
	.st16{fill:url(#SVGID_00000052094880412867291830000002196366999058720935_);}
	.st17{fill:url(#SVGID_00000094576416908690726640000014230416736030769079_);}
	.st18{fill:url(#SVGID_00000026881156836727589330000004323075561041108644_);}
	.st19{fill:url(#SVGID_00000117677618222862616740000003493936694670216343_);}
	.st20{fill:url(#SVGID_00000090978905795391331470000009027100118453488827_);}
	.st21{fill:url(#SVGID_00000137833675742115860770000006862004023365462428_);}
	.st22{fill:url(#SVGID_00000022528320568524561730000012032192118394494359_);}
	.st23{fill:url(#SVGID_00000174583565501618241230000012744771187258588093_);}
	.st24{fill:url(#SVGID_00000119837566236021231630000005155842400503630783_);}
	.st25{fill:url(#SVGID_00000029732900458472649750000003210245649871275915_);}
	.st26{fill:url(#SVGID_00000121270331864460107820000006955836491821663387_);}
	.st27{fill:url(#SVGID_00000049939075455257386310000010841916534680832161_);}
	.st28{fill:url(#SVGID_00000124875495195273027880000002276662535425026732_);}
	.st29{fill:url(#SVGID_00000158716295859756619080000000682230209719270295_);}
	.st30{fill:url(#SVGID_00000178897204371042108750000001757987108185110462_);}
	.st31{fill:url(#SVGID_00000157290228486455447690000003328653239655942818_);}
	.st32{fill:url(#SVGID_00000018937939499538948810000000564736920998851229_);}
	.st33{fill:url(#SVGID_00000090257888570052334030000002121759053694251669_);}
	.st34{fill:url(#SVGID_00000145054955988963845020000004854066610017969813_);}
	.st35{fill:url(#SVGID_00000088116787490912673250000017597198391789308855_);}
	.st36{fill:url(#SVGID_00000078742694685150076860000015333855462957395886_);}
	.st37{fill:url(#SVGID_00000178180402485280234370000004952207966869658770_);}
	.st38{fill:url(#SVGID_00000146491471550146402240000015604499150863867791_);}
	.st39{fill:url(#SVGID_00000091008565017551319610000011230917109796036261_);}
	.st40{fill:url(#SVGID_00000132800816522676001270000010729810994035806361_);}
	.st41{fill:url(#SVGID_00000031921912920487591290000013555619638102897086_);}
	.st42{fill:url(#SVGID_00000100346641027814264860000010184142514920148671_);}
	.st43{fill:url(#SVGID_00000123438216945433006270000017940539296289753774_);}
	.st44{fill:url(#SVGID_00000089560128893906966010000006847967329206369454_);}
	.st45{fill:url(#SVGID_00000146465157396310055100000008872133802806136477_);}
	.st46{fill:url(#SVGID_00000045603077078724049120000005270256835599584911_);}
	.st47{fill:url(#SVGID_00000136381069360523051070000012519470541149629086_);}
	.st48{fill:url(#SVGID_00000037665418553717450370000011508508338529409449_);}
	.st49{fill:url(#SVGID_00000179634921226774870770000011637022490813521837_);}
	.st50{fill:url(#SVGID_00000058588827407275635880000010962542795003735971_);}
	.st51{fill:url(#SVGID_00000058588775568702753800000003056663859576631966_);}
	.st52{fill:url(#SVGID_00000170272325853757042810000013977995973379972520_);}
	.st53{fill:url(#SVGID_00000088129106910985635610000009501588990572027275_);}
	.st54{fill:url(#SVGID_00000103237503804557182060000003177760275842515849_);}
	.st55{fill:url(#SVGID_00000179634953852673642030000010043463456554166179_);}
	.st56{fill:url(#SVGID_00000126305953224956017200000014540860043884075674_);}
	.st57{fill:url(#SVGID_00000101815522662363063090000012265216799533784738_);}
	
		.st58{fill:none;stroke:url(#SVGID_00000172405497374171827280000000396837260661249183_);stroke-width:1;stroke-miterlimit:9.9999;}
	.st59{fill:url(#SVGID_00000088094046268694292480000010847177189944044441_);}
	.st60{fill-rule:evenodd;clip-rule:evenodd;fill:url(#SVGID_00000089567065181953604760000011334541344566451843_);}
	.st61{fill-rule:evenodd;clip-rule:evenodd;fill:url(#SVGID_00000182506679695387302860000008659514547249727110_);}
	.st62{fill-rule:evenodd;clip-rule:evenodd;fill:url(#SVGID_00000022534195451460575580000007916245550314383033_);}
	.st63{fill-rule:evenodd;clip-rule:evenodd;fill:url(#SVGID_00000060028423590965566320000007662858373367245240_);}
	.st64{fill-rule:evenodd;clip-rule:evenodd;fill:url(#SVGID_00000072988256420927126550000007707173808093712004_);}
	.st65{fill:url(#SVGID_00000114055405195417429770000001460868931135130528_);}
	.st66{fill:#285B96;}
	.st67{fill:url(#SVGID_00000169519353756993783440000006857840323033238422_);}
	.st68{fill:url(#SVGID_00000158009334835483443720000008049861217713125517_);}
	.st69{fill:url(#SVGID_00000009558832182480356400000002663072852887594673_);}
</style>
<g>
	<g>
		<path class="st0" d="M133.6,101.4c0,31.3-5,61.5-14,89.8c0,0.1-0.2,0.6-0.4,0.8c-0.2,0.2-0.6,0.4-0.7,0.5
			c-16,6.1-33.5,9.4-51.7,9.4s-35.9-3.4-52.1-9.6c-0.1-0.1-0.2-0.2-0.3-0.2c-0.2-0.2-0.3-0.5-0.4-0.7c-9-28.4-14-58.7-14-90l0,0
			c0-31.4,4.9-61.6,14.1-90c0.1-0.2,0.2-0.6,0.4-0.7c0.1-0.1,0.2-0.2,0.3-0.2c16.2-6.2,33.7-9.6,52-9.6s35.6,3.3,51.7,9.4
			c0.1,0,0.5,0.2,0.7,0.5c0.2,0.2,0.4,0.7,0.4,0.8C128.7,39.9,133.6,70.1,133.6,101.4L133.6,101.4L133.6,101.4z"/>
		<path class="st1" d="M66.8,7.8c16,0,31.8,2.8,47,8.3c8.6,27.6,13,56.3,13,85.3s-4.4,57.7-13,85.3c-15.2,5.4-31,8.3-47,8.3
			s-31.8-2.8-47-8.3c-8.6-27.6-13-56.3-13-85.3s4.4-57.6,13-85.3C35,10.6,50.8,7.8,66.8,7.8z M22.1,18.3c-8.3,27-12.4,54.9-12.4,83
			s4.2,56.2,12.4,83c14.5,5,29.6,7.7,44.7,7.7s30.2-2.6,44.8-7.6c8.3-26.9,12.4-54.9,12.4-83s-4.2-56.2-12.4-83
			c-14.5-5-29.5-7.6-44.8-7.6C51.6,10.6,36.6,13.3,22.1,18.3z"/>
		<path class="st1" d="M95.2,115.8c-6-7-14.9-11.5-24.6-11.5c-7.2,0-13.8,2.4-19,6.4C51.3,93.6,52.2,76,55,59.4
			c3.1-17.9,5-21.4,13-29.6c4-4,7.6-7.9,8.8-9c0.4-0.3,0-0.7-0.4-0.3c0.2-0.2-4.6,3.4-10.1,6.8c-5.6,3.5-12,6.8-13.9,7.7
			C43.6,39.2,40,40.8,37,41.9c-1.9,0.7-4.2,1.8-4.8,2.4s-0.2,0.5,0.6,0.4C37,44.1,40.3,43,43.6,43c2.4,0,4.4,0.2,4.4,4.9
			c0,4.2-3.8,26.2-3.8,52c0,18.6,5.8,52.8,12.9,76.7v0.1c0.2,0.9,1,2,1.6,1.8c0.5-0.2,0.7-1.2,0.4-2.6c-3.6-16-6.5-36.6-7.4-58.4
			c5-3.9,11.2-6.3,18.1-6.3s13.3,2.4,18.8,6.1c0.5,0.4,0.5,0.7,0.4,1.3c-0.1,0.8-10.1,58-10.1,58c-0.2,0.7,0,1.9,0.5,2
			s1.1-0.9,1.3-1.6c0.1-0.5,14.7-57.1,14.9-58.3C96,117.3,95.8,116.6,95.2,115.8L95.2,115.8z"/>
	</g>
	<g>
		<path class="st2" d="M209.8,84.5V58h-20.9v26.4h-19v-67h19v24.5h20.9V17.4h19v67.1H209.8z"/>
		<path class="st2" d="M285.9,84.5l-3.6-11.8h-20.1l-3.6,11.8h-20L263,17.4h18.8l24.4,67.1H285.9z M276.5,53.5
			c-2.4-8.6-3.5-12.3-4.3-16.8c-0.9,4.5-1.9,8.3-4.3,16.8l-1.3,4.4h11.1L276.5,53.5L276.5,53.5z"/>
		<path class="st2" d="M340.7,85.5c-20,0-30.6-14.8-30.6-34.6c0-21.5,12.7-34.6,30.7-34.6c16.5,0,23,7.1,27.6,19.7l-16.9,6.6
			c-2.4-6.2-4.7-10.1-10.8-10.1c-7.8,0-11.1,7.8-11.1,18.4s3.2,18.4,11.3,18.4c5.8,0,8.3-3.2,12-9.5l15.7,8.3
			C364.1,77,356.5,85.5,340.7,85.5L340.7,85.5z"/>
		<path class="st2" d="M379.3,84.5V17.4h51.3V33h-33v8.9h19.8v15.4h-19.8v11.5h33.7v15.7H379.3L379.3,84.5z"/>
		<path class="st2" d="M477.9,33.6v50.9h-18.6V33.6h-18.8V17.4h56.2v16.2H477.9L477.9,33.6z"/>
		<path class="st2" d="M543,33.6v50.9h-18.6V33.6h-18.8V17.4h56.2v16.2H543L543,33.6z"/>
		<path class="st2" d="M572.2,84.5V17.4h51.3V33h-33v8.9h19.8v15.4h-19.8v11.5h33.7v15.7H572.2L572.2,84.5z"/>
		<path class="st2" d="M664.7,62.7h-9.3v21.8h-18.3V17.4H666c15.7,0,26.2,6.1,26.2,22.2S680.9,62.7,664.7,62.7L664.7,62.7z
			 M665.5,32.5h-10.1v15.1h9.8c6.1,0,8.4-2.6,8.4-7.7C673.6,35.5,671.4,32.5,665.5,32.5L665.5,32.5z"/>
		<path class="st2" d="M702.1,84.5V17.4h51.3V33h-33v8.9h19.8v15.4h-19.8v11.5h33.7v15.7H702.1L702.1,84.5z"/>
		<path class="st2" d="M198.7,188.7c-16.9,0-29.2-8.4-29.2-29.7v-38.4h19V159c0,8.3,3.2,13.3,10.5,13.3s10.4-5.1,10.4-13.3v-38.4h19
			V159C228.4,180.3,215.6,188.7,198.7,188.7L198.7,188.7z M187.6,115.8c-4.5,0-8.5-3.8-8.5-8.3c0-4.7,4-8.4,8.5-8.4s8.5,3.8,8.5,8.4
			S192,115.8,187.6,115.8z M210.4,115.8c-4.6,0-8.6-3.8-8.6-8.3c0-4.7,4-8.4,8.6-8.4s8.4,3.8,8.4,8.4
			C218.8,112,214.8,115.8,210.4,115.8z"/>
		<path class="st2" d="M286.6,187.7l-16-22.2c-3-4.1-8.7-12.7-10.5-15.7c0.5,3,0.5,11.9,0.5,17.4v20.5h-17.8v-67.1h16.4l14.8,19.8
			c3.1,4.1,9,13.1,10.5,15.8c-0.5-3-0.5-11.9-0.5-17.4v-18.3h17.8v67.1L286.6,187.7L286.6,187.7z"/>
		<path class="st2" d="M317.1,187.7v-67.1h19v67.1H317.1z M326.6,113.9c-4.7,0-9-4.1-9-8.7c0-4.9,4.3-8.9,9-8.9s9,3.9,9,8.9
			C335.6,109.7,331.4,113.9,326.6,113.9z"/>
		<path class="st2" d="M387.8,187.7H369l-23.1-67.1h20.9l4.9,18c2.3,8.3,5.6,21.9,6.8,28.4c1.3-6.4,4.5-20,6.8-28.4l4.9-18h20.7
			L387.8,187.7L387.8,187.7z"/>
		<path class="st2" d="M420.6,187.7v-67.1H472v15.6h-33v8.8h19.8v15.4H439V172h33.7v15.6L420.6,187.7L420.6,187.7L420.6,187.7z"/>
		<path class="st2" d="M522.3,187.7l-10.9-22.6h-7.5v22.6h-18.3v-67.1h30c15.7,0,26.2,6,26.2,21.9c0,10.1-4.7,16.3-12.1,19.7
			l13.5,25.6L522.3,187.7L522.3,187.7L522.3,187.7z M515.2,135.7H504v14.7h10.9c6.1,0,8.4-2.7,8.4-7.5
			C523.3,138.7,521,135.7,515.2,135.7L515.2,135.7z"/>
		<path class="st2" d="M579.3,188.7c-10.8,0-21.3-3.5-28.3-8.2l9-14.6c4.9,3.4,13.5,6.7,19.7,6.7c6.6,0,8.7-1.2,8.7-4.3
			c0-2.5-2.4-4-11.4-6.1c-16.2-3.8-24-8.2-24-21.6c0-12.7,10.2-21.2,26.4-21.2c11.4,0,19.7,2.8,26.7,7.8l-9,14.6
			c-6-4-11.9-6.3-18.7-6.3c-5.6,0-6.9,1.7-6.9,4.1c0,2.5,2.4,3.6,11,5.7c16.9,4,24.4,9.2,24.4,21.8
			C606.9,182.4,595.4,188.7,579.3,188.7L579.3,188.7z"/>
		<path class="st2" d="M619.7,187.7v-67.1h19v67.1H619.7z M629.2,113.9c-4.7,0-9-4.1-9-8.7c0-4.9,4.3-8.9,9-8.9s9,3.9,9,8.9
			C638.2,109.7,634,113.9,629.2,113.9z"/>
		<path class="st2" d="M686.4,136.8v50.9h-18.6v-50.9H649v-16.2h56.2v16.2L686.4,136.8L686.4,136.8z"/>
		<path class="st2" d="M715.6,187.7v-67.1H767v15.6h-33v8.8h19.8v15.4H734V172h33.7v15.6L715.6,187.7L715.6,187.7L715.6,187.7z"/>
		<path class="st2" d="M805.5,188.7c-10.8,0-21.3-3.5-28.3-8.2l9-14.6c4.9,3.4,13.4,6.7,19.7,6.7c6.6,0,8.7-1.2,8.7-4.3
			c0-2.5-2.4-4-11.4-6.1c-16.2-3.8-24-8.2-24-21.6c0-12.7,10.2-21.2,26.4-21.2c11.4,0,19.7,2.8,26.7,7.8l-9,14.6
			c-6-4-11.9-6.3-18.7-6.3c-5.6,0-6.9,1.7-6.9,4.1c0,2.5,2.4,3.6,11,5.7c16.9,4,24.4,9.2,24.4,21.8
			C833.3,182.4,821.6,188.7,805.5,188.7L805.5,188.7z"/>
		<path class="st2" d="M846,187.7v-67.1h18.9v67.1H846z M855.4,113.9c-4.7,0-9-4.1-9-8.7c0-4.9,4.3-8.9,9-8.9s9,3.9,9,8.9
			C864.5,109.7,860.2,113.9,855.4,113.9z"/>
	</g>
</g>
<g>
	
		<linearGradient id="SVGID_1_" gradientUnits="userSpaceOnUse" x1="911.3036" y1="-1336.7993" x2="1112.9418" y2="-1336.7993" gradientTransform="matrix(1 0 0 -1 0 -1236)">
		<stop  offset="0" style="stop-color:#E2C675"/>
		<stop  offset="1" style="stop-color:#CDA349"/>
	</linearGradient>
	<path class="st3" d="M1049.9,7.4c-51.6-20.9-110.4,4-131.2,55.6c-20.9,51.6,4,110.4,55.7,131.2c51.6,20.9,110.4-4,131.2-55.7
		C1126.4,87,1101.5,28.2,1049.9,7.4L1049.9,7.4z M1104.1,138c-20.5,50.7-78.5,75.3-129.2,54.8s-75.3-78.5-54.8-129.2
		s78.5-75.3,129.2-54.8C1100,29.4,1124.6,87.3,1104.1,138z"/>
	<g>
		
			<linearGradient id="SVGID_00000021841492633992918580000000186879851613597079_" gradientUnits="userSpaceOnUse" x1="1000.1" y1="-1264.05" x2="1008.39" y2="-1264.05" gradientTransform="matrix(1 0 0 -1 0 -1236)">
			<stop  offset="0" style="stop-color:#E2C675"/>
			<stop  offset="1" style="stop-color:#CDA349"/>
		</linearGradient>
		<path style="fill:url(#SVGID_00000021841492633992918580000000186879851613597079_);" d="M1008.4,26.8L1005,32l-4.9-7.9h5.4
			c0.8,0,1.5,0.4,1.9,1L1008.4,26.8L1008.4,26.8z"/>
		
			<linearGradient id="SVGID_00000111178813492017020340000016524774212040104365_" gradientUnits="userSpaceOnUse" x1="1006.2521" y1="-1260.7" x2="1022.5021" y2="-1260.7" gradientTransform="matrix(1 0 0 -1 0 -1236)">
			<stop  offset="0" style="stop-color:#E2C675"/>
			<stop  offset="1" style="stop-color:#CDA349"/>
		</linearGradient>
		<path style="fill:url(#SVGID_00000111178813492017020340000016524774212040104365_);" d="M1009.9,32.1h-3.6l8.5-13.1
			c0.7-1,1.9-1.7,3.1-1.7h4.6l-7.9,12.3C1013.5,31.1,1011.8,32.1,1009.9,32.1L1009.9,32.1z"/>
		
			<linearGradient id="SVGID_00000180332094030268195680000011488975461888871846_" gradientUnits="userSpaceOnUse" x1="1013.0421" y1="-1258.25" x2="1033.6421" y2="-1258.25" gradientTransform="matrix(1 0 0 -1 0 -1236)">
			<stop  offset="0" style="stop-color:#E2C675"/>
			<stop  offset="1" style="stop-color:#CDA349"/>
		</linearGradient>
		<path style="fill:url(#SVGID_00000180332094030268195680000011488975461888871846_);" d="M1033.7,12.5l-11.2,17.8
			c-0.7,1.1-1.9,1.7-3.2,1.7h-6.2c0.6,0,1.1-0.3,1.5-0.6l0,0c0.5-0.3,0.9-0.7,1.2-1.1l0,0l0.4-0.6l0,0l9.8-15.5
			c0.7-1.1,1.9-1.7,3.2-1.7L1033.7,12.5L1033.7,12.5z"/>
	</g>
	<g>
		
			<linearGradient id="SVGID_00000048475455516209483480000002734559789309696645_" gradientUnits="userSpaceOnUse" x1="938.0221" y1="-1372.55" x2="946.8321" y2="-1372.55" gradientTransform="matrix(1 0 0 -1 0 -1236)">
			<stop  offset="0" style="stop-color:#E2C675"/>
			<stop  offset="1" style="stop-color:#CDA349"/>
		</linearGradient>
		<path style="fill:url(#SVGID_00000048475455516209483480000002734559789309696645_);" d="M946.3,138.8l-1.2-2.4l-6.7,3.5l-0.3-0.6
			l6.7-3.5l-1.2-2.3l0.6-0.3l2.8,5.3L946.3,138.8z"/>
		
			<linearGradient id="SVGID_00000165210858842328039010000013789772607985567905_" gradientUnits="userSpaceOnUse" x1="939.7521" y1="-1380.45" x2="948.6321" y2="-1380.45" gradientTransform="matrix(1 0 0 -1 0 -1236)">
			<stop  offset="0" style="stop-color:#E2C675"/>
			<stop  offset="1" style="stop-color:#CDA349"/>
		</linearGradient>
		<path style="fill:url(#SVGID_00000165210858842328039010000013789772607985567905_);" d="M942.9,147.6l1.6-2.1l-1.8-2.9l-2.5,0.6
			l-0.4-0.6l8.5-1.9l0.4,0.6l-5.3,6.9L942.9,147.6L942.9,147.6z M944.9,145l2.8-3.5l-4.4,1L944.9,145L944.9,145z"/>
		
			<linearGradient id="SVGID_00000124842841780986235160000004792477923087357110_" gradientUnits="userSpaceOnUse" x1="944.5421" y1="-1386.1" x2="955.1021" y2="-1386.1" gradientTransform="matrix(1 0 0 -1 0 -1236)">
			<stop  offset="0" style="stop-color:#E2C675"/>
			<stop  offset="1" style="stop-color:#CDA349"/>
		</linearGradient>
		<path style="fill:url(#SVGID_00000124842841780986235160000004792477923087357110_);" d="M948.9,150.6l1.5-4.3l-5.3,4.2l-0.4-0.5
			l6.4-5.1l0.4,0.5l-1.6,4.8l5-0.5l0.4,0.5l-6.4,5.1l-0.4-0.6l5.4-4.3l-4.6,0.4L948.9,150.6L948.9,150.6z"/>
		
			<linearGradient id="SVGID_00000124871153008748531400000007084937846916018572_" gradientUnits="userSpaceOnUse" x1="951.9821" y1="-1395.1" x2="960.2921" y2="-1395.1" gradientTransform="matrix(1 0 0 -1 0 -1236)">
			<stop  offset="0" style="stop-color:#E2C675"/>
			<stop  offset="1" style="stop-color:#CDA349"/>
		</linearGradient>
		<path style="fill:url(#SVGID_00000124871153008748531400000007084937846916018572_);" d="M956.2,162.9l1.1-2.4l-2.5-2.4l-2.3,1.2
			l-0.5-0.5l7.8-3.9l0.5,0.5l-3.5,7.9L956.2,162.9L956.2,162.9z M957.6,159.9l1.9-4.1l-4,2.1L957.6,159.9L957.6,159.9z"/>
		
			<linearGradient id="SVGID_00000163050066086012414630000007193252523774075060_" gradientUnits="userSpaceOnUse" x1="958.3721" y1="-1399.35" x2="968.1521" y2="-1399.35" gradientTransform="matrix(1 0 0 -1 0 -1236)">
			<stop  offset="0" style="stop-color:#E2C675"/>
			<stop  offset="1" style="stop-color:#CDA349"/>
		</linearGradient>
		<path style="fill:url(#SVGID_00000163050066086012414630000007193252523774075060_);" d="M960.5,163.2l-1.5,1.9l-0.6-0.5l5.1-6.4
			l0.6,0.5l-3,3.8l6.4-1.1l0.7,0.5l-4.7,0.8l-0.3,5.8l-0.7-0.6l0.3-5.1L960.5,163.2L960.5,163.2z"/>
		
			<linearGradient id="SVGID_00000117656092964603242140000005060536488733354394_" gradientUnits="userSpaceOnUse" x1="964.9" y1="-1403.7" x2="973.3906" y2="-1403.7" gradientTransform="matrix(1 0 0 -1 0 -1236)">
			<stop  offset="0" style="stop-color:#E2C675"/>
			<stop  offset="1" style="stop-color:#CDA349"/>
		</linearGradient>
		<path style="fill:url(#SVGID_00000117656092964603242140000005060536488733354394_);" d="M969.1,168.5l-1.9-1.2l-1.7,2.7l-0.6-0.4
			l4.4-6.9l2.5,1.6c0.6,0.4,1,0.8,1.3,1.1s0.4,0.8,0.4,1.2s-0.2,0.9-0.5,1.3c-0.2,0.3-0.5,0.6-0.7,0.8s-0.6,0.3-0.9,0.4
			c-0.3,0-0.7,0-1.1-0.1l-0.5,3.7l-0.7-0.4l0.5-3.6L969.1,168.5L969.1,168.5z M971.4,164.9l-1.9-1.2l-2,3.1l1.9,1.2
			c1.2,0.8,2.2,0.7,2.9-0.4C973,166.6,972.7,165.6,971.4,164.9z"/>
		
			<linearGradient id="SVGID_00000131331600583356038540000010824654641496653992_" gradientUnits="userSpaceOnUse" x1="972.0221" y1="-1407.65" x2="980.2321" y2="-1407.65" gradientTransform="matrix(1 0 0 -1 0 -1236)">
			<stop  offset="0" style="stop-color:#E2C675"/>
			<stop  offset="1" style="stop-color:#CDA349"/>
		</linearGradient>
		<path style="fill:url(#SVGID_00000131331600583356038540000010824654641496653992_);" d="M972,174l3.7-7.3l4.5,2.3l-0.3,0.6
			l-3.8-1.9l-1.4,2.7l3.7,1.9l-0.3,0.5l-3.7-1.9l-1.5,3l4,2.1l-0.3,0.6L972,174L972,174z"/>
		
			<linearGradient id="SVGID_00000148637304598056008830000014808469475895456407_" gradientUnits="userSpaceOnUse" x1="978.9821" y1="-1410.2999" x2="986.7564" y2="-1410.2999" gradientTransform="matrix(1 0 0 -1 0 -1236)">
			<stop  offset="0" style="stop-color:#E2C675"/>
			<stop  offset="1" style="stop-color:#CDA349"/>
		</linearGradient>
		<path style="fill:url(#SVGID_00000148637304598056008830000014808469475895456407_);" d="M979,177.4l3-7.6l2.8,1.1
			c0.5,0.2,0.9,0.4,1.2,0.7s0.5,0.6,0.6,0.9c0.1,0.3,0.2,0.7,0.1,1c0,0.4-0.1,0.7-0.2,1l-0.9,2.4c-0.1,0.3-0.3,0.6-0.5,0.9
			c-0.2,0.3-0.5,0.5-0.8,0.7s-0.7,0.3-1.1,0.3s-0.9-0.1-1.4-0.3L979,177.4L979,177.4z M979.9,177.1l2.2,0.8c0.5,0.2,0.9,0.2,1.2,0.2
			s0.7-0.2,1-0.4s0.5-0.6,0.7-1l0.9-2.3c0.2-0.4,0.2-0.8,0.2-1.2s-0.2-0.7-0.4-1s-0.6-0.5-1-0.7l-2.2-0.8L979.9,177.1L979.9,177.1z"
			/>
		
			<linearGradient id="SVGID_00000028323593093735028960000003251477541527357869_" gradientUnits="userSpaceOnUse" x1="987.0221" y1="-1411.5" x2="990.7621" y2="-1411.5" gradientTransform="matrix(1 0 0 -1 0 -1236)">
			<stop  offset="0" style="stop-color:#E2C675"/>
			<stop  offset="1" style="stop-color:#CDA349"/>
		</linearGradient>
		<path style="fill:url(#SVGID_00000028323593093735028960000003251477541527357869_);" d="M990.1,172.7l-2.4,7.8l-0.7-0.2l2.4-7.8
			L990.1,172.7z M990.5,171.5l-0.7-0.2l0.2-0.8l0.7,0.2L990.5,171.5z"/>
		
			<linearGradient id="SVGID_00000049180664698075559510000017014068052071825567_" gradientUnits="userSpaceOnUse" x1="991.2721" y1="-1413.5499" x2="997.2721" y2="-1413.5499" gradientTransform="matrix(1 0 0 -1 0 -1236)">
			<stop  offset="0" style="stop-color:#E2C675"/>
			<stop  offset="1" style="stop-color:#CDA349"/>
		</linearGradient>
		<path style="fill:url(#SVGID_00000049180664698075559510000017014068052071825567_);" d="M997.1,175.2l-2.6-0.6l-1.7,7.3l-0.7-0.2
			l1.7-7.3l-2.6-0.6l0.2-0.6l5.8,1.4L997.1,175.2L997.1,175.2z"/>
		
			<linearGradient id="SVGID_00000067230535351184209590000003214562086999346351_" gradientUnits="userSpaceOnUse" x1="995.7321" y1="-1415.2999" x2="1002.2721" y2="-1415.2999" gradientTransform="matrix(1 0 0 -1 0 -1236)">
			<stop  offset="0" style="stop-color:#E2C675"/>
			<stop  offset="1" style="stop-color:#CDA349"/>
		</linearGradient>
		<path style="fill:url(#SVGID_00000067230535351184209590000003214562086999346351_);" d="M1001.5,183.5l-0.5-2.6l-3.4-0.5
			l-1.2,2.3l-0.7-0.1l4.2-7.6l0.7,0.1l1.7,8.5L1001.5,183.5L1001.5,183.5z M1000.9,180.3l-0.8-4.4l-2.1,4L1000.9,180.3L1000.9,180.3
			z"/>
		
			<linearGradient id="SVGID_00000173149130327028647240000003851389101409659289_" gradientUnits="userSpaceOnUse" x1="1003.9021" y1="-1415.8127" x2="1009.8566" y2="-1415.8127" gradientTransform="matrix(1 0 0 -1 0 -1236)">
			<stop  offset="0" style="stop-color:#E2C675"/>
			<stop  offset="1" style="stop-color:#CDA349"/>
		</linearGradient>
		<path style="fill:url(#SVGID_00000173149130327028647240000003851389101409659289_);" d="M1009.8,178.1h-0.7V178
			c0-0.6-0.1-1-0.5-1.2c-0.3-0.3-0.9-0.4-1.6-0.5c-0.7,0-1.2,0.1-1.6,0.3c-0.3,0.2-0.5,0.6-0.6,1.1c0,0.4,0.1,0.6,0.3,0.9
			c0.2,0.2,0.5,0.4,1,0.5l1.8,0.5c0.4,0.1,0.7,0.3,1,0.5s0.5,0.4,0.6,0.7s0.2,0.6,0.2,1c0,0.8-0.3,1.4-0.8,1.8
			c-0.5,0.4-1.2,0.6-2.1,0.5c-2-0.1-3-0.9-3-2.2v-0.1h0.7v0.1c0,0.5,0.1,0.9,0.5,1.1s1,0.4,1.7,0.4s1.2-0.1,1.6-0.4
			c0.4-0.3,0.6-0.7,0.6-1.3c0-0.8-0.4-1.2-1.2-1.5l-1.8-0.5c-0.6-0.2-1-0.4-1.3-0.8c-0.3-0.3-0.4-0.8-0.4-1.3c0-0.3,0.1-0.6,0.2-0.9
			c0.1-0.3,0.3-0.5,0.5-0.7s0.5-0.3,0.9-0.4c0.4-0.1,0.8-0.1,1.2-0.1s0.8,0.1,1.1,0.2s0.7,0.2,0.9,0.4s0.4,0.4,0.6,0.7
			c0.1,0.3,0.2,0.6,0.2,1L1009.8,178.1L1009.8,178.1z"/>
		
			<linearGradient id="SVGID_00000171689445066919167390000014502067679711162251_" gradientUnits="userSpaceOnUse" x1="1010.7921" y1="-1415.85" x2="1017.1721" y2="-1415.85" gradientTransform="matrix(1 0 0 -1 0 -1236)">
			<stop  offset="0" style="stop-color:#E2C675"/>
			<stop  offset="1" style="stop-color:#CDA349"/>
		</linearGradient>
		<path style="fill:url(#SVGID_00000171689445066919167390000014502067679711162251_);" d="M1014.6,184h-0.7l-0.1-3.1l-3-5h0.8
			l2.5,4.3l2.3-4.5h0.8l-2.7,5.1L1014.6,184L1014.6,184z"/>
		
			<linearGradient id="SVGID_00000055696717154735580400000006341009278001759653_" gradientUnits="userSpaceOnUse" x1="1018.3" y1="-1415.4011" x2="1024.5845" y2="-1415.4011" gradientTransform="matrix(1 0 0 -1 0 -1236)">
			<stop  offset="0" style="stop-color:#E2C675"/>
			<stop  offset="1" style="stop-color:#CDA349"/>
		</linearGradient>
		<path style="fill:url(#SVGID_00000055696717154735580400000006341009278001759653_);" d="M1021.9,183.6c-0.5,0.1-1,0-1.4-0.1
			s-0.7-0.3-1-0.5s-0.5-0.5-0.6-0.8s-0.2-0.7-0.3-1l-0.3-2.8c0-0.4,0-0.7,0-1s0.2-0.7,0.4-1s0.5-0.6,0.8-0.8
			c0.4-0.2,0.8-0.3,1.3-0.4c0.7-0.1,1.2,0,1.7,0.2s0.8,0.5,1.1,0.9s0.5,0.9,0.5,1.4l0.3,2.8c0.1,0.6,0,1.1-0.2,1.5s-0.5,0.8-0.9,1.1
			C1023.1,183.3,1022.6,183.5,1021.9,183.6L1021.9,183.6z M1021.9,182.9c0.3,0,0.6-0.1,0.9-0.2c0.3-0.1,0.5-0.3,0.7-0.6
			c0.2-0.2,0.3-0.5,0.4-0.8s0.1-0.6,0-0.9l-0.3-2.7c0-0.3-0.1-0.5-0.2-0.8c-0.1-0.2-0.3-0.5-0.5-0.7s-0.5-0.3-0.8-0.4
			s-0.7-0.1-1.1-0.1c-0.5,0.1-0.9,0.2-1.2,0.4s-0.5,0.5-0.6,0.9s-0.2,0.8-0.1,1.2l0.3,2.7c0.1,0.4,0.2,0.8,0.4,1.1s0.5,0.5,0.8,0.7
			C1020.9,182.9,1021.4,183,1021.9,182.9L1021.9,182.9z"/>
		
			<linearGradient id="SVGID_00000069357408052389193730000014514118222910828939_" gradientUnits="userSpaceOnUse" x1="1025.7621" y1="-1413.95" x2="1033.3322" y2="-1413.95" gradientTransform="matrix(1 0 0 -1 0 -1236)">
			<stop  offset="0" style="stop-color:#E2C675"/>
			<stop  offset="1" style="stop-color:#CDA349"/>
		</linearGradient>
		<path style="fill:url(#SVGID_00000069357408052389193730000014514118222910828939_);" d="M1032.7,181.4l-6-5.6l1.5,6.6l-0.7,0.2
			l-1.8-8l0.6-0.1l6,5.6l-1.5-6.6l0.7-0.2l1.8,8L1032.7,181.4z"/>
		
			<linearGradient id="SVGID_00000173162068554089961150000007872505158570209165_" gradientUnits="userSpaceOnUse" x1="1036.3021" y1="-1410.8112" x2="1043.4021" y2="-1410.8112" gradientTransform="matrix(1 0 0 -1 0 -1236)">
			<stop  offset="0" style="stop-color:#E2C675"/>
			<stop  offset="1" style="stop-color:#CDA349"/>
		</linearGradient>
		<path style="fill:url(#SVGID_00000173162068554089961150000007872505158570209165_);" d="M1041.7,172l-0.7,0.3v-0.1
			c-0.2-0.5-0.5-0.8-0.9-0.9c-0.4-0.1-1,0-1.6,0.2c-0.7,0.2-1.1,0.6-1.3,0.9s-0.2,0.8-0.1,1.2c0.1,0.3,0.3,0.6,0.6,0.7
			c0.3,0.1,0.7,0.1,1.1,0.1l1.9-0.3c0.4-0.1,0.7-0.1,1.1,0s0.6,0.2,0.8,0.4s0.4,0.5,0.5,0.8c0.3,0.7,0.3,1.4,0,1.9s-0.8,1-1.7,1.4
			c-1.9,0.7-3.1,0.5-3.6-0.8l-0.1-0.1l0.7-0.2v0.1c0.2,0.5,0.5,0.7,1,0.8s1,0,1.8-0.3c0.6-0.2,1.1-0.6,1.3-1c0.2-0.4,0.2-0.9,0-1.4
			c-0.3-0.7-0.8-1-1.8-0.9l-1.9,0.3c-0.6,0.1-1.1,0-1.5-0.1c-0.4-0.2-0.7-0.5-0.9-1c-0.1-0.3-0.2-0.6-0.2-0.9c0-0.3,0.1-0.6,0.2-0.8
			c0.1-0.3,0.4-0.5,0.6-0.7c0.3-0.2,0.7-0.4,1.1-0.6c0.4-0.1,0.7-0.2,1.1-0.3s0.7-0.1,1,0s0.6,0.2,0.8,0.4
			C1041.4,171.3,1041.5,171.6,1041.7,172L1041.7,172L1041.7,172z"/>
		
			<linearGradient id="SVGID_00000115490100251977725350000006667187583306368142_" gradientUnits="userSpaceOnUse" x1="1042.7001" y1="-1407.85" x2="1051.03" y2="-1407.85" gradientTransform="matrix(1 0 0 -1 0 -1236)">
			<stop  offset="0" style="stop-color:#E2C675"/>
			<stop  offset="1" style="stop-color:#CDA349"/>
		</linearGradient>
		<path style="fill:url(#SVGID_00000115490100251977725350000006667187583306368142_);" d="M1046.3,176.6l-3.6-7.3l4.5-2.2l0.3,0.6
			l-3.9,1.9l1.3,2.7l3.7-1.8l0.3,0.5l-3.7,1.8l1.5,3l4-2l0.3,0.6L1046.3,176.6L1046.3,176.6z"/>
		
			<linearGradient id="SVGID_00000049215297115725070440000007542051054537600909_" gradientUnits="userSpaceOnUse" x1="1048.8521" y1="-1404.5304" x2="1058.0521" y2="-1404.5304" gradientTransform="matrix(1 0 0 -1 0 -1236)">
			<stop  offset="0" style="stop-color:#E2C675"/>
			<stop  offset="1" style="stop-color:#CDA349"/>
		</linearGradient>
		<path style="fill:url(#SVGID_00000049215297115725070440000007542051054537600909_);" d="M1053.9,168.7l-1.9,1.2l1.7,2.8l-0.6,0.4
			l-4.3-6.9l2.5-1.6c0.6-0.4,1.1-0.6,1.6-0.6c0.5-0.1,0.9,0,1.3,0.2s0.7,0.5,1,1c0.2,0.3,0.3,0.7,0.4,1s0,0.6-0.1,1
			s-0.3,0.6-0.6,0.9l3.1,2l-0.7,0.4l-3-2L1053.9,168.7L1053.9,168.7z M1051.7,165.1l-1.9,1.2l2,3.1l1.9-1.2c1.3-0.8,1.6-1.7,0.9-2.8
			S1052.9,164.3,1051.7,165.1L1051.7,165.1z"/>
		
			<linearGradient id="SVGID_00000098913353190238312710000010977409844052503458_" gradientUnits="userSpaceOnUse" x1="1054.3921" y1="-1399.25" x2="1062.0121" y2="-1399.25" gradientTransform="matrix(1 0 0 -1 0 -1236)">
			<stop  offset="0" style="stop-color:#E2C675"/>
			<stop  offset="1" style="stop-color:#CDA349"/>
		</linearGradient>
		<path style="fill:url(#SVGID_00000098913353190238312710000010977409844052503458_);" d="M1059.6,159.5l-2.1,1.6l4.6,6l-0.6,0.4
			l-4.6-6l-2.1,1.6l-0.4-0.5l4.8-3.6L1059.6,159.5z"/>
		
			<linearGradient id="SVGID_00000174590076171702020770000013793375035454878142_" gradientUnits="userSpaceOnUse" x1="1058.7821" y1="-1396.1" x2="1066.092" y2="-1396.1" gradientTransform="matrix(1 0 0 -1 0 -1236)">
			<stop  offset="0" style="stop-color:#E2C675"/>
			<stop  offset="1" style="stop-color:#CDA349"/>
		</linearGradient>
		<path style="fill:url(#SVGID_00000174590076171702020770000013793375035454878142_);" d="M1059.9,156.6l-0.6,0.5l-0.6-0.7l0.6-0.5
			L1059.9,156.6z M1060.8,157.6l5.3,6.2l-0.5,0.5l-5.3-6.2L1060.8,157.6z"/>
		
			<linearGradient id="SVGID_00000071533160926789691490000012599182027637148349_" gradientUnits="userSpaceOnUse" x1="1062.4121" y1="-1393.3" x2="1069.0621" y2="-1393.3" gradientTransform="matrix(1 0 0 -1 0 -1236)">
			<stop  offset="0" style="stop-color:#E2C675"/>
			<stop  offset="1" style="stop-color:#CDA349"/>
		</linearGradient>
		<path style="fill:url(#SVGID_00000071533160926789691490000012599182027637148349_);" d="M1069.1,155.8l-3,3l2.6,2.7l-0.5,0.5
			l-5.7-5.8l3.7-3.6l0.4,0.4l-3.2,3.1l2.2,2.3l3-3L1069.1,155.8L1069.1,155.8z"/>
		
			<linearGradient id="SVGID_00000114764569854458661140000007142280885312543400_" gradientUnits="userSpaceOnUse" x1="1065.5021" y1="-1389.05" x2="1073.6921" y2="-1389.05" gradientTransform="matrix(1 0 0 -1 0 -1236)">
			<stop  offset="0" style="stop-color:#E2C675"/>
			<stop  offset="1" style="stop-color:#CDA349"/>
		</linearGradient>
		<path style="fill:url(#SVGID_00000114764569854458661140000007142280885312543400_);" d="M1066.7,149.9l-0.5,0.6l-0.6-0.6l0.5-0.6
			L1066.7,149.9z M1067.6,150.8l6.1,5.5l-0.5,0.5l-6.1-5.5L1067.6,150.8z"/>
		
			<linearGradient id="SVGID_00000082361929204512912070000013783405341996970384_" gradientUnits="userSpaceOnUse" x1="1069.0822" y1="-1385.3" x2="1079.3021" y2="-1385.3" gradientTransform="matrix(1 0 0 -1 0 -1236)">
			<stop  offset="0" style="stop-color:#E2C675"/>
			<stop  offset="1" style="stop-color:#CDA349"/>
		</linearGradient>
		<path style="fill:url(#SVGID_00000082361929204512912070000013783405341996970384_);" d="M1074,152.1l1.9,1.5l-0.4,0.6l-6.4-5
			l0.4-0.6l3.8,2.9l-1.1-6.4l0.5-0.7l0.8,4.7l5.8,0.3l-0.6,0.7l-5.1-0.2L1074,152.1L1074,152.1z"/>
		
			<linearGradient id="SVGID_00000130627134322042269110000002466794392610840739_" gradientUnits="userSpaceOnUse" x1="1074.6621" y1="-1380.65" x2="1083.5321" y2="-1380.65" gradientTransform="matrix(1 0 0 -1 0 -1236)">
			<stop  offset="0" style="stop-color:#E2C675"/>
			<stop  offset="1" style="stop-color:#CDA349"/>
		</linearGradient>
		<path style="fill:url(#SVGID_00000130627134322042269110000002466794392610840739_);" d="M1083.1,143.4l-2.5-0.6l-1.8,2.9l1.6,2.1
			l-0.4,0.6l-5.3-6.9l0.4-0.6l8.5,1.9L1083.1,143.4L1083.1,143.4z M1080,142.7l-4.4-1l2.8,3.6L1080,142.7L1080,142.7z"/>
		
			<linearGradient id="SVGID_00000093157989463994219160000011244508468818129077_" gradientUnits="userSpaceOnUse" x1="1077.7244" y1="-1372.8125" x2="1086.2444" y2="-1372.8125" gradientTransform="matrix(1 0 0 -1 0 -1236)">
			<stop  offset="0" style="stop-color:#E2C675"/>
			<stop  offset="1" style="stop-color:#CDA349"/>
		</linearGradient>
		<path style="fill:url(#SVGID_00000093157989463994219160000011244508468818129077_);" d="M1081.5,133.6l-0.3,0.6l-0.1-0.1
			c-0.5-0.3-0.9-0.3-1.3-0.1s-0.7,0.6-1,1.2c-0.3,0.6-0.4,1.1-0.3,1.6c0.1,0.4,0.3,0.7,0.8,0.9c0.3,0.2,0.6,0.2,0.9,0.1
			c0.3-0.1,0.6-0.3,0.9-0.7l1.2-1.5c0.2-0.3,0.5-0.5,0.8-0.7s0.6-0.2,0.9-0.2s0.6,0.1,0.9,0.2c0.7,0.4,1.1,0.8,1.3,1.4
			c0.2,0.6,0.1,1.3-0.4,2.2c-0.9,1.8-2,2.4-3.2,1.8l-0.1-0.1l0.3-0.6l0.1,0.1c0.4,0.2,0.9,0.2,1.2,0s0.8-0.7,1.1-1.4
			c0.3-0.6,0.4-1.1,0.3-1.6s-0.4-0.8-0.9-1.1c-0.7-0.3-1.3-0.2-1.9,0.5l-1.2,1.5c-0.4,0.5-0.8,0.8-1.2,0.9c-0.4,0.1-0.9,0.1-1.3-0.2
			c-0.3-0.1-0.5-0.3-0.7-0.5s-0.3-0.5-0.4-0.8s-0.1-0.6,0-1s0.2-0.8,0.4-1.2c0.2-0.3,0.4-0.6,0.6-0.9c0.2-0.3,0.5-0.5,0.8-0.6
			s0.6-0.2,0.9-0.2s0.6,0.1,1,0.3L1081.5,133.6L1081.5,133.6z"/>
		
			<linearGradient id="SVGID_00000163064713708183201320000018355596350011597718_" gradientUnits="userSpaceOnUse" x1="1080.342" y1="-1368.15" x2="1088.1521" y2="-1368.15" gradientTransform="matrix(1 0 0 -1 0 -1236)">
			<stop  offset="0" style="stop-color:#E2C675"/>
			<stop  offset="1" style="stop-color:#CDA349"/>
		</linearGradient>
		<path style="fill:url(#SVGID_00000163064713708183201320000018355596350011597718_);" d="M1080.6,130.2l7.5,3.2l-0.3,0.7l-7.5-3.2
			L1080.6,130.2L1080.6,130.2z"/>
	</g>
	<g>
		
			<linearGradient id="SVGID_00000097495205111325061680000004580267195475322521_" gradientUnits="userSpaceOnUse" x1="931.6921" y1="-1341.85" x2="940.5321" y2="-1341.85" gradientTransform="matrix(1 0 0 -1 0 -1236)">
			<stop  offset="0" style="stop-color:#E2C675"/>
			<stop  offset="1" style="stop-color:#CDA349"/>
		</linearGradient>
		<path style="fill:url(#SVGID_00000097495205111325061680000004580267195475322521_);" d="M940.4,104.1l0.2,2.2l-3,0.2l-5.2,3.2
			l-0.2-2.4l3.1-1.7l-3.3-1.3l-0.2-2.3l5.5,2.4L940.4,104.1L940.4,104.1z"/>
		
			<linearGradient id="SVGID_00000124883509709083217820000006418483258811077295_" gradientUnits="userSpaceOnUse" x1="929.6221" y1="-1332.6207" x2="940.4989" y2="-1332.6207" gradientTransform="matrix(1 0 0 -1 0 -1236)">
			<stop  offset="0" style="stop-color:#E2C675"/>
			<stop  offset="1" style="stop-color:#CDA349"/>
		</linearGradient>
		<path style="fill:url(#SVGID_00000124883509709083217820000006418483258811077295_);" d="M931.3,96.8l-0.1,1.9l-1.6-0.1l0.1-1.9
			L931.3,96.8z M931.4,94.3l-0.1,1.9l-1.5-0.1l0.1-1.9L931.4,94.3z M931.7,100.2l0.1-2.3l5.3,0.2c0.5,0,0.8-0.1,1-0.3
			c0.2-0.2,0.4-0.6,0.4-1c0-0.5-0.1-0.8-0.3-1.1c-0.2-0.2-0.5-0.4-1-0.4l-5.3-0.2l0.1-2.3l5.5,0.2c0.4,0,0.8,0.1,1.1,0.2
			c0.4,0.1,0.7,0.4,1,0.7c0.3,0.3,0.5,0.7,0.7,1.2s0.2,1.1,0.2,1.8c0,0.7-0.2,1.2-0.4,1.7s-0.5,0.8-0.8,1.1
			c-0.3,0.3-0.7,0.5-1.1,0.6c-0.4,0.1-0.8,0.2-1.2,0.1L931.7,100.2L931.7,100.2z"/>
		
			<linearGradient id="SVGID_00000062908890190331062630000001551811937142050221_" gradientUnits="userSpaceOnUse" x1="932.2821" y1="-1323.2" x2="941.8921" y2="-1323.2" gradientTransform="matrix(1 0 0 -1 0 -1236)">
			<stop  offset="0" style="stop-color:#E2C675"/>
			<stop  offset="1" style="stop-color:#CDA349"/>
		</linearGradient>
		<path style="fill:url(#SVGID_00000062908890190331062630000001551811937142050221_);" d="M938.9,89.1l2.1,0.3l-0.4,2.2l-8.4-1.4
			l0.4-2.2l3.2,0.5l-2.8-3.1l0.4-2.6l3,3.4l5.4-2.1l-0.4,2.6L938,88L938.9,89.1L938.9,89.1z"/>
		
			<linearGradient id="SVGID_00000049924374409825943690000007039221672418649746_" gradientUnits="userSpaceOnUse" x1="934.3821" y1="-1315.6577" x2="943.2921" y2="-1315.6577" gradientTransform="matrix(1 0 0 -1 0 -1236)">
			<stop  offset="0" style="stop-color:#E2C675"/>
			<stop  offset="1" style="stop-color:#CDA349"/>
		</linearGradient>
		<path style="fill:url(#SVGID_00000049924374409825943690000007039221672418649746_);" d="M938.2,75.8l-0.6,2.2l-0.2-0.1
			c-0.2-0.1-0.4,0-0.6,0.1c-0.2,0.2-0.4,0.4-0.5,0.9c0,0.2-0.1,0.4-0.1,0.6s0,0.3,0.1,0.5c0.1,0.1,0.2,0.2,0.3,0.2s0.2,0,0.3,0
			s0.2-0.1,0.3-0.2s0.2-0.2,0.3-0.4l0.7-1.4c0.2-0.4,0.5-0.8,0.8-1.1c0.3-0.3,0.6-0.5,1-0.6s0.8-0.1,1.2,0s0.7,0.3,1,0.5
			s0.5,0.5,0.7,0.8s0.3,0.8,0.3,1.2c0,0.5-0.1,1.1-0.2,1.7c-0.2,0.8-0.5,1.4-0.9,1.9c-0.4,0.4-0.8,0.7-1.2,0.9s-0.9,0.1-1.4,0
			l-0.2-0.1l0.6-2.2h0.1c0.2,0.1,0.4,0,0.6-0.1c0.2-0.2,0.4-0.4,0.5-0.9c0.1-0.4,0.1-0.8,0-1s-0.2-0.4-0.5-0.4c-0.1,0-0.3,0-0.4,0
			c-0.1,0.1-0.2,0.1-0.3,0.3s-0.2,0.3-0.3,0.4l-0.7,1.4c-0.3,0.7-0.8,1.1-1.3,1.3s-1.1,0.2-1.7,0.1c-0.2-0.1-0.5-0.2-0.7-0.3
			c-0.2-0.1-0.4-0.3-0.6-0.5s-0.3-0.5-0.4-0.8c-0.1-0.3-0.2-0.7-0.2-1.1s0.1-0.8,0.2-1.2c0.2-0.6,0.4-1.1,0.6-1.4s0.5-0.7,0.9-0.9
			s0.6-0.3,1-0.4c0.3,0,0.6,0,0.9,0.1H938.2L938.2,75.8z"/>
		
			<linearGradient id="SVGID_00000107552380275660534140000017607711613098844860_" gradientUnits="userSpaceOnUse" x1="936.4" y1="-1307.75" x2="946.5399" y2="-1307.75" gradientTransform="matrix(1 0 0 -1 0 -1236)">
			<stop  offset="0" style="stop-color:#E2C675"/>
			<stop  offset="1" style="stop-color:#CDA349"/>
		</linearGradient>
		<path style="fill:url(#SVGID_00000107552380275660534140000017607711613098844860_);" d="M944.3,76.1l-7.9-3.2l2.2-5.5l1.8,0.7
			l-1.4,3.4l1.3,0.5l1.2-3.1l1.7,0.7l-1.2,3.1l1.4,0.6l1.4-3.5l1.8,0.7L944.3,76.1L944.3,76.1z"/>
		
			<linearGradient id="SVGID_00000110432174021282740790000014784429819695792294_" gradientUnits="userSpaceOnUse" x1="939.6" y1="-1299.95" x2="950.6301" y2="-1299.95" gradientTransform="matrix(1 0 0 -1 0 -1236)">
			<stop  offset="0" style="stop-color:#E2C675"/>
			<stop  offset="1" style="stop-color:#CDA349"/>
		</linearGradient>
		<path style="fill:url(#SVGID_00000110432174021282740790000014784429819695792294_);" d="M946.3,66.3l1.9,1l-1.1,2l-7.5-4l1.1-2
			l2.9,1.5l-1.7-3.8l1.3-2.4l1.8,4.2l5.7-0.2l-1.2,2.4l-3.6,0.1C945.8,65.1,946.3,66.3,946.3,66.3z"/>
		
			<linearGradient id="SVGID_00000044898355040373261770000007926583477978561215_" gradientUnits="userSpaceOnUse" x1="942.8521" y1="-1292.5707" x2="953.8321" y2="-1292.5707" gradientTransform="matrix(1 0 0 -1 0 -1236)">
			<stop  offset="0" style="stop-color:#E2C675"/>
			<stop  offset="1" style="stop-color:#CDA349"/>
		</linearGradient>
		<path style="fill:url(#SVGID_00000044898355040373261770000007926583477978561215_);" d="M945.2,54.6l-1,1.5l-1.3-0.9l1-1.5
			L945.2,54.6z M946.6,52.6l-1.1,1.5l-1.3-0.9l1-1.5L946.6,52.6z M953,59.6c-0.4,0.6-0.8,1-1.2,1.3s-0.8,0.5-1.2,0.5
			c-0.4,0.1-0.8,0-1.2-0.1s-0.7-0.3-1.1-0.5l-2-1.4c-0.3-0.2-0.6-0.5-0.9-0.8c-0.2-0.3-0.4-0.7-0.5-1.1c-0.1-0.4-0.1-0.9,0-1.4
			s0.4-1,0.8-1.6c0.4-0.6,0.8-1,1.2-1.3s0.8-0.5,1.2-0.5c0.4-0.1,0.8,0,1.2,0.1s0.7,0.3,1.1,0.5l2,1.4c0.3,0.2,0.6,0.5,0.8,0.8
			s0.4,0.7,0.5,1.1c0.1,0.4,0.1,0.9,0,1.4S953.3,59,953,59.6L953,59.6z M951.3,58.4c0.3-0.4,0.4-0.8,0.3-1.1c0-0.3-0.2-0.6-0.6-0.9
			l-1.8-1.2c-0.4-0.2-0.7-0.3-1-0.3c-0.3,0.1-0.6,0.3-0.9,0.7c-0.5,0.8-0.4,1.4,0.3,1.9l1.8,1.2C950.1,59.4,950.8,59.2,951.3,58.4
			L951.3,58.4z"/>
		
			<linearGradient id="SVGID_00000177482354781838906220000015597434946628864649_" gradientUnits="userSpaceOnUse" x1="948.5721" y1="-1285.2594" x2="959.2822" y2="-1285.2594" gradientTransform="matrix(1 0 0 -1 0 -1236)">
			<stop  offset="0" style="stop-color:#E2C675"/>
			<stop  offset="1" style="stop-color:#CDA349"/>
		</linearGradient>
		<path style="fill:url(#SVGID_00000177482354781838906220000015597434946628864649_);" d="M950.2,45.2l0.9-1l0.1,0.1
			c0.4,0.4,0.6,0.8,0.7,1.2c0,0.5-0.2,0.9-0.5,1.4s-0.8,0.7-1.3,0.7s-0.9-0.1-1.3-0.5l-0.1-0.1l0.9-1l0.1,0.1
			c0.1,0.1,0.3,0.2,0.4,0.2c0.2,0,0.3-0.1,0.4-0.2c0.1-0.1,0.2-0.3,0.2-0.4C950.5,45.5,950.4,45.3,950.2,45.2L950.2,45.2L950.2,45.2
			z M957,47.1l1,0.9c0.4,0.3,0.6,0.6,0.8,1s0.3,0.7,0.4,1.1c0,0.4,0,0.8-0.2,1.3s-0.5,0.9-0.9,1.4c-0.8,0.9-1.6,1.4-2.4,1.5
			c-0.8,0.1-1.6-0.2-2.4-0.9l-1.8-1.6c-0.3-0.3-0.5-0.6-0.8-0.9s-0.3-0.7-0.4-1.1s0-0.8,0.2-1.3s0.5-1,0.9-1.5
			c0.3-0.4,0.7-0.7,1.1-1c0.4-0.3,0.8-0.5,1.2-0.5c0.4-0.1,0.8-0.1,1.2,0s0.7,0.3,1,0.6l0.2,0.2l-1.5,1.7l-0.1-0.1
			c-0.2-0.2-0.4-0.2-0.7-0.2c-0.3,0.1-0.6,0.3-0.9,0.6c-0.2,0.2-0.3,0.4-0.4,0.6c-0.1,0.2-0.1,0.4,0,0.6c0.1,0.2,0.2,0.4,0.4,0.6
			l1.8,1.6c0.3,0.3,0.6,0.4,0.9,0.4s0.6-0.2,0.9-0.6c0.2-0.2,0.3-0.5,0.4-0.7c0.1-0.2,0.1-0.4,0.1-0.5c0-0.2-0.1-0.3-0.2-0.3
			l-0.1-0.1l-0.7,0.8l-1.2-1.1L957,47.1L957,47.1z"/>
		
			<linearGradient id="SVGID_00000179620399949173980420000010770537516305750922_" gradientUnits="userSpaceOnUse" x1="955.6221" y1="-1280.1671" x2="966.5521" y2="-1280.1671" gradientTransform="matrix(1 0 0 -1 0 -1236)">
			<stop  offset="0" style="stop-color:#E2C675"/>
			<stop  offset="1" style="stop-color:#CDA349"/>
		</linearGradient>
		<path style="fill:url(#SVGID_00000179620399949173980420000010770537516305750922_);" d="M962.1,44.8l-0.9,0.8l1.8,2l-1.7,1.5
			l-5.7-6.3l2.5-2.3c0.6-0.6,1.2-0.9,1.8-1.1c0.6-0.2,1.1-0.2,1.6-0.1s0.9,0.4,1.3,0.9c0.3,0.3,0.4,0.6,0.6,0.9s0.2,0.7,0.2,1
			s-0.1,0.7-0.2,1l3.1,1.3l-1.8,1.6L962.1,44.8L962.1,44.8z M959.4,41.9l-0.9,0.8l1.4,1.5l0.9-0.8c0.3-0.3,0.5-0.6,0.6-0.9
			s0-0.6-0.2-0.8s-0.5-0.4-0.8-0.3S959.8,41.6,959.4,41.9L959.4,41.9z"/>
		
			<linearGradient id="SVGID_00000033359281798845326680000000893143946031857825_" gradientUnits="userSpaceOnUse" x1="962.6121" y1="-1274.4" x2="972.5321" y2="-1274.4" gradientTransform="matrix(1 0 0 -1 0 -1236)">
			<stop  offset="0" style="stop-color:#E2C675"/>
			<stop  offset="1" style="stop-color:#CDA349"/>
		</linearGradient>
		<path style="fill:url(#SVGID_00000033359281798845326680000000893143946031857825_);" d="M967.6,43.6l-5-6.9l4.8-3.5l1.1,1.5
			l-3,2.2l0.8,1.1l2.7-2l1.1,1.5l-2.7,2l0.9,1.3l3.1-2.2l1.1,1.5L967.6,43.6L967.6,43.6z"/>
		
			<linearGradient id="SVGID_00000018945176222354000600000000962598689476728710_" gradientUnits="userSpaceOnUse" x1="968.8321" y1="-1269.55" x2="977.1221" y2="-1269.55" gradientTransform="matrix(1 0 0 -1 0 -1236)">
			<stop  offset="0" style="stop-color:#E2C675"/>
			<stop  offset="1" style="stop-color:#CDA349"/>
		</linearGradient>
		<path style="fill:url(#SVGID_00000018945176222354000600000000962598689476728710_);" d="M975.9,30.4l-2.1,1.2l3.3,5.7l-1.9,1.1
			l-3.3-5.7l-2.1,1.2l-1-1.7l6.1-3.5C974.9,28.7,975.9,30.4,975.9,30.4z"/>
		
			<linearGradient id="SVGID_00000173853338312008618970000018217337124263308684_" gradientUnits="userSpaceOnUse" x1="975.6321" y1="-1266.4" x2="982.1521" y2="-1266.4" gradientTransform="matrix(1 0 0 -1 0 -1236)">
			<stop  offset="0" style="stop-color:#E2C675"/>
			<stop  offset="1" style="stop-color:#CDA349"/>
		</linearGradient>
		<path style="fill:url(#SVGID_00000173853338312008618970000018217337124263308684_);" d="M978,26.6l-1.7,0.8l-0.7-1.5l1.7-0.8
			L978,26.6z M978.5,27l3.7,7.7l-2,1l-3.7-7.7L978.5,27z"/>
		
			<linearGradient id="SVGID_00000114076085864574440300000009318380672382891666_" gradientUnits="userSpaceOnUse" x1="980.6121" y1="-1264.6" x2="991.2121" y2="-1264.6" gradientTransform="matrix(1 0 0 -1 0 -1236)">
			<stop  offset="0" style="stop-color:#E2C675"/>
			<stop  offset="1" style="stop-color:#CDA349"/>
		</linearGradient>
		<path style="fill:url(#SVGID_00000114076085864574440300000009318380672382891666_);" d="M986,30.4l-2.1-1.4l1.6,4.3l-2,0.7
			l-2.9-8l1.8-0.7l3.1,2.2l0.8-3.6l2-0.7l2.9,8l-2.1,0.8l-1.6-4.4l-0.6,2.5L986,30.4L986,30.4z"/>
		
			<linearGradient id="SVGID_00000098194066775818752610000016741936417002894524_" gradientUnits="userSpaceOnUse" x1="1033.3721" y1="-1264.5" x2="1043.3021" y2="-1264.5" gradientTransform="matrix(1 0 0 -1 0 -1236)">
			<stop  offset="0" style="stop-color:#E2C675"/>
			<stop  offset="1" style="stop-color:#CDA349"/>
		</linearGradient>
		<path style="fill:url(#SVGID_00000098194066775818752610000016741936417002894524_);" d="M1036.2,30l-0.7,2l-2.1-0.8l2.9-8
			l2.1,0.8l-1.1,3.1l3.5-2.2l2.5,0.9l-3.9,2.4l1.1,5.6l-2.5-0.9l-0.6-3.5L1036.2,30L1036.2,30z"/>
		
			<linearGradient id="SVGID_00000176754097531014177020000006057278098655496127_" gradientUnits="userSpaceOnUse" x1="1040.472" y1="-1268.3" x2="1049.0521" y2="-1268.3" gradientTransform="matrix(1 0 0 -1 0 -1236)">
			<stop  offset="0" style="stop-color:#E2C675"/>
			<stop  offset="1" style="stop-color:#CDA349"/>
		</linearGradient>
		<path style="fill:url(#SVGID_00000176754097531014177020000006057278098655496127_);" d="M1045.9,36.4l0.2-1.5l-2.6-1.3l-1,1l-2-1
			l6.5-6.3l2.1,1l-1.1,9L1045.9,36.4L1045.9,36.4z M1046.4,33.1l0.4-2.8l-2,2L1046.4,33.1L1046.4,33.1z"/>
		
			<linearGradient id="SVGID_00000110435538200751496040000000716382355569059466_" gradientUnits="userSpaceOnUse" x1="1048.6621" y1="-1272" x2="1055.1421" y2="-1272" gradientTransform="matrix(1 0 0 -1 0 -1236)">
			<stop  offset="0" style="stop-color:#E2C675"/>
			<stop  offset="1" style="stop-color:#CDA349"/>
		</linearGradient>
		<path style="fill:url(#SVGID_00000110435538200751496040000000716382355569059466_);" d="M1048.7,38l4.6-7.2l1.9,1.2l-3.5,5.5
			l3.2,2l-1.1,1.7L1048.7,38L1048.7,38z"/>
		
			<linearGradient id="SVGID_00000093162058842304632640000010166553713616093590_" gradientUnits="userSpaceOnUse" x1="1054.4622" y1="-1274.25" x2="1062.592" y2="-1274.25" gradientTransform="matrix(1 0 0 -1 0 -1236)">
			<stop  offset="0" style="stop-color:#E2C675"/>
			<stop  offset="1" style="stop-color:#CDA349"/>
		</linearGradient>
		<path style="fill:url(#SVGID_00000093162058842304632640000010166553713616093590_);" d="M1061.4,36.4l-5.1,6.8l-1.8-1.4l5.1-6.8
			L1061.4,36.4z M1061.6,35.8l-1.5-1.1l1-1.4l1.5,1.1L1061.6,35.8z"/>
		
			<linearGradient id="SVGID_00000016795013803675221280000000724775527887314326_" gradientUnits="userSpaceOnUse" x1="1058.8821" y1="-1278.05" x2="1068.0021" y2="-1278.05" gradientTransform="matrix(1 0 0 -1 0 -1236)">
			<stop  offset="0" style="stop-color:#E2C675"/>
			<stop  offset="1" style="stop-color:#CDA349"/>
		</linearGradient>
		<path style="fill:url(#SVGID_00000016795013803675221280000000724775527887314326_);" d="M1066.7,43.5l-1.8-1.6l-4.3,4.9l-1.7-1.5
			l4.3-4.9l-1.8-1.6l1.3-1.5l5.3,4.7L1066.7,43.5L1066.7,43.5z"/>
		
			<linearGradient id="SVGID_00000173138525513695067840000017882352728322636722_" gradientUnits="userSpaceOnUse" x1="1063.0621" y1="-1284.45" x2="1073.3521" y2="-1284.45" gradientTransform="matrix(1 0 0 -1 0 -1236)">
			<stop  offset="0" style="stop-color:#E2C675"/>
			<stop  offset="1" style="stop-color:#CDA349"/>
		</linearGradient>
		<path style="fill:url(#SVGID_00000173138525513695067840000017882352728322636722_);" d="M1063.1,49.1l6.2-5.8l4,4.4l-1.4,1.3
			l-2.5-2.7l-1,0.9l2.3,2.4l-1.3,1.2l-2.3-2.4l-1.1,1.1l2.6,2.8l-1.4,1.3L1063.1,49.1z"/>
		
			<linearGradient id="SVGID_00000080917510128826437090000016105492794491652539_" gradientUnits="userSpaceOnUse" x1="1069.6321" y1="-1293.2" x2="1080.8921" y2="-1293.2" gradientTransform="matrix(1 0 0 -1 0 -1236)">
			<stop  offset="0" style="stop-color:#E2C675"/>
			<stop  offset="1" style="stop-color:#CDA349"/>
		</linearGradient>
		<path style="fill:url(#SVGID_00000080917510128826437090000016105492794491652539_);" d="M1072.7,57.2l-1.8,1.2l-1.3-1.9l7-4.8
			l1.3,1.9l-2.7,1.8l4.1,0.3l1.5,2.2l-4.6-0.4l-2.4,5.2l-1.5-2.2l1.6-3.2L1072.7,57.2L1072.7,57.2z"/>
		
			<linearGradient id="SVGID_00000178195787724359153300000015981494675549014151_" gradientUnits="userSpaceOnUse" x1="1075.2428" y1="-1300.1707" x2="1085.2021" y2="-1300.1707" gradientTransform="matrix(1 0 0 -1 0 -1236)">
			<stop  offset="0" style="stop-color:#E2C675"/>
			<stop  offset="1" style="stop-color:#CDA349"/>
		</linearGradient>
		<path style="fill:url(#SVGID_00000178195787724359153300000015981494675549014151_);" d="M1081.8,59.4l1.1,2l-4.7,2.5
			c-0.4,0.2-0.6,0.5-0.7,0.8s0,0.7,0.2,1.1s0.5,0.7,0.8,0.8c0.3,0.1,0.7,0.1,1.1-0.1l4.7-2.5l1.1,2l-4.8,2.5
			c-0.3,0.2-0.7,0.3-1.1,0.4s-0.8,0-1.2-0.1c-0.4-0.1-0.8-0.3-1.2-0.7s-0.7-0.8-1-1.4s-0.5-1.2-0.6-1.7s0-1,0.1-1.4s0.3-0.7,0.6-1
			s0.6-0.5,0.9-0.7C1076.9,62,1081.8,59.4,1081.8,59.4z"/>
		
			<linearGradient id="SVGID_00000029039161720610927620000015486280879783262645_" gradientUnits="userSpaceOnUse" x1="1078.2999" y1="-1309.15" x2="1087.8741" y2="-1309.15" gradientTransform="matrix(1 0 0 -1 0 -1236)">
			<stop  offset="0" style="stop-color:#E2C675"/>
			<stop  offset="1" style="stop-color:#CDA349"/>
		</linearGradient>
		<path style="fill:url(#SVGID_00000029039161720610927620000015486280879783262645_);" d="M1082,73.6l-0.4-1.1l-2.5,1l-0.8-2.1
			l7.9-3l1.2,3.2c0.3,0.8,0.4,1.5,0.4,2.1s-0.2,1.1-0.5,1.5s-0.7,0.7-1.3,0.9c-0.4,0.1-0.7,0.2-1,0.2s-0.7-0.1-1-0.2
			s-0.6-0.3-0.9-0.6l-2.4,2.4l-0.9-2.2C1079.9,75.6,1082,73.6,1082,73.6z M1085.7,72.2l-0.4-1.1l-1.9,0.7l0.4,1.1
			c0.2,0.4,0.4,0.7,0.6,0.9s0.5,0.2,0.8,0.1s0.5-0.3,0.6-0.6C1085.9,73,1085.9,72.6,1085.7,72.2z"/>
		
			<linearGradient id="SVGID_00000152967521686329637990000012633015348046494379_" gradientUnits="userSpaceOnUse" x1="1081.7676" y1="-1317.35" x2="1091.222" y2="-1317.35" gradientTransform="matrix(1 0 0 -1 0 -1236)">
			<stop  offset="0" style="stop-color:#E2C675"/>
			<stop  offset="1" style="stop-color:#CDA349"/>
		</linearGradient>
		<path style="fill:url(#SVGID_00000152967521686329637990000012633015348046494379_);" d="M1089.4,77.1l0.5,2.2l-5.2,1.3
			c-0.4,0.1-0.7,0.3-0.9,0.6c-0.2,0.3-0.2,0.7-0.1,1.1s0.3,0.8,0.6,0.9c0.3,0.2,0.6,0.2,1.1,0.1l5.2-1.3l0.5,2.2l-5.3,1.3
			c-0.4,0.1-0.8,0.1-1.2,0.1c-0.4,0-0.8-0.2-1.1-0.3s-0.7-0.5-1-0.9s-0.5-1-0.7-1.6c-0.2-0.7-0.2-1.2-0.2-1.8
			c0.1-0.5,0.2-0.9,0.4-1.3c0.2-0.3,0.5-0.6,0.8-0.8c0.3-0.2,0.7-0.4,1.1-0.5L1089.4,77.1L1089.4,77.1z"/>
		
			<linearGradient id="SVGID_00000170980472071990489850000011138485839797641859_" gradientUnits="userSpaceOnUse" x1="1083.2" y1="-1326.25" x2="1091.9299" y2="-1326.25" gradientTransform="matrix(1 0 0 -1 0 -1236)">
			<stop  offset="0" style="stop-color:#E2C675"/>
			<stop  offset="1" style="stop-color:#CDA349"/>
		</linearGradient>
		<path style="fill:url(#SVGID_00000170980472071990489850000011138485839797641859_);" d="M1083.2,87.8l8.4-1.1l0.3,2.2l-6.5,0.9
			l0.5,3.7l-2,0.3C1084,93.7,1083.2,87.8,1083.2,87.8z"/>
		
			<linearGradient id="SVGID_00000018924853991488085800000016708355323958215061_" gradientUnits="userSpaceOnUse" x1="1084.0221" y1="-1334.05" x2="1092.7751" y2="-1334.05" gradientTransform="matrix(1 0 0 -1 0 -1236)">
			<stop  offset="0" style="stop-color:#E2C675"/>
			<stop  offset="1" style="stop-color:#CDA349"/>
		</linearGradient>
		<path style="fill:url(#SVGID_00000018924853991488085800000016708355323958215061_);" d="M1092.6,94.2l0.1,2.3l-5.3,0.2
			c-0.4,0-0.8,0.1-1,0.4c-0.2,0.2-0.3,0.6-0.3,1.1s0.1,0.8,0.4,1.1c0.2,0.2,0.6,0.3,1,0.3l5.3-0.2l0.1,2.3l-5.5,0.2
			c-0.4,0-0.8,0-1.2-0.2s-0.7-0.3-1-0.6c-0.3-0.3-0.6-0.7-0.8-1.1c-0.2-0.5-0.3-1.1-0.3-1.7c0-0.7,0.1-1.2,0.2-1.7
			c0.2-0.5,0.4-0.9,0.7-1.2c0.3-0.3,0.6-0.5,1-0.6s0.8-0.2,1.2-0.2L1092.6,94.2L1092.6,94.2z"/>
	</g>
	
		<linearGradient id="SVGID_00000105398133257899708840000017583667951633058751_" gradientUnits="userSpaceOnUse" x1="328.2704" y1="-1314.014" x2="521.8704" y2="-1314.014" gradientTransform="matrix(0.7071 -0.7071 -0.7071 -0.7071 -217.6141 -527.7657)">
		<stop  offset="0" style="stop-color:#E2C675"/>
		<stop  offset="1" style="stop-color:#CDA349"/>
	</linearGradient>
	
		<ellipse transform="matrix(0.7071 -0.7071 0.7071 0.7071 225.1543 745.1829)" style="fill:none;stroke:url(#SVGID_00000105398133257899708840000017583667951633058751_);stroke-width:1;stroke-miterlimit:9.9999;" cx="1012.1" cy="100.8" rx="96.3" ry="96.3"/>
	
		<linearGradient id="SVGID_00000124848302341633040840000015371115101694191018_" gradientUnits="userSpaceOnUse" x1="951.6016" y1="-1329.7965" x2="1071.7678" y2="-1329.7965" gradientTransform="matrix(1 0 0 -1 0 -1236)">
		<stop  offset="0" style="stop-color:#E2C675"/>
		<stop  offset="1" style="stop-color:#CDA349"/>
	</linearGradient>
	<path style="fill:url(#SVGID_00000124848302341633040840000015371115101694191018_);" d="M972.4,145.9
		c-10.9-9.7-18.1-23.2-19.8-38.2c-1-9.7,0.3-19.6,4-28.6c3.7-9.1,9.6-17.1,17-23.4c16.9-14.1,40-17.7,60.3-9.5
		c20.3,8.2,34.4,26.9,36.8,48.7c1,9.7-0.3,19.6-4,28.6c-3.5,8.5-8.9,16.2-15.8,22.2v0.9c7-6,12.7-13.7,16.3-22.9
		c3.8-9.5,5.1-19.4,4-29l0,0c-2.3-21.3-16-40.7-37.2-49.3c-21.2-8.6-44.5-4.2-61,9.6l0,0c-7.4,6.1-13.4,14.1-17.2,23.6
		c-3.9,9.5-5.1,19.4-4,29l0,0c1.6,15,8.9,29,20.4,39v-0.7H972.4z"/>
	
		<linearGradient id="SVGID_00000067212561621482912050000013031898847589954974_" gradientUnits="userSpaceOnUse" x1="36.3927" y1="-913.6033" x2="48.4128" y2="-913.6033" gradientTransform="matrix(0.9775 -0.2108 -0.2108 -0.9775 798.0933 -729.4842)">
		<stop  offset="0" style="stop-color:#E2C675"/>
		<stop  offset="1" style="stop-color:#CDA349"/>
	</linearGradient>
	<path style="fill-rule:evenodd;clip-rule:evenodd;fill:url(#SVGID_00000067212561621482912050000013031898847589954974_);" d="
		M1031.2,149.1l2,3.5c0.1,0.1,0.2,0.1,0.3,0.1l3.9-0.9c0.1,0,0.2,0,0.3,0.1c0.1,0.1,0.1,0.2,0,0.3l-2.7,3c-0.1,0.1-0.1,0.2,0,0.3
		l2.1,3.5c0.1,0.1,0,0.2,0,0.3c-0.1,0.1-0.2,0.1-0.3,0.1l-3.7-1.6c-0.1-0.1-0.2,0-0.3,0.1l-2.7,3c-0.1,0.1-0.2,0.1-0.3,0.1
		c-0.1,0-0.2-0.1-0.2-0.3l0.4-4c0-0.1-0.1-0.2-0.2-0.3l-3.7-1.6c-0.1,0-0.2-0.1-0.1-0.3s0.1-0.2,0.2-0.2l3.9-0.9
		c0.1,0,0.2-0.1,0.2-0.2l0.4-4c0-0.1,0.1-0.2,0.2-0.2C1031.1,149,1031.2,149,1031.2,149.1"/>
	
		<linearGradient id="SVGID_00000076586809470695640950000004053006436832470671_" gradientUnits="userSpaceOnUse" x1="-1392.854" y1="439.0502" x2="-1384.3696" y2="439.0502" gradientTransform="matrix(0.8282 -0.5605 -0.5605 -0.8282 2441.6289 -266.4397)">
		<stop  offset="0" style="stop-color:#E2C675"/>
		<stop  offset="1" style="stop-color:#CDA349"/>
	</linearGradient>
	<path style="fill-rule:evenodd;clip-rule:evenodd;fill:url(#SVGID_00000076586809470695640950000004053006436832470671_);" d="
		M1043.3,144.9l2.3,1.7c0.1,0.1,0.2,0.1,0.2,0l2.3-1.6c0.1-0.1,0.2,0,0.2,0c0.1,0.1,0.1,0.1,0.1,0.2l-0.9,2.7c0,0.1,0,0.2,0.1,0.2
		l2.3,1.7c0.1,0.1,0.1,0.1,0.1,0.2c0,0.1-0.1,0.1-0.2,0.1l-2.8-0.1c-0.1,0-0.2,0.1-0.2,0.1l-0.9,2.7c0,0.1-0.1,0.1-0.2,0.1
		s-0.2-0.1-0.2-0.1l-0.8-2.7c0-0.1-0.1-0.1-0.2-0.1l-2.8-0.1c-0.1,0-0.2-0.1-0.2-0.1s0-0.2,0.1-0.2l2.3-1.6c0.1-0.1,0.1-0.1,0.1-0.2
		l-0.8-2.7C1043.2,145,1043.2,144.9,1043.3,144.9C1043.2,144.9,1043.3,144.9,1043.3,144.9"/>
	
		<linearGradient id="SVGID_00000146467869271263151870000009875529746370475923_" gradientUnits="userSpaceOnUse" x1="3086.7305" y1="-1570.8903" x2="3098.7505" y2="-1570.8903" gradientTransform="matrix(-0.9775 -0.2108 0.2108 -0.9775 4347.6572 -729.4842)">
		<stop  offset="0" style="stop-color:#E2C675"/>
		<stop  offset="1" style="stop-color:#CDA349"/>
	</linearGradient>
	<path style="fill-rule:evenodd;clip-rule:evenodd;fill:url(#SVGID_00000146467869271263151870000009875529746370475923_);" d="
		M994.3,148.6l-2,3.5c-0.1,0.1-0.2,0.1-0.3,0.1l-3.9-0.9c-0.1,0-0.2,0-0.3,0.1s0,0.2,0,0.3l2.7,3c0.1,0.1,0.1,0.2,0,0.3l-2.1,3.5
		c-0.1,0.1,0,0.2,0,0.3c0.1,0.1,0.2,0.1,0.3,0.1l3.7-1.6c0.1-0.1,0.2,0,0.3,0.1l2.7,3c0.1,0.1,0.2,0.1,0.3,0.1s0.2-0.1,0.2-0.3
		l-0.4-4c0-0.1,0-0.2,0.2-0.3l3.7-1.6c0.1,0,0.2-0.1,0.2-0.3s-0.1-0.2-0.2-0.2l-3.9-0.9c-0.1,0-0.2-0.1-0.2-0.2l-0.4-4
		c0-0.1-0.1-0.2-0.2-0.2C994.4,148.5,994.3,148.5,994.3,148.6"/>
	
		<linearGradient id="SVGID_00000091007752784316204070000007128873495049839010_" gradientUnits="userSpaceOnUse" x1="4111.3926" y1="-1701.0824" x2="4123.3926" y2="-1701.0824" gradientTransform="matrix(-1 2.443448e-03 -2.443448e-03 -1 5125.9668 -1554.6509)">
		<stop  offset="0" style="stop-color:#E2C675"/>
		<stop  offset="1" style="stop-color:#CDA349"/>
	</linearGradient>
	<path style="fill-rule:evenodd;clip-rule:evenodd;fill:url(#SVGID_00000091007752784316204070000007128873495049839010_);" d="
		M1012.5,150.9l-1.3,3.8c0,0.1-0.1,0.2-0.2,0.2h-4c-0.1,0-0.2,0.1-0.2,0.2c0,0.1,0,0.2,0.1,0.3l3.2,2.4c0.1,0.1,0.1,0.2,0.1,0.3
		l-1.3,3.8c0,0.1,0,0.2,0.1,0.3s0.2,0.1,0.3,0l3.3-2.4c0.1-0.1,0.2-0.1,0.3,0l3.2,2.4c0.1,0.1,0.2,0.1,0.3,0s0.1-0.2,0.1-0.3
		l-1.2-3.8c0-0.1,0-0.2,0.1-0.3l3.3-2.4c0.1-0.1,0.1-0.2,0.1-0.3s-0.1-0.2-0.2-0.2h-4c-0.1,0-0.2-0.1-0.2-0.2l-1.2-3.8
		c0-0.1-0.1-0.2-0.2-0.2C1012.6,150.8,1012.5,150.8,1012.5,150.9"/>
	
		<linearGradient id="SVGID_00000044889697506982672090000016894729447877186714_" gradientUnits="userSpaceOnUse" x1="1191.6184" y1="-1311.1078" x2="1200.1028" y2="-1311.1078" gradientTransform="matrix(-0.8282 -0.5605 0.5605 -0.8282 2704.1211 -266.4397)">
		<stop  offset="0" style="stop-color:#E2C675"/>
		<stop  offset="1" style="stop-color:#CDA349"/>
	</linearGradient>
	<path style="fill-rule:evenodd;clip-rule:evenodd;fill:url(#SVGID_00000044889697506982672090000016894729447877186714_);" d="
		M981,145.8l-2.3,1.7c-0.1,0.1-0.2,0.1-0.2,0l-2.3-1.6c-0.1-0.1-0.2,0-0.2,0c-0.1,0.1-0.1,0.1-0.1,0.2l1,2.7c0,0.1,0,0.2-0.1,0.2
		l-2.3,1.7c-0.1,0.1-0.1,0.1-0.1,0.2c0,0.1,0.1,0.1,0.2,0.1l2.8-0.1c0.1,0,0.1,0.1,0.2,0.1l0.9,2.7c0,0.1,0.1,0.1,0.2,0.1
		c0.1,0,0.2-0.1,0.2-0.1l0.8-2.7c0-0.1,0.1-0.1,0.2-0.1l2.8-0.1c0.1,0,0.2-0.1,0.2-0.1c0-0.1,0-0.2-0.1-0.2l-2.4-1.6
		c-0.1-0.1-0.1-0.1-0.1-0.2l0.8-2.7C981.1,145.9,981.1,145.8,981,145.8C981.1,145.8,981,145.8,981,145.8"/>
	<g>
		<g>
			
				<linearGradient id="SVGID_00000182507154083174435090000004695327730070273422_" gradientUnits="userSpaceOnUse" x1="1577.1234" y1="-1465.8623" x2="1546.9634" y2="-1472.0723" gradientTransform="matrix(0.9882 -0.1532 -0.1532 -0.9882 -732.1752 -1122.7484)">
				<stop  offset="0" style="stop-color:#285B96"/>
				<stop  offset="0.31" style="stop-color:#235E9A"/>
				<stop  offset="0.64" style="stop-color:#1767A6"/>
				<stop  offset="0.96" style="stop-color:#0376BA"/>
				<stop  offset="1" style="stop-color:#0079BE"/>
			</linearGradient>
			<path style="fill:url(#SVGID_00000182507154083174435090000004695327730070273422_);" d="M1024.1,89.4c0.1-0.4,0.3-0.6,0.6-0.8
				s0.7-0.3,1-0.3c0.6-0.1,1.3-0.2,1.9-0.1c0.6,0,1.3,0.1,1.9,0.3c0.5,0.1,1,0.3,1.4,0.4s1,0.3,1.4,0.4c1.1,0.2,2.2,0.1,3.2-0.3
				s2-1,2.8-1.9l-2.5,4.5l2.4,1.9c-0.8,0.9-1.7,1.5-2.8,1.9c-1,0.4-2.2,0.5-3.2,0.3c-0.5-0.1-1-0.2-1.5-0.4c-0.5-0.2-1-0.3-1.4-0.4
				c-0.6-0.2-1.3-0.2-1.9-0.3c-0.6,0-1.3,0-1.9,0.1c-0.3,0.1-0.7,0.2-1,0.3c-0.3,0.2-0.5,0.4-0.6,0.8v-3.2L1024.1,89.4L1024.1,89.4z
				"/>
			<path class="st66" d="M1031.7,93.2c0.2-0.8-0.7-1.4-1.5-1.5c-1.1-0.2-2.2-0.3-3.3-0.3c-0.6,0-1.3,0-1.9-0.2c-0.6-0.3-1-1-0.9-1.7
				l-0.1,6.4c-0.2,0.7,0.3,1.4,0.9,1.7c0.6,0.3,1.2,0.2,1.9,0.2c1.1,0,2.2,0.1,3.3,0.3c0.8,0.1,1.7,0.7,1.5,1.5L1031.7,93.2z"/>
			<path class="st1" d="M1038.1,93.2c0,0-0.1,0.1-0.2,0.2s-0.3,0.4-0.6,0.6c-0.3,0.2-0.7,0.5-1.1,0.7s-0.9,0.4-1.4,0.5
				s-1,0.2-1.5,0.2s-0.9-0.1-1.2-0.2c-0.3-0.1-0.6-0.2-0.8-0.2c-0.2-0.1-0.3-0.1-0.3-0.1s0.1,0,0.3,0.1c0.2,0.1,0.5,0.1,0.8,0.2
				s0.8,0.1,1.2,0.1c0.5,0,1-0.1,1.4-0.2c0.5-0.1,1-0.3,1.4-0.5s0.8-0.4,1.1-0.6c0.3-0.2,0.5-0.4,0.7-0.6
				C1038.1,93.3,1038.1,93.2,1038.1,93.2L1038.1,93.2z"/>
			<path class="st1" d="M1024.2,90.2L1024.2,90.2c0-0.2,0.1-0.3,0.2-0.5s0.3-0.3,0.5-0.4s0.6-0.2,0.9-0.3c0.7-0.1,1.5-0.2,2.3-0.1
				c0.4,0,0.8,0.1,1.3,0.2c0.4,0.1,0.8,0.2,1.2,0.4s0.8,0.3,1.2,0.4c0.4,0.1,0.8,0.2,1.2,0.2c0.8,0,1.6-0.1,2.3-0.3
				c0.3-0.1,0.6-0.2,0.9-0.3c0.2-0.1,0.5-0.2,0.6-0.3c0.2-0.1,0.3-0.2,0.4-0.2s0.1-0.1,0.1-0.1s-0.1,0-0.1,0.1
				c-0.1,0.1-0.2,0.1-0.4,0.2c-0.2,0.1-0.4,0.2-0.6,0.3s-0.5,0.2-0.9,0.3c-0.7,0.2-1.5,0.4-2.3,0.4c-0.4,0-0.9-0.1-1.3-0.2
				s-0.8-0.2-1.2-0.4c-0.4-0.1-0.8-0.3-1.2-0.4c-0.4-0.1-0.8-0.2-1.2-0.2c-0.8-0.1-1.6,0-2.3,0.1c-0.3,0.1-0.6,0.1-0.9,0.3
				c-0.2,0.1-0.4,0.3-0.6,0.4S1024.1,90.1,1024.2,90.2L1024.2,90.2L1024.2,90.2z"/>
		</g>
		<g>
			<g>
				
					<linearGradient id="SVGID_00000157280159232991800890000000656549232378061747_" gradientUnits="userSpaceOnUse" x1="1539.8822" y1="-1471.6204" x2="1511.6022" y2="-1471.4103" gradientTransform="matrix(0.9882 -0.1532 -0.1532 -0.9882 -732.1752 -1122.7484)">
					<stop  offset="0" style="stop-color:#0079BE"/>
					<stop  offset="0.22" style="stop-color:#3CA6DD"/>
					<stop  offset="0.32" style="stop-color:#56BAEA"/>
					<stop  offset="0.37" style="stop-color:#479CD0"/>
					<stop  offset="0.44" style="stop-color:#3980B6"/>
					<stop  offset="0.5" style="stop-color:#2F6BA4"/>
					<stop  offset="0.56" style="stop-color:#295F99"/>
					<stop  offset="0.62" style="stop-color:#285B96"/>
					<stop  offset="1" style="stop-color:#56BAEA"/>
				</linearGradient>
				<path style="fill:url(#SVGID_00000157280159232991800890000000656549232378061747_);" d="M997.9,102.2c-0.1-0.4-0.3-0.7-0.7-0.9
					c-0.3-0.2-0.8-0.3-1.2-0.3c-1.5-0.1-3,0-4.5,0.4c-1.5,0.3-2.9,0.8-4.4,1.3l2.7-3.8l-2.6-2.6c1.4-0.5,2.9-1,4.4-1.3
					s3-0.5,4.5-0.4c0.4,0,0.8,0.1,1.2,0.3c0.4,0.2,0.6,0.5,0.7,0.9V99L997.9,102.2L997.9,102.2z"/>
				<path class="st1" d="M996.6,100C996.6,100,996.5,100,996.6,100c-0.4,0-0.7-0.1-1.1-0.1c-0.7,0-1.4,0.1-2.2,0.2
					c-0.7,0.1-1.5,0.3-2.1,0.5c-0.7,0.2-1.3,0.4-1.8,0.6s-1,0.3-1.3,0.4s-0.4,0.1-0.4,0.1s0.6-0.2,1.6-0.5c0.5-0.2,1.2-0.3,1.8-0.5
					c0.7-0.2,1.4-0.3,2.1-0.4c0.7-0.1,1.5-0.2,2.1-0.2C995.9,100.1,996.2,100.1,996.6,100C996.5,100.1,996.6,100.1,996.6,100
					C996.6,100.1,996.6,100.1,996.6,100L996.6,100z"/>
				<path class="st1" d="M988,96.9c0,0,0.2-0.1,0.4-0.2c0.3-0.1,0.7-0.3,1.2-0.4c0.5-0.2,1-0.4,1.7-0.5c0.6-0.2,1.3-0.3,2-0.4
					s1.4-0.2,2-0.1c0.3,0,0.6,0,0.9,0.1c0.3,0,0.6,0.1,0.8,0.2c0.5,0.2,0.6,0.5,0.7,0.8c0.1,0.1,0,0.2,0,0.3s0,0.1,0,0.1l0.1-0.1
					c0-0.1,0-0.2-0.1-0.3c-0.1-0.2-0.4-0.5-0.8-0.7c-0.2-0.1-0.5-0.2-0.8-0.2s-0.6-0.1-0.9-0.1c-0.6,0-1.3,0-2,0.2
					c-0.7,0.1-1.3,0.2-1.9,0.4c-0.6,0.2-1.2,0.3-1.7,0.5C988.6,96.7,988,96.9,988,96.9L988,96.9z"/>
			</g>
			<path class="st66" d="M990.3,108.1c0-0.2,0.1-0.5,0.3-0.6c1.5-1.9,3.9-2.2,5.9-3.3c0.7-0.4,1.5-1.1,1.4-2l0.1-6.4
				c0.2,0.9-0.6,1.6-1.4,2c-2,1-4.5,1.4-5.9,3.3c-0.1,0.2-0.3,0.4-0.3,0.6L990.3,108.1z"/>
		</g>
		
			<linearGradient id="SVGID_00000036253855938719720800000000517837331721328786_" gradientUnits="userSpaceOnUse" x1="991.3621" y1="-1336.9496" x2="1037.5656" y2="-1336.9496" gradientTransform="matrix(1 0 0 -1 0 -1236)">
			<stop  offset="0" style="stop-color:#E2C675"/>
			<stop  offset="1" style="stop-color:#CDA349"/>
		</linearGradient>
		<path style="fill:url(#SVGID_00000036253855938719720800000000517837331721328786_);" d="M1035.5,77.8h-25.4l-2.9,14.7
			c2.9-2.3,5.8-3.1,9.5-3.1c10.2,0,14.8,7.3,14.8,15.1c0,2.1-0.3,4.8-0.7,6.9c-1.2,6.2-3.2,12.6-7.7,17.1c-3.4,3.4-8.3,5.8-15.2,5.8
			c-10.6,0-16.6-6.7-16.6-15.4c0-0.5,0-1.9,0.2-3.3h11.1c-0.1,0.7-0.1,1.3-0.1,1.9c0,3.7,1.7,6.6,6.1,6.6c6.3,0,9-5.3,10.4-12.6
			c0.4-2.1,0.7-3.9,0.7-5.4c0-3.8-1.3-6.8-6-6.8c-4.6,0-7.2,2.5-8.9,5.5h-10.4l7.4-37.2h35.7C1037.6,67.5,1035.5,77.8,1035.5,77.8z"
			/>
		<g>
			
				<linearGradient id="SVGID_00000014618080464896836680000017973506491755420598_" gradientUnits="userSpaceOnUse" x1="990.3" y1="-1336.7709" x2="1031.7" y2="-1336.7709" gradientTransform="matrix(1 0 0 -1 0 -1236)">
				<stop  offset="0" style="stop-color:#56BAEA"/>
				<stop  offset="2.000000e-02" style="stop-color:#489DD0"/>
				<stop  offset="5.000000e-02" style="stop-color:#3B81B7"/>
				<stop  offset="8.000000e-02" style="stop-color:#316CA5"/>
				<stop  offset="0.11" style="stop-color:#2B609A"/>
				<stop  offset="0.13" style="stop-color:#2A5C97"/>
				<stop  offset="0.29" style="stop-color:#2D649C"/>
				<stop  offset="0.53" style="stop-color:#56BAEA"/>
				<stop  offset="0.53" style="stop-color:#55B9E9"/>
				<stop  offset="0.66" style="stop-color:#3D86BC"/>
				<stop  offset="0.75" style="stop-color:#2D66A0"/>
				<stop  offset="0.8" style="stop-color:#285B96"/>
				<stop  offset="1" style="stop-color:#0079BE"/>
			</linearGradient>
			<path style="fill:url(#SVGID_00000014618080464896836680000017973506491755420598_);" d="M1031.6,99.7c-0.2,0.6-1,0.7-1.6,0.7
				c-2.4-0.2-4.8-0.8-7.2-1.1c-3.6-0.4-7.3,0-10.7,1.2c-4.8,1.7-9.1,4.9-13.9,6.9c-2.2,0.9-4.5,1.6-6.8,1.4c-0.5,0-1.1-0.3-1.1-0.8
				l0.1-6.4c0,0.5,0.6,0.8,1.1,0.8c2.3,0.2,4.6-0.5,6.8-1.4c4.8-2,9.1-5.2,13.9-6.9c3.5-1.2,7.1-1.7,10.7-1.2
				c2.4,0.3,4.8,0.9,7.2,1.1c0.6,0.1,1.4-0.1,1.6-0.7L1031.6,99.7z"/>
			<path class="st1" d="M1031.6,99.1c0,0-0.1,0.2-0.3,0.5c-0.1,0.1-0.3,0.2-0.5,0.3c-0.2,0.1-0.5,0.1-0.8,0.1
				c-0.6,0-1.3-0.1-2.1-0.3c-0.8-0.1-1.7-0.3-2.7-0.5s-2.1-0.4-3.3-0.4c-1.2-0.1-2.4-0.1-3.7,0s-2.6,0.3-4,0.7
				c-1.3,0.3-2.7,0.8-3.9,1.4c-2.5,1.1-4.9,2.5-7.2,3.8c-2.3,1.2-4.4,2.3-6.4,3c-1,0.3-1.9,0.6-2.8,0.7c-0.9,0.1-1.6,0.1-2.2,0.1
				c-0.6,0-1.1-0.2-1.2-0.4c-0.2-0.2-0.1-0.4-0.1-0.4s-0.1,0.2,0.1,0.4c0.2,0.2,0.6,0.4,1.2,0.4c0.6,0,1.3,0,2.2-0.1
				c0.8-0.1,1.8-0.4,2.8-0.7c2-0.7,4.2-1.8,6.4-3c2.3-1.2,4.6-2.7,7.2-3.8c1.3-0.6,2.6-1,4-1.4c1.3-0.3,2.7-0.6,4-0.7s2.6-0.1,3.8,0
				s2.3,0.3,3.3,0.4s1.9,0.4,2.7,0.5c0.8,0.1,1.5,0.2,2.1,0.3c0.3,0,0.6,0,0.8,0s0.4-0.2,0.5-0.3
				C1031.5,99.3,1031.6,99.1,1031.6,99.1L1031.6,99.1z"/>
			<path class="st1" d="M990.4,102.1c0,0,0.1,0.4,0.2,0.6c0.2,0.2,0.6,0.4,1.2,0.4c0.6,0,1.3,0,2.2-0.1c0.8-0.1,1.8-0.4,2.8-0.7
				c2-0.7,4.1-1.8,6.4-3c2.3-1.2,4.6-2.7,7.2-3.8c1.3-0.6,2.6-1,4-1.4c1.3-0.3,2.7-0.6,4-0.7s2.6-0.1,3.8,0s2.3,0.3,3.3,0.4
				s1.9,0.4,2.7,0.5c0.8,0.1,1.5,0.2,2.1,0.3c0.3,0,0.6,0,0.8,0s0.4-0.2,0.5-0.3c0.2-0.2,0.1-0.3,0.1-0.3s0.1,0.1-0.1,0.3
				c-0.1,0.1-0.3,0.2-0.5,0.3c-0.2,0.1-0.5,0.1-0.8,0.1c-0.6,0-1.3-0.1-2.1-0.3c-0.8-0.1-1.7-0.3-2.7-0.5s-2.1-0.4-3.3-0.4
				c-1.2-0.1-2.4-0.1-3.7,0s-2.6,0.3-4,0.7c-1.3,0.3-2.7,0.8-3.9,1.4c-2.5,1.1-4.9,2.5-7.2,3.8s-4.4,2.3-6.4,3
				c-1,0.3-1.9,0.6-2.8,0.7c-0.9,0.1-1.6,0.1-2.2,0.1c-0.6,0-1.1-0.2-1.2-0.4C990.4,102.5,990.4,102.1,990.4,102.1L990.4,102.1z"/>
		</g>
	</g>
</g>
</svg>
