<?xml version="1.0" encoding="UTF-8"?>
<!DOCTYPE svg PUBLIC "-//W3C//DTD SVG 1.1//EN" "http://www.w3.org/Graphics/SVG/1.1/DTD/svg11.dtd">
<!-- Creator: CorelDRAW -->
<svg xmlns="http://www.w3.org/2000/svg" xml:space="preserve" width="74.81mm" height="24.93mm" version="1.1" style="shape-rendering:geometricPrecision; text-rendering:geometricPrecision; image-rendering:optimizeQuality; fill-rule:evenodd; clip-rule:evenodd"
viewBox="0 0 7481 2493"
 xmlns:xlink="http://www.w3.org/1999/xlink"
 xmlns:xodm="http://www.corel.com/coreldraw/odm/2003">
 <defs>
  <style type="text/css">
   <![CDATA[
    .fil0 {fill:#9C323F;fill-rule:nonzero}
   ]]>
  </style>
 </defs>
 <g id="Layer_x0020_1">
  <metadata id="CorelCorpID_0Corel-Layer"/>
  <g id="_2770018988736">
   <path class="fil0" d="M2238.92 558.44l-0.07 0c0.71,46.15 -65.76,64.07 -112.22,43.64 -53.87,-27.97 -129.43,-72.88 -226.3,-134.86 -43.64,-27.1 -43.54,-59.13 0.31,-95.96 3.78,-3.17 8.08,-5.75 12.46,-7.83 126.33,-59.62 208.66,-87 246.8,-88.97 38.7,-2.01 53.52,-2.44 66.57,16.93 0,0 11.04,14.92 12.49,39.72l-0.04 227.33zm0.04 1279.77c0,42.47 -29.18,80.36 -69.75,86.07 -31.29,4.45 -66.6,-6.35 -101.31,-36.51 -2.3,-1.97 -4.41,-4.2 -6.42,-6.56 -73.28,-85.3 -164.08,-181.01 -272.56,-286.98 -1.91,-1.87 -3.81,-3.88 -5.47,-6 -42.12,-52.53 -40,-108.8 6.14,-169.02 1.73,-2.26 3.7,-4.48 5.71,-6.52 90.35,-92.22 186.94,-166.08 289.81,-221.75 27.41,-13.69 51.61,-21.45 72.6,-23.25 43.96,-3.88 81.25,33.52 81.25,79.27l0 591.25zm-359.77 403.47c-6.91,1.45 -13.93,1.94 -20.95,1.94l-605.51 0c-13.22,0 -26.45,-0.99 -39.43,-3.56 -112.57,-22.37 -123.75,-96.17 -33.12,-193.36 126.17,-129.01 219.73,-214.31 280.51,-255.84 69.47,-47.2 139.99,-42.51 211.57,13.8 80.29,63.74 160.79,137.26 242.11,220.55 102.09,95.64 91.01,190.96 -35.18,216.47zm-961.3 -359.16l41.13 -513.08c0.28,-3.39 0.78,-6.81 1.48,-10.13 29.25,-131.4 89.57,-165.69 158.47,-123.39 4.44,2.72 8.47,6.28 12.06,10.19l218.15 237.13c3.25,3.53 6.21,7.41 8.61,11.71 34.78,62.66 18.06,125.38 -12.14,160.66l-267.85 282.64c-62.3,70.7 -161.93,27.8 -159.91,-55.73zm-103.05 -1062.42c45.97,-51.15 108.94,-100.33 189.23,-147.81 24.98,-18.14 32,-12.32 20.64,17.14 -44.74,117.79 -79.03,182 -120.41,220.56 -39.65,37.46 -126.78,-46.04 -89.46,-89.89zm-33.48 1013.77c-0.21,2.47 -0.53,5.01 -0.99,7.44 -19.68,105.45 -81.14,137.9 -136.03,72.43 -1.8,-2.16 -3.49,-4.52 -5.01,-6.92l-117.12 -182.31c-2.01,-3.14 -3.88,-6.39 -5.33,-9.88 -15.03,-36.8 -5.25,-78.71 29.46,-125.38l185.21 -232.76c4.23,-5.33 9.28,-9.88 14.74,-13.51 34.93,-23.11 58.42,-20.78 70.52,6.98 4.27,9.95 5.44,21.2 4.45,32.14l-39.9 451.77zm-248.11 409.71l-182.74 0c-55.03,-1.09 -90.45,-77.18 -51.82,-163.93l90.38 -208.28c2.01,-4.55 4.38,-9 7.3,-12.88 27.63,-36.26 57.44,-36.97 88.94,-2.26 2.96,3.28 5.5,7.02 7.73,10.9l131.16 229.45c1.73,3.04 3.35,6.14 4.51,9.42 21.59,59.51 -21.66,139.63 -95.46,137.58zm-285.11 -398.32c-3,-16.37 -3.39,-29.03 -3.39,-31.43 -0.14,-61.49 29.6,-125.2 35.07,-136.67 28.01,-58.73 51.85,-75.91 59.33,-80.89 8.4,-5.57 29.04,-19.3 44.98,-10.72 1.73,0.95 6.28,3.67 9.53,9.13 8.64,14.57 2.26,36.76 -3,45.72 -33.2,56.38 -65.05,141.89 -96.63,235.41 -19.96,40.22 -36.83,18.81 -45.89,-30.55zm173.42 -442.28c21.31,-110.24 82.34,-188.16 183.41,-234.09 66.18,-24.2 107.99,-19.51 75.21,31.93 -76.69,89.7 -145.2,175.32 -183.58,246.51 -9.32,16.61 -25.79,28.4 -44.35,28.89 -27.79,0.74 -37.92,-23.71 -30.69,-73.24zm293.87 -482.9c26.98,-23.78 61.38,19.29 28.15,58.88 -41.28,42.86 -78,72.1 -110.07,87.73 -125.48,81.28 45.93,-124.25 81.92,-146.61zm414.23 -292.67c1.34,-2.89 2.96,-5.78 4.73,-8.39 89.32,-134.52 195.99,-205.67 320.06,-213.4 76.98,-5.61 99.13,32.07 54.93,58.6 -119.84,70.52 -214.74,148.48 -283.98,226.59 -1.27,1.41 -2.61,2.78 -3.98,4.05 -92.57,84.67 -151.91,61.88 -91.76,-67.45zm779.52 491.49c-2.86,7.45 -6.77,14.4 -11.82,20.32 -63.64,74.9 -140.09,147.07 -229.58,216.6 -74.79,53.55 -125.52,45.72 -176.61,0 -61.98,-47.1 -111.83,-94.72 -149.4,-142.76 -1.51,-1.91 -3.14,-3.74 -4.87,-5.43 -87.34,-86.65 -47.51,-149.05 119.7,-187.19 2.26,-0.53 4.69,-0.91 7.02,-1.16 176.36,-18.28 297.61,-25.44 363.96,-21.03 87.21,-5.57 114.34,34.65 81.6,120.65zm-15.2 -319.75c-115.08,24.72 -296.44,42.58 -543.99,53.51 -54.82,1.13 -54.04,-24.48 1.91,-77.12l227.61 -196.67c1.94,-1.66 3.95,-3.24 6.03,-4.66 40.08,-27.27 86.12,-33.37 137.9,-18.38 2.86,0.82 5.75,1.91 8.51,3.18 76.05,34.61 138.71,72.35 195.65,113.17 2.57,1.83 5.04,3.85 7.33,6.07 47.84,46.88 36.23,112.43 -40.95,120.9zm-309.53 -464.68c57.08,-33.2 159.42,-61.1 307.48,-83.54 34.4,-5.43 37.08,3.98 8.29,28.26 -80.36,60.04 -168.91,98.24 -263.67,115.21 -64.45,10.69 -79.62,-42.51 -52.1,-59.93zm577.25 -334.3l-1839.69 0c-180.34,0 -326.5,146.2 -326.5,326.5l0 1839.69c0,180.34 146.16,326.53 326.5,326.53l1839.69 0c180.34,0 326.5,-146.19 326.5,-326.53l0 -1839.69c0,-180.3 -146.16,-326.5 -326.5,-326.5z"/>
   <polygon class="fil0" points="2762.26,626.98 2964.83,626.98 2964.83,896.75 3224.79,896.75 3224.79,626.98 3427.35,626.98 3427.35,1347.76 3224.79,1347.76 3224.79,1073.88 2964.83,1073.88 2964.83,1347.76 2762.26,1347.76 "/>
   <path class="fil0" d="M3574.54 435.47l177.47 0 0 142.1 -177.47 0 0 -142.1zm-12.53 191.49l202.56 0 0 720.79 -202.56 0 0 -720.79z"/>
   <polygon class="fil0" points="4076.75,802.03 3858.52,802.03 3858.52,626.98 4498.56,626.98 4498.56,802.03 4279.31,802.03 4279.31,1347.73 4076.75,1347.73 "/>
   <path class="fil0" d="M4605.02 435.47l177.49 0 0 142.1 -177.49 0 0 -142.1zm-12.52 191.49l202.57 0 0 720.79 -202.57 0 0 -720.79z"/>
   <polygon class="fil0" points="5107.24,802.03 4889.01,802.03 4889.01,626.98 5529.06,626.98 5529.06,802.03 5309.81,802.03 5309.81,1347.73 5107.24,1347.73 "/>
   <path class="fil0" d="M2988.54 1449.28l83.43 0 0 77.43 -83.43 0 0 -77.43zm-136.85 0l83.44 0 0 77.43 -83.44 0 0 -77.43zm-89.43 395.43l0 -278.59 82.1 0 0 275.13c0,89.85 44.73,137.55 118.14,137.55 72.74,0 117.44,-44.95 117.44,-134.09l0 -278.59 82.13 0 0 274.42c0,144.46 -78.78,217.07 -200.91,217.07 -121.5,0 -198.9,-72.61 -198.9,-212.9z"/>
   <polygon class="fil0" points="3274.81,1573.72 3350.91,1573.72 3601.2,1908.3 3601.2,1573.72 3681.95,1573.72 3681.95,2057.59 3613.2,2057.59 3355.56,1713.35 3355.56,2057.59 3274.81,2057.59 "/>
   <path class="fil0" d="M3805.74 1568.16l83.04 0 0 489.45 -83.04 0 0 -489.45zm-1.34 -118.88l86.43 0 0 78.31 -86.43 0 0 -78.31z"/>
   <polygon class="fil0" points="3973.55,1570.27 4064.32,1570.27 4205.14,1942.17 4345.3,1570.27 4434.06,1570.27 4240.53,2057.6 4167.11,2057.6 "/>
   <polygon class="fil0" points="4514.14,1573.72 4860.53,1573.72 4860.53,1649.75 4596.23,1649.75 4596.23,1775.58 4830.51,1775.58 4830.51,1852.31 4596.23,1852.31 4596.23,1981.57 4863.88,1981.57 4863.88,2057.59 4514.14,2057.59 "/>
   <path class="fil0" d="M5163.52 1813.58c58.74,0 96.1,-31.78 96.1,-80.85l0 -1.41c0,-51.83 -36.02,-80.19 -96.77,-80.19l-119.45 0 0 162.45 120.12 0zm-202.21 -239.85l208.21 0c58.74,0 104.81,17.96 134.83,48.37 24.7,26.28 38.7,62.23 38.7,104.38l0 1.38c0,79.51 -46.03,127.21 -110.77,146.58l126.12 183.16 -97.44 0 -114.79 -168.66 -102.77 0 0 168.66 -82.09 0 0 -483.87z"/>
   <path class="fil0" d="M5412.45 1980.18l49.39 -60.82c44.73,40.08 90.1,62.9 147.5,62.9 50.73,0 82.76,-24.87 82.76,-60.85l0 -1.38c0,-34.53 -18.7,-53.2 -105.45,-73.94 -99.44,-24.9 -155.5,-55.31 -155.5,-144.5l0 -1.37c0,-82.94 66.74,-140.3 159.53,-140.3 68.05,0 122.13,21.41 169.5,60.82l-44.06 64.27c-42.05,-32.49 -84.1,-49.77 -126.79,-49.77 -48.08,0 -76.09,25.61 -76.09,57.39l0 1.38c0,37.32 21.34,53.9 111.44,76.02 98.78,24.91 149.51,61.53 149.51,141.71l0 1.38c0,90.56 -68.72,144.5 -166.83,144.5 -71.44,0 -138.85,-25.58 -194.91,-77.44z"/>
   <path class="fil0" d="M5874.67 1568.16l83.05 0 0 489.45 -83.05 0 0 -489.45zm-1.37 -118.88l86.43 0 0 78.31 -86.43 0 0 -78.31z"/>
   <polygon class="fil0" points="6196.63,1652.53 6047.8,1652.53 6047.8,1573.72 6427.55,1573.72 6427.55,1652.53 6278.72,1652.53 6278.72,2057.59 6196.63,2057.59 "/>
   <polygon class="fil0" points="6512.96,1573.72 6859.35,1573.72 6859.35,1649.75 6595.05,1649.75 6595.05,1775.58 6829.33,1775.58 6829.33,1852.31 6595.05,1852.31 6595.05,1981.57 6862.7,1981.57 6862.7,2057.59 6512.96,2057.59 "/>
   <path class="fil0" d="M6928.74 1980.18l49.39 -60.82c44.73,40.08 90.1,62.9 147.5,62.9 50.73,0 82.76,-24.87 82.76,-60.85l0 -1.38c0,-34.53 -18.7,-53.2 -105.45,-73.94 -99.45,-24.9 -155.5,-55.31 -155.5,-144.5l0 -1.37c0,-82.94 66.74,-140.3 159.52,-140.3 68.05,0 122.14,21.41 169.51,60.82l-44.06 64.27c-42.05,-32.49 -84.1,-49.77 -126.82,-49.77 -48.05,0 -76.06,25.61 -76.06,57.39l0 1.38c0,37.32 21.34,53.9 111.44,76.02 98.78,24.91 149.51,61.53 149.51,141.71l0 1.38c0,90.56 -68.72,144.5 -166.86,144.5 -71.41,0 -138.82,-25.58 -194.88,-77.44z"/>
   <path class="fil0" d="M7390.97 1568.16l83.05 0 0 489.45 -83.05 0 0 -489.45zm-1.37 -118.88l86.43 0 0 78.31 -86.43 0 0 -78.31z"/>
  </g>
 </g>
</svg>
