<?xml version="1.0" encoding="utf-8"?>
<!-- Generator: Adobe Illustrator 28.1.0, SVG Export Plug-In . SVG Version: 6.00 Build 0)  -->
<svg version="1.1" id="Layer_1" xmlns="http://www.w3.org/2000/svg" xmlns:xlink="http://www.w3.org/1999/xlink" x="0px" y="0px"
	 viewBox="0 0 164.6 76.7" style="enable-background:new 0 0 164.6 76.7;" xml:space="preserve">
<style type="text/css">
	.st0{fill:#FFFFFF;}
	.st1{fill-rule:evenodd;clip-rule:evenodd;fill:#FFFFFF;}
</style>
<g>
	<g>
		<g>
			<path class="st0" d="M21,47.7c-0.3,0.9-0.6,1.9-1,2.9c-0.4,1-0.8,2-1.3,3c0.5-0.1,0.9-0.1,1.4-0.2c0.5-0.1,1-0.1,1.5-0.2
				c0.2,0,0.4,0,0.6,0c0.2,0,0.3,0,0.4,0.1c0.1,0,0.2,0.1,0.3,0.1c0,0.1,0.1,0.1,0.1,0.1c0,0,0,0.1,0,0.1c0,0.1-0.1,0.2-0.3,0.2
				c-0.1,0-0.2,0-0.3-0.1l0,0c-0.1,0-0.1,0-0.2,0c-0.1,0-0.2,0-0.4,0c-0.4,0.1-0.8,0.1-1.1,0.1c-0.3,0-0.6,0.1-0.9,0.1
				c-0.3,0-0.5,0.1-0.7,0.1c-0.2,0-0.4,0.1-0.6,0.1c-0.7,1.4-1.4,2.8-2.1,4.3c-0.7,1.4-1.5,2.8-2.2,4.1c0,0-0.1,0.1-0.1,0.1
				c-0.1,0-0.1,0-0.2,0c-0.1,0-0.1,0-0.2-0.1c0,0-0.1-0.1-0.1-0.2c0-0.1,0-0.1,0-0.2c0-0.1,0-0.1,0-0.2c0-0.5-0.1-1-0.2-1.5
				c-0.1-0.5-0.3-1-0.5-1.4c-0.2-0.5-0.4-0.9-0.7-1.3c-0.3-0.4-0.5-0.8-0.8-1.1c-0.3-0.3-0.5-0.6-0.8-0.8c-0.3-0.2-0.5-0.4-0.7-0.5
				l-0.3,0.3c-0.4,0.4-0.9,0.9-1.4,1.5c-0.5,0.6-1.1,1.2-1.6,1.8c-0.5,0.6-1.1,1.3-1.6,1.9c-0.5,0.6-1,1.3-1.3,1.8
				C3.4,62.9,3.4,63,3.4,63c0,0.1,0,0.2,0,0.3c0,0.1-0.2,0.1-0.4,0.1c-0.1,0-0.2-0.1-0.2-0.3c0-0.2,0.1-0.4,0.2-0.6
				c0.1-0.2,0.2-0.4,0.3-0.6c0.1-0.2,0.3-0.5,0.6-0.8c0.2-0.3,0.5-0.7,0.8-1c0.3-0.4,0.6-0.8,1-1.2c0.3-0.4,0.7-0.8,1.1-1.2
				c0.4-0.4,0.7-0.8,1.1-1.2c0.4-0.4,0.7-0.7,1-1c-0.2,0-0.5,0.1-0.8,0.1c-0.4,0.1-0.8,0.1-1.2,0.2C6.4,55.9,5.9,56,5.5,56
				c-0.4,0.1-0.8,0.1-1,0.1L4,56.2c-0.5,0.1-1,0.1-1.3,0.1c-0.3,0-0.6,0-0.7,0c-0.2,0-0.3-0.1-0.4-0.2c-0.1-0.1-0.2-0.2-0.2-0.3
				c0-0.1,0-0.2,0-0.4c0-0.3,0.1-0.5,0.2-0.7c0.1-0.2,0.3-0.5,0.6-0.7c0.3-0.2,0.5-0.4,0.9-0.5c0.3-0.1,0.7-0.3,1-0.3
				c0.1,0,0.1,0,0.2,0c0.1,0,0.1,0,0.2,0c0.5-0.1,1-0.1,1.5,0c0.5,0.1,0.9,0.2,1.4,0.3c0.4,0.1,0.8,0.3,1.2,0.5
				c0.4,0.2,0.7,0.4,1.1,0.6c0.5-0.5,1-1,1.5-1.6c0.5-0.5,1.1-1.1,1.7-1.7c0.6-0.6,1.2-1.1,1.7-1.6c0.6-0.5,1.2-1,1.7-1.5
				c0.6-0.5,1.1-0.9,1.6-1.3c0.5-0.4,1-0.7,1.4-0.9c0.2-0.1,0.4-0.2,0.6-0.3c0.2-0.1,0.4-0.1,0.5-0.1c0.6-0.1,0.9,0.2,0.9,0.9
				C21.2,46.8,21.2,47.2,21,47.7z M9.2,54.9c-0.2-0.1-0.5-0.3-0.9-0.5c-0.3-0.2-0.7-0.3-1.2-0.5c-0.4-0.1-0.9-0.2-1.4-0.3
				c-0.5-0.1-1,0-1.5,0.1c-0.4,0.1-0.7,0.2-1,0.3c-0.3,0.1-0.5,0.3-0.8,0.4s-0.4,0.3-0.5,0.5C2,55.3,2,55.5,2,55.7
				c0.3,0,0.7,0,1.1,0c0.4,0,0.8-0.1,1.2-0.1c0.1,0,0.3,0,0.5-0.1c0.2,0,0.5-0.1,0.7-0.1c0.3,0,0.5-0.1,0.8-0.1
				c0.3,0,0.6-0.1,0.8-0.1c0.3,0,0.5-0.1,0.7-0.1c0.2,0,0.3,0,0.4-0.1L9.2,54.9z M17.8,53.8c0.5-1,1-2.1,1.4-3.1
				c0.4-1,0.8-2,1.1-2.9c0.1-0.5,0.2-0.8,0.3-1.1c0.1-0.3,0-0.4,0-0.5c-0.1-0.1-0.2-0.1-0.4,0c-0.2,0.1-0.4,0.2-0.7,0.4
				c-0.4,0.2-0.8,0.6-1.3,0.9c-0.5,0.4-1,0.8-1.5,1.3c-0.5,0.5-1.1,1-1.6,1.5c-0.6,0.5-1.1,1-1.6,1.6c-0.5,0.5-1.1,1.1-1.6,1.6
				c-0.5,0.5-0.9,1-1.3,1.4c1.1-0.1,2.1-0.3,3.2-0.4c1-0.1,2.1-0.3,3.2-0.5L17.8,53.8z M10.6,55.3c0.1,0.1,0.3,0.2,0.5,0.4
				c0.2,0.2,0.4,0.4,0.7,0.7c0.2,0.3,0.5,0.6,0.7,1c0.2,0.4,0.5,0.7,0.7,1.2c0.2,0.4,0.4,0.9,0.5,1.3c0.2,0.5,0.3,0.9,0.3,1.4
				c0.6-1.1,1.1-2.2,1.7-3.3c0.6-1.1,1.2-2.3,1.8-3.6l-1.4,0.2c-0.4,0.1-0.9,0.1-1.3,0.2c-0.4,0.1-1,0.1-1.5,0.2L10.6,55.3z"/>
			<path class="st0" d="M20,58.4c0.3-0.6,0.7-1.4,1.1-2.2c0.5-0.9,0.9-1.8,1.4-2.9c-0.1-0.1,0-0.2,0.1-0.3c0.1,0,0.1,0,0.2,0
				c0.1,0,0.1,0,0.2,0.1c0.1,0,0.1,0.1,0.1,0.1c0,0.1,0,0.1,0,0.2c0,0.2-0.1,0.3-0.2,0.6c-0.1,0.2-0.2,0.5-0.4,0.8
				c0.1-0.2,0.3-0.3,0.5-0.5c0.2-0.2,0.4-0.3,0.6-0.5c0.2-0.2,0.4-0.3,0.6-0.4c0.2-0.1,0.4-0.2,0.5-0.3c0.1,0,0.2-0.1,0.3-0.1
				c0.1,0,0.2,0,0.3,0c0.1,0,0.2,0.1,0.3,0.1c0.1,0.1,0.1,0.1,0.1,0.2c0,0,0,0.1,0,0.3c0,0.2,0,0.4,0,0.5c0,0.2,0.1,0.4,0.1,0.5
				c0,0.1,0.1,0.2,0.2,0.2c0.1,0,0.3-0.1,0.5-0.2c0.2-0.1,0.4-0.2,0.7-0.3c0.2-0.1,0.5-0.3,0.7-0.4c0.2-0.1,0.4-0.3,0.6-0.4
				c0,0,0,0,0.1,0c0,0,0.1,0,0.1,0.1c0,0.1-0.1,0.3-0.3,0.5c-0.2,0.2-0.4,0.4-0.7,0.6c-0.3,0.2-0.5,0.3-0.8,0.5
				c-0.3,0.1-0.5,0.2-0.6,0.2c-0.3,0-0.5,0-0.7-0.1c-0.2-0.1-0.3-0.2-0.4-0.4c-0.1-0.2-0.2-0.4-0.2-0.6c0-0.2-0.1-0.5-0.1-0.7
				c-0.6,0.4-1.1,0.8-1.5,1.2c-0.4,0.4-0.8,0.8-1.2,1.3s-0.7,0.9-1,1.3c-0.3,0.5-0.6,0.9-0.8,1.4c0,0.1-0.1,0.2-0.2,0.2
				c-0.1,0-0.2,0-0.2-0.1c-0.1,0-0.1-0.1-0.2-0.2S20,58.5,20,58.4z"/>
			<path class="st0" d="M30.3,55.7c0-0.1,0-0.3,0-0.4c0-0.2,0.1-0.3,0.1-0.4c-0.2,0.2-0.3,0.4-0.5,0.6s-0.4,0.4-0.6,0.6
				c-0.2,0.2-0.4,0.4-0.6,0.6c-0.2,0.2-0.4,0.3-0.5,0.4c-0.1,0.1-0.2,0.1-0.3,0.1c-0.1,0-0.2,0-0.3-0.1c-0.1-0.1-0.2-0.1-0.3-0.2
				C27,56.7,27,56.6,27,56.5c0-0.2,0.1-0.5,0.2-0.8c0.1-0.3,0.3-0.6,0.4-0.9c0.2-0.3,0.4-0.6,0.6-0.9c0.2-0.3,0.5-0.5,0.7-0.8
				c0.3-0.2,0.5-0.4,0.8-0.6c0.3-0.1,0.5-0.2,0.8-0.2c0.3,0,0.6,0.1,0.8,0.4c0,0,0,0.1,0.1,0.1c0,0,0,0.1,0.1,0.1
				c0,0,0.1-0.1,0.1-0.1c0,0,0.1-0.1,0.1-0.1c0.1-0.1,0.2-0.1,0.2-0.1c0.1,0,0.1,0,0.2,0.1c0.1,0.1,0.1,0.1,0.2,0.2
				c0,0.1,0,0.1,0,0.2c-0.3,0.4-0.6,0.8-0.9,1.3c-0.3,0.5-0.4,1-0.5,1.5c0,0.1,0,0.2,0,0.2c0,0.1,0,0.1,0,0.1c0,0.1,0.2,0.1,0.4,0
				c0.2-0.1,0.5-0.3,0.8-0.5c0.3-0.2,0.6-0.5,1-0.8c0.3-0.3,0.7-0.6,1-0.9c0.3-0.3,0.6-0.6,0.9-0.8c0.3-0.2,0.4-0.4,0.6-0.5
				c0,0,0.1-0.1,0.1-0.1c0,0,0.1,0,0.1,0c0,0,0,0.2-0.1,0.4c-0.1,0.2-0.3,0.5-0.6,0.8c-0.3,0.3-0.6,0.6-0.9,1c-0.3,0.4-0.7,0.7-1,1
				c-0.4,0.3-0.7,0.6-1,0.8c-0.3,0.2-0.6,0.3-0.8,0.3c-0.1,0-0.3,0-0.4-0.1c-0.1-0.1-0.2-0.1-0.3-0.2s-0.2-0.2-0.2-0.3
				C30.3,55.9,30.3,55.8,30.3,55.7z M27.7,56.5c0.2-0.1,0.3-0.3,0.5-0.4c0.2-0.2,0.4-0.3,0.6-0.6c0.2-0.2,0.5-0.5,0.8-0.8
				c0.3-0.3,0.7-0.7,1.1-1.1c0.1-0.1,0.2-0.3,0.2-0.4c0-0.1,0-0.2-0.1-0.2c-0.1-0.1-0.2-0.1-0.3-0.1c-0.2,0-0.4,0.1-0.7,0.3
				c-0.3,0.2-0.5,0.4-0.8,0.7c-0.1,0.2-0.3,0.4-0.4,0.6c-0.1,0.2-0.3,0.4-0.4,0.7c-0.1,0.2-0.2,0.5-0.3,0.7
				C27.8,56.1,27.7,56.3,27.7,56.5z"/>
			<path class="st0" d="M40.4,52.2c0.1,0,0.2,0,0.2-0.1c0.1,0,0.2,0,0.2,0c0,0,0.1,0,0,0.1s-0.1,0.1-0.2,0.1
				c-0.2,0.1-0.5,0.3-0.9,0.5c-0.4,0.2-0.7,0.5-1.2,0.7c-0.4,0.3-0.8,0.5-1.3,0.8c-0.5,0.3-0.9,0.6-1.3,0.9c0.1,0.2,0.3,0.3,0.4,0.5
				c0.1,0.2,0.2,0.3,0.3,0.5c0.1,0.2,0.1,0.5-0.1,0.8c-0.1,0.3-0.3,0.5-0.6,0.7c-0.3,0.2-0.6,0.4-1,0.6c-0.4,0.2-0.8,0.3-1.1,0.4
				c-0.1,0.1-0.1,0.3-0.2,0.4c0.1,0.1,0.1,0.1,0.2,0.2c0,0.1,0.1,0.1,0.1,0.1c0,0.1,0,0.2,0,0.3c0,0.1-0.1,0.2-0.2,0.3
				c-0.1,0.1-0.2,0.1-0.3,0.2c-0.1,0-0.2,0.1-0.3,0.1c-0.1,0-0.3,0-0.4,0c-0.1,0-0.3,0-0.4-0.1c-0.1-0.1-0.2-0.1-0.2-0.2
				c0-0.1,0-0.1,0-0.2c0-0.1,0.1-0.1,0.2-0.2c0.1,0,0.2,0,0.3,0c0.2,0.1,0.3,0.1,0.4,0.1c0.1,0,0.2,0,0.2,0c0,0,0.1-0.1,0-0.1
				c0,0-0.1-0.1-0.1-0.1c0,0-0.1-0.1-0.1-0.1c0,0-0.1-0.1-0.1-0.1c0-0.1,0-0.1,0-0.2c0-0.1,0.1-0.2,0.1-0.2l-0.2,0
				c-0.3,0-0.5-0.1-0.6-0.2c-0.1-0.1-0.2-0.3-0.2-0.5c0-0.2,0.1-0.4,0.2-0.6c0.2-0.3,0.6-0.7,1.1-1.1c0.5-0.4,1.1-0.8,1.7-1.3
				c-0.2-0.2-0.3-0.4-0.4-0.6c-0.1-0.2-0.2-0.5-0.1-0.8c0-0.2,0.1-0.4,0.2-0.6c0.1-0.2,0.2-0.4,0.4-0.6c0.2-0.2,0.3-0.4,0.5-0.6
				c0.2-0.2,0.4-0.4,0.6-0.5c0.2-0.2,0.4-0.3,0.5-0.4c0.2-0.1,0.3-0.2,0.4-0.2c0,0,0.1,0,0.1,0.1c0,0,0.1,0.1,0.1,0.2
				c0,0.1,0,0.1,0.1,0.2c0,0.1,0,0.1,0,0.1c-0.1,0.1-0.3,0.3-0.6,0.4c-0.2,0.2-0.5,0.4-0.7,0.6c-0.2,0.2-0.4,0.5-0.6,0.7
				c-0.2,0.2-0.3,0.4-0.3,0.6c0,0.2,0,0.4,0.1,0.5c0.1,0.2,0.2,0.3,0.3,0.5c0.5-0.3,0.9-0.6,1.4-0.9c0.5-0.3,0.9-0.5,1.3-0.8
				s0.8-0.4,1.2-0.6C39.9,52.4,40.2,52.3,40.4,52.2z M36,56.4c0-0.1-0.1-0.3-0.2-0.4c-0.1-0.1-0.2-0.2-0.2-0.4
				c-0.4,0.3-0.8,0.6-1.2,0.8c-0.4,0.3-0.7,0.5-0.9,0.8c-0.3,0.2-0.5,0.4-0.6,0.6c-0.2,0.2-0.2,0.3-0.2,0.4c0,0.1,0,0.1,0.1,0.1
				c0.1,0,0.2,0,0.3,0c0.2,0,0.3-0.1,0.6-0.1c0.2-0.1,0.4-0.2,0.7-0.3c0.2-0.1,0.5-0.2,0.7-0.4c0.2-0.1,0.4-0.3,0.6-0.4
				c0.2-0.1,0.3-0.3,0.4-0.4C36,56.7,36,56.6,36,56.4z"/>
			<path class="st0" d="M46.6,46.6c0.2,0,0.5-0.1,0.8-0.1c0.3-0.1,0.6-0.1,0.9-0.1c0.3,0,0.6-0.1,0.9-0.1c0.3,0,0.5,0,0.7,0
				c0.1,0,0.2,0.1,0.2,0.2c0.1,0.1,0.1,0.1,0,0.2c0,0.1,0,0.1-0.1,0.1c0,0-0.1,0.1-0.2,0.1c-0.1,0-0.1,0-0.2,0c-0.1,0-0.1,0-0.2,0
				c0,0-0.1,0,0-0.1c0,0,0-0.1,0-0.1c-0.5,0-1,0.1-1.4,0.1c-0.5,0.1-1,0.2-1.5,0.3c-0.5,0.1-1,0.2-1.5,0.3c-0.5,0.1-1,0.2-1.5,0.3
				c-0.3,0.4-0.5,0.9-0.8,1.5c-0.3,0.5-0.6,1.1-0.9,1.7c-0.3,0.6-0.6,1.2-0.9,1.7c-0.3,0.6-0.5,1.1-0.8,1.5c-0.4,0.7-0.7,1.4-1,2.1
				c-0.3,0.7-0.6,1.3-0.8,1.9c-0.1,0.2-0.2,0.5-0.3,0.7c-0.1,0.2-0.2,0.5-0.2,0.7L37.7,60c0,0,0,0,0,0c0,0,0,0,0,0
				c0,0.1,0,0.1,0,0.2c0,0.1-0.1,0.1-0.2,0.1c-0.1,0-0.2,0-0.2-0.1c0-0.1-0.1-0.2-0.1-0.3c0-0.2,0-0.4,0.1-0.7
				c0.1-0.3,0.2-0.6,0.3-0.8c0.1-0.3,0.2-0.5,0.3-0.8c0.1-0.2,0.1-0.4,0.2-0.5c0.1-0.3,0.2-0.5,0.3-0.8c0.1-0.2,0.2-0.5,0.3-0.7
				c0.1-0.2,0.2-0.5,0.4-0.8c0.1-0.3,0.3-0.6,0.5-1c0.2-0.4,0.5-0.9,0.7-1.4c0.3-0.5,0.5-1,0.8-1.6c0.3-0.5,0.6-1.1,0.9-1.6
				c0.3-0.5,0.6-1,0.8-1.4c-0.6,0.1-1.2,0.3-1.8,0.4c-0.6,0.1-1.1,0.3-1.6,0.4c-0.1,0-0.1,0-0.1-0.1c0-0.1,0-0.1,0-0.2
				c0-0.1,0-0.2,0.1-0.2c0-0.1,0.1-0.1,0.2-0.1c0.6-0.2,1.1-0.3,1.7-0.5c0.6-0.2,1.2-0.3,2-0.5c0.2-0.2,0.3-0.5,0.5-0.8
				c0.2-0.3,0.3-0.5,0.5-0.8c0.2-0.3,0.3-0.5,0.4-0.7c0.1-0.2,0.3-0.4,0.4-0.5c0.1-0.1,0.1-0.1,0.2-0.1s0.1,0.1,0.2,0.1
				c0.1,0.1,0.1,0.1,0.1,0.2c0,0.1,0,0.1,0,0.2c-0.1,0.1-0.2,0.3-0.3,0.5c-0.1,0.2-0.2,0.4-0.4,0.6c-0.1,0.2-0.2,0.4-0.4,0.6
				c-0.1,0.2-0.2,0.4-0.3,0.6c0.4-0.1,0.9-0.2,1.3-0.3C45.8,46.7,46.2,46.6,46.6,46.6z"/>
			<path class="st0" d="M42.6,54c0.1-0.3,0.2-0.5,0.3-0.8c0.1-0.3,0.3-0.6,0.4-0.9c0.2-0.3,0.3-0.6,0.5-0.9c0.2-0.3,0.4-0.6,0.6-0.9
				c0-0.1,0.1-0.2,0.2-0.2c0.1,0,0.2,0,0.3,0.1c0.1,0,0.1,0.1,0.1,0.2c0,0.1,0,0.1,0,0.2c0,0.1-0.1,0.2-0.2,0.4
				c-0.1,0.2-0.3,0.5-0.4,0.8c-0.2,0.3-0.3,0.6-0.5,0.9c-0.2,0.3-0.3,0.6-0.5,0.9c-0.1,0.3-0.2,0.5-0.3,0.7c-0.1,0.2-0.1,0.3,0,0.3
				c0.1,0,0.2,0,0.5-0.1c0.2-0.1,0.5-0.3,0.8-0.5c0.3-0.2,0.6-0.4,1-0.7c0.4-0.3,0.7-0.6,1.1-0.9c0.4-0.3,0.7-0.6,1.1-0.9
				c0.3-0.3,0.6-0.6,0.9-0.9c0,0,0.1-0.1,0.1-0.1c0,0,0.1,0,0.1,0c0,0,0.1,0,0.1,0.1c0,0.1,0,0.1-0.1,0.2c0,0.1-0.1,0.2-0.2,0.3
				c-0.1,0.1-0.1,0.2-0.2,0.3c-0.1,0.2-0.3,0.3-0.5,0.6c-0.2,0.2-0.5,0.5-0.8,0.8c-0.3,0.3-0.6,0.6-0.9,0.8c-0.3,0.3-0.7,0.5-1,0.8
				c-0.3,0.2-0.6,0.4-0.9,0.6c-0.3,0.2-0.5,0.3-0.7,0.3c-0.3,0-0.5,0-0.7-0.2c-0.2-0.2-0.3-0.4-0.3-0.7C42.6,54.3,42.6,54.1,42.6,54
				z"/>
			<path class="st0" d="M49,53.6c-0.2,0.2-0.5,0-0.5-0.2c-0.1-0.5,0.5-2,0.8-2.6c0.1-0.1,0.1-0.3,0.3-0.2c0.1,0,0.1,0.2,0.1,0.3
				c-0.1,0.4-0.4,1.3-0.6,1.6c-0.5,1.5,0.3,0.5,1-0.4C49.8,52.4,49.5,53.1,49,53.6z"/>
			<path class="st0" d="M47.6,54.8c0.3-0.6,0.7-1.4,1.1-2.2c0.5-0.9,0.9-1.8,1.4-2.9c-0.1-0.1,0-0.2,0.1-0.3c0.1,0,0.1,0,0.2,0
				c0.1,0,0.1,0,0.2,0.1c0.1,0,0.1,0.1,0.1,0.1c0,0.1,0,0.1,0,0.2c0,0.2-0.1,0.3-0.2,0.6c-0.1,0.2-0.2,0.5-0.4,0.8
				c0.1-0.2,0.3-0.3,0.5-0.5c0.2-0.2,0.4-0.3,0.6-0.5c0.2-0.2,0.4-0.3,0.6-0.4c0.2-0.1,0.4-0.2,0.5-0.3c0.1,0,0.2-0.1,0.3-0.1
				c0.1,0,0.2,0,0.3,0c0.1,0,0.2,0.1,0.3,0.1c0.1,0.1,0.1,0.1,0.1,0.2c0,0,0,0.1,0,0.3c0,0.2,0,0.4,0,0.5c0,0.2,0.1,0.4,0.1,0.5
				c0,0.1,0.1,0.2,0.2,0.2c0.1,0,0.3-0.1,0.5-0.2c0.2-0.1,0.4-0.2,0.7-0.3c0.2-0.1,0.5-0.3,0.7-0.4c0.2-0.1,0.4-0.3,0.6-0.4
				c0,0,0,0,0.1,0c0,0,0.1,0,0.1,0.1c0,0.1-0.1,0.3-0.3,0.5c-0.2,0.2-0.4,0.4-0.7,0.6c-0.3,0.2-0.5,0.3-0.8,0.5
				c-0.3,0.1-0.5,0.2-0.6,0.2c-0.3,0-0.5,0-0.7-0.1c-0.2-0.1-0.3-0.2-0.4-0.4c-0.1-0.2-0.2-0.4-0.2-0.6c0-0.2-0.1-0.5-0.1-0.7
				c-0.6,0.4-1.1,0.8-1.5,1.2c-0.4,0.4-0.8,0.8-1.2,1.3c-0.4,0.4-0.7,0.9-1,1.3c-0.3,0.5-0.6,0.9-0.8,1.4c0,0.1-0.1,0.2-0.2,0.2
				c-0.1,0-0.2,0-0.2-0.1c-0.1,0-0.1-0.1-0.2-0.2C47.5,55,47.5,54.9,47.6,54.8z"/>
			<path class="st0" d="M56.5,48.9c0-0.1,0-0.1,0.1-0.1c0.1,0,0.2,0,0.3,0c0.1,0,0.2,0.1,0.2,0.2c0.1,0.1,0.1,0.2,0.1,0.3
				c0,0.1,0,0.2-0.1,0.3c0,0.1-0.1,0.2-0.2,0.3c0.1-0.1,0.2-0.2,0.4-0.4c0.2-0.2,0.3-0.3,0.5-0.5c0.2-0.2,0.4-0.3,0.6-0.5
				c0.2-0.1,0.4-0.3,0.6-0.3c0.1-0.1,0.3-0.1,0.4-0.1c0.1,0,0.2,0,0.3,0.1c0.1,0.1,0.2,0.1,0.2,0.3c0.1,0.1,0.1,0.3,0.1,0.4
				c0,0.3,0,0.6-0.1,0.9c-0.1,0.3-0.1,0.6-0.2,1c0.2-0.2,0.4-0.4,0.7-0.6c0.3-0.2,0.5-0.4,0.8-0.6c0.2-0.2,0.5-0.3,0.7-0.5
				c0.2-0.1,0.4-0.2,0.5-0.3c0.1,0,0.1,0,0.2,0c0.1,0,0.1,0.1,0.2,0.1c0.1,0,0.1,0.1,0.1,0.2c0,0.1,0,0.1,0,0.2c0,0-0.1,0.1-0.1,0.3
				c0,0.2-0.1,0.3-0.1,0.6c0,0.2-0.1,0.4-0.1,0.7c0,0.2,0,0.5,0,0.7c0,0.1,0,0.3,0,0.4c0,0.1,0,0.1,0.1,0.2c0.1,0,0.2,0,0.4-0.1
				c0.2-0.1,0.4-0.2,0.6-0.4c0.2-0.2,0.5-0.4,0.7-0.6c0.3-0.2,0.5-0.5,0.8-0.7c0.3-0.2,0.5-0.5,0.7-0.7c0.2-0.2,0.4-0.4,0.5-0.5
				c0.1-0.1,0.1-0.1,0.2-0.1c0,0,0.1,0,0.1,0c0.1,0,0.1,0.1,0,0.2c-0.1,0.2-0.2,0.4-0.4,0.6c-0.2,0.2-0.4,0.5-0.7,0.8
				c-0.3,0.3-0.5,0.6-0.8,0.9c-0.3,0.3-0.6,0.5-0.8,0.7c-0.3,0.2-0.5,0.4-0.7,0.5c-0.2,0.1-0.3,0.1-0.5,0.1c-0.2,0-0.3,0-0.4-0.1
				c-0.1-0.1-0.2-0.2-0.3-0.3c-0.1-0.1-0.1-0.3-0.2-0.4c0-0.3,0-0.7,0-1c0.1-0.4,0.1-0.7,0.2-1.1c-0.2,0.2-0.5,0.4-0.8,0.6
				c-0.3,0.2-0.5,0.5-0.8,0.7c-0.2,0.2-0.5,0.5-0.6,0.7c-0.2,0.2-0.3,0.4-0.4,0.6c0,0.1-0.1,0.1-0.2,0.1c-0.1,0-0.2,0-0.3,0
				c-0.1,0-0.2-0.1-0.2-0.2c-0.1-0.1-0.1-0.2,0-0.3c0-0.2,0.1-0.4,0.2-0.7c0.1-0.3,0.1-0.6,0.2-1c0.1-0.3,0.1-0.6,0.2-0.9
				c0-0.3,0.1-0.5,0-0.6c-0.3,0.2-0.7,0.5-1.1,0.8c-0.4,0.4-0.8,0.8-1.2,1.3c-0.4,0.5-0.8,1-1.1,1.5c-0.4,0.5-0.7,1-1,1.5
				c0,0.1-0.1,0.1-0.2,0.1c-0.1,0-0.1,0-0.2-0.1c-0.1,0-0.1-0.1-0.2-0.2c0-0.1,0-0.1,0-0.2l0.1-0.2c0.2-0.3,0.4-0.6,0.5-1
				c0.2-0.3,0.4-0.7,0.5-1.1c0.2-0.4,0.4-0.7,0.5-1.1c0.2-0.4,0.3-0.7,0.4-1.1L56.5,48.9z"/>
			<path class="st0" d="M68.2,50.8c0-0.1,0-0.3,0-0.4c0-0.2,0.1-0.3,0.1-0.4c-0.2,0.2-0.3,0.4-0.5,0.6c-0.2,0.2-0.4,0.4-0.6,0.6
				c-0.2,0.2-0.4,0.4-0.6,0.6c-0.2,0.2-0.4,0.3-0.5,0.4c-0.1,0.1-0.2,0.1-0.3,0.1c-0.1,0-0.2,0-0.3-0.1c-0.1-0.1-0.2-0.1-0.3-0.2
				s-0.1-0.2-0.1-0.4c0-0.2,0.1-0.5,0.2-0.8c0.1-0.3,0.3-0.6,0.4-0.9c0.2-0.3,0.4-0.6,0.6-0.9c0.2-0.3,0.5-0.5,0.7-0.8
				c0.3-0.2,0.5-0.4,0.8-0.6c0.3-0.1,0.5-0.2,0.8-0.2c0.3,0,0.6,0.1,0.8,0.4c0,0,0,0.1,0.1,0.1c0,0,0,0.1,0.1,0.1
				c0,0,0.1-0.1,0.1-0.1c0,0,0.1-0.1,0.1-0.1c0.1-0.1,0.2-0.1,0.2-0.1c0.1,0,0.1,0,0.2,0.1c0.1,0.1,0.1,0.1,0.2,0.2
				c0,0.1,0,0.1,0,0.2c-0.3,0.4-0.6,0.8-0.9,1.3c-0.3,0.5-0.4,1-0.5,1.5c0,0.1,0,0.2,0,0.2c0,0.1,0,0.1,0,0.1c0,0.1,0.2,0.1,0.4,0
				c0.2-0.1,0.5-0.3,0.8-0.5s0.6-0.5,1-0.8c0.3-0.3,0.7-0.6,1-0.9c0.3-0.3,0.6-0.6,0.9-0.8c0.3-0.2,0.4-0.4,0.6-0.5
				c0,0,0.1-0.1,0.1-0.1c0,0,0.1,0,0.1,0c0,0,0,0.2-0.1,0.4c-0.1,0.2-0.3,0.5-0.6,0.8c-0.3,0.3-0.6,0.6-0.9,1c-0.3,0.4-0.7,0.7-1,1
				c-0.4,0.3-0.7,0.6-1,0.8c-0.3,0.2-0.6,0.3-0.8,0.3c-0.1,0-0.3,0-0.4-0.1c-0.1-0.1-0.2-0.1-0.3-0.2c-0.1-0.1-0.2-0.2-0.2-0.3
				C68.2,51,68.2,50.9,68.2,50.8z M65.7,51.6c0.2-0.1,0.3-0.3,0.5-0.4c0.2-0.2,0.4-0.3,0.6-0.6c0.2-0.2,0.5-0.5,0.8-0.8
				c0.3-0.3,0.7-0.7,1.1-1.1c0.1-0.1,0.2-0.3,0.2-0.4c0-0.1,0-0.2-0.1-0.2C68.7,48,68.6,48,68.5,48c-0.2,0-0.4,0.1-0.7,0.3
				c-0.3,0.2-0.5,0.4-0.8,0.7c-0.1,0.2-0.3,0.4-0.4,0.6c-0.1,0.2-0.3,0.4-0.4,0.7c-0.1,0.2-0.2,0.5-0.3,0.7
				C65.7,51.2,65.7,51.4,65.7,51.6z"/>
		</g>
		<g>
			<path class="st0" d="M48.7,75.2c-0.1,0-0.2-0.1-0.3-0.2c0-0.1-0.1-0.3-0.1-0.5c0-0.2,0-0.4,0-0.6c0-0.2,0.1-0.5,0.1-0.7
				c0-0.2,0.1-0.4,0.1-0.6c0-0.2,0.1-0.3,0.1-0.4c0.2-0.8,0.5-1.5,0.8-2.2c0.3-0.7,0.5-1.4,0.8-2.1c0.3-0.7,0.5-1.3,0.8-1.9
				c0.3-0.6,0.5-1.1,0.8-1.6c-0.4,0.4-0.8,0.9-1.2,1.5c-0.5,0.6-1,1.2-1.5,1.8c-0.5,0.6-1.1,1.3-1.7,1.9c-0.6,0.6-1.2,1.2-1.7,1.8
				c-0.6,0.5-1.1,1-1.6,1.4c-0.5,0.4-1,0.6-1.4,0.8c-0.2,0.1-0.5,0.1-0.7,0.1c-0.2,0-0.4-0.1-0.6-0.2c-0.2-0.1-0.3-0.3-0.4-0.5
				c-0.1-0.2-0.1-0.4-0.1-0.7c0-0.4,0.1-1,0.3-1.6c0.2-0.6,0.4-1.2,0.7-1.9c0.3-0.6,0.6-1.2,0.9-1.8c0.3-0.6,0.6-1.1,0.8-1.5l0,0
				c0.2-0.4,0.5-0.9,0.8-1.4c0.3-0.5,0.6-1,1-1.5c0.3-0.5,0.7-1,1-1.5c0.3-0.5,0.7-1,1-1.4c0.3-0.4,0.6-0.8,0.9-1.1
				c0.3-0.3,0.5-0.6,0.7-0.8c0,0,0.1,0,0.2,0c0.1,0,0.1,0,0.2,0.1c0.1,0.1,0.1,0.1,0.1,0.2c0,0.1,0,0.1,0,0.1l0,0.1
				c0,0.1-0.1,0.2-0.2,0.3c-0.1,0.1-0.2,0.1-0.2,0.1l-0.2,0.3c-0.3,0.4-0.7,0.9-1.1,1.5c-0.4,0.6-0.8,1.2-1.2,1.8
				c-0.4,0.6-0.8,1.3-1.2,2c-0.4,0.7-0.7,1.3-1,1.8c-0.2,0.4-0.4,0.8-0.6,1.2c-0.2,0.5-0.4,0.9-0.6,1.4c-0.2,0.5-0.4,0.9-0.6,1.3
				c-0.2,0.4-0.3,0.8-0.4,1.1c0,0.1-0.1,0.2-0.1,0.3c0,0.1-0.1,0.3-0.1,0.4c0,0.1-0.1,0.3-0.1,0.4c0,0.1,0,0.3,0,0.4
				c0,0.1,0,0.2,0,0.3c0,0.1,0.1,0.2,0.1,0.2c0.1,0,0.2,0.1,0.4,0c0.2,0,0.4-0.1,0.6-0.2c0.2-0.1,0.4-0.3,0.7-0.4
				c0.2-0.2,0.4-0.3,0.6-0.5c0.2-0.2,0.3-0.3,0.5-0.4c0.3-0.3,0.7-0.6,1-1c0.4-0.4,0.7-0.8,1.1-1.2c0.4-0.4,0.8-0.9,1.2-1.3
				c0.4-0.4,0.8-0.9,1.2-1.4c0.5-0.5,0.9-1.1,1.4-1.6c0.4-0.5,0.9-1.1,1.3-1.6c0.4-0.5,0.8-1,1.2-1.4c0.4-0.5,0.7-0.9,1-1.3
				c0.2-0.3,0.4-0.6,0.6-1c0.2-0.3,0.5-0.7,0.7-1c0.2-0.3,0.5-0.6,0.7-0.9c0.2-0.3,0.4-0.5,0.5-0.6c0.1-0.1,0.1-0.1,0.2-0.1
				c0.1,0,0.1,0.1,0.2,0.2c0.1,0.1,0.1,0.2,0.1,0.3c0,0.1,0,0.2,0,0.3c0,0.1-0.1,0.2-0.3,0.5c-0.2,0.2-0.4,0.5-0.6,0.8
				c-0.2,0.3-0.5,0.7-0.7,1c-0.3,0.4-0.5,0.7-0.8,1C54.1,62.1,53.5,63,53,64c-0.5,0.9-1,1.9-1.5,2.9c-0.5,1-0.9,2-1.3,3
				c-0.4,1-0.8,2-1.1,3c-0.1,0.2-0.1,0.3-0.1,0.5c0,0.1-0.1,0.2-0.1,0.4c0,0.1,0,0.2-0.1,0.4s0,0.3-0.1,0.5c0.1,0,0.2,0,0.2,0.1
				c0,0.1,0.1,0.1,0.1,0.2c0,0.1,0,0.2-0.1,0.3C48.9,75.1,48.8,75.2,48.7,75.2z M51.4,56.6c0-0.1,0.1-0.2,0.2-0.3
				c0.1-0.1,0.2-0.2,0.4-0.3c0.1,0,0.1,0,0.2,0c0.1,0,0.1,0.1,0.2,0.1c0,0.1,0.1,0.1,0.1,0.2c0,0.1,0,0.2-0.1,0.2
				c0,0-0.1,0.1-0.2,0.2c-0.1,0.1-0.1,0.1-0.2,0.1c-0.1,0-0.1,0.1-0.2,0.1c-0.1,0-0.1,0-0.2,0c-0.1,0-0.1-0.1-0.1-0.1
				C51.4,56.7,51.4,56.7,51.4,56.6z M53.1,56.1c0.1-0.1,0.1-0.1,0.2-0.2c0.1-0.1,0.1-0.1,0.2-0.1c0.1,0,0.2,0,0.3,0
				c0.1,0,0.2,0.1,0.2,0.3c0,0,0,0.1,0,0.1c0,0.1,0,0.1,0,0.2s-0.1,0.1-0.1,0.2c-0.1,0.1-0.2,0.1-0.3,0.1c-0.1,0-0.2,0.1-0.3,0.1
				c-0.1,0-0.2,0-0.2-0.1c-0.1-0.1-0.1-0.2,0-0.3S53,56.1,53.1,56.1z"/>
			<path class="st0" d="M53.9,69.7c0,0.1-0.1,0.2-0.2,0.2c-0.1,0-0.2,0-0.2,0c-0.1,0-0.1-0.1-0.2-0.2c0-0.1,0-0.2,0-0.3
				c0.1-0.3,0.2-0.5,0.4-0.8c0.1-0.3,0.3-0.6,0.5-1c0.2-0.4,0.4-0.8,0.6-1.3c0.2-0.5,0.5-1,0.8-1.7c0,0,0.1-0.1,0.1-0.1
				c0.1,0,0.1,0,0.2,0.1c0.1,0,0.1,0.1,0.2,0.1c0,0.1,0.1,0.1,0,0.2c-0.1,0.3-0.3,0.5-0.3,0.7c-0.1,0.2-0.2,0.4-0.3,0.7l-0.2,0.4
				c0.2-0.2,0.4-0.4,0.6-0.6c0.2-0.2,0.4-0.4,0.7-0.6c0.2-0.2,0.4-0.3,0.7-0.4c0.2-0.1,0.4-0.2,0.6-0.1c0.2,0,0.4,0.1,0.6,0.2
				c0.2,0.1,0.3,0.3,0.3,0.5c0,0.1,0,0.3,0,0.5c0,0.2-0.1,0.4-0.1,0.6c0,0.2-0.1,0.4-0.1,0.6c0,0.2,0,0.3,0,0.3c0.1,0,0.2,0,0.4-0.1
				c0.2-0.1,0.4-0.2,0.7-0.4c0.3-0.2,0.6-0.4,0.9-0.6c0.3-0.2,0.6-0.5,0.9-0.8c0.3-0.3,0.6-0.6,0.8-0.9c0-0.1,0.1-0.1,0.2-0.2
				c0.1,0,0.1,0,0.2,0c0,0.1,0,0.3-0.2,0.5c-0.1,0.2-0.3,0.4-0.5,0.7c-0.2,0.3-0.5,0.5-0.7,0.8c-0.3,0.3-0.6,0.5-0.8,0.7
				c-0.3,0.2-0.6,0.4-0.8,0.6c-0.3,0.2-0.5,0.2-0.7,0.3c-0.3,0-0.5,0-0.7-0.2c-0.2-0.2-0.3-0.4-0.3-0.7c0-0.2,0-0.4,0-0.6
				c0-0.2,0.1-0.4,0.1-0.6c0-0.2,0.1-0.4,0.1-0.5c0-0.1,0-0.2-0.1-0.2c-0.1,0-0.2,0-0.4,0.1c-0.2,0.1-0.4,0.3-0.7,0.5
				c-0.2,0.2-0.5,0.5-0.8,0.8c-0.3,0.3-0.5,0.6-0.8,0.9c-0.3,0.3-0.5,0.6-0.7,0.9C54.2,69.2,54,69.5,53.9,69.7z"/>
			<path class="st0" d="M61.1,67.3c0.1-0.3,0.2-0.5,0.3-0.8c0.1-0.3,0.3-0.6,0.4-0.9c0.2-0.3,0.3-0.6,0.5-0.9
				c0.2-0.3,0.4-0.6,0.6-0.9c0-0.1,0.1-0.2,0.2-0.2c0.1,0,0.2,0,0.3,0.1c0.1,0,0.1,0.1,0.1,0.2c0,0.1,0,0.1,0,0.2
				c0,0.1-0.1,0.2-0.2,0.4c-0.1,0.2-0.3,0.5-0.4,0.8c-0.2,0.3-0.3,0.6-0.5,0.9c-0.2,0.3-0.3,0.6-0.5,0.9c-0.1,0.3-0.2,0.5-0.3,0.7
				c-0.1,0.2-0.1,0.3,0,0.3c0.1,0,0.2,0,0.5-0.1c0.2-0.1,0.5-0.3,0.8-0.5c0.3-0.2,0.6-0.4,1-0.7c0.4-0.3,0.7-0.6,1.1-0.9
				c0.4-0.3,0.7-0.6,1.1-0.9c0.3-0.3,0.6-0.6,0.9-0.9c0,0,0.1-0.1,0.1-0.1c0,0,0.1,0,0.1,0c0,0,0.1,0,0.1,0.1c0,0.1,0,0.1-0.1,0.2
				c0,0.1-0.1,0.2-0.2,0.3s-0.1,0.2-0.2,0.3c-0.1,0.2-0.3,0.3-0.5,0.6c-0.2,0.2-0.5,0.5-0.8,0.8c-0.3,0.3-0.6,0.6-0.9,0.8
				c-0.3,0.3-0.7,0.5-1,0.8c-0.3,0.2-0.6,0.4-0.9,0.6c-0.3,0.2-0.5,0.3-0.7,0.3c-0.3,0-0.5,0-0.7-0.2c-0.2-0.2-0.3-0.4-0.3-0.7
				C61.1,67.6,61.1,67.4,61.1,67.3z M64.1,62.4c-0.1-0.1-0.2-0.2-0.2-0.2c0,0,0-0.1,0-0.1c0.1-0.1,0.2-0.2,0.3-0.4
				c0.1-0.2,0.2-0.3,0.3-0.5c0-0.1,0.1-0.2,0.1-0.2c0.1,0,0.1-0.1,0.2-0.1c0.1,0,0.2,0,0.3,0.1c0.1,0.1,0.1,0.2,0.1,0.3
				c0,0.1-0.1,0.2-0.1,0.3c-0.1,0.1-0.2,0.3-0.3,0.4c-0.1,0.1-0.2,0.2-0.3,0.3C64.4,62.4,64.3,62.4,64.1,62.4L64.1,62.4z"/>
			<path class="st0" d="M66.5,68.2c-0.1,0-0.2-0.1-0.3-0.2c-0.1-0.1-0.1-0.2-0.2-0.3c-0.1-0.1-0.1-0.2-0.1-0.3
				c0-0.1-0.1-0.2-0.1-0.3c0-0.3,0-0.6,0.1-0.9c0.1-0.3,0.2-0.7,0.3-1c0.1-0.3,0.3-0.7,0.5-1c0.2-0.3,0.4-0.6,0.7-0.9l0,0
				c0.1-0.1,0.1-0.1,0.2-0.1c0.1,0,0.2,0,0.3,0.1c0.1,0,0.1,0.1,0.2,0.2c0,0.1,0,0.1-0.1,0.2c-0.1,0.1-0.2,0.3-0.4,0.4
				c-0.1,0.2-0.2,0.4-0.4,0.6c-0.1,0.2-0.2,0.4-0.3,0.6c-0.1,0.2-0.2,0.5-0.2,0.7c0,0.1-0.1,0.3-0.1,0.4c0,0.2-0.1,0.3-0.1,0.5
				c0,0.2,0,0.3,0,0.4c0,0.1,0,0.2,0.1,0.2c0.1,0,0.2,0,0.4-0.1c0.2-0.1,0.4-0.3,0.6-0.5c0.2-0.2,0.4-0.5,0.7-0.7
				c0.2-0.3,0.5-0.6,0.7-0.9c0.2-0.3,0.4-0.6,0.6-0.9c0.2-0.3,0.4-0.5,0.5-0.8v-0.2c0-0.1,0.1-0.2,0.2-0.4c0,0,0.1-0.1,0.2-0.1
				c0.1,0,0.1,0,0.2,0c0.1,0,0.1,0.1,0.2,0.1c0,0,0.1,0.1,0,0.2l-0.1,0.2c0.1,0.1,0.2,0.1,0.4,0.1c0.1,0,0.3,0,0.5,0
				c0.2,0,0.4-0.1,0.6-0.1c0.2,0,0.4-0.1,0.6-0.1c0.2,0,0.4-0.1,0.5-0.2c0.2-0.1,0.3-0.1,0.4-0.1c0.1,0,0.1,0,0.2,0
				c0.1,0,0.1,0,0.2,0.1c0,0.1,0,0.2-0.2,0.3c-0.2,0.1-0.4,0.2-0.6,0.3c-0.3,0.1-0.6,0.2-0.9,0.3c-0.3,0.1-0.7,0.2-1,0.2
				c-0.2,0-0.4,0-0.6,0c-0.2,0-0.3,0-0.5,0c-0.1,0.1-0.2,0.4-0.4,0.6c-0.2,0.3-0.3,0.6-0.6,0.9c-0.2,0.3-0.5,0.6-0.7,0.9
				c-0.3,0.3-0.5,0.6-0.8,0.8c-0.3,0.2-0.5,0.4-0.8,0.5C66.9,68.3,66.7,68.3,66.5,68.2z"/>
			<path class="st0" d="M76.1,62.9c0,0.2,0,0.5-0.2,0.8c-0.2,0.3-0.4,0.6-0.7,0.8c-0.3,0.3-0.6,0.5-1,0.6c-0.4,0.2-0.8,0.3-1.2,0.3
				c0,0.1-0.1,0.3-0.1,0.4c0,0.1,0,0.2,0,0.3c0,0.2,0,0.3,0.1,0.4c0.1,0.1,0.2,0.1,0.4,0.1c0.3,0,0.7-0.2,1.3-0.5
				c0.6-0.3,1.2-0.7,1.8-1.2c0.3-0.2,0.5-0.4,0.8-0.6c0.2-0.2,0.5-0.4,0.7-0.6c0.2-0.2,0.4-0.4,0.7-0.6c0.2-0.2,0.5-0.4,0.7-0.7
				c0,0,0.1-0.1,0.1-0.1c0-0.1,0.1-0.1,0.1,0c0,0.1-0.1,0.3-0.3,0.6c-0.2,0.3-0.5,0.6-0.8,0.9c-0.3,0.4-0.7,0.7-1.1,1.1
				c-0.4,0.4-0.9,0.7-1.3,1c-0.4,0.3-0.9,0.6-1.3,0.8c-0.4,0.2-0.8,0.4-1.2,0.4c-0.2,0-0.3,0-0.5,0c-0.2,0-0.3-0.1-0.4-0.2
				c-0.1-0.1-0.2-0.2-0.3-0.4c-0.1-0.2-0.1-0.3-0.1-0.5c0-0.4,0.1-0.7,0.2-1.1c0.2-0.4,0.4-0.8,0.6-1.1c0.3-0.4,0.5-0.7,0.8-0.9
				c0.3-0.3,0.6-0.5,0.9-0.6c0.1,0,0.2-0.1,0.4-0.1c0.1,0,0.3,0,0.4,0.1c0.1,0,0.2,0.1,0.3,0.2C76,62.6,76.1,62.7,76.1,62.9z
				 M73.6,64.2c-0.1,0.1-0.1,0.2-0.2,0.3c-0.1,0.1-0.1,0.2-0.1,0.3c0.3,0,0.6-0.2,0.9-0.4c0.3-0.2,0.5-0.4,0.7-0.7
				c0.2-0.2,0.4-0.5,0.4-0.7c0.1-0.2,0.1-0.4,0-0.4c-0.1,0-0.2,0-0.4,0.1c-0.2,0.1-0.3,0.2-0.5,0.4c-0.2,0.2-0.3,0.3-0.5,0.5
				C73.9,63.9,73.7,64.1,73.6,64.2z"/>
			<path class="st0" d="M77,66.7c0.3-0.6,0.7-1.4,1.1-2.2c0.5-0.9,0.9-1.8,1.4-2.9c-0.1-0.1,0-0.2,0.1-0.3c0.1,0,0.1,0,0.2,0
				c0.1,0,0.1,0,0.2,0.1c0.1,0,0.1,0.1,0.1,0.1c0,0.1,0,0.1,0,0.2c0,0.2-0.1,0.3-0.2,0.6c-0.1,0.2-0.2,0.5-0.4,0.8
				c0.1-0.2,0.3-0.3,0.5-0.5c0.2-0.2,0.4-0.3,0.6-0.5c0.2-0.2,0.4-0.3,0.6-0.4c0.2-0.1,0.4-0.2,0.5-0.3c0.1,0,0.2-0.1,0.3-0.1
				c0.1,0,0.2,0,0.3,0c0.1,0,0.2,0.1,0.3,0.1c0.1,0.1,0.1,0.1,0.1,0.2c0,0,0,0.1,0,0.3c0,0.2,0,0.4,0,0.5c0,0.2,0.1,0.4,0.1,0.5
				c0,0.1,0.1,0.2,0.2,0.2c0.1,0,0.3-0.1,0.5-0.2c0.2-0.1,0.4-0.2,0.7-0.3c0.2-0.1,0.5-0.3,0.7-0.4c0.2-0.1,0.4-0.3,0.6-0.4
				c0,0,0,0,0.1,0c0,0,0.1,0,0.1,0.1c0,0.1-0.1,0.3-0.3,0.5c-0.2,0.2-0.4,0.4-0.7,0.6c-0.3,0.2-0.5,0.3-0.8,0.5
				c-0.3,0.1-0.5,0.2-0.6,0.2c-0.3,0-0.5,0-0.7-0.1c-0.2-0.1-0.3-0.2-0.4-0.4c-0.1-0.2-0.2-0.4-0.2-0.6c0-0.2-0.1-0.5-0.1-0.7
				c-0.6,0.4-1.1,0.8-1.5,1.2c-0.4,0.4-0.8,0.8-1.2,1.3c-0.4,0.4-0.7,0.9-1,1.3c-0.3,0.5-0.6,0.9-0.8,1.4c0,0.1-0.1,0.2-0.2,0.2
				c-0.1,0-0.2,0-0.2-0.1c-0.1,0-0.1-0.1-0.2-0.2C77,66.8,77,66.8,77,66.7z"/>
			<path class="st0" d="M90.6,61.4c0.1,0,0.2,0,0.2-0.1c0.1,0,0.2,0,0.2,0c0,0,0.1,0,0,0.1c0,0-0.1,0.1-0.2,0.1
				c-0.2,0.1-0.5,0.3-0.9,0.5c-0.4,0.2-0.7,0.5-1.2,0.7c-0.4,0.3-0.8,0.5-1.3,0.8s-0.9,0.6-1.3,0.9c0.1,0.2,0.3,0.3,0.4,0.5
				c0.1,0.2,0.2,0.3,0.3,0.5c0.1,0.3,0.1,0.5-0.1,0.8c-0.2,0.3-0.4,0.6-0.7,0.8c-0.3,0.2-0.7,0.5-1.1,0.6c-0.4,0.2-0.8,0.3-1.2,0.4
				c-0.2,0-0.4,0-0.5,0c-0.3,0-0.5-0.1-0.6-0.2c-0.1-0.1-0.2-0.3-0.2-0.5s0.1-0.4,0.2-0.6c0.2-0.3,0.6-0.7,1.1-1.1
				c0.5-0.4,1.1-0.8,1.7-1.3c-0.2-0.2-0.3-0.4-0.4-0.6c-0.1-0.2-0.2-0.5-0.1-0.8c0-0.2,0.1-0.4,0.2-0.6c0.1-0.2,0.2-0.4,0.4-0.6
				c0.2-0.2,0.3-0.4,0.5-0.6s0.4-0.4,0.6-0.5c0.2-0.2,0.4-0.3,0.5-0.4c0.2-0.1,0.3-0.2,0.4-0.2c0,0,0.1,0,0.1,0.1
				c0,0,0.1,0.1,0.1,0.2c0,0.1,0,0.1,0.1,0.2c0,0.1,0,0.1,0,0.1c-0.1,0.1-0.3,0.3-0.6,0.4c-0.2,0.2-0.5,0.4-0.7,0.6
				c-0.2,0.2-0.4,0.5-0.6,0.7c-0.2,0.2-0.3,0.4-0.3,0.6c0,0.2,0,0.4,0.1,0.5c0.1,0.2,0.2,0.3,0.3,0.5c0.5-0.3,0.9-0.6,1.4-0.9
				c0.5-0.3,0.9-0.5,1.3-0.8c0.4-0.2,0.8-0.4,1.2-0.6C90.1,61.6,90.4,61.5,90.6,61.4z M86.2,65.6c0-0.1-0.1-0.3-0.2-0.4
				c-0.1-0.1-0.2-0.2-0.2-0.4c-0.4,0.3-0.8,0.6-1.2,0.8s-0.7,0.5-0.9,0.8c-0.3,0.2-0.5,0.4-0.6,0.6c-0.2,0.2-0.2,0.3-0.2,0.4
				c0,0.1,0,0.1,0.1,0.1c0.1,0,0.2,0,0.3,0c0.2,0,0.3-0.1,0.6-0.1c0.2-0.1,0.4-0.2,0.7-0.3c0.2-0.1,0.5-0.2,0.7-0.4
				c0.2-0.1,0.4-0.3,0.6-0.4c0.2-0.1,0.3-0.3,0.4-0.4C86.2,65.9,86.2,65.8,86.2,65.6z"/>
			<path class="st0" d="M89.5,63.6c0.1-0.3,0.2-0.5,0.3-0.8c0.1-0.3,0.3-0.6,0.4-0.9c0.2-0.3,0.3-0.6,0.5-0.9
				c0.2-0.3,0.4-0.6,0.6-0.9c0-0.1,0.1-0.2,0.2-0.2c0.1,0,0.2,0,0.3,0.1c0.1,0,0.1,0.1,0.1,0.2c0,0.1,0,0.1,0,0.2
				c0,0.1-0.1,0.2-0.2,0.4c-0.1,0.2-0.3,0.5-0.4,0.8c-0.2,0.3-0.3,0.6-0.5,0.9c-0.2,0.3-0.3,0.6-0.5,0.9c-0.1,0.3-0.2,0.5-0.3,0.7
				c-0.1,0.2-0.1,0.3,0,0.3c0.1,0,0.2-0.1,0.5-0.3c0.3-0.2,0.6-0.5,1-0.9c0.4-0.4,0.8-0.8,1.3-1.4c0.5-0.5,1-1.1,1.6-1.6
				s1.1-1.2,1.6-1.8c0.5-0.6,1.1-1.2,1.6-1.8c-0.3,0.1-0.5,0.1-0.7,0.2c-0.2,0-0.3,0.1-0.5,0.1C96.4,57,96.2,57,96,57
				c-0.2,0-0.4,0.1-0.6,0.2c-0.1,0-0.1,0-0.1-0.1s0-0.1,0-0.2c0-0.1,0-0.2,0.1-0.2s0.1-0.1,0.2-0.1c0.3-0.1,0.5-0.2,0.7-0.2
				c0.2-0.1,0.4-0.1,0.6-0.1c0.2,0,0.4-0.1,0.6-0.1s0.5-0.1,0.9-0.2c0.2-0.2,0.3-0.5,0.5-0.8c0.2-0.3,0.3-0.5,0.5-0.8
				c0.2-0.3,0.3-0.5,0.4-0.7c0.1-0.2,0.3-0.4,0.4-0.5c0.1-0.1,0.1-0.1,0.2-0.1c0.1,0,0.1,0.1,0.2,0.1c0.1,0.1,0.1,0.1,0.1,0.2
				c0,0.1,0,0.1,0,0.2c-0.1,0.2-0.2,0.3-0.3,0.5c-0.1,0.2-0.2,0.4-0.3,0.6c-0.1,0.2-0.3,0.4-0.4,0.6c-0.1,0.2-0.2,0.4-0.4,0.5
				c0.1,0,0.3-0.1,0.6-0.1c0.2-0.1,0.5-0.1,0.8-0.2c0.3-0.1,0.6-0.1,1-0.2c0.4-0.1,0.7-0.1,1.1-0.2c0.4-0.1,0.8-0.1,1.2-0.1
				c0.4,0,0.7,0,1,0c0.1,0,0.2,0.1,0.2,0.1c0.1,0.1,0.1,0.2,0,0.2c0,0.1-0.1,0.1-0.1,0.1c-0.1,0-0.1,0-0.1,0c0,0-0.1,0-0.1-0.1
				c0,0,0-0.1,0-0.1c-0.2,0-0.5,0-0.7,0c-0.2,0-0.5,0-0.7,0.1c-0.8,0.1-1.6,0.2-2.3,0.4c-0.7,0.2-1.5,0.4-2.2,0.5
				c-0.3,0.4-0.5,0.9-0.8,1.5c-0.3,0.5-0.6,1.1-0.9,1.7c-0.3,0.6-0.6,1.2-0.9,1.7c-0.3,0.6-0.5,1.1-0.8,1.5c-0.4,0.7-0.7,1.4-1,2.1
				c-0.3,0.7-0.6,1.3-0.8,1.9c-0.1,0.2-0.2,0.5-0.3,0.7c-0.1,0.2-0.2,0.5-0.2,0.7l-0.1,0.5c0,0,0,0,0,0c0,0,0,0,0,0
				c0,0.1,0,0.1,0,0.2c0,0.1-0.1,0.1-0.2,0.1c-0.1,0-0.2,0-0.2-0.1c0-0.1-0.1-0.2-0.1-0.3c0-0.2,0-0.4,0.1-0.7
				c0.1-0.3,0.2-0.6,0.3-0.8c0.1-0.3,0.2-0.5,0.3-0.8c0.1-0.2,0.1-0.4,0.2-0.5c0.1-0.3,0.2-0.5,0.3-0.8c0.1-0.2,0.2-0.5,0.3-0.7
				c0.1-0.2,0.2-0.5,0.4-0.8c0.1-0.3,0.3-0.6,0.5-1c0.3-0.6,0.7-1.3,1-2c0.4-0.7,0.8-1.4,1.2-2.2c-0.4,0.5-0.9,1-1.3,1.5
				c-0.4,0.5-0.9,1-1.3,1.5c-0.4,0.5-0.9,1-1.3,1.4c-0.4,0.4-0.8,0.8-1.1,1.1c-0.3,0.3-0.6,0.6-0.9,0.8S90.5,65,90.4,65
				c-0.3,0-0.5,0-0.7-0.2c-0.2-0.2-0.3-0.4-0.3-0.7C89.4,63.9,89.5,63.8,89.5,63.6z M92.5,58.7c-0.1-0.1-0.2-0.2-0.2-0.2
				c0,0,0-0.1,0-0.1c0.1-0.1,0.2-0.2,0.3-0.4c0.1-0.2,0.2-0.3,0.3-0.5c0-0.1,0.1-0.2,0.1-0.2c0.1,0,0.1-0.1,0.2-0.1
				c0.1,0,0.2,0,0.3,0.1c0.1,0.1,0.1,0.2,0.1,0.3c0,0.1-0.1,0.2-0.1,0.3c-0.1,0.1-0.2,0.3-0.3,0.4c-0.1,0.1-0.2,0.2-0.3,0.3
				C92.8,58.7,92.7,58.7,92.5,58.7L92.5,58.7z"/>
			<path class="st0" d="M101.7,59.6c0,0.2,0,0.5-0.2,0.8c-0.2,0.3-0.4,0.6-0.7,0.8c-0.3,0.3-0.6,0.5-1,0.6c-0.4,0.2-0.8,0.3-1.2,0.3
				c0,0.1-0.1,0.3-0.1,0.4c0,0.1,0,0.2,0,0.3c0,0.2,0,0.3,0.1,0.4c0.1,0.1,0.2,0.1,0.4,0.1c0.3,0,0.7-0.2,1.3-0.5
				c0.6-0.3,1.2-0.7,1.8-1.2c0.3-0.2,0.5-0.4,0.8-0.6c0.2-0.2,0.5-0.4,0.7-0.6c0.2-0.2,0.4-0.4,0.7-0.6c0.2-0.2,0.5-0.4,0.7-0.7
				c0,0,0.1-0.1,0.1-0.1c0-0.1,0.1-0.1,0.1,0c0,0.1-0.1,0.3-0.3,0.6c-0.2,0.3-0.5,0.6-0.8,0.9c-0.3,0.4-0.7,0.7-1.1,1.1
				c-0.4,0.4-0.9,0.7-1.3,1c-0.4,0.3-0.9,0.6-1.3,0.8c-0.4,0.2-0.8,0.4-1.2,0.4c-0.2,0-0.3,0-0.5,0c-0.2,0-0.3-0.1-0.4-0.2
				c-0.1-0.1-0.2-0.2-0.3-0.4c-0.1-0.2-0.1-0.3-0.1-0.5c0-0.4,0.1-0.7,0.2-1.1s0.4-0.8,0.6-1.1c0.3-0.4,0.5-0.7,0.8-0.9
				c0.3-0.3,0.6-0.5,0.9-0.6c0.1,0,0.2-0.1,0.4-0.1c0.1,0,0.3,0,0.4,0.1c0.1,0,0.2,0.1,0.3,0.2C101.6,59.3,101.7,59.4,101.7,59.6z
				 M99.2,60.9c-0.1,0.1-0.1,0.2-0.2,0.3c-0.1,0.1-0.1,0.2-0.1,0.3c0.3,0,0.6-0.2,0.9-0.4c0.3-0.2,0.5-0.4,0.7-0.7
				c0.2-0.2,0.4-0.5,0.4-0.7c0.1-0.2,0.1-0.4,0-0.4c-0.1,0-0.2,0-0.4,0.1c-0.2,0.1-0.3,0.2-0.5,0.4c-0.2,0.2-0.3,0.3-0.5,0.5
				C99.4,60.6,99.3,60.8,99.2,60.9z"/>
			<path class="st0" d="M109.8,58.9c0.1,0,0.2,0,0.2-0.1c0.1,0,0.2,0,0.2,0c0,0,0.1,0,0,0.1c0,0-0.1,0.1-0.2,0.1
				c-0.2,0.1-0.5,0.3-0.9,0.5c-0.4,0.2-0.7,0.5-1.2,0.7c-0.4,0.3-0.8,0.5-1.3,0.8c-0.5,0.3-0.9,0.6-1.3,0.9c0.1,0.2,0.3,0.3,0.4,0.5
				c0.1,0.2,0.2,0.3,0.3,0.5c0.1,0.3,0.1,0.5-0.1,0.8c-0.2,0.3-0.4,0.6-0.7,0.8c-0.3,0.2-0.7,0.5-1.1,0.6c-0.4,0.2-0.8,0.3-1.2,0.4
				c-0.2,0-0.4,0-0.5,0c-0.3,0-0.5-0.1-0.6-0.2c-0.1-0.1-0.2-0.3-0.2-0.5s0.1-0.4,0.2-0.6c0.2-0.3,0.6-0.7,1.1-1.1
				c0.5-0.4,1.1-0.8,1.7-1.3c-0.2-0.2-0.3-0.4-0.4-0.6c-0.1-0.2-0.2-0.5-0.1-0.8c0-0.2,0.1-0.4,0.2-0.6c0.1-0.2,0.2-0.4,0.4-0.6
				c0.2-0.2,0.3-0.4,0.5-0.6c0.2-0.2,0.4-0.4,0.6-0.5c0.2-0.2,0.4-0.3,0.5-0.4c0.2-0.1,0.3-0.2,0.4-0.2c0,0,0.1,0,0.1,0.1
				c0,0,0.1,0.1,0.1,0.2c0,0.1,0,0.1,0.1,0.2c0,0.1,0,0.1,0,0.1c-0.1,0.1-0.3,0.3-0.6,0.4c-0.2,0.2-0.5,0.4-0.7,0.6
				c-0.2,0.2-0.4,0.5-0.6,0.7c-0.2,0.2-0.3,0.4-0.3,0.6c0,0.2,0,0.4,0.1,0.5c0.1,0.2,0.2,0.3,0.3,0.5c0.5-0.3,0.9-0.6,1.4-0.9
				c0.5-0.3,0.9-0.5,1.3-0.8c0.4-0.2,0.8-0.4,1.2-0.6C109.3,59.1,109.6,59,109.8,58.9z M105.4,63.1c0-0.1-0.1-0.3-0.2-0.4
				c-0.1-0.1-0.2-0.2-0.2-0.4c-0.4,0.3-0.8,0.6-1.2,0.8c-0.4,0.3-0.7,0.5-0.9,0.8c-0.3,0.2-0.5,0.4-0.6,0.6
				c-0.2,0.2-0.2,0.3-0.2,0.4c0,0.1,0,0.1,0.1,0.1c0.1,0,0.2,0,0.3,0c0.2,0,0.3-0.1,0.6-0.1c0.2-0.1,0.4-0.2,0.7-0.3
				c0.2-0.1,0.5-0.2,0.7-0.4c0.2-0.1,0.4-0.3,0.6-0.4c0.2-0.1,0.3-0.3,0.4-0.4C105.4,63.4,105.4,63.3,105.4,63.1z"/>
			<path class="st0" d="M108.8,61.1c0.1-0.3,0.2-0.5,0.3-0.8c0.1-0.3,0.3-0.6,0.4-0.9c0.2-0.3,0.3-0.6,0.5-0.9
				c0.2-0.3,0.4-0.6,0.6-0.9c0-0.1,0.1-0.2,0.2-0.2c0.1,0,0.2,0,0.3,0.1c0.1,0,0.1,0.1,0.1,0.2c0,0.1,0,0.1,0,0.2
				c0,0.1-0.1,0.2-0.2,0.4c-0.1,0.2-0.3,0.5-0.4,0.8s-0.3,0.6-0.5,0.9s-0.3,0.6-0.5,0.9c-0.1,0.3-0.2,0.5-0.3,0.7
				c-0.1,0.2-0.1,0.3,0,0.3c0.1,0,0.2,0,0.5-0.1c0.2-0.1,0.5-0.3,0.8-0.5c0.3-0.2,0.6-0.4,1-0.7c0.4-0.3,0.7-0.6,1.1-0.9
				c0.4-0.3,0.7-0.6,1.1-0.9c0.3-0.3,0.6-0.6,0.9-0.9c0,0,0.1-0.1,0.1-0.1c0,0,0.1,0,0.1,0c0,0,0.1,0,0.1,0.1c0,0.1,0,0.1-0.1,0.2
				c0,0.1-0.1,0.2-0.2,0.3c-0.1,0.1-0.1,0.2-0.2,0.3c-0.1,0.2-0.3,0.3-0.5,0.6c-0.2,0.2-0.5,0.5-0.8,0.8c-0.3,0.3-0.6,0.6-0.9,0.8
				c-0.3,0.3-0.7,0.5-1,0.8c-0.3,0.2-0.6,0.4-0.9,0.6c-0.3,0.2-0.5,0.3-0.7,0.3c-0.3,0-0.5,0-0.7-0.2c-0.2-0.2-0.3-0.4-0.3-0.7
				C108.8,61.4,108.8,61.2,108.8,61.1z M111.8,56.2c-0.1-0.1-0.2-0.2-0.2-0.2c0,0,0-0.1,0-0.1c0.1-0.1,0.2-0.2,0.3-0.4
				c0.1-0.2,0.2-0.3,0.3-0.5c0-0.1,0.1-0.2,0.1-0.2c0.1,0,0.1-0.1,0.2-0.1c0.1,0,0.2,0,0.3,0.1c0.1,0.1,0.1,0.2,0.1,0.3
				c0,0.1-0.1,0.2-0.1,0.3c-0.1,0.1-0.2,0.3-0.3,0.4c-0.1,0.1-0.2,0.2-0.3,0.3C112.1,56.2,112,56.2,111.8,56.2L111.8,56.2z"/>
			<path class="st0" d="M137.3,48.3c-0.3,0.9-0.6,1.9-1,2.9c-0.4,1-0.8,2-1.3,3c0.5-0.1,0.9-0.1,1.4-0.2c0.5-0.1,1-0.1,1.5-0.2
				c0.2,0,0.4,0,0.6,0c0.2,0,0.3,0,0.4,0.1c0.1,0,0.2,0.1,0.3,0.1c0,0.1,0.1,0.1,0.1,0.1c0,0,0,0.1,0,0.1c0,0.1-0.1,0.2-0.3,0.2
				c-0.1,0-0.2,0-0.3-0.1l0,0c-0.1,0-0.1,0-0.2,0c-0.1,0-0.2,0-0.4,0c-0.4,0.1-0.8,0.1-1.1,0.1c-0.3,0-0.6,0.1-0.9,0.1
				c-0.3,0-0.5,0.1-0.7,0.1s-0.4,0.1-0.6,0.1c-0.7,1.4-1.4,2.8-2.1,4.3c-0.7,1.4-1.5,2.8-2.2,4.1c0,0-0.1,0.1-0.1,0.1
				c-0.1,0-0.1,0-0.2,0c-0.1,0-0.1,0-0.2-0.1c0,0-0.1-0.1-0.1-0.2c0-0.1,0-0.1,0-0.2c0-0.1,0-0.1,0-0.2c0-0.5-0.1-1-0.2-1.5
				c-0.1-0.5-0.3-1-0.5-1.4c-0.2-0.5-0.4-0.9-0.7-1.3c-0.3-0.4-0.5-0.8-0.8-1.1c-0.3-0.3-0.5-0.6-0.8-0.8c-0.3-0.2-0.5-0.4-0.7-0.5
				l-0.3,0.3c-0.4,0.4-0.9,0.9-1.4,1.5c-0.5,0.6-1.1,1.2-1.6,1.8c-0.5,0.6-1.1,1.3-1.6,1.9c-0.5,0.6-1,1.3-1.3,1.8
				c-0.1,0.1-0.1,0.2-0.1,0.3c0,0.1,0,0.2,0,0.3c0,0.1-0.2,0.1-0.4,0.1c-0.1,0-0.2-0.1-0.2-0.3c0-0.2,0.1-0.4,0.2-0.6
				c0.1-0.2,0.2-0.4,0.3-0.6c0.1-0.2,0.3-0.5,0.6-0.8c0.2-0.3,0.5-0.7,0.8-1c0.3-0.4,0.6-0.8,1-1.2c0.3-0.4,0.7-0.8,1.1-1.2
				c0.4-0.4,0.7-0.8,1.1-1.2c0.4-0.4,0.7-0.7,1-1c-0.2,0-0.5,0.1-0.8,0.1c-0.4,0.1-0.8,0.1-1.2,0.2c-0.4,0.1-0.8,0.1-1.3,0.2
				c-0.4,0.1-0.8,0.1-1,0.1l-0.4,0.1c-0.5,0.1-1,0.1-1.3,0.1s-0.6,0-0.7,0c-0.2,0-0.3-0.1-0.4-0.2c-0.1-0.1-0.2-0.2-0.2-0.3
				c0-0.1,0-0.2,0-0.4c0-0.3,0.1-0.5,0.2-0.7c0.1-0.2,0.3-0.5,0.6-0.7c0.3-0.2,0.5-0.4,0.9-0.5c0.3-0.1,0.7-0.3,1-0.3
				c0.1,0,0.1,0,0.2,0c0.1,0,0.1,0,0.2,0c0.5-0.1,1-0.1,1.5,0c0.5,0.1,0.9,0.2,1.4,0.3c0.4,0.1,0.8,0.3,1.2,0.5
				c0.4,0.2,0.7,0.4,1.1,0.6c0.5-0.5,1-1,1.5-1.6c0.5-0.5,1.1-1.1,1.7-1.7c0.6-0.6,1.2-1.1,1.7-1.6c0.6-0.5,1.2-1,1.7-1.5
				c0.6-0.5,1.1-0.9,1.6-1.3s1-0.7,1.4-0.9c0.2-0.1,0.4-0.2,0.6-0.3c0.2-0.1,0.4-0.1,0.5-0.1c0.6-0.1,0.9,0.2,0.9,0.9
				C137.5,47.4,137.5,47.8,137.3,48.3z M125.5,55.5c-0.2-0.1-0.5-0.3-0.9-0.5c-0.3-0.2-0.7-0.3-1.2-0.5c-0.4-0.1-0.9-0.2-1.4-0.3
				c-0.5-0.1-1,0-1.5,0.1c-0.4,0.1-0.7,0.2-1,0.3c-0.3,0.1-0.5,0.3-0.8,0.4c-0.2,0.2-0.4,0.3-0.5,0.5c-0.1,0.2-0.1,0.4-0.1,0.6
				c0.3,0,0.7,0,1.1,0c0.4,0,0.8-0.1,1.2-0.1c0.1,0,0.3,0,0.5-0.1c0.2,0,0.5-0.1,0.7-0.1c0.3,0,0.5-0.1,0.8-0.1
				c0.3,0,0.6-0.1,0.8-0.1s0.5-0.1,0.7-0.1c0.2,0,0.3,0,0.4-0.1L125.5,55.5z M134.1,54.4c0.5-1.1,1-2.1,1.4-3.1c0.4-1,0.8-2,1.1-2.9
				c0.1-0.5,0.2-0.8,0.3-1.1c0.1-0.3,0-0.4,0-0.5c-0.1-0.1-0.2-0.1-0.4,0c-0.2,0.1-0.4,0.2-0.7,0.4c-0.4,0.2-0.8,0.6-1.3,0.9
				c-0.5,0.4-1,0.8-1.5,1.3c-0.5,0.5-1.1,1-1.6,1.5c-0.6,0.5-1.1,1-1.6,1.6c-0.5,0.5-1.1,1.1-1.6,1.6c-0.5,0.5-0.9,1-1.3,1.4
				c1.1-0.1,2.1-0.3,3.2-0.4c1-0.1,2.1-0.3,3.2-0.5L134.1,54.4z M126.9,55.9c0.1,0.1,0.3,0.2,0.5,0.4c0.2,0.2,0.4,0.4,0.7,0.7
				c0.2,0.3,0.5,0.6,0.7,1c0.2,0.4,0.5,0.7,0.7,1.2c0.2,0.4,0.4,0.9,0.5,1.3c0.2,0.5,0.3,0.9,0.3,1.4c0.6-1.1,1.1-2.2,1.7-3.3
				c0.6-1.1,1.2-2.3,1.8-3.6l-1.4,0.2c-0.4,0.1-0.9,0.1-1.3,0.2c-0.4,0.1-1,0.1-1.5,0.2L126.9,55.9z"/>
			<path class="st0" d="M139.3,62.4c-0.1,0-0.1-0.2-0.1-0.4c0-0.2,0-0.4,0-0.6c0-0.5,0.1-1,0.3-1.5c0.1-0.5,0.3-1.1,0.5-1.7
				c0.2-0.6,0.4-1.2,0.6-1.7c0.2-0.6,0.5-1.1,0.7-1.6c-0.2,0.3-0.4,0.6-0.7,0.9c-0.2,0.3-0.5,0.7-0.8,1c-0.3,0.3-0.6,0.6-0.9,0.9
				c-0.3,0.3-0.6,0.6-1,0.8c-0.1,0.1-0.2,0.1-0.4,0.1c-0.2,0-0.4,0-0.6-0.2s-0.3-0.3-0.3-0.6c0-0.2,0-0.4,0.1-0.7
				c0.1-0.3,0.3-0.6,0.5-1c0.2-0.4,0.5-0.7,0.8-1c0.3-0.3,0.6-0.6,1-0.8c0.3-0.2,0.7-0.4,1-0.4c0.1,0,0.3,0,0.4,0
				c0.1,0,0.3,0.1,0.4,0.1l0.1,0.1c0.3-0.4,0.6-0.9,1-1.4c0.3-0.5,0.6-1,0.9-1.5c0,0,0,0,0-0.1c0,0,0,0,0-0.1v0
				c0.1-0.2,0.3-0.5,0.5-0.9c0.2-0.4,0.4-0.7,0.6-1.1c0.2-0.4,0.4-0.8,0.6-1.2c0.2-0.4,0.4-0.7,0.6-1c0-0.1,0.1-0.1,0.2-0.1
				c0.1,0,0.2,0,0.2,0.1c0.1,0,0.1,0.1,0.2,0.2c0,0.1,0,0.1,0,0.2c-0.1,0.3-0.3,0.6-0.4,0.9c-0.2,0.3-0.4,0.7-0.5,1
				c-0.2,0.3-0.4,0.7-0.6,1c-0.2,0.3-0.3,0.6-0.5,0.8l-0.3,0.5l0,0l-0.3,0.6c-0.6,1.3-1.2,2.5-1.7,3.5c-0.5,1.1-0.8,2-1.1,2.8
				c-0.2,0.6-0.4,1.1-0.6,1.7c-0.2,0.6-0.3,1.2-0.4,1.9c0,0,0.1,0.1,0.1,0.2c0,0.1,0,0.1,0,0.2c0,0-0.1,0-0.1,0.1
				C139.4,62.4,139.4,62.4,139.3,62.4z M137.4,58c0.1,0,0.2-0.1,0.3-0.2c0.2-0.1,0.3-0.3,0.5-0.5c0.2-0.2,0.4-0.4,0.6-0.6
				c0.2-0.2,0.4-0.5,0.7-0.7c0.2-0.2,0.4-0.5,0.6-0.7c0.2-0.2,0.3-0.4,0.4-0.6c0-0.1,0-0.3-0.1-0.3c-0.1-0.1-0.2-0.1-0.3-0.1
				c-0.3,0-0.6,0.2-0.9,0.5c-0.3,0.3-0.7,0.6-1,1c-0.2,0.2-0.3,0.5-0.5,0.7c-0.2,0.3-0.3,0.5-0.4,0.8c-0.1,0.2-0.1,0.4-0.1,0.5
				C137.4,57.8,137.4,57.9,137.4,58z"/>
			<path class="st0" d="M146,56.4c0-0.1,0-0.3,0-0.4c0-0.2,0.1-0.3,0.1-0.4c-0.2,0.2-0.3,0.4-0.5,0.6c-0.2,0.2-0.4,0.4-0.6,0.6
				c-0.2,0.2-0.4,0.4-0.6,0.6c-0.2,0.2-0.4,0.3-0.5,0.4c-0.1,0.1-0.2,0.1-0.3,0.1c-0.1,0-0.2,0-0.3-0.1c-0.1-0.1-0.2-0.1-0.3-0.2
				c-0.1-0.1-0.1-0.2-0.1-0.4c0-0.2,0.1-0.5,0.2-0.8c0.1-0.3,0.3-0.6,0.4-0.9c0.2-0.3,0.4-0.6,0.6-0.9c0.2-0.3,0.5-0.5,0.7-0.8
				c0.3-0.2,0.5-0.4,0.8-0.6c0.3-0.1,0.5-0.2,0.8-0.2c0.3,0,0.6,0.1,0.8,0.4c0,0,0,0.1,0.1,0.1c0,0,0,0.1,0.1,0.1
				c0,0,0.1-0.1,0.1-0.1c0,0,0.1-0.1,0.1-0.1c0.1-0.1,0.2-0.1,0.2-0.1c0.1,0,0.1,0,0.2,0.1c0.1,0.1,0.1,0.1,0.2,0.2
				c0,0.1,0,0.1,0,0.2c-0.3,0.4-0.6,0.8-0.9,1.3c-0.3,0.5-0.4,1-0.5,1.5c0,0.1,0,0.2,0,0.2c0,0.1,0,0.1,0,0.1c0,0.1,0.2,0.1,0.4,0
				c0.2-0.1,0.5-0.3,0.8-0.5c0.3-0.2,0.6-0.5,1-0.8c0.3-0.3,0.7-0.6,1-0.9c0.3-0.3,0.6-0.6,0.9-0.8c0.3-0.2,0.4-0.4,0.6-0.5
				c0,0,0.1-0.1,0.1-0.1c0,0,0.1,0,0.1,0c0,0,0,0.2-0.1,0.4c-0.1,0.2-0.3,0.5-0.6,0.8c-0.3,0.3-0.6,0.6-0.9,1c-0.3,0.4-0.7,0.7-1,1
				c-0.4,0.3-0.7,0.6-1,0.8c-0.3,0.2-0.6,0.3-0.8,0.3c-0.1,0-0.3,0-0.4-0.1s-0.2-0.1-0.3-0.2c-0.1-0.1-0.2-0.2-0.2-0.3
				C146,56.6,146,56.5,146,56.4z M143.4,57.2c0.2-0.1,0.3-0.3,0.5-0.4c0.2-0.2,0.4-0.3,0.6-0.6c0.2-0.2,0.5-0.5,0.8-0.8
				c0.3-0.3,0.7-0.7,1.1-1.1c0.1-0.1,0.2-0.3,0.2-0.4c0-0.1,0-0.2-0.1-0.2s-0.2-0.1-0.3-0.1c-0.2,0-0.4,0.1-0.7,0.3
				c-0.3,0.2-0.5,0.4-0.8,0.7c-0.1,0.2-0.3,0.4-0.4,0.6c-0.1,0.2-0.3,0.4-0.4,0.7c-0.1,0.2-0.2,0.5-0.3,0.7
				C143.5,56.8,143.5,57,143.4,57.2z"/>
			<path class="st0" d="M157.1,54.3c0,0,0.1,0,0.2-0.1s0.2-0.1,0.3-0.1c0.1,0,0.1,0,0.1,0c0,0-0.1,0.1-0.2,0.3
				c-0.2,0.2-0.5,0.4-0.9,0.6c-0.4,0.2-0.8,0.5-1.2,0.8c-0.4,0.3-0.9,0.6-1.3,0.9c-0.4,0.3-0.9,0.6-1.3,0.9
				c-0.2,0.4-0.4,0.9-0.7,1.4c-0.2,0.5-0.5,1-0.7,1.6c-0.2,0.5-0.5,1.1-0.8,1.7c-0.3,0.6-0.5,1.1-0.8,1.6c-0.3,0.5-0.5,1-0.8,1.4
				c-0.3,0.5-0.5,0.8-0.8,1.2c-0.3,0.4-0.7,0.8-1.1,1.1c-0.4,0.3-0.8,0.5-1.2,0.5c-0.2,0-0.5,0-0.7-0.1c-0.2-0.1-0.4-0.2-0.5-0.4
				c-0.2-0.2-0.3-0.4-0.4-0.6c-0.1-0.2-0.1-0.5-0.1-0.9c0-0.6,0.2-1.2,0.5-1.8c0.3-0.6,0.7-1.2,1.2-1.8c0.5-0.6,1-1.2,1.6-1.7
				c0.6-0.6,1.2-1.1,1.7-1.5c0.6-0.5,1.1-0.9,1.6-1.2c0.5-0.3,0.8-0.6,1.1-0.8c0.2-0.5,0.5-1,0.8-1.6c0.3-0.6,0.6-1.2,0.8-1.7
				c-0.3,0.3-0.6,0.7-0.8,1c-0.3,0.3-0.5,0.6-0.8,0.9c-0.2,0.3-0.5,0.5-0.7,0.7c-0.2,0.2-0.4,0.3-0.5,0.4c-0.2,0.1-0.3,0.1-0.5,0.1
				c-0.2,0-0.3-0.1-0.4-0.2c-0.1-0.1-0.2-0.3-0.2-0.4c-0.1-0.2-0.1-0.4,0-0.6c0.1-0.2,0.1-0.4,0.3-0.7c0.1-0.2,0.2-0.5,0.4-0.7
				c0.1-0.2,0.3-0.4,0.4-0.6c0.1-0.2,0.3-0.4,0.5-0.6c0.2-0.2,0.3-0.4,0.4-0.6c0.1-0.2,0.3-0.3,0.4-0.4c0.1,0,0.1-0.1,0.2-0.1
				c0.1,0,0.2,0,0.2,0c0.1,0,0.1,0,0.2,0.1c0,0,0,0.1,0,0.2c-0.1,0.1-0.2,0.3-0.4,0.4c-0.1,0.2-0.3,0.4-0.4,0.6
				c-0.2,0.2-0.3,0.4-0.5,0.6c-0.2,0.2-0.3,0.5-0.4,0.7c-0.2,0.3-0.3,0.6-0.4,0.8c-0.1,0.2-0.2,0.4-0.2,0.5c0,0.1,0,0.2,0,0.3
				c0,0.1,0,0.1,0.1,0.1c0.1,0,0.2,0,0.5-0.2c0.2-0.2,0.5-0.4,0.8-0.7c0.3-0.3,0.6-0.6,0.9-1c0.3-0.4,0.6-0.7,0.9-1.1
				c0.3-0.4,0.6-0.7,0.8-1c0.2-0.3,0.4-0.5,0.6-0.7c0,0,0.1,0,0.1,0c0.1,0,0.1,0,0.2,0.1c0.1,0.1,0.1,0.1,0.2,0.2c0,0.1,0,0.2,0,0.2
				c-0.1,0.1-0.2,0.3-0.3,0.7c-0.2,0.3-0.3,0.7-0.6,1.1c-0.2,0.4-0.4,0.9-0.7,1.4c-0.2,0.5-0.5,0.9-0.7,1.4c0.1-0.1,0.3-0.2,0.5-0.3
				c0.2-0.1,0.4-0.3,0.7-0.4c0.3-0.2,0.5-0.3,0.8-0.5c0.3-0.2,0.5-0.3,0.8-0.5c0.3-0.1,0.5-0.3,0.7-0.4
				C156.9,54.4,157,54.4,157.1,54.3z M150.4,61.4c0.2-0.4,0.4-0.8,0.5-1.1c0.1-0.3,0.2-0.5,0.3-0.7c0.1-0.2,0.2-0.4,0.2-0.5
				c0.1-0.2,0.1-0.3,0.2-0.5c-0.4,0.3-0.8,0.7-1.2,1s-0.8,0.7-1.2,1c-0.4,0.3-0.7,0.6-1,0.9c-0.3,0.3-0.6,0.6-0.8,0.8
				c-0.3,0.3-0.6,0.7-0.9,1c-0.3,0.4-0.5,0.7-0.7,1.1c-0.2,0.4-0.4,0.7-0.5,1c-0.1,0.3-0.2,0.7-0.2,1c0,0.4,0.1,0.7,0.3,0.9
				c0.2,0.2,0.4,0.3,0.7,0.2c0.3,0,0.5-0.2,0.8-0.4c0.3-0.2,0.6-0.5,0.9-0.9c0.2-0.3,0.4-0.6,0.6-1c0.2-0.4,0.4-0.8,0.6-1.2
				c0.2-0.4,0.4-0.9,0.7-1.3C149.9,62.4,150.2,61.9,150.4,61.4z"/>
			<path class="st0" d="M156.9,54.8c0.1-0.3,0.2-0.5,0.3-0.8c0.1-0.3,0.3-0.6,0.4-0.9c0.2-0.3,0.3-0.6,0.5-0.9
				c0.2-0.3,0.4-0.6,0.6-0.9c0-0.1,0.1-0.2,0.2-0.2c0.1,0,0.2,0,0.3,0.1c0.1,0,0.1,0.1,0.1,0.2c0,0.1,0,0.1,0,0.2
				c0,0.1-0.1,0.2-0.2,0.4c-0.1,0.2-0.3,0.5-0.4,0.8c-0.2,0.3-0.3,0.6-0.5,0.9c-0.2,0.3-0.3,0.6-0.5,0.9c-0.1,0.3-0.2,0.5-0.3,0.7
				c-0.1,0.2-0.1,0.3,0,0.3c0.1,0,0.2,0,0.5-0.1c0.2-0.1,0.5-0.3,0.8-0.5c0.3-0.2,0.6-0.4,1-0.7c0.4-0.3,0.7-0.6,1.1-0.9
				c0.4-0.3,0.7-0.6,1.1-0.9c0.3-0.3,0.6-0.6,0.9-0.9c0,0,0.1-0.1,0.1-0.1c0,0,0.1,0,0.1,0c0,0,0.1,0,0.1,0.1c0,0.1,0,0.1-0.1,0.2
				c0,0.1-0.1,0.2-0.2,0.3c-0.1,0.1-0.1,0.2-0.2,0.3c-0.1,0.2-0.3,0.3-0.5,0.6c-0.2,0.2-0.5,0.5-0.8,0.8c-0.3,0.3-0.6,0.6-0.9,0.8
				c-0.3,0.3-0.7,0.5-1,0.8c-0.3,0.2-0.6,0.4-0.9,0.6c-0.3,0.2-0.5,0.3-0.7,0.3c-0.3,0-0.5,0-0.7-0.2c-0.2-0.2-0.3-0.4-0.3-0.7
				C156.8,55.1,156.8,55,156.9,54.8z"/>
		</g>
	</g>
	<g>
		<path class="st1" d="M96.2,18.9c-0.5,0-0.9-0.1-1.2-0.2c-0.4-0.2-0.6-0.4-0.6-0.8c0-0.2,0.1-0.5,0.3-0.9c0.2-0.5,0.4-1.1,0.8-2
			h2.6h2.6c0.3,0.8,0.6,1.3,0.7,1.6c0.3,0.7,0.4,1.2,0.4,1.5c0,0.4-0.1,0.6-0.4,0.7c-0.3,0.1-0.7,0.2-1.5,0.2v0.6h7.4v-0.6
			c-0.5,0-0.9-0.2-1.3-0.7c-0.3-0.4-0.7-1.2-1.2-2.5L99.5,3.6h-0.6l-1,2.4l-4.1,10.2c-0.4,1-0.7,1.6-0.9,1.9
			c-0.3,0.4-0.8,0.7-1.3,0.8v0.6h4.7V18.9z M97.8,8.4l0.1,0.2l2.2,5.4h-2.2h-2.2L97.8,8.4z"/>
		<path class="st1" d="M84.1,18.8c-0.2,0.1-0.7,0.1-1.4,0.1v0.6h7.7v-0.6c-0.3,0-0.5,0-0.6-0.1c-0.2-0.1-0.3-0.2-0.5-0.4l-7-8.7
			c2-2,3.1-3.1,3.4-3.4c1.3-1.2,2.7-1.8,4-1.8V3.9H83v0.6c0.8,0,1.3,0.1,1.6,0.2C84.8,4.8,85,5,85,5.2c0,0.2-0.1,0.5-0.3,0.7
			c-0.1,0.1-0.3,0.3-0.5,0.6l-5,5V6.6c0-0.9,0.2-1.5,0.5-1.8c0.3-0.2,0.8-0.3,1.5-0.3V3.9h-7.7v0.6c0.8,0,1.4,0.2,1.7,0.5
			c0.2,0.3,0.3,0.7,0.3,1.2v11.1c0,0.7-0.2,1.1-0.5,1.3c-0.2,0.1-0.7,0.2-1.5,0.3v0.6h7.7v-0.6c-0.7-0.1-1.2-0.2-1.5-0.4
			c-0.4-0.2-0.6-0.7-0.6-1.3v-4.5l0.6-0.6l4.2,5.2c0.4,0.4,0.6,0.8,0.6,1C84.5,18.6,84.4,18.7,84.1,18.8z"/>
		<path class="st1" d="M54.4,12.1c-0.4-0.6-1-1-1.5-1.3l-3.4-1.7c-0.9-0.5-1.6-0.9-1.9-1.3c-0.3-0.4-0.5-0.8-0.5-1.5
			c0-0.7,0.2-1.2,0.7-1.6c0.5-0.4,1.1-0.6,1.7-0.6c1.2,0,2.3,0.5,3.1,1.5c0.6,0.8,1.1,1.7,1.4,2.7h0.6v-5H54c0,0.2-0.1,0.3-0.2,0.4
			c-0.1,0.2-0.3,0.3-0.6,0.3c-0.1,0-0.5-0.1-1.3-0.4c-0.8-0.3-1.5-0.4-2.3-0.4c-1.5,0-2.6,0.4-3.5,1.1c-1,0.8-1.5,2-1.5,3.5
			c0,0.8,0.2,1.6,0.5,2.2c0.6,1,1.7,1.9,3.4,2.8l1.5,0.7c0.9,0.4,1.5,0.8,1.9,1.1c0.5,0.4,0.7,1,0.7,1.7c0,0.8-0.2,1.4-0.7,1.9
			c-0.5,0.5-1.2,0.7-2.1,0.7c-1.3,0-2.4-0.5-3.3-1.6c-0.7-0.8-1.1-2-1.4-3.3h-0.7v5.7h0.7c0.1-0.2,0.1-0.4,0.2-0.6
			c0.1-0.1,0.2-0.2,0.5-0.2c0.6,0.2,1.3,0.4,1.9,0.5c0.6,0.2,1.3,0.3,2,0.3c1.9,0,3.4-0.6,4.4-1.7c0.8-0.9,1.3-1.9,1.3-3.2
			C55.4,14,55.1,13,54.4,12.1z"/>
		<path class="st1" d="M70.5,18.2c-0.3-0.4-0.7-1.2-1.2-2.5L64.1,3.6h-0.6l-1,2.4l-4.1,10.2c-0.4,1-0.7,1.6-0.9,1.9
			c-0.3,0.4-0.8,0.7-1.3,0.8v0.6h4.7v-0.6c-0.5,0-0.9-0.1-1.2-0.2c-0.4-0.2-0.6-0.4-0.6-0.8c0-0.2,0.1-0.5,0.3-0.9
			c0.2-0.5,0.4-1.1,0.8-2h2.6h2.6c0.3,0.8,0.6,1.3,0.7,1.6c0.3,0.7,0.4,1.2,0.4,1.5c0,0.4-0.1,0.6-0.4,0.7c-0.3,0.1-0.7,0.2-1.5,0.2
			v0.6h7.4v-0.6C71.2,18.9,70.8,18.6,70.5,18.2z M62.5,14h-2.2l2.2-5.6l0.1,0.2l2.2,5.4H62.5z"/>
		<path class="st1" d="M142.1,18.9c-0.5,0-0.9-0.1-1.2-0.2c-0.4-0.2-0.6-0.4-0.6-0.8c0-0.2,0.1-0.5,0.3-0.9c0.2-0.5,0.4-1.1,0.8-2
			h2.6h2.6c0.3,0.8,0.6,1.3,0.7,1.6c0.3,0.7,0.4,1.2,0.4,1.5c0,0.4-0.1,0.6-0.4,0.7c-0.3,0.1-0.7,0.2-1.5,0.2v0.6h7.4v-0.6
			c-0.5,0-0.9-0.2-1.3-0.7c-0.3-0.4-0.7-1.2-1.2-2.5l-5.1-12.1h-0.6l-1,2.4l-4.1,10.2c-0.4,1-0.7,1.6-0.9,1.9
			c-0.1,0.1-0.1,0.2-0.2,0.2c-0.3,0.3-0.7,0.5-1.1,0.5v0.6h1.1h3.5V18.9z M143.8,8.4l0.1,0.2l2.2,5.4h-2.2h-2.2L143.8,8.4z"/>
		<path class="st1" d="M124.3,19.4v-0.6c-0.1,0-0.1,0-0.1,0c-0.1,0-0.2,0-0.4-0.1c-0.2-0.1-0.3-0.2-0.4-0.4l-4.6-6.5
			c1-0.3,1.8-0.7,2.3-1.1c0.9-0.7,1.3-1.6,1.3-2.9c0-1.3-0.6-2.3-1.7-3c-1-0.6-2.5-1-4.4-1c-0.1,0-0.3,0-0.4,0h-7.4v0.6
			c0.8,0,1.3,0.1,1.5,0.3c0.3,0.3,0.5,0.9,0.5,1.8v10.2c0,0.9-0.1,1.4-0.4,1.7c-0.2,0.2-0.7,0.3-1.6,0.4v0.6h7.8v-0.6
			c-0.8-0.1-1.4-0.3-1.6-0.5c-0.3-0.2-0.4-0.8-0.4-1.7v-4.5h0.6l1.5,2.2l3.3,5h4.6H124.3z M117.4,10.9c-0.3,0.2-0.6,0.3-1.1,0.4
			c-0.6,0.1-1.3,0.2-2.1,0.2V5.6c0.1-0.4,0.2-0.7,0.3-0.8c0.1-0.1,0.5-0.2,1.1-0.2c0.2,0,0.5,0,0.7,0.1c0.6,0.1,1.1,0.3,1.4,0.7
			c0.5,0.5,0.7,1.4,0.7,2.5C118.4,9.4,118.1,10.4,117.4,10.9z"/>
		<path class="st1" d="M129.6,18.5c-0.2,0.2-0.8,0.3-1.7,0.4v0.6h8v-0.6c-0.9-0.1-1.4-0.2-1.7-0.4c-0.3-0.2-0.4-0.8-0.4-1.7v-4.2
			l4.4-7.1c0.1-0.2,0.3-0.4,0.4-0.5c0,0,0.1-0.1,0.1-0.1c0.2-0.1,0.5-0.2,1-0.3V3.9h-1.1h-3.9v0.6c0.6,0,1.1,0.1,1.4,0.2
			c0.3,0.1,0.5,0.4,0.5,0.8c0,0.3-0.1,0.7-0.4,1.2c-0.2,0.3-0.3,0.6-0.5,0.9l-2.6,4.2l-2.8-5.3c-0.1-0.1-0.2-0.3-0.3-0.6
			c-0.2-0.3-0.2-0.5-0.2-0.7c0-0.3,0.1-0.6,0.3-0.6c0.2-0.1,0.7-0.1,1.5-0.1V3.9h-7.5H124v0.6c0.1,0,0.1,0,0.1,0
			c0.5,0,1,0.3,1.4,0.8c0.1,0.1,0.2,0.2,0.3,0.5l4.2,7.6v3.4C130.1,17.6,129.9,18.2,129.6,18.5z"/>
		<path class="st1" d="M60.7,25.5c0.4,0,0.7,0,0.8,0.1c0.2,0.1,0.3,0.2,0.3,0.4c0,0.2,0.1,0.5,0.1,0.9v4.6h0l-5.1-6.2h-2.3v0.2
			c0.4,0,0.7,0.1,0.9,0.2c0.1,0.1,0.2,0.2,0.3,0.3c0.1,0.1,0.2,0.2,0.4,0.4V32c0,0.4,0,0.7-0.1,0.9c0,0.2-0.1,0.3-0.3,0.4
			c-0.2,0.1-0.4,0.1-0.8,0.1v0.2h2.9v-0.2c-0.4,0-0.7,0-0.8-0.1c-0.2-0.1-0.3-0.2-0.3-0.4c0-0.2-0.1-0.5-0.1-0.9V27h0l5.4,6.7h0.2
			v-6.9c0-0.4,0-0.7,0-0.9c0-0.2,0.1-0.3,0.3-0.4c0.2-0.1,0.4-0.1,0.8-0.1v-0.2h-2.9V25.5z"/>
		<path class="st1" d="M144.3,28.8c-0.8-0.4-1.3-0.8-1.7-1c-0.3-0.2-0.5-0.6-0.5-0.9c0-0.2,0.1-0.5,0.2-0.7c0.1-0.2,0.3-0.4,0.5-0.5
			c0.2-0.1,0.5-0.2,0.7-0.2c0.4,0,0.8,0.1,1.2,0.3c0.2,0.1,0.3,0.2,0.5,0.4c0.1,0.1,0.2,0.3,0.3,0.5c0.1,0.2,0.2,0.4,0.2,0.6
			c0.1,0.2,0.1,0.4,0.1,0.6h0.2V25h-0.2c0,0.2-0.1,0.3-0.1,0.4c-0.1,0.1-0.2,0.1-0.3,0.1c0,0-0.1,0-0.2,0l-0.3-0.1l-0.3-0.1
			c-0.4-0.2-0.8-0.3-1.1-0.3c-0.4,0-0.8,0.1-1.2,0.3c-0.4,0.2-0.7,0.5-0.9,0.8c-0.2,0.3-0.3,0.7-0.3,1.1c0,0.6,0.2,1,0.6,1.4
			c0.4,0.4,1,0.8,1.7,1.2c0.7,0.4,1.3,0.8,1.6,1c0.3,0.3,0.5,0.6,0.5,1c0,0.4-0.2,0.8-0.5,1c-0.3,0.2-0.7,0.4-1.2,0.4
			c-0.3,0-0.6-0.1-1-0.2c-0.4-0.1-0.7-0.4-1-0.7c-0.2-0.2-0.3-0.4-0.4-0.6c-0.1-0.3-0.1-0.5-0.1-0.8h-0.2v2.9h0.2c0-0.1,0-0.1,0-0.2
			c0-0.1,0-0.1,0.1-0.1c0.1-0.1,0.1-0.1,0.3-0.1c0.2,0,0.5,0.1,0.9,0.2c0.4,0.2,0.9,0.3,1.3,0.3c0.4,0,0.7-0.1,1.1-0.2
			c0.3-0.1,0.6-0.3,0.8-0.5c0.2-0.2,0.4-0.5,0.5-0.8c0.1-0.3,0.2-0.6,0.2-0.9c0-0.6-0.2-1-0.6-1.4C145.7,29.6,145.1,29.2,144.3,28.8
			z"/>
		<path class="st1" d="M114.2,25.5c0.4,0,0.7,0,0.8,0.1c0.2,0.1,0.3,0.2,0.3,0.4c0,0.2,0.1,0.5,0.1,0.9V32c0,0.4,0,0.7-0.1,0.9
			c0,0.2-0.1,0.3-0.3,0.4c-0.2,0.1-0.4,0.1-0.8,0.1v0.2h3.5v-0.2c-0.4,0-0.7,0-0.8-0.1c-0.2-0.1-0.3-0.2-0.3-0.4
			c0-0.2-0.1-0.5-0.1-0.9v-5.1c0-0.4,0-0.7,0-0.9c0-0.2,0.1-0.3,0.3-0.4c0.2-0.1,0.4-0.1,0.8-0.1v-0.2h-3.5V25.5z"/>
		<path class="st1" d="M47.3,24.2c0.1-0.1,0.2-0.3,0.2-0.5c0-0.2-0.1-0.3-0.2-0.5c-0.1-0.1-0.3-0.2-0.5-0.2c-0.2,0-0.3,0.1-0.5,0.2
			c-0.1,0.1-0.2,0.3-0.2,0.5c0,0.2,0.1,0.3,0.2,0.5c0.1,0.1,0.3,0.2,0.5,0.2C47,24.4,47.1,24.4,47.3,24.2z"/>
		<path class="st1" d="M152.4,26c0-0.2,0.1-0.3,0.3-0.4c0.2-0.1,0.4-0.1,0.8-0.1v-0.2H150v0.2c0.4,0,0.7,0,0.8,0.1
			c0.2,0.1,0.3,0.2,0.3,0.4c0,0.2,0.1,0.5,0.1,0.9V32c0,0.4,0,0.7-0.1,0.9c0,0.2-0.1,0.3-0.3,0.4c-0.2,0.1-0.4,0.1-0.8,0.1v0.2h3.5
			v-0.2c-0.4,0-0.7,0-0.8-0.1c-0.2-0.1-0.3-0.2-0.3-0.4c0-0.2-0.1-0.5-0.1-0.9v-5.1C152.3,26.4,152.3,26.1,152.4,26z"/>
		<path class="st1" d="M49.4,25.5c0.4,0,0.7,0,0.8,0.1c0.2,0.1,0.3,0.2,0.3,0.4c0,0.2,0.1,0.5,0.1,0.9v3.1c0,0.5,0,0.9-0.1,1.3
			c0,0.4-0.2,0.7-0.3,0.9c-0.2,0.3-0.5,0.6-0.9,0.8c-0.4,0.2-0.8,0.3-1.3,0.3c-0.4,0-0.8-0.1-1.2-0.3c-0.4-0.2-0.6-0.5-0.7-0.9
			c-0.1-0.4-0.2-1-0.2-1.8v-3.3c0-0.4,0-0.7,0-0.9c0-0.2,0.1-0.3,0.3-0.4c0.2-0.1,0.4-0.1,0.8-0.1v-0.2h-3.5v0.2
			c0.4,0,0.7,0,0.8,0.1c0.2,0.1,0.3,0.2,0.3,0.4c0,0.2,0.1,0.5,0.1,0.9v3.7c0,0.6,0.1,1.1,0.3,1.6c0.2,0.5,0.5,0.9,1,1.1
			c0.5,0.3,1.1,0.4,2,0.4c0.8,0,1.5-0.2,1.9-0.5c0.5-0.3,0.8-0.7,1-1.2c0.2-0.5,0.3-1,0.3-1.6v-3.7c0-0.4,0-0.7,0-0.9
			c0-0.2,0.1-0.3,0.3-0.4c0.2-0.1,0.4-0.1,0.8-0.1v-0.2h-2.9V25.5z"/>
		<path class="st1" d="M68.5,24.6c0.1-0.1,0.2-0.3,0.2-0.4c0-0.2-0.1-0.3-0.2-0.4c-0.1-0.1-0.3-0.2-0.4-0.2c-0.2,0-0.3,0.1-0.4,0.2
			c-0.1,0.1-0.2,0.3-0.2,0.4c0,0.2,0.1,0.3,0.2,0.4s0.3,0.2,0.4,0.2C68.2,24.8,68.4,24.7,68.5,24.6z"/>
		<path class="st1" d="M49.4,24.2c0.1-0.1,0.2-0.3,0.2-0.5c0-0.2-0.1-0.3-0.2-0.5c-0.1-0.1-0.3-0.2-0.5-0.2c-0.2,0-0.4,0.1-0.5,0.2
			c-0.1,0.1-0.2,0.3-0.2,0.5c0,0.2,0.1,0.3,0.2,0.5c0.1,0.1,0.3,0.2,0.5,0.2C49.1,24.4,49.3,24.4,49.4,24.2z"/>
		<path class="st1" d="M66.4,25.5c0.4,0,0.7,0,0.8,0.1c0.2,0.1,0.3,0.2,0.3,0.4c0,0.2,0.1,0.5,0.1,0.9V32c0,0.4,0,0.7-0.1,0.9
			c0,0.2-0.1,0.3-0.3,0.4c-0.2,0.1-0.4,0.1-0.8,0.1v0.2h3.5v-0.2c-0.4,0-0.7,0-0.8-0.1c-0.2-0.1-0.3-0.2-0.3-0.4
			c0-0.2-0.1-0.5-0.1-0.9v-5.1c0-0.4,0-0.7,0-0.9c0-0.2,0.1-0.3,0.3-0.4c0.2-0.1,0.4-0.1,0.8-0.1v-0.2h-3.5V25.5z"/>
		<path class="st1" d="M151.2,23.7c-0.1,0.1-0.2,0.3-0.2,0.4c0,0.2,0.1,0.3,0.2,0.4c0.1,0.1,0.3,0.2,0.4,0.2c0.2,0,0.3-0.1,0.4-0.2
			c0.1-0.1,0.2-0.3,0.2-0.4c0-0.2-0.1-0.3-0.2-0.4c-0.1-0.1-0.3-0.2-0.4-0.2C151.5,23.5,151.3,23.6,151.2,23.7z"/>
		<path class="st1" d="M100.9,32.6c-0.2-0.2-0.4-0.5-0.6-0.8l-1.6-2.3c0.6-0.1,1.1-0.4,1.5-0.7c0.4-0.4,0.6-0.8,0.6-1.4
			c0-0.3-0.1-0.6-0.2-0.9c-0.2-0.3-0.4-0.6-0.9-0.8c-0.4-0.2-1-0.3-1.7-0.4c0,0-0.1,0-0.1,0h-3.6v0.2c0.4,0,0.7,0,0.8,0.1
			c0.2,0.1,0.3,0.2,0.3,0.4c0,0.2,0.1,0.5,0.1,0.9V32c0,0.4,0,0.7-0.1,0.9c0,0.2-0.1,0.3-0.3,0.4c-0.2,0.1-0.4,0.1-0.8,0.1v0.2h3.5
			v-0.2c-0.4,0-0.7,0-0.8-0.1c-0.2-0.1-0.3-0.2-0.3-0.4c0-0.2-0.1-0.5-0.1-0.9v-2.3h0.9l0.5,0.7l2.3,3.2h2.2v-0.2
			c-0.4,0-0.7-0.1-0.9-0.3C101.2,32.9,101,32.8,100.9,32.6z M97.9,29.1c-0.3,0.1-0.7,0.1-1.1,0.1h-0.3v-3.5c0.4-0.1,0.8-0.1,1-0.1
			c0.1,0,0.2,0,0.3,0c0.4,0.1,0.7,0.2,0.9,0.5c0.3,0.3,0.5,0.8,0.5,1.3c0,0.4-0.1,0.8-0.3,1.1c-0.2,0.3-0.5,0.5-0.9,0.6
			C98,29.1,97.9,29.1,97.9,29.1z"/>
		<path class="st1" d="M108.6,28.8c-0.8-0.4-1.3-0.8-1.7-1c-0.3-0.2-0.5-0.6-0.5-0.9c0-0.2,0.1-0.5,0.2-0.7c0.1-0.2,0.3-0.4,0.5-0.5
			c0.2-0.1,0.5-0.2,0.7-0.2c0.4,0,0.8,0.1,1.2,0.3c0.2,0.1,0.3,0.2,0.5,0.4c0.1,0.1,0.2,0.3,0.3,0.5c0.1,0.2,0.2,0.4,0.2,0.6
			c0.1,0.2,0.1,0.4,0.1,0.6h0.2V25h-0.2c0,0.2-0.1,0.3-0.1,0.4c-0.1,0.1-0.2,0.1-0.3,0.1c0,0-0.1,0-0.2,0l-0.3-0.1l-0.3-0.1
			c-0.4-0.2-0.8-0.3-1.1-0.3c-0.4,0-0.8,0.1-1.2,0.3c-0.4,0.2-0.7,0.5-0.9,0.8c-0.2,0.3-0.3,0.7-0.3,1.1c0,0.6,0.2,1,0.6,1.4
			c0.4,0.4,1,0.8,1.7,1.2c0.7,0.4,1.3,0.8,1.6,1c0.3,0.3,0.5,0.6,0.5,1c0,0.4-0.2,0.8-0.5,1c-0.3,0.2-0.7,0.4-1.2,0.4
			c-0.3,0-0.6-0.1-1-0.2c-0.4-0.1-0.7-0.4-1-0.7c-0.2-0.2-0.3-0.4-0.4-0.6c-0.1-0.3-0.1-0.5-0.1-0.8h-0.2v2.9h0.2c0-0.1,0-0.1,0-0.2
			c0-0.1,0-0.1,0.1-0.1c0.1-0.1,0.1-0.1,0.3-0.1c0.2,0,0.5,0.1,0.9,0.2c0.4,0.2,0.9,0.3,1.3,0.3c0.4,0,0.7-0.1,1.1-0.2
			c0.3-0.1,0.6-0.3,0.8-0.5c0.2-0.2,0.4-0.5,0.5-0.8c0.1-0.3,0.2-0.6,0.2-0.9c0-0.6-0.2-1-0.6-1.4C110,29.6,109.4,29.2,108.6,28.8z"
			/>
		<path class="st1" d="M120.9,25.2l-0.1,1.9h0.2c0-0.4,0.2-0.8,0.4-1c0.2-0.2,0.6-0.4,1-0.4h1.2V32c0,0.4,0,0.7-0.1,0.9
			c0,0.2-0.1,0.3-0.3,0.4c-0.2,0.1-0.4,0.1-0.8,0.1v0.2h3.5v-0.2c-0.4,0-0.7,0-0.8-0.1c-0.2-0.1-0.3-0.2-0.3-0.4
			c0-0.2-0.1-0.5-0.1-0.9v-6.2h1.3c0.4,0,0.8,0.1,1,0.4c0.2,0.2,0.4,0.6,0.4,1h0.2l-0.1-1.9H120.9z"/>
		<path class="st1" d="M116.4,24.6c0.1-0.1,0.2-0.3,0.2-0.4c0-0.2-0.1-0.3-0.2-0.4c-0.1-0.1-0.3-0.2-0.4-0.2c-0.2,0-0.3,0.1-0.4,0.2
			c-0.1,0.1-0.2,0.3-0.2,0.4c0,0.2,0.1,0.3,0.2,0.4s0.3,0.2,0.4,0.2C116.1,24.8,116.2,24.7,116.4,24.6z"/>
		<path class="st1" d="M90.5,32.4c-0.2,0.2-0.4,0.4-0.6,0.5c-0.2,0.1-0.5,0.2-0.9,0.2h-1.7c-0.3,0-0.4,0-0.5-0.1
			c-0.1-0.1-0.1-0.3-0.1-0.5v-3h1.7c0.4,0,0.6,0,0.8,0.1c0.2,0.1,0.3,0.2,0.4,0.3c0.1,0.1,0.1,0.2,0.1,0.4c0,0.1,0,0.3,0,0.5h0.2
			v-2.9h-0.2c0,0.2,0,0.3,0,0.5c0,0.1-0.1,0.2-0.1,0.4c-0.1,0.2-0.2,0.3-0.4,0.3c-0.2,0-0.5,0.1-0.8,0.1h-1.7v-3.3h2.1
			c0.3,0,0.6,0,0.8,0c0.2,0,0.3,0.1,0.5,0.2c0.1,0.1,0.2,0.2,0.3,0.4c0.1,0.2,0.1,0.4,0.2,0.7h0.3l-0.1-1.8h-6.4v0.2
			c0.4,0,0.7,0,0.8,0.1c0.2,0.1,0.3,0.2,0.3,0.4c0,0.2,0.1,0.5,0.1,0.9V32c0,0.4,0,0.7-0.1,0.9c0,0.2-0.1,0.3-0.3,0.4
			c-0.2,0.1-0.4,0.1-0.8,0.1v0.2h6.4l0.7-2.1h-0.2C90.9,31.9,90.7,32.2,90.5,32.4z"/>
		<path class="st1" d="M136.9,32.4c-0.2,0.2-0.4,0.4-0.6,0.5c-0.2,0.1-0.5,0.2-0.9,0.2h-1.7c-0.3,0-0.4,0-0.5-0.1
			c-0.1-0.1-0.1-0.3-0.1-0.5v-3h1.7c0.4,0,0.6,0,0.8,0.1c0.2,0.1,0.3,0.2,0.4,0.3c0.1,0.1,0.1,0.2,0.1,0.4c0,0.1,0,0.3,0,0.5h0.2
			v-2.9h-0.2c0,0.2,0,0.3,0,0.5c0,0.1-0.1,0.2-0.1,0.4c-0.1,0.2-0.2,0.3-0.4,0.3c-0.2,0-0.5,0.1-0.8,0.1H133v-3.3h2.1
			c0.3,0,0.6,0,0.8,0c0.2,0,0.3,0.1,0.5,0.2c0.1,0.1,0.2,0.2,0.3,0.4c0.1,0.2,0.1,0.4,0.2,0.7h0.3l-0.1-1.8h-6.4v0.2
			c0.4,0,0.7,0,0.8,0.1c0.2,0.1,0.3,0.2,0.3,0.4c0,0.2,0.1,0.5,0.1,0.9V32c0,0.4,0,0.7-0.1,0.9c0,0.2-0.1,0.3-0.3,0.4
			c-0.2,0.1-0.4,0.1-0.8,0.1v0.2h6.4l0.7-2.1h-0.2C137.3,31.9,137.1,32.2,136.9,32.4z"/>
		<path class="st1" d="M79,25.5c0.1,0,0.2,0,0.3,0c0.1,0,0.2,0.1,0.3,0.1c0.2,0.1,0.3,0.3,0.3,0.5c0,0.1-0.1,0.5-0.3,1.1l-1.9,4.7
			l-2-4.7l-0.2-0.4c-0.1-0.1-0.1-0.3-0.2-0.4c0-0.1-0.1-0.2-0.1-0.3c0-0.2,0.1-0.4,0.2-0.4c0.2-0.1,0.4-0.1,0.7-0.1v-0.2h-3.4v0.2
			c0.1,0,0.3,0,0.4,0c0.1,0,0.2,0.1,0.3,0.1c0.2,0.1,0.3,0.2,0.4,0.3c0.1,0.1,0.2,0.4,0.3,0.7l3.1,7h0.2l2.8-7
			c0.2-0.4,0.3-0.7,0.5-0.9c0.2-0.2,0.4-0.4,0.8-0.4v-0.2H79V25.5z"/>
		<path class="st1" d="M27.5,26.4l1.3-1.5c2.3-2.7,2.9-3.1,0.2-4.4l-1.5-0.7l-1.7-0.8L25,18.5h0l-2.6-1.3l-0.3-0.1
			c-3-1.5-3.9-1.8-1.5-4.5l1.8-2.2l3.5-4.1l1.7-2l0.6-0.7c-0.2-0.1-0.4-0.1-0.6-0.1c-0.3,0-0.5-0.1-0.8-0.1l-0.9,1l-3.5,4L19.3,12
			c-2.3,2.7-2.9,3.1-0.2,4.4l3.3,1.6l0.8,0.4h0l2.7,1.3l0.2,0.1c0.6,0.3,1.1,0.5,1.5,0.7c1.8,0.9,2,1.5,0.1,3.8l-0.1,0.1l-1.7,2
			l-3.5,4.1l-1.5,1.8c0.3,0.2,0.7,0.4,1,0.5l0.5-0.6l3.5-4L27.5,26.4z"/>
		<path class="st1" d="M25.4,24.8c0.1-0.2,0.3-0.3,0.4-0.5c1.9-2.2,2.3-2.7,0-3.9c-0.1,0-0.1-0.1-0.2-0.1l-3.3-1.6l-0.8-0.4h0
			L18.7,17c-3-1.5-3.9-1.8-1.6-4.5l5.3-6.3l2.3-2.8c-0.8,0.1-1.6,0.3-2.3,0.6c-5,1.9-8.7,7.7-8.7,14.6c0,5.5,2.4,10.4,5.9,13.1
			l2.8-3.2L25.4,24.8z"/>
		<path class="st1" d="M32.3,25.1c2.4-2.7,2.9-3.1,0.2-4.4l-4-2h0l-0.9-0.5l-1.7-0.8l-0.3-0.1c-3-1.5-3.8-1.8-1.5-4.5l1.8-2.1l1.7-2
			l3.4-3.9c-0.4-0.2-0.8-0.4-1.2-0.6l-2.2,2.5l-1.7,2l-3.1,3.5c-0.1,0.2-0.3,0.3-0.4,0.4c-2,2.2-2.4,2.7,0,3.9
			c0.1,0,0.1,0.1,0.2,0.1l3.3,1.6l0.8,0.4h0l0.9,0.5l1.9,1c3,1.5,3.9,1.8,1.5,4.5l-3.5,4.1l-1.7,2l-2.4,2.9c0.4,0.1,0.9,0.2,1.3,0.2
			l1.1-1.3l1.7-1.9L32.3,25.1z"/>
		<path class="st1" d="M32.2,5.6l-4.6,5.3l-1.3,1.4c-0.2,0.2-0.3,0.3-0.4,0.5c-1.9,2.2-2.3,2.7,0,3.8c0.1,0,0.1,0.1,0.2,0.1l1.5,0.7
			l2.5,1.2h0l2.9,1.4c3,1.5,3.8,1.8,1.5,4.5l-6.9,8.1l-0.8,1c0.3,0,0.6-0.1,0.8-0.1c5.9-1.1,10.4-7.4,10.4-15
			C37.9,13,35.6,8.2,32.2,5.6z"/>
		<path class="st1" d="M25.8,0.6L25.8,0.6c-8.4,0-14.9,7.7-14.9,17.8c0,10.2,6.5,18,14.9,18h0c8.4,0,14.9-7.8,14.9-18
			C40.7,8.3,34.2,0.6,25.8,0.6z M25.8,35.2L25.8,35.2c-7.7,0-13.6-7.2-13.6-16.7c0-9.5,5.9-16.6,13.6-16.6h0c7.7,0,13.6,7,13.6,16.6
			C39.4,28,33.5,35.2,25.8,35.2z"/>
	</g>
</g>
</svg>
