<?xml version="1.0" encoding="UTF-8"?>
<svg id="katman_2" xmlns="http://www.w3.org/2000/svg" viewBox="0 0 326.13 110.08">
  <defs>
    <style>
      .cls-1 {
        fill: #9ffd71;
      }
    </style>
  </defs>
  <g id="katman_1">
    <g>
      <path class="cls-1" d="M134.65,14.18c.02.19.04.39.08.58.03.19.06.39.1.58.04.19.08.38.13.57.05.19.1.38.16.57.06.18.12.37.19.56.06.18.14.37.21.55.08.18.16.36.24.54.08.18.17.36.26.53.09.17.19.34.29.51.1.17.2.33.31.5.11.16.22.32.34.48.12.16.24.31.36.46.12.15.26.3.38.45.13.14.27.29.41.43.14.14.28.28.43.41.14.13.3.26.45.38.15.12.31.25.46.36.16.12.32.23.48.34.16.11.33.21.5.31s.34.2.51.29.35.18.52.26c.18.08.36.16.54.24.18.08.36.14.55.21.18.06.37.13.56.18.18.06.38.11.56.16.19.05.38.09.57.13.19.04.39.07.58.1.2.03.39.05.59.07.19.02.39.04.59.04.2.01.4.02.59.02s.4,0,.59-.02c.19,0,.39-.02.59-.04.19-.02.39-.04.58-.07.19-.03.39-.06.58-.1.19-.04.38-.08.57-.13.19-.05.38-.1.57-.16.18-.06.37-.12.56-.18.18-.07.37-.14.55-.21.18-.08.36-.16.54-.24.18-.08.36-.17.53-.26.17-.09.34-.19.51-.29s.33-.2.5-.31.32-.22.48-.34c.16-.12.32-.24.47-.36s.3-.25.45-.38c.14-.13.29-.27.43-.41.14-.14.28-.28.41-.43.13-.14.26-.3.38-.45.12-.15.24-.31.36-.46.12-.16.23-.32.34-.48.11-.16.21-.33.31-.5.1-.17.2-.34.29-.51.09-.17.18-.35.26-.53.08-.18.16-.36.24-.54.07-.18.14-.36.21-.55.06-.18.13-.37.18-.56.06-.19.11-.38.16-.57.05-.19.09-.38.13-.57s.07-.39.1-.58c.03-.19.05-.39.07-.58.02-.2.04-.39.04-.59.01-.2.02-.4.02-.59s0-.4-.02-.59c0-.2-.02-.39-.04-.59-.02-.2-.04-.39-.07-.58-.03-.2-.06-.39-.1-.58s-.08-.38-.13-.58c-.05-.19-.1-.38-.16-.56-.06-.19-.12-.38-.18-.56-.07-.18-.14-.37-.21-.55-.08-.18-.16-.36-.24-.54-.08-.18-.17-.35-.26-.52-.09-.17-.19-.34-.29-.51s-.2-.34-.31-.5c-.11-.16-.22-.33-.34-.48-.12-.16-.24-.32-.36-.46-.12-.15-.25-.3-.38-.45-.13-.15-.27-.29-.41-.43-.14-.14-.28-.28-.43-.41-.15-.13-.3-.26-.45-.39s-.31-.24-.47-.36c-.16-.12-.32-.23-.48-.34s-.33-.22-.5-.32-.34-.2-.51-.29c-.17-.09-.35-.18-.53-.26-.18-.08-.36-.16-.54-.24-.18-.08-.36-.15-.55-.21-.18-.07-.37-.13-.56-.18-.19-.06-.38-.11-.57-.16-.19-.05-.38-.09-.57-.13-.19-.04-.39-.08-.58-.1-.19-.03-.39-.05-.58-.07-.2-.02-.4-.04-.59-.04-.39-.02-.79-.02-1.18,0-.2,0-.4.02-.59.04-.2.02-.39.04-.59.07-.19.03-.39.06-.58.1-.19.04-.38.08-.57.13-.19.05-.38.1-.56.16-.19.06-.38.12-.56.18-.18.06-.37.14-.55.21-.18.07-.36.15-.54.24-.18.08-.35.17-.52.26s-.34.19-.51.29-.34.21-.5.32c-.16.11-.32.22-.48.34-.16.12-.32.24-.46.36-.15.12-.3.26-.45.39-.15.13-.29.27-.43.41-.14.14-.28.28-.41.43-.13.14-.26.3-.38.45-.12.15-.24.31-.36.46-.12.16-.23.32-.34.48-.11.16-.21.33-.31.5s-.2.34-.29.51c-.09.17-.18.35-.26.52-.08.18-.16.36-.24.54-.07.18-.14.36-.21.55-.07.18-.13.37-.19.56-.06.18-.11.38-.16.56-.05.19-.09.38-.13.58-.04.19-.07.38-.1.58-.03.19-.06.39-.08.58-.02.2-.03.39-.04.59,0,.2-.01.4-.01.59s0,.4.01.59c.01.2.02.39.04.59Z"/>
      <g>
        <path d="M158.84,49.74L104,3.72c-5.08-4.26-12.66-3.6-16.92,1.48-4.26,5.08-3.6,12.66,1.48,16.92l16.46,13.81-16.46,13.81c-5.08,4.26-5.74,11.84-1.48,16.92,2.38,2.83,5.78,4.29,9.21,4.29,2.72,0,5.46-.92,7.71-2.81l19.7-16.53,19.7,16.53c2.25,1.89,4.99,2.81,7.71,2.81,3.43,0,6.83-1.46,9.21-4.29,4.26-5.08,3.6-12.66-1.48-16.92Z"/>
        <path d="M295.2.6h-16.59c-4,0-7.83.77-11.34,2.16-2.07-1.68-4.7-2.69-7.58-2.69-6.63,0-12.01,5.38-12.01,12.01v47.46c0,6.63,5.38,12.01,12.01,12.01s12.01-5.38,12.01-12.01v-28.01c0-3.81,3.1-6.91,6.91-6.91h16.59c3.81,0,6.91,3.1,6.91,6.91v28.01c0,6.63,5.38,12.01,12.01,12.01s12.01-5.38,12.01-12.01v-28.01c0-17.05-13.87-30.93-30.93-30.93Z"/>
        <path d="M231.77,12.61c-6.63,0-12.01,5.38-12.01,12.01v16c0,3.81-3.1,6.91-6.91,6.91h-16.59c-3.81,0-6.91-3.1-6.91-6.91V12.61c0-6.63-5.38-12.01-12.01-12.01s-12.01,5.38-12.01,12.01v28.01c0,17.05,13.87,30.93,30.93,30.93h14.96c.54.07,1.09.11,1.64.11h-.01c3.81,0,6.91,3.1,6.91,6.91v.58c0,3.81-3.1,6.91-6.91,6.91h-11.59c-6.63,0-12.01,5.38-12.01,12.01s5.38,12.01,12.01,12.01h11.59c17.05,0,30.93-13.87,30.93-30.93v-.58c0-7.15-2.44-13.73-6.53-18.98,4.09-5.24,6.53-11.83,6.53-18.98v-16c0-6.63-5.38-12.01-12.01-12.01Z"/>
        <path d="M321.34,4.8h.03l1.19,1.71h1.23l-1.3-1.77c.24-.06.45-.15.62-.29.27-.23.41-.54.41-.92s-.14-.68-.41-.92c-.27-.23-.62-.35-1.03-.35h-1.79v4.24h1.05v-1.71ZM321.92,3.09c.18,0,.32.04.41.13.09.08.14.2.14.34,0,.16-.05.28-.14.36-.09.08-.23.13-.41.13h-.58v-.95h.58Z"/>
        <path d="M319.5,8.32c.66.4,1.41.59,2.27.59s1.61-.2,2.27-.59c.66-.4,1.17-.93,1.54-1.61.37-.67.55-1.43.55-2.26s-.19-1.55-.56-2.21c-.38-.66-.89-1.18-1.55-1.58-.66-.4-1.41-.59-2.27-.59s-1.61.19-2.27.57c-.66.38-1.17.91-1.54,1.57-.37.66-.56,1.41-.56,2.24s.19,1.58.56,2.26c.38.68.89,1.21,1.55,1.61ZM318.77,2.7c.29-.52.68-.93,1.2-1.24.51-.3,1.11-.46,1.78-.46s1.27.15,1.78.46c.51.31.92.71,1.22,1.23.3.51.45,1.09.45,1.74s-.15,1.26-.45,1.8c-.3.54-.7.96-1.21,1.27-.51.31-1.1.46-1.79.46s-1.25-.15-1.77-.46c-.52-.3-.92-.73-1.21-1.27-.29-.54-.43-1.14-.43-1.8s.14-1.21.43-1.73Z"/>
        <path d="M52.53,0h-28.28C10.86,0,0,10.86,0,24.25v18.36c0,16.32,13.23,29.54,29.54,29.54h28.28c13.39,0,24.25-10.86,24.25-24.25v-18.36c0-16.32-13.23-29.54-29.54-29.54ZM58.12,41c0,5.57-4.52,10.09-10.09,10.09h-11.77c-6.79,0-12.3-5.51-12.3-12.3v-7.64c0-5.57,4.52-10.09,10.09-10.09h11.77c6.79,0,12.3,5.51,12.3,12.3v7.64Z"/>
      </g>
    </g>
  </g>
</svg>