<svg width="253" height="36" viewBox="0 0 253 36" fill="none" xmlns="http://www.w3.org/2000/svg">
<path fill-rule="evenodd" clip-rule="evenodd" d="M79.7735 26.6868C75.9576 26.6868 72.9332 25.5129 70.6995 23.1647C68.5588 20.9252 67.4883 18.0543 67.4883 14.5537C67.4883 11.053 68.5588 8.1828 70.6995 5.94337C72.9332 3.59482 75.9576 2.4209 79.7735 2.4209C83.5886 2.4209 86.6138 3.59482 88.8471 5.94337C90.9878 8.1828 92.0583 11.053 92.0583 14.5537C92.0583 18.0543 90.9878 20.9252 88.8471 23.1647C86.6138 25.5129 83.5886 26.6868 79.7735 26.6868ZM79.7735 7.63931C77.8188 7.63931 76.3301 8.35633 75.3057 9.79215C74.422 11.0308 73.9801 12.6187 73.9801 14.5537C73.9801 16.4893 74.422 18.0761 75.3057 19.3155C76.3301 20.7506 77.8188 21.4684 79.7735 21.4684C81.7274 21.4684 83.2169 20.7506 84.2409 19.3155C85.125 18.0761 85.5665 16.4893 85.5665 14.5537C85.5665 12.6187 85.125 11.0308 84.2409 9.79215C83.2169 8.35633 81.7274 7.63931 79.7735 7.63931Z" fill="#758793"/>
<path fill-rule="evenodd" clip-rule="evenodd" d="M100.218 26.1H94V3.00586H106.452C108.874 3.00586 110.859 3.50212 112.405 4.49356C114.204 5.65818 115.104 7.32943 115.104 9.50768C115.104 10.8011 114.781 11.9543 114.136 12.9683C113.443 14.0678 112.474 14.8442 111.228 15.2968V15.3623C113.351 15.8363 114.55 17.6797 114.827 20.8927C114.897 21.7771 114.977 22.6612 115.069 23.545C115.231 24.9035 115.497 25.7551 115.866 26.1H109.424C109.101 25.6474 108.932 24.4184 108.77 22.4129C108.655 20.9252 108.413 19.8468 108.044 19.1785C107.467 18.1867 106.51 17.6908 105.171 17.6908H100.218V26.1ZM105.413 7.82497H100.218V13.0323H105.69C107.675 13.0323 108.667 12.1271 108.667 10.3156C108.667 8.65577 107.583 7.82497 105.413 7.82497Z" fill="#758793"/>
<path fill-rule="evenodd" clip-rule="evenodd" d="M172.232 9.41036H172.163L169.359 17.4968H174.966L172.232 9.41036ZM166.313 26.1007H159.703L168.944 3.00586H175.486L184.726 26.1007H178.012L176.489 21.9607H167.871L166.313 26.1007Z" fill="#758793"/>
<path d="M152.42 7.75496C152.103 7.5961 151.738 7.47123 151.34 7.38643C150.918 7.26192 150.363 7.23974 149.99 7.24296C147.955 7.20718 147.016 7.83117 146.995 9.03049C146.983 9.69241 147.633 10.2896 149.107 10.7848C150.711 11.1951 152.315 11.6159 153.919 12.0478C156.051 12.6395 157.667 13.3634 158.759 14.2239C160.242 15.3967 160.969 16.9402 160.936 18.8433C160.888 21.5568 159.734 23.5608 157.474 24.8382C155.622 25.9205 153.158 26.7531 150.093 26.6994C147.027 26.6457 144.333 25.6478 142.475 24.3487C141.283 23.5147 140.527 22.7032 139.987 21.247L139.949 21.145L145.414 19.2941L145.459 19.3611C146.721 21.2305 148.105 21.5654 148.715 21.7C149.249 21.8323 149.966 21.8928 150.551 21.9032C150.612 21.9043 150.674 21.9085 150.735 21.9064C151.698 21.871 152.518 21.5497 153.173 21.1976C153.961 20.8259 154.334 20.1826 154.375 19.4262C154.418 18.629 153.809 17.844 152.307 17.4229C150.723 16.991 149.129 16.5484 147.524 16.0951C145.348 15.4815 143.72 14.7577 142.651 13.919C141.145 12.7451 140.406 11.2023 140.439 9.29812C140.48 6.96066 141.614 5.17169 143.823 3.93981C145.701 2.89791 147.956 2.40309 150.583 2.44924C153.279 2.49647 155.516 3.12333 157.288 4.33803C158.24 4.98171 158.897 5.67117 159.4 6.55421L159.455 6.65188L154.406 9.14069L154.354 9.0652C153.897 8.40042 153.085 8.03368 152.42 7.75496Z" fill="#758793"/>
<path fill-rule="evenodd" clip-rule="evenodd" d="M132.226 3.00586H138.664V16.6789C138.664 20.0654 137.81 22.5779 136.102 24.2166C134.325 25.8771 131.591 26.7072 127.898 26.7072C124.206 26.7072 121.483 25.8878 119.729 24.2491C117.999 22.5886 117.133 20.0654 117.133 16.6789V3.00586H123.572V17.0349C123.572 20.0325 125.014 21.5317 127.898 21.5317C130.783 21.5317 132.226 20.0325 132.226 17.0349V3.00586Z" fill="#758793"/>
<path d="M0 17.3882L14.4162 31.8102L17.154 29.0519L0.00500908 11.9161L2.97434 8.94752L20.1445 26.1041L23.1049 23.1211L5.93328 5.98392L8.91478 2.98633L26.0888 20.1479L28.8235 17.4075L14.4244 3.0103H32.0246V26.9978C32.0246 29.2677 31.1033 31.1035 29.6131 32.5998C28.1161 34.0886 25.8921 34.9512 23.5607 35.0113L0 35.011V17.3882Z" fill="#EC6726"/>
<path fill-rule="evenodd" clip-rule="evenodd" d="M192.297 26.1159H186.238V3.01465H192.851L201.437 17.2512H201.506V3.01465H207.565V26.1159H200.952L192.367 11.7183H192.297V26.1159Z" fill="#758793"/>
<path fill-rule="evenodd" clip-rule="evenodd" d="M56.2623 15.9766H51.1054V21.2809H56.2623C58.5697 21.2809 59.7232 20.4182 59.7232 18.6937C59.7232 16.8822 58.5697 15.9766 56.2623 15.9766ZM56.5392 26.1003H44.668V3.00586H56.2275C62.1805 3.00586 65.157 4.9358 65.157 8.79603C65.157 10.8873 64.0725 12.4398 61.9039 13.4534C63.2188 13.7983 64.2571 14.4667 65.0185 15.4589C65.7799 16.4507 66.161 17.6042 66.161 18.9198C66.161 23.7071 62.9537 26.1003 56.5392 26.1003ZM56.0894 7.66361H51.1054V12.0949H56.0894C56.7585 12.0949 57.3353 11.9335 57.8194 11.6097C58.4194 11.2215 58.7196 10.6501 58.7196 9.89517C58.7196 8.40747 57.8426 7.66361 56.0894 7.66361Z" fill="#758793"/>
<path d="M237.118 23.9941C237.118 24.5133 236.765 24.835 236.215 24.835C235.655 24.835 235.312 24.5137 235.312 23.9941C235.312 23.4753 235.655 23.1533 236.215 23.1533C236.765 23.1533 237.118 23.4753 237.118 23.9941Z" fill="#758793"/>
<path d="M240.841 22.1786V24.7422H239.409V22.1786L236.98 17.8926H238.506L239.606 19.937L240.125 21.0168L240.654 19.937L241.755 17.8926H243.27L240.841 22.1786Z" fill="#758793"/>
<path d="M245.698 24.7416H244.266V17.8916H245.698V24.7416Z" fill="#758793"/>
<path d="M252.434 23.5895V24.7416H247.391V17.8916H248.823V23.5895H252.434Z" fill="#758793"/>
<path d="M228.94 15.9903C228.514 15.4522 227.983 14.9963 227.401 14.6672L227.288 14.6074L227.236 14.7194C226.982 15.2504 226.758 15.8407 226.548 16.5062C226.369 17.0894 226.234 17.7249 226.122 18.4498C226.025 19.0852 225.973 19.7507 225.973 20.4384C225.973 21.1261 226.025 21.7912 226.122 22.412C226.189 22.8753 226.279 23.324 226.391 23.7501L226.421 23.8771L226.548 23.8324C227.176 23.6227 227.774 23.2717 228.29 22.8231L228.342 22.7708L228.327 22.7032C228.283 22.5093 228.253 22.3071 228.215 22.1128C228.133 21.5221 228.096 20.969 228.096 20.4384C228.096 19.8999 228.133 19.3392 228.215 18.7635C228.32 18.1059 228.432 17.5903 228.582 17.1266C228.709 16.7231 228.828 16.4014 228.955 16.1102L228.985 16.0425L228.94 15.9903ZM227.856 20.4384C227.856 20.984 227.894 21.5372 227.983 22.1504C228.014 22.3297 228.043 22.5093 228.081 22.6882C227.632 23.0699 227.124 23.3687 226.593 23.563C226.496 23.1819 226.421 22.7855 226.361 22.3819C226.264 21.769 226.212 21.111 226.212 20.4384C226.212 19.7654 226.264 19.1077 226.361 18.4873C226.466 17.7696 226.601 17.1492 226.78 16.581C226.967 15.9681 227.169 15.4296 227.393 14.9437C227.886 15.2353 228.335 15.6239 228.709 16.0801C228.589 16.3642 228.477 16.6783 228.35 17.0519C228.2 17.5302 228.088 18.0612 227.983 18.7263C227.901 19.3171 227.856 19.8927 227.856 20.4384Z" fill="#758793"/>
<path d="M252.575 16.8198C252.208 15.4744 251.625 14.1961 250.855 13.0146C249.869 11.5122 248.553 10.1816 247.043 9.17264C246.198 8.59695 245.264 8.11858 244.284 7.75184C243.283 7.37079 242.199 7.10924 241.047 6.97435C239.934 6.83982 238.745 6.86237 237.549 7.02695C236.906 7.13178 236.308 7.2588 235.777 7.408C235.553 7.46811 235.329 7.55005 235.12 7.62483L234.903 7.69996C234.805 7.72966 234.701 7.77438 234.604 7.81195C234.551 7.83413 234.506 7.85667 234.462 7.8717C234.312 7.93145 234.178 7.98369 234.028 8.05131C233.191 8.42485 232.384 8.88819 231.643 9.41916L231.614 9.4417L231.599 9.47139C231.255 10.2564 230.761 10.9741 230.133 11.6171L230.036 11.714L230.148 11.7963C230.5 12.0504 230.799 12.3048 231.083 12.5738L231.165 12.6633L231.255 12.5738C232.264 11.4976 233.527 10.6002 234.903 9.99485C235.022 9.93509 235.142 9.8825 235.247 9.83778C235.381 9.78554 235.501 9.74081 235.62 9.69573C235.859 9.61344 236.106 9.52363 236.36 9.45636C236.794 9.32935 237.287 9.22487 237.856 9.13507C238.872 8.99302 239.874 8.97048 240.808 9.08283C241.825 9.20985 242.744 9.43382 243.545 9.74081C244.337 10.0396 245.122 10.4432 245.869 10.929C247.132 11.7888 248.246 12.9177 249.076 14.181C249.734 15.1678 250.22 16.2444 250.527 17.3879C250.691 17.9862 250.811 18.5915 250.87 19.1894H251.11C251.05 18.5694 250.93 17.9486 250.758 17.3207C250.444 16.1546 249.943 15.0555 249.271 14.054C248.426 12.7606 247.297 11.6096 245.996 10.7348C245.241 10.2338 244.442 9.82274 243.626 9.51647C242.819 9.20233 241.877 8.978 240.838 8.84347C239.881 8.73148 238.857 8.75366 237.826 8.90322C237.242 8.99303 236.741 9.0975 236.301 9.22488C236.032 9.29214 235.785 9.38946 235.538 9.47139C235.418 9.51648 235.291 9.5612 235.164 9.62095C235.052 9.65816 234.925 9.71076 234.798 9.77767C233.438 10.3834 232.181 11.2582 231.157 12.3194C230.926 12.103 230.679 11.8937 230.395 11.6843C230.993 11.0564 231.472 10.3534 231.808 9.59877C232.526 9.08283 233.31 8.63416 234.133 8.26813C234.275 8.20051 234.402 8.14828 234.544 8.09568C234.596 8.0735 234.641 8.05847 234.693 8.03629C234.783 7.99872 234.88 7.96151 234.978 7.93145L235.202 7.84916C235.411 7.77438 235.628 7.69996 235.837 7.63985C236.368 7.49029 236.951 7.36327 237.579 7.26631C238.76 7.10173 239.926 7.07919 241.025 7.21372C242.146 7.34825 243.215 7.60264 244.202 7.97618C245.166 8.33504 246.078 8.80626 246.916 9.37443C248.396 10.3684 249.689 11.6693 250.654 13.1495C251.416 14.308 251.984 15.5643 252.343 16.8874C252.552 17.642 252.687 18.3897 252.762 19.1894H253.001C252.934 18.3747 252.792 17.5976 252.575 16.8198ZM251.715 25.7531C251.423 26.4337 251.065 27.0913 250.654 27.7267C249.674 29.2141 248.381 30.5225 246.916 31.5018C246.063 32.0625 245.152 32.5333 244.202 32.8922C243.215 33.2661 242.146 33.5201 241.025 33.6546C240.539 33.7072 240.046 33.7369 239.545 33.7369C238.902 33.7369 238.244 33.6922 237.579 33.5949C236.951 33.4979 236.368 33.3781 235.837 33.221C235.665 33.1763 235.493 33.1165 235.321 33.0643C235.209 33.0192 235.09 32.982 234.978 32.9448L234.544 32.7798C234.439 32.7426 234.335 32.6904 234.23 32.6453L234.125 32.5931C231.853 31.5991 229.827 29.8946 228.436 27.794L228.406 27.7568C228.377 27.7042 228.339 27.6519 228.309 27.5993C228.81 27.4051 229.296 27.1585 229.782 26.8519C229.79 26.8594 229.797 26.8745 229.804 26.882C231.03 28.721 232.802 30.2234 234.798 31.0982C234.865 31.1279 234.932 31.158 235.007 31.188C235.059 31.2102 235.105 31.2327 235.164 31.2553C235.321 31.3075 235.426 31.3522 235.546 31.4048C235.62 31.427 235.688 31.4496 235.762 31.4717C235.934 31.5319 236.114 31.5916 236.293 31.6363C236.734 31.7709 237.22 31.8828 237.826 31.9727C238.872 32.1147 239.896 32.1297 240.838 32.0174C241.817 31.9054 242.76 31.6814 243.626 31.3598C244.457 31.0385 245.249 30.6198 245.996 30.134C247.275 29.2742 248.411 28.1303 249.271 26.8222C249.503 26.478 249.712 26.1195 249.899 25.7531H249.63C249.457 26.0748 249.271 26.3886 249.069 26.6948C248.224 27.9732 247.117 29.0946 245.869 29.9322C245.137 30.4177 244.352 30.8216 243.545 31.1354C242.692 31.4567 241.773 31.6735 240.808 31.7859C239.881 31.8904 238.887 31.8757 237.863 31.7412C237.265 31.6438 236.787 31.539 236.36 31.4048C236.181 31.3598 236.009 31.3075 235.837 31.2478C235.762 31.2252 235.695 31.2027 235.635 31.1805C235.523 31.1279 235.404 31.0832 235.254 31.0385C235.202 31.0159 235.149 30.9934 235.105 30.9712C235.03 30.9411 234.963 30.9111 234.895 30.8814C232.944 30.0216 231.202 28.5489 229.999 26.7399C229.976 26.7024 229.954 26.6651 229.932 26.6276L229.879 26.5081L229.767 26.5829C229.206 26.9417 228.661 27.2183 228.093 27.4276L227.973 27.4723L228.033 27.5922C228.077 27.6967 228.152 27.794 228.212 27.8838L228.235 27.9285C229.655 30.0592 231.711 31.7934 234.028 32.8099L234.133 32.855C234.237 32.9072 234.35 32.9594 234.462 33.0042L234.903 33.1763C235.015 33.206 235.134 33.251 235.247 33.2886C235.418 33.3484 235.598 33.4081 235.77 33.4528C236.308 33.6099 236.906 33.7369 237.549 33.8343C238.222 33.9312 238.895 33.9763 239.545 33.9763C240.053 33.9763 240.562 33.9462 241.047 33.894C242.191 33.752 243.283 33.4904 244.284 33.1165C245.249 32.7501 246.183 32.2718 247.043 31.7036C248.538 30.7021 249.854 29.3715 250.855 27.8613C251.296 27.1882 251.67 26.4855 251.977 25.7531H251.715Z" fill="#758793"/>
<path d="M228.507 11.834C230.294 10.6454 231.4 8.60456 231.4 6.45172C231.4 2.89311 228.507 0 224.941 0C221.383 0 218.49 2.89311 218.49 6.45172C218.49 8.60456 219.596 10.6454 221.383 11.834C218.64 13.1868 216.883 16.0052 216.883 19.0629C216.883 23.5106 220.501 27.1289 224.941 27.1289C229.389 27.1289 233.007 23.5106 233.007 19.0629C233.007 16.0052 231.251 13.1868 228.507 11.834ZM224.941 26.8896C220.628 26.8896 217.122 23.3761 217.122 19.0629C217.122 16.0202 218.909 13.2319 221.682 11.9535L221.884 11.8637L221.689 11.7442C219.865 10.6154 218.729 8.58954 218.729 6.45172C218.729 3.028 221.518 0.239363 224.941 0.239363C228.373 0.239363 231.161 3.028 231.161 6.45172C231.161 8.58954 230.025 10.6154 228.193 11.7442L228.006 11.8637L228.208 11.9535C230.982 13.2319 232.768 16.0202 232.768 19.0629C232.768 23.3761 229.262 26.8896 224.941 26.8896Z" fill="#EC6726"/>
<path d="M224.944 1.92188C222.447 1.92188 220.414 3.95521 220.414 6.45189C220.414 8.95609 222.447 10.9894 224.944 10.9894C227.448 10.9894 229.482 8.95609 229.482 6.45189C229.482 3.95521 227.448 1.92188 224.944 1.92188ZM224.944 10.7504C222.582 10.7504 220.653 8.82156 220.653 6.45189C220.653 4.08223 222.582 2.16088 224.944 2.16088C227.314 2.16088 229.243 4.08223 229.243 6.45189C229.243 8.82156 227.314 10.7504 224.944 10.7504Z" fill="#EC6726"/>
<path d="M224.942 12.918C221.556 12.918 218.805 15.6766 218.805 19.0627C218.805 22.4492 221.556 25.2078 224.942 25.2078C228.336 25.2078 231.087 22.4492 231.087 19.0627C231.087 15.6766 228.336 12.918 224.942 12.918ZM224.942 24.9684C221.69 24.9684 219.044 22.3222 219.044 19.0627C219.044 15.8111 221.69 13.157 224.942 13.157C228.201 13.157 230.848 15.8111 230.848 19.0627C230.848 22.3222 228.201 24.9684 224.942 24.9684Z" fill="#EC6726"/>
<path d="M228.467 17.0895C228.572 16.7453 228.699 16.4014 228.841 16.0651C228.43 15.542 227.921 15.0933 227.339 14.772C227.069 15.3402 226.853 15.9381 226.658 16.5438C226.471 17.1642 226.337 17.8143 226.239 18.4648C226.135 19.1224 226.09 19.7804 226.09 20.4384C226.09 21.096 226.135 21.754 226.239 22.397C226.307 22.8456 226.396 23.2864 226.508 23.7201C227.137 23.5108 227.72 23.1669 228.205 22.7333C228.161 22.5315 228.131 22.3297 228.093 22.1275C228.019 21.5597 227.974 21.0062 227.974 20.4384C227.974 19.8699 228.019 19.3021 228.093 18.7489C228.183 18.1807 228.295 17.6201 228.467 17.0895ZM252.449 16.8576C252.15 15.7438 251.626 14.4207 250.744 13.0825C249.869 11.7369 248.621 10.3765 246.977 9.2774C246.147 8.71674 245.235 8.23836 244.233 7.86447C243.231 7.48342 242.155 7.22903 241.026 7.0945C239.905 6.95997 238.739 6.98251 237.557 7.14674C236.982 7.23655 236.376 7.36356 235.801 7.52814C235.509 7.60292 235.218 7.71491 234.933 7.81975C234.784 7.86447 234.642 7.93174 234.5 7.98397C234.351 8.03657 234.216 8.09596 234.074 8.16359C233.251 8.52961 232.452 8.98579 231.704 9.51676C231.345 10.3315 230.837 11.0642 230.209 11.6993C230.545 11.9462 230.859 12.2002 231.158 12.4918C232.205 11.378 233.483 10.4885 234.844 9.8903C234.956 9.83055 235.075 9.77795 235.195 9.73358C235.33 9.67347 235.457 9.62875 235.576 9.58403C235.823 9.49422 236.062 9.41193 236.324 9.34466C236.825 9.19511 237.333 9.09779 237.834 9.01585C238.851 8.87345 239.852 8.85126 240.817 8.96325C241.789 9.08311 242.723 9.29994 243.575 9.62875C244.435 9.95041 245.212 10.3687 245.93 10.8324C247.343 11.7891 248.412 12.9552 249.167 14.114C249.937 15.2651 250.378 16.4014 250.632 17.3585C250.834 18.0834 250.939 18.6967 250.984 19.1897H252.875C252.822 18.5993 252.718 17.7922 252.449 16.8576ZM249.758 25.7534C249.593 26.0822 249.391 26.4189 249.167 26.7628C248.412 27.9063 247.343 29.0873 245.93 30.0294C245.212 30.5003 244.435 30.9114 243.575 31.248C242.723 31.5693 241.789 31.7937 240.817 31.9057C239.852 32.0105 238.851 31.988 237.834 31.861C237.333 31.7787 236.825 31.6817 236.324 31.5246C236.062 31.457 235.823 31.3675 235.576 31.2928C235.457 31.233 235.33 31.1883 235.195 31.1432C235.075 31.091 234.956 31.0463 234.844 30.9861C232.893 30.1342 231.136 28.6766 229.902 26.815C229.865 26.7703 229.843 26.7252 229.82 26.6805C229.29 27.0243 228.729 27.3159 228.131 27.5402C228.183 27.6522 228.266 27.7642 228.333 27.8615C229.768 30.0219 231.816 31.7114 234.074 32.7057C234.216 32.773 234.351 32.8402 234.5 32.8925L234.933 33.057C235.218 33.1469 235.509 33.2588 235.801 33.3408C236.376 33.5057 236.982 33.6252 237.557 33.7147C238.739 33.8868 239.905 33.9014 241.026 33.7744C242.155 33.6403 243.231 33.3859 244.233 33.0045C245.235 32.6234 246.147 32.145 246.977 31.5994C248.621 30.5003 249.869 29.1324 250.744 27.7943C251.2 27.0991 251.559 26.411 251.836 25.7534H249.758Z" fill="#758793"/>
<path d="M228.262 11.8493C230.131 10.6983 231.282 8.64239 231.282 6.45234C231.282 2.96099 228.441 0.120117 224.943 0.120117C221.452 0.120117 218.611 2.96099 218.611 6.45234C218.611 8.64239 219.763 10.6983 221.631 11.8493C218.813 13.1424 217.004 15.9607 217.004 19.0631C217.004 23.4439 220.57 27.0097 224.943 27.0097C229.323 27.0097 232.89 23.4439 232.89 19.0631C232.89 15.9607 231.08 13.1424 228.262 11.8493ZM224.943 25.0887C221.624 25.0887 218.925 22.3899 218.925 19.0631C218.925 15.7442 221.624 13.0379 224.943 13.0379C228.27 13.0379 230.968 15.7442 230.968 19.0631C230.968 22.3899 228.27 25.0887 224.943 25.0887ZM224.943 2.04147C227.38 2.04147 229.361 4.02257 229.361 6.45234C229.361 8.88891 227.38 10.87 224.943 10.87C222.514 10.87 220.532 8.88891 220.532 6.45234C220.532 4.02257 222.514 2.04147 224.943 2.04147Z" fill="#EC6726"/>
</svg>
