<?xml version="1.0" encoding="utf-8"?>
<!-- Generator: Adobe Illustrator 16.0.3, SVG Export Plug-In . SVG Version: 6.00 Build 0)  -->
<!DOCTYPE svg PUBLIC "-//W3C//DTD SVG 1.1//EN" "http://www.w3.org/Graphics/SVG/1.1/DTD/svg11.dtd">
<svg version="1.1" id="katman_1" xmlns="http://www.w3.org/2000/svg" xmlns:xlink="http://www.w3.org/1999/xlink" x="0px" y="0px"
	 width="500px" height="115.58px" viewBox="0 0 500 115.58" enable-background="new 0 0 500 115.58" xml:space="preserve">
<g>
	<polygon fill="#1E1E1C" points="212.518,40.877 194.944,40.877 194.944,52.835 210.286,52.835 210.286,61.121 194.944,61.121 
		194.944,73.871 213.742,73.871 213.742,82.371 183.131,82.371 183.131,32.449 213.742,32.449 	"/>
	<g>
		<defs>
			<rect id="SVGID_1_" y="0.002" width="500" height="115.576"/>
		</defs>
		<clipPath id="SVGID_2_">
			<use xlink:href="#SVGID_1_"  overflow="visible"/>
		</clipPath>
		<path clip-path="url(#SVGID_2_)" fill="#1E1E1C" d="M243.641,43.544l-1.802,11.02c-1.226-0.287-2.155-0.501-3.456-0.501
			c-4.683,0-6.695,3.457-7.92,9.22v19.088h-11.381v-38.25h9.937l0.935,7.347c1.734-5.262,5.479-8.429,9.873-8.429
			C241.267,43.04,242.416,43.184,243.641,43.544"/>
		<path clip-path="url(#SVGID_2_)" fill="#1E1E1C" d="M273.679,82.445c-3.03,9.65-9.511,15.266-21.538,15.916l-1.223-7.996
			c7.488-0.936,10.23-3.092,12.315-7.994h-3.893l-11.663-38.254h12.097l6.846,30.981l7.492-30.981h11.736L273.679,82.445z"/>
		<path clip-path="url(#SVGID_2_)" fill="#1E1E1C" d="M308.176,71.857v-6.844h-2.806c-5.188,0-7.706,1.797-7.706,5.615
			c0,3.027,1.66,4.83,4.46,4.83C304.722,75.459,306.807,74.09,308.176,71.857 M321.934,75.959l-2.377,7.42
			c-4.463-0.361-7.416-1.723-9.219-5.471c-2.736,4.172-6.979,5.686-11.524,5.686c-7.63,0-12.458-4.969-12.458-11.955
			c0-8.355,6.338-12.896,17.939-12.896h3.881v-1.655c0-4.543-1.798-5.913-6.479-5.913c-2.449,0-6.197,0.727-10.012,2.022
			l-2.591-7.49c4.822-1.805,10.083-2.816,14.4-2.816c11.093,0,15.843,4.687,15.843,13.544v14.844
			C319.337,74.23,320.137,75.313,321.934,75.959"/>
		<path clip-path="url(#SVGID_2_)" fill="#1E1E1C" d="M350.893,63.283c0-9.51-2.305-12.034-6.265-12.034
			c-2.452,0-4.755,1.659-6.418,4.468v16.137c1.583,2.309,3.465,3.385,5.837,3.385C348.296,75.238,350.893,71.854,350.893,63.283
			 M362.701,63.137c0,11.814-5.762,20.457-15.194,20.457c-3.747,0-6.914-1.295-9.297-4.029v17.578l-11.375,1.219v-54.24h10.012
			l0.574,4.249c3.172-3.966,7.274-5.474,10.807-5.474C358.307,42.896,362.701,50.745,362.701,63.137"/>
		<path clip-path="url(#SVGID_2_)" fill="#1E1E1C" d="M403.333,38.264l-2.586,2.665c-3.465-2.665-6.56-3.89-11.025-3.89
			c-7.78,0-15.984,5.983-15.984,21.61c0,15.13,6.118,21.972,15.843,21.972c4.034,0,7.269-0.863,10.367-2.586V60.523h-9.645
			l-0.508-3.6h14.4v23.342c-4.316,2.518-9.213,4.033-14.835,4.033c-12.028,0-20.164-8.574-20.164-25.649
			c0-16.929,10.158-25.287,20.452-25.287C395.557,33.363,399.299,35.021,403.333,38.264"/>
		<path clip-path="url(#SVGID_2_)" fill="#1E1E1C" d="M430.562,45.47l-0.788,3.958c-1.082-0.288-2.018-0.429-3.313-0.429
			c-5.263,0-8.142,3.817-10.086,11.596v22.91H412.2V45.828h3.601l0.36,8.426c2.018-6.189,5.397-9.217,10.653-9.217
			C428.259,45.036,429.554,45.18,430.562,45.47"/>
		<path clip-path="url(#SVGID_2_)" fill="#1E1E1C" d="M462.975,83.506h-3.601l-0.214-6.699c-2.665,4.467-6.479,7.488-12.316,7.488
			c-6.771,0-10.659-4.104-10.659-11.523V45.831h4.179v26.507c0,5.984,2.52,8.502,7.416,8.502c4.97,0,8.429-3.244,11.015-7.713
			V45.831h4.181V83.506z"/>
		<path clip-path="url(#SVGID_2_)" fill="#1E1E1C" d="M495.533,64.49c0-10.735-3.454-15.995-10.012-15.995
			c-4.823,0-7.989,2.882-10.586,6.485v20.03c2.304,3.525,5.686,5.762,9.938,5.762C491.792,80.771,495.533,75.291,495.533,64.49
			 M499.995,64.49c0,11.883-4.964,19.805-14.333,19.805c-4.75,0-8.349-2.154-10.727-5.184v18.59l-4.181,0.57V45.831h3.6l0.361,5.473
			c2.737-3.814,6.705-6.265,11.6-6.265C495.606,45.039,499.995,52.31,499.995,64.49"/>
		<polygon clip-path="url(#SVGID_2_)" fill="#E20E1F" points="0,68.666 0,87.711 99.464,115.578 99.464,82.502 		"/>
		<polygon clip-path="url(#SVGID_2_)" fill="#E20E1F" points="31.017,49.279 31.017,68.23 127.902,77.428 127.902,44.649 		"/>
		<polygon clip-path="url(#SVGID_2_)" fill="#E20E1F" points="61.964,23.673 61.964,42.722 156.432,34.758 156.432,0.002 		"/>
	</g>
</g>
</svg>
